<svg id="trace" xmlns="http://www.w3.org/2000/svg" viewBox="0 0 500 500"><defs><style>.cls-1{fill:#fff;stroke:#fff;stroke-miterlimit:10;stroke-width:0.65px;}</style></defs><title>meowshow-2</title><path class="cls-1" d="M247.41,168.29l4.65.91a146.78,146.78,0,0,0,3.68-16,37.31,37.31,0,0,1,2.21-7.51c2.07-5.47,4.28-10.88,6.49-16.3.68-1.67,1.56-3.26,2.32-4.9,1-2.26,3-3.62,4.91-5a74.54,74.54,0,0,1,6.7-4.36,25.35,25.35,0,0,1,4.4-2,115.88,115.88,0,0,1,11.34-3.74c3.09-.75,6.34-.76,9.12,1.39a11.66,11.66,0,0,1,3.63,5.74,1.92,1.92,0,0,1-1.6,2.48,2,2,0,0,0-1.41,1,14.87,14.87,0,0,1-7.08,5.46,43.74,43.74,0,0,1-10,2,38.34,38.34,0,0,1-8.2.19,29.87,29.87,0,0,1-7.51-2.18c-.91-.36-1.85-.63-2.91-1a20.55,20.55,0,0,0-1.42,2.33c-1.22,2.79-2.41,5.59-3.54,8.42-1.58,4-3.29,7.92-4.57,12a83.36,83.36,0,0,0-1.91,9.34c-.28,1.47-.38,3-.78,4.41a41,41,0,0,0-1.2,9.38c0,1.14,0,2.39-1.46,3.12l1.67,3.42,3.93-2.5c1.19-.76,2.51-1.07,3.68-.19s2.62,2,2.31,4.11a8.47,8.47,0,0,1-6.81,7.14c-2,.47-3.5-.4-5.15-1a1.73,1.73,0,0,1-1-1.87,2.74,2.74,0,0,1,.27-1.08,4.16,4.16,0,0,0-.28-4.43.49.49,0,0,1-.06-.18c-.5-2.6-2.15-3.75-4.71-3.8a2,2,0,0,1-2-1.89c-.29-1.84-.48-3.7-.68-5.55a8.68,8.68,0,0,0-.09-1.68c-1.3-4-.84-8-.49-12a20.19,20.19,0,0,0-1-8.11,24.6,24.6,0,0,1-.59-2.92,16.74,16.74,0,0,0-3.25-6.44c-.85-1.18-1.38-2.7-3-3.24-1.08.81-2.16,1.73-3.35,2.48a9.85,9.85,0,0,1-3,1.4,14.58,14.58,0,0,1-3.29,0c-.61,0-1.21-.05-1.82,0q-7.27.24-14.53.51c-.49,0-1,.23-1.46.22-1.5,0-3,0-4-1.52a3.83,3.83,0,0,1,.49-4.49,14.28,14.28,0,0,1,4.54-4.38,12.65,12.65,0,0,1,3.13-1c1.5-.32,3.12.15,4.54-.75a.76.76,0,0,1,.55-.06c2.39.63,4.84.08,7.24.3a48.93,48.93,0,0,1,6.63,1,11.9,11.9,0,0,1,6.07,3.85,29.59,29.59,0,0,1,6,9.37c1.44,3.82,2.68,7.75,2.4,12-.17,2.66-.25,5.33-.3,8a9.45,9.45,0,0,0,.67,3.64,16.08,16.08,0,0,1,.57,3.84C247.25,166.43,247.32,167.36,247.41,168.29ZM290,124.68a2.47,2.47,0,0,0,.58.2c5-.24,8.63-2.78,11.3-6.87a15.75,15.75,0,0,0,1.11-1.68,2.22,2.22,0,0,0,.32-1.52c-.83-1.9-2.15-3.45-4.29-3.78a16.11,16.11,0,0,0-10.35,1.79Zm-19.76-2.54c2.34,3,12.46,4.85,16.53,3.14L285.52,114C279.75,115.15,274.86,118.24,270.25,122.13Zm-50.74,4.13c.29,1.79.48,3.2.75,4.59s.65,1.8,2.18,1.62a19.47,19.47,0,0,1,4.83,0,6.73,6.73,0,0,0,4.74-1.39c.77-.52,1.57-1.16,1.43-2.25s-1.14-1-1.81-1.43a2.62,2.62,0,0,0-.89-.29c-1.9-.33-3.78-.77-5.7-.92C223.33,126,221.59,126.21,219.51,126.26Zm-2.45,6.68c-.16-1.83-.23-3.25-.42-4.65-.13-.93-.69-1.85-1.66-1.71-1.8.26-3.81.07-5.22,1.6-1.08,1.18-2.09,2.43-3.06,3.57.42,1.24,1.33,1.16,2.1,1.17C211.46,133,214.13,132.94,217.06,132.94Z"/><path class="cls-1" d="M276.44,232.11a17.21,17.21,0,0,0,.17-2.1,13.9,13.9,0,0,1,1.8-7c.41-.83.67-1.75,1.1-2.57.31-.59.75-1.23,1.6-.94a1.62,1.62,0,0,1,.85,2,5.17,5.17,0,0,1-.72,1.51c-2.43,3.34-2.47,7.09-1.79,10.91.23,1.27,1.49,1.67,2.55,2.33.36-1.66.66-3.16,1-4.65.74-3.08,1.51-6.16,2.28-9.23.23-.93.86-1.28,1.66-1a1.55,1.55,0,0,1,.92,1.94c-.74,2.43-1.49,4.87-2.19,7.32a26.7,26.7,0,0,0-1,4,4.61,4.61,0,0,0,1.34,3.68,1.8,1.8,0,0,0,.44.35c2.26,1.3,1.8,1.75,3.85-.57,3-3.36,4.52-7.4,5.88-11.56,1-3.08,2-6.17,3-9.27a3.28,3.28,0,0,1,3.52-2.7,13.25,13.25,0,0,1,2.6.07,4.21,4.21,0,0,1,2.05,1.14,28.65,28.65,0,0,1,4.05,6,21.76,21.76,0,0,0,2.87,3.88c1.44,1.68,1.49,1.87,0,3.55-1.69.08-2.21-1.4-3-2.43-1.34-1.78-2.56-3.67-3.79-5.53-.57-.87-1-1.83-1.61-2.68a2.33,2.33,0,0,0-4.24.48,101.57,101.57,0,0,0-3.44,10.07,28.6,28.6,0,0,1-5.78,11.37,14.54,14.54,0,0,1-2.35,2.13c-1.16.9-2.42.26-3.59,0a15.21,15.21,0,0,1-6.33-3.77c-1.17-1-2.5-1.83-3.68-2.83-1.7-1.43-3.38-2.9-5-4.45a4.47,4.47,0,0,1-1.11-3.66c.16-2,.6-3.92.89-5.89.38-2.52.76-5,1.1-7.56.47-3.51.93-7,1.35-10.54a34.24,34.24,0,0,0,.39-5.19,19.58,19.58,0,0,1,2.23-9.17,52.36,52.36,0,0,1,4.49-7.52c1.9-2.71,4.21-3.14,7.2-1.77a30,30,0,0,1,8.81,6.18,114.35,114.35,0,0,0,11,10.1c2.72,2.08,4.22,4.84,6,7.49a6.85,6.85,0,0,0,1,1.35,8.84,8.84,0,0,1,2.21,3c.27.58.92,1,1.36,1.49a5.54,5.54,0,0,1,.87,1.15,1.24,1.24,0,0,1-2.18,1.17c-.93-2.64-3.5-4-4.73-6.42-2-4-5.41-6.76-8.61-9.71s-6.36-6.13-9.61-9.11a21,21,0,0,0-8.06-4.61,3,3,0,0,0-3.12,1.23A16,16,0,0,0,280.6,187c-1,2.12-2.29,4.12-2.91,6.43a23.84,23.84,0,0,0-.85,5.33c-.1,2.67-.37,5.33-.65,8-.38,3.71-.77,7.43-1.28,11.13a53.9,53.9,0,0,1-1.3,6.38,11.4,11.4,0,0,0-.07,4.63,2.52,2.52,0,0,0,.69,1.3C274.82,230.83,275.53,231.34,276.44,232.11Z"/><path class="cls-1" d="M303.29,99.16a19.68,19.68,0,0,1-2.17,1.22,3.91,3.91,0,0,0-2.36,1.94c-.58,1.22-1,1.31-2.21.85s-2.53.19-3.72.55c-2.19.66-4.35,1.46-6.47,2.31-1.25.51-2.39,1.31-3.82,1.32a.23.23,0,0,0-.17.06c-1.17,1.75-3.52,1.43-4.88,2.73-1.52,1.45-3.52,2-5.13,3.29a2.33,2.33,0,0,1-2.27.41,5.56,5.56,0,0,1-3.84-2.7c-.59-1.16-1.41-2.2-2.08-3.32s-.6-1.33.48-2.09a77.44,77.44,0,0,1,9.42-5.59c.9-.45,1.59-1.54,2.49-1.7a9.75,9.75,0,0,0,2.76-.93c1.83-.92,3.74-1.67,5.57-2.59S288.49,93,290.27,92c1.36-.75,2.7-1.52,4.06-2.27s1.83-.78,2.77.56c1.85,2.64,4.19,4.94,5.53,7.94A8.09,8.09,0,0,0,303.29,99.16Zm-8.56-6.82-.43.26,1.12,3.31c1.19-.44,1.82.09,2.19,1.09a1.79,1.79,0,0,0,.47.78,2.92,2.92,0,0,0,.91.31c.05-.33.25-.75.12-1a8.31,8.31,0,0,0-1.5-2.1C296.64,94.13,296,92.86,294.73,92.34Zm-22.27,11.4,2.28,3.42a3.82,3.82,0,0,0,0-3.11C274.33,102.54,273.94,102.47,272.46,103.74Zm-2.06,6.62.6-.26c-.61-1.4-.91-2.92-2.08-4.33L267.5,107Zm15.26-13.78a5.12,5.12,0,0,0,1.83,3.67c.11-1,.24-1.74.23-2.46,0-.46-.1-1.22-.35-1.31A4.48,4.48,0,0,0,285.66,96.58Zm7.95,4.79c1.26-1.11,1.2-1.62-.27-2.86ZM283,100.72c.24-1.45.24-1.45-.9-2Z"/><path class="cls-1" d="M209.49,102.57c.79.43,1.35.7,1.88,1a2.43,2.43,0,0,0,3.46-.38c1.12-1.18,2.14-.9,2.52.65.47,1.92,2.15,2.28,3.55,3a20,20,0,0,0,2.75.89l1-1.4,3.81,1.59,1.57-1.37a5.38,5.38,0,0,0,3.86,1c.89-.18,1.43.41,1.28,1.35a6.56,6.56,0,0,0,.42,2.89,14.08,14.08,0,0,1,.24,3.52,1.61,1.61,0,0,1-.52.9c-.51.55-1.06,1-1.61,1.56-.76.71-1.35.77-1.81-.13-.64-1.23-1.6-1.32-2.77-1.41a99.14,99.14,0,0,1-10.38-1,63.24,63.24,0,0,1-9.3-2.68c-2.5-.87-3-2.45-2-5,.5-1.26.85-2.58,1.31-3.86A6.25,6.25,0,0,1,209.49,102.57Zm.26,6c-.57,1.11.18,1.61.91,1.88,2,.7,4,1.36,6,1.87,1.15.29,1.48-.25,1.14-1.77a9.31,9.31,0,0,1-1.49.7,2.14,2.14,0,0,1-1.38,0c-1.52-.77-3-1.66-4.48-2.49A3.59,3.59,0,0,0,209.75,108.62Zm2.24-2.2-.12.49c.31,0,.61.1.92.13a.91.91,0,0,0,.09-.29C212.58,106.63,212.28,106.53,212,106.42Z"/><path class="cls-1" d="M203.46,398.79a2.19,2.19,0,0,1-2.39-1.83c-.64-2.33-1.17-4.69-1.71-7a1.77,1.77,0,0,1,.06-1.09c.19-.39.55-.89.9-.95a2,2,0,0,1,1.26.53c.21.16.26.55.34.84.64,2.39,1.33,4.77,1.86,7.19A7.22,7.22,0,0,1,203.46,398.79Z"/><path class="cls-1" d="M211.36,390.83c-.28.38-.49,1-.85,1.1a1.18,1.18,0,0,1-1.58-.9,22.05,22.05,0,0,0-2.37-6.38,1.88,1.88,0,0,1-.22-1.25c.12-.42.49-1,.83-1.06s1.26.16,1.41.49C209.74,385.33,211.21,387.76,211.36,390.83Z"/><path class="cls-1" d="M194.84,395.68a3.61,3.61,0,0,1,.23-1.06c.25-.39.58-1,.93-1a1.48,1.48,0,0,1,1.11.75,21.07,21.07,0,0,1,1.11,2.75c.5,1.39,1,2.77,1.42,4.19.31,1.1-.06,1.75-.86,1.9s-1.32-.26-1.66-1.28c-.56-1.69-1.21-3.35-1.83-5Z"/><path class="cls-1" d="M264.87,445.4a1.62,1.62,0,0,1-2-1.35c-.34-1.38-.59-2.77-.86-4.16-.13-.66-.25-1.32-.31-2a2.62,2.62,0,0,1,.09-1.27,1.07,1.07,0,0,1,2-.23,3.5,3.5,0,0,1,.76,1.66C264.71,440.48,265.49,442.89,264.87,445.4Z"/><path class="cls-1" d="M140.78,397a7.82,7.82,0,0,0,4.91-.25,1.06,1.06,0,0,1,1.49.71c.24.73.14,1.44-.62,1.72-1.72.64-3.48,1.33-5.37.83a2.31,2.31,0,0,1-1.31-.8,1.93,1.93,0,0,1-.14-1.53C139.87,397.29,140.49,397.14,140.78,397Z"/><path class="cls-1" d="M142.35,392.74c-1.66,0-2.37-.41-2.5-1.57s.4-1.76,1.5-1.43a4.32,4.32,0,0,0,4.2-.6,1.83,1.83,0,0,1,1.42-.08,1.09,1.09,0,0,1,.38,2A8.63,8.63,0,0,1,142.35,392.74Z"/><path class="cls-1" d="M274,454.92c0-.19,0-.31,0-.43.11-.7.25-1.39,1.15-1.43a1.72,1.72,0,0,1,1.45,1.47c.22,1.71.41,3.42.61,5.12a4.14,4.14,0,0,1,0,.56c0,1-.58,1.93-1.18,1.87a1.51,1.51,0,0,1-1.39-1.5C274.45,458.66,274.2,456.76,274,454.92Z"/><path class="cls-1" d="M265.76,462.25c-1.94,1.08-2.39,1-2.92-.91a41.51,41.51,0,0,1-1-4.94c-.16-1,.34-1.31,1.35-1a2.32,2.32,0,0,1,1.89,1.84C265.37,458.84,265.53,460.51,265.76,462.25Z"/><path class="cls-1" d="M314.81,65.21a5.86,5.86,0,0,1,.73,1.64,13.44,13.44,0,0,1-1.18,6c-.15.35-.91.62-1.37.59-.28,0-.79-.73-.73-1,.39-2.19.49-4.46,1.67-6.44C314,65.73,314.29,65.62,314.81,65.21Z"/><path class="cls-1" d="M271.73,445.59a2.07,2.07,0,0,1-2.3-1.82,30.84,30.84,0,0,1,0-5c0-.33.48-.64.75-1a2.38,2.38,0,0,1,1.75,2.79C271.78,442.19,271.79,443.81,271.73,445.59Z"/><path class="cls-1" d="M271.91,459.79c-.13.2-.33.88-.71,1a2,2,0,0,1-1.44-.5,2.12,2.12,0,0,1-.76-1.23,39.84,39.84,0,0,1-.41-4.43c0-.27.48-.71.82-.81a1.55,1.55,0,0,1,1.73,1.06c.15.6.24,1.22.34,1.83C271.62,457.62,271.74,458.54,271.91,459.79Z"/><path class="cls-1" d="M204.83,155.42c-.82,1.55-1.54,3.06-2.4,4.49a.93.93,0,0,1-1.65-.18,2.78,2.78,0,0,1,0-1.6c.34-1.31.8-2.58,1.2-3.87a1.21,1.21,0,0,1,2-.51A7.52,7.52,0,0,1,204.83,155.42Z"/><path class="cls-1" d="M311,64.7c-.67,2-1.28,3.89-1.94,5.75a1.51,1.51,0,0,1-.58.72c-.28.18-.73.39-1,.29a1,1,0,0,1-.36-.92c.4-1.88.87-3.75,1.34-5.62.07-.3.16-.69.37-.83a1.93,1.93,0,0,1,1.27-.46C310.48,63.7,310.69,64.28,311,64.7Z"/><path class="cls-1" d="M305.72,58.71c.59-1.91,1.1-3.76,1.77-5.55a2.18,2.18,0,0,1,1.27-1,.83.83,0,0,1,1.1,1c-.76,2-1.62,4-2.49,6-.11.25-.66.57-.83.48S306,59.11,305.72,58.71Z"/><path class="cls-1" d="M324.12,431.14c1.64.64,3.22,1.21,4.74,1.9a1.35,1.35,0,0,1,.59,1.18,1.75,1.75,0,0,1-1.2.89,4.75,4.75,0,0,1-1.81-.37,21.3,21.3,0,0,1-2.27-.81,2.2,2.2,0,0,1-1-.75,1.79,1.79,0,0,1-.27-1.34C323,431.52,323.63,431.4,324.12,431.14Z"/><path class="cls-1" d="M304.74,65.4a6.34,6.34,0,0,1-1.37,4.69c-.21.29-.68.38-1,.56-.18-.36-.55-.76-.49-1.07.42-2.11.91-4.22,1.43-6.31a1,1,0,0,1,.75-.61,1,1,0,0,1,.68.7A13.69,13.69,0,0,1,304.74,65.4Z"/><path class="cls-1" d="M304.21,141.59a13.63,13.63,0,0,1,3.22,4.49,1.67,1.67,0,0,1-.53,1.41,1.37,1.37,0,0,1-1.31-.1,6.57,6.57,0,0,1-2.52-4A1.53,1.53,0,0,1,304.21,141.59Z"/><path class="cls-1" d="M186.42,108.14c-.56-.39-.91-.61-1.24-.87-1.23-.94-2.45-1.88-3.66-2.85a3.16,3.16,0,0,1-1-1,1.44,1.44,0,0,1,.19-1.18,1,1,0,0,1,1-.27,8.76,8.76,0,0,1,5.1,5.32C186.85,107.4,186.62,107.67,186.42,108.14Z"/><path class="cls-1" d="M307.15,230.3c-.37,1.47-.67,2.85-1.07,4.19-.27.89-1.18,1.59-1.72,1.41a1.5,1.5,0,0,1-1-1.95,15.27,15.27,0,0,1,1.15-3.27C305,229.78,305.62,229.75,307.15,230.3Z"/><path class="cls-1" d="M191.14,205c0-.31-.07-.72.1-.89a3.12,3.12,0,0,1,1.3-.88c.2-.06.72.43.84.76.44,1.19.51,2.5,1.53,3.5.24.23-.07,1.3-.42,1.77s-1,.22-1.45-.22C191.93,207.87,190.93,206.71,191.14,205Z"/><path class="cls-1" d="M332.81,414.4c-.78,0-1.47.09-2.17.08s-1.34-.1-2-.14a1.65,1.65,0,0,1-1.73-1.58c0-.78.66-1.34,1.73-1.29a16.61,16.61,0,0,1,3.49.48C333.13,412.22,332.94,413.17,332.81,414.4Z"/><path class="cls-1" d="M302.3,149.44c-1.76,1.19-1.77,1.2-3.22.06-.78-.62-1.56-1.25-2.28-1.93a1.28,1.28,0,0,1-.14-1.72,1,1,0,0,1,1.65-.16C299.69,146.82,301.64,147.38,302.3,149.44Z"/><path class="cls-1" d="M316.2,62.92c-.78-.74-.5-1.55-.28-2.32.44-1.55.93-3.09,1.43-4.63.27-.83,1.11-1,1.53-.28.3.53.57,1.44.32,1.86a16.7,16.7,0,0,0-1.36,4C317.56,62.39,317.12,62.91,316.2,62.92Z"/><path class="cls-1" d="M167.72,86.35c-.38,1-1,1.26-1.59.9a27.36,27.36,0,0,1-3.85-2.82c-.37-.34-.35-1.27-.27-1.89a.75.75,0,0,1,1.31-.37C164.79,83.54,166.24,84.95,167.72,86.35Z"/><path class="cls-1" d="M146.6,403.43c-.08,1.15-.91,1.82-1.74,1.57-1.13-.34-2.2-.87-3.42-.21-.17.09-.75-.21-.88-.46a1.57,1.57,0,0,1-.1-1.2,2.65,2.65,0,0,1,3.13-1.29,11.13,11.13,0,0,1,2,.59A4.51,4.51,0,0,1,146.6,403.43Z"/><path class="cls-1" d="M329.29,421.35a4.4,4.4,0,0,1-3.12-1.65,1.66,1.66,0,0,1-.21-1.3c0-.15.75-.3,1.1-.22a6.69,6.69,0,0,0,3.66.07c.56-.18,1.12-.14,1.39.53a1.25,1.25,0,0,1-.45,1.65A15.45,15.45,0,0,1,329.29,421.35Z"/><path class="cls-1" d="M329.89,34.47a2.76,2.76,0,0,1-.06.61c-.7,1.5-1.4,3-2.12,4.5a.87.87,0,0,1-1.21.54,1,1,0,0,1-.58-1.38c.61-1.56,1.23-3.11,2-4.61.17-.35.87-.79,1.12-.69C329.41,33.63,329.67,34.2,329.89,34.47Z"/><path class="cls-1" d="M155.2,360.2h1.85a1.31,1.31,0,0,1,1.34,1.21c0,.68-.5.93-1.14,1-1.24.1-2.47.23-3.71.31-.3,0-.76,0-.88-.14a3.41,3.41,0,0,1-.85-1.71c0-.68.79-.59,1.36-.58s1.35,0,2,0Z"/><path class="cls-1" d="M175.66,95c-1.25,1.44-1.5,1.56-2.88.87a12.23,12.23,0,0,1-2.32-1.53,1.39,1.39,0,0,1-.22-2c.34-.47,1-.84,1.43-.3a8.18,8.18,0,0,0,3.67,2.41C175.46,94.47,175.51,94.73,175.66,95Z"/><path class="cls-1" d="M151.25,365.82c1.44-.18,2.89-.41,4.35-.52a1.28,1.28,0,0,1,1.49,1.12c.1.77-.47,1.13-1.1,1.31a17.07,17.07,0,0,1-2.73.58C151.64,368.47,151.06,367.74,151.25,365.82Z"/><path class="cls-1" d="M282.17,459.89c-2-.24-2.3-.56-2-2.18.18-1,.28-2,.52-2.93s.79-1,1.53-.57a2.36,2.36,0,0,1,.93,2.64A22.38,22.38,0,0,1,282.17,459.89Z"/><path class="cls-1" d="M325.59,423.88c1.66.52,3.2,1,4.72,1.49.72.24,1.27.84,1,1.54a1.73,1.73,0,0,1-1.52.7c-1.16-.29-2.42-.31-3.46-1.12S325.11,425.47,325.59,423.88Z"/><path class="cls-1" d="M186.81,95.2c1.77.88,3.43,1.66,5,2.56a1.31,1.31,0,0,1,.29,1.26,1.37,1.37,0,0,1-1.24.44A23.34,23.34,0,0,1,187.26,98C186.14,97.44,186.1,97,186.81,95.2Z"/><path class="cls-1" d="M321.19,42.9a6,6,0,0,1,.19,2,24.16,24.16,0,0,1-1.66,3.91,1.78,1.78,0,0,1-1.52.72c-.7-.15-.78-1-.51-1.57.65-1.47,1.35-2.92,2.11-4.33C320,43.33,320.49,43.24,321.19,42.9Z"/><path class="cls-1" d="M310,236.92c-1.48-1-1.69-1.38-1.28-2.79a13.09,13.09,0,0,1,1.06-2.16c.31-.61.75-1,1.5-.74s.86.92.76,1.66A7,7,0,0,1,310,236.92Z"/><path class="cls-1" d="M316.6,239.93c-1.35-.44-1.36-1.57-1.37-2.6s-.27-2.41,1-3.09a1.72,1.72,0,0,1,1.87,1.89C318.07,237.51,318.35,239.18,316.6,239.93Z"/><path class="cls-1" d="M325.66,33.5c-.42,1-.8,2-1.28,3a18,18,0,0,1-1.33,2.22,3.6,3.6,0,0,1-.79.65,6.24,6.24,0,0,1-.62-1,1.11,1.11,0,0,1,.1-.73c.55-1.32,1.08-2.65,1.7-3.94a2.66,2.66,0,0,1,1-1.07A.86.86,0,0,1,325.66,33.5Z"/><path class="cls-1" d="M312.41,60.3c-1.17,0-1.73-.33-1.47-1.13.51-1.58,1.14-3.13,1.74-4.68a.78.78,0,0,1,.35-.42c.36-.15.89-.43,1.1-.28a1.23,1.23,0,0,1,.38,1.11C313.87,56.73,313.12,58.52,312.41,60.3Z"/><path class="cls-1" d="M156.67,355.62a4.88,4.88,0,0,1-1.66,0,1.9,1.9,0,0,1-1-1.1c-.08-.3.31-.86.64-1.14,1.31-1.11,2.71-.47,4,0a1.51,1.51,0,0,1,.71,1.3c-.09.39-.72.77-1.19.94a4.63,4.63,0,0,1-1.48,0Z"/><path class="cls-1" d="M188.26,102.8a6,6,0,0,1-1.55-.18c-1.21-.48-2.4-1-3.56-1.62-.85-.43-1.05-1-.67-1.64.51-.8,1.07-.53,1.73-.13,1,.6,2.1,1,3.08,1.63a7.16,7.16,0,0,1,1.28,1.37Z"/><path class="cls-1" d="M155.69,75.39a2.39,2.39,0,0,1,.9.39,33.16,33.16,0,0,1,2.58,2.92A1,1,0,0,1,157.81,80a22.54,22.54,0,0,1-3-2.52A1.31,1.31,0,0,1,155.69,75.39Z"/><path class="cls-1" d="M326.69,45.42a13.26,13.26,0,0,1-.63,1.45c-.49.84-1,1.66-1.57,2.49-.3.47-.74.78-1.22.42a1.2,1.2,0,0,1-.18-1.08c.45-1.27,1-2.5,1.51-3.76.23-.57.62-1.09,1.21-.8C326.22,44.34,326.41,45,326.69,45.42Z"/><path class="cls-1" d="M166,81.93c.5-1.61,1-1.93,2.17-1.3a13.75,13.75,0,0,1,2.4,1.75,1.21,1.21,0,0,1,.31,1.8c-.49.54-1.08.21-1.65-.2C168.17,83.24,167,82.6,166,81.93Z"/><path class="cls-1" d="M174.36,88.44a4.61,4.61,0,0,1,3.5,2.07,1.49,1.49,0,0,1,0,1.37,1.39,1.39,0,0,1-1.31.15,22.5,22.5,0,0,1-3-1.84,1,1,0,0,1-.25-.95A4.27,4.27,0,0,1,174.36,88.44Z"/><path class="cls-1" d="M157.6,73.16c1.21.58,2.33,1.07,3.39,1.65a1.17,1.17,0,0,1,.35,1.79c-.45.77-1.07.42-1.59,0a5.25,5.25,0,0,0-2.61-1.34.76.76,0,0,1-.66-1.11C156.64,73.82,157.11,73.59,157.6,73.16Z"/><path class="cls-1" d="M201.26,206.41a6,6,0,0,1-1.52,1.41c-.71.33-1-.48-1.31-1a11.38,11.38,0,0,1-.85-1.64,1.09,1.09,0,0,1,.83-1.56C199.3,203.42,201.35,205.19,201.26,206.41Z"/><path class="cls-1" d="M320.76,63a6.85,6.85,0,0,1,1.57-4.64c.41-.6,1-.5,1.29.15.51,1.15-.26,2.07-.67,3S322.13,63.24,320.76,63Z"/><path class="cls-1" d="M209.65,158.65c-.11.47-.09.85-.27,1.05-.47.53-.87,1.34-1.75,1.12s-.77-1.14-.71-1.84a5.94,5.94,0,0,1,.39-1.6c.12-.31.42-.75.64-.76a1.43,1.43,0,0,1,1.07.49A6.79,6.79,0,0,1,209.65,158.65Z"/><path class="cls-1" d="M154.46,71.68c-2.53-.78-3.34-2-2.54-3.87l3.2,2.19Z"/><path class="cls-1" d="M446.42,231.91c-1.73-1.93-3.05-4.25-5.29-5.7-1.4-.91-2.76-1.9-4.23-2.67a4.89,4.89,0,0,0-4.53,0,31.9,31.9,0,0,0-4,2.38c-5.09,3.51-9.15,8.1-12.88,12.93a144.45,144.45,0,0,0-8.75,13c-3.38,5.52-6.53,11.18-9.7,16.82-1.83,3.25-3.52,6.57-5.25,9.87-1.06,2-2.1,4-3.09,6.09s-1.72,3.87-2.63,5.78c-1.2,2.53-2.53,5-3.67,7.56-2.16,4.88-4.29,9.78-6.31,14.73-1.39,3.4-2.67,6.86-3.84,10.35-1.56,4.66-3,9.37-4.46,14.05-.47,1.48-1,3-1.5,4.43-1,2.74-2.05,5.47-3.09,8.21s-2,5.25-3,7.86c-.69,1.8-1.47,3.57-2.12,5.38-1.88,5.22-3.67,10.48-5.59,15.68-2,5.37-4.26,10.65-6.09,16.07-1.08,3.2-2.65,6.15-3.8,9.3a8,8,0,0,1-.81,1.34l-.34-.1a13.58,13.58,0,0,1,0-3c1-4.31.44-8.63.31-13-.06-2.09-.21-4.18-.2-6.26,0-2.4.48-4.83.16-7.17s.18-4.33,0-6.49c-.2-2.53-.09-5.09-.3-7.63a41.81,41.81,0,0,1-.4-7.43,55.56,55.56,0,0,0,0-5.6q0-4.82-.09-9.63c0-.24-.17-.47-.2-.72a11.11,11.11,0,0,1-.11-1.64c.08-2,.24-4.09.28-6.14,0-1.79-.1-3.58-.08-5.37s.26-3.61.16-5.39a61.1,61.1,0,0,1,.1-9.08,23,23,0,0,0-.23-2.89c-.1-2.5.45-4.94.12-7.5s.26-5.29.44-7.94a10.6,10.6,0,0,0,0-1.12c0-1.08-.39-2.26-.07-3.22a11.94,11.94,0,0,0,.21-4.41c-.07-2.11-.48-4.28-.12-6.31.45-2.56-.09-5,0-7.53s-.11-4.83-.19-7.24c0-.87-.09-1.75-.12-2.62-.08-2.61-.19-5.23-.23-7.84,0-1.87.19-3.75.05-5.6-.37-5.14-.86-10.28-1.33-15.41-.36-3.94-.67-7.88-1.15-11.8-.26-2.09-.25-4.24-1.11-6.23a6.65,6.65,0,0,1-.42-2c-.14-1.49-.16-3-.31-4.46-.17-1.72-.45-3.43-.64-5.15-.26-2.28-.48-4.57-.71-6.86-.31-3.1-.68-6.19-.92-9.29-.17-2.11-.1-4.23-.26-6.34-.38-5-.82-9.94-1.26-14.9-.39-4.41-.74-8.82-1.25-13.22-.56-4.76-1.29-9.5-1.92-14.25-.39-3-.72-5.94-1.12-8.9-.29-2.16-.66-4.31-1-6.46-.51-3.56-1-7.12-1.54-10.67-.34-2.08-1-4.12-1.29-6.21-.35-2.46-.39-5-.68-7.42-.27-2.29-.57-4.59-1.06-6.84-.61-2.81-1.09-5.58-.35-8.44a5,5,0,0,0,0-1.48,3.83,3.83,0,0,1-.09-1.07c.54-2.11,1.08-4.22,1.7-6.3,1.29-4.35,2.68-8.67,3.91-13,.78-2.75,1.41-5.54,2-8.33.71-3.21,1.3-6.45,2-9.67q1.13-5.21,2.37-10.39a11.62,11.62,0,0,1,.5-1.78q.05-.47.12-.94a13.3,13.3,0,0,1,.18-2.07,6.63,6.63,0,0,1,.21-.86l0-.37c0-.16,0-.33,0-.49a1.68,1.68,0,0,1,0-.18s0-.05,0-.08,0,0,0,0a5.56,5.56,0,0,1,.13-1.17,9.26,9.26,0,0,0-1.29-7,10.55,10.55,0,0,0-4.93-4.65,1.83,1.83,0,0,0-1.38,0c-1.88,1.07-3.88,1.94-5.29,3.74-1.18,1.52-2.63,2.83-3.9,4.28A6.27,6.27,0,0,1,317.63,21c-.18.23-.35.48-.52.72a9.79,9.79,0,0,1-1.94,3.74l-.11.15a4.49,4.49,0,0,1-.62.91c-.4.56-.84,1.08-1.23,1.65a87.94,87.94,0,0,1-7.14,9.36,62.73,62.73,0,0,0-5.93,8.36,42.4,42.4,0,0,1-6.61,8.55A64,64,0,0,0,288.35,59a12.15,12.15,0,0,1-8.51,4.1c-3.65.34-7.3.73-10.94,1.15a34.23,34.23,0,0,0-5.71.87c-2.31.68-4.58,1.46-7,2-4.06.88-8.08,2-12.12,3a48.19,48.19,0,0,0-15,6,13.54,13.54,0,0,1-4.16,1.46c-1.81.44-3.66.74-5.5,1s-3.76.43-5.64.61a3.4,3.4,0,0,1-.73-.16l-2.22-.3a49.05,49.05,0,0,1-5.16-.65c-4-.93-7.95-2-11.92-3a23.14,23.14,0,0,1-2.7-.72c-3-1.18-6-2.41-9-3.66C178,68.82,174,67,169.87,65.37c-2.47-1-5-1.89-7.49-2.85-1.28-.49-2.57-.94-3.81-1.51-3.73-1.73-7.34-3.74-11.68-3.51-2,.11-3,.79-3.06,2.81a11.42,11.42,0,0,0,.56,4,20.85,20.85,0,0,0,1.76,7.44c1.8,4.06,5.09,7.13,8.08,10.32q10.09,10.74,20.32,21.34a51.18,51.18,0,0,1,5.24,6.09q1,1.46,1.92,3a10.6,10.6,0,0,1,1.27,2.5l0,.09a5.6,5.6,0,0,0-.3,1.26l-.13.94a15.07,15.07,0,0,0-.63,3,1.12,1.12,0,0,0,.14.66q-.41,3.07-.81,6.15c-.2,1.54-.47,3.09-.52,4.64q-.24,7.95-.34,15.9c-.05,4.67-.06,9.34,0,14s.26,9.22.41,13.83c0,.43.1.87.08,1.3-.15,3.18-.46,6.35-.43,9.53,0,3.55.36,7.09.56,10.64,0,.12,0,.25.06.37.49,3.58,1,7.16,1.48,10.74.38,2.6.88,5.17,2.55,7.33.4.52.71,1.12,1.17,1.85-2.77,1.07-3.14,3.81-4.3,5.9-1.37,2.48-2.1,5.31-3.14,8a49,49,0,0,1-2.27,5.52,23.43,23.43,0,0,0-2.16,6.91c-.48,2.54.48,4.81,1.5,7,.3.65,1.35,1,2.1,1.39a3.15,3.15,0,0,0,1.1.12c-.75,2-1.51,3.88-2.17,5.79-1.07,3.11-3,5.91-3.41,9.25,0,.17-.19.32-.26.5-1.24,3.39-2.46,6.79-3.7,10.17-1,2.74-1.9,5.53-3.09,8.19-1.37,3.06-3.12,6-4.51,9-1.9,4.18-3.62,8.45-5.4,12.69a24.71,24.71,0,0,0-1.33,3.48c-.67,2.66-1.29,5.34-1.76,8-.9,5.15-2.7,10.09-3.33,15.3-.57,4.76-1.49,9.48-2.05,14.24-.27,2.27-.84,4.22-2.63,5.75s-3.08,3.25-5.1,4.33a46.5,46.5,0,0,0-4,2.36c-2.42,1.63-4.79,3.32-7.15,5s-4.51,3.12-6.6,4.87c-3.86,3.24-7.61,6.62-11.37,10a12.77,12.77,0,0,0-1.8,2.15c-1.08,1.51-2.15,3-3.14,4.61a105.33,105.33,0,0,0-6,10.08c-2.27,4.76-4,9.78-6,14.65a63.53,63.53,0,0,0-3.11,10.52,61.07,61.07,0,0,1-1.3,6.2c-1.26,3.64-2.8,7.19-4.27,10.75a1.54,1.54,0,0,1-.93.82,7.69,7.69,0,0,1-7-1.62,21.22,21.22,0,0,1-5.38-8.62c-1-2.88-2.06-5.75-3.09-8.62-.17-.47-.29-.95-.42-1.42-.79-2.75-1.55-5.51-2.37-8.25a19.71,19.71,0,0,0-1.41-3.83,10.34,10.34,0,0,0-2.26-2.64,28.82,28.82,0,0,0-2.5-1.56,4,4,0,0,0-4.95.34c-1.3,1.13-1.61,2.72-2.34,4.14-1.1,2.13-.54,3.71.68,5.52a30.68,30.68,0,0,1,3.72,6.65,108.08,108.08,0,0,0,4.5,10.63c.67,1.4,1.32,2.81,1.9,4.25,1.23,3,2.38,6.13,3.6,9.18,1.5,3.74,3.05,7.47,4.55,11.21s3.31,7.1,6.37,9.73a13.87,13.87,0,0,1,2.73,3,9.33,9.33,0,0,0,3.57,3.49,43.19,43.19,0,0,0,4.19,2,34.27,34.27,0,0,0,5.89,1.74c2.31.41,4.7.37,7,.66,6.57.8,13.17.78,19.76.94,2,0,4.11.06,6.15-.08,3.53-.25,7-.82,10.58-.9a99.11,99.11,0,0,0,10.6-.85c2.13-.28,4.27-.48,6.44-.55a35.22,35.22,0,0,0,5.86-1.09,43.7,43.7,0,0,1,6.76-1.34,95.11,95.11,0,0,0,11.3-1.36,17.91,17.91,0,0,1,8.31.38,3.52,3.52,0,0,0,3.37-.34,2.7,2.7,0,0,1,2.67-.24c1.34.48,2.65,1,4,1.49A31.72,31.72,0,0,0,201.3,474c1.77.35,3.58.5,5.37.79a48.74,48.74,0,0,0,8.68,1c2.36,0,4.72.3,7.09.4,4.1.17,8.2.35,12.3.41,2,0,4-.16,5.94-.32,1.43-.12,2.84-.46,4.26-.53A65.52,65.52,0,0,0,260.73,473a17,17,0,0,1,2-.36l1,3a11.43,11.43,0,0,0,6.39,7.15c3.11,1.42,6.12,3,9.57,3.59,2.75.43,5.45,1.18,8.21,1.57a53.29,53.29,0,0,0,7.06.48,8.77,8.77,0,0,0,4-.61,14.21,14.21,0,0,1,4.51-1.09c2.54-.27,5.1-.35,7.66-.44a15.63,15.63,0,0,0,6.32-1.4,20.77,20.77,0,0,1,3.11-1.21c3.09-.89,6.26-1.46,9.36-2.38a29.47,29.47,0,0,0,6.81-2.85c1.65-1,3.38-1.83,5.08-2.72.16-.08.37,0,.55-.08a37.82,37.82,0,0,0,8.8-3.44c3.47-1.92,6.87-4,10.3-6a5.39,5.39,0,0,0,1.49-1.12c1.74-2.15,4-3.75,6-5.61a12,12,0,0,0,3.23-4.74c1-2.87,2.34-5.64,3.5-8.46a6.3,6.3,0,0,0,.55-2,13.18,13.18,0,0,1,1.27-4.63,32.52,32.52,0,0,0,1.29-3.69c.51-1.67.94-3.36,1.44-5a31.1,31.1,0,0,0,1.59-7.28,104.65,104.65,0,0,1,1.38-11.25c.67-4.05,1.08-8.15,1.56-12.24.24-2,.39-4.1.56-6.15q.47-5.76.91-11.52c.1-1.29,0-2.61.22-3.89.85-5.23,1.82-10.43,2.18-15.72.17-2.42.54-4.83.9-7.23.43-2.83.95-5.65,1.44-8.47a6.88,6.88,0,0,1,.31-1.05c1.06-3.05,2.25-6.07,3.15-9.17,1.58-5.43,2.36-11.07,4.2-16.45,1.12-3.3,1.85-6.73,2.78-10.1.61-2.22,1.26-4.42,1.89-6.64.74-2.57,1.44-5.15,2.23-7.7,1.43-4.63,2.95-9.24,4.34-13.88.37-1.23.27-2.62.67-3.84,1.24-3.79,2.56-7.55,4-11.28.77-2,2-3.89,2.67-5.94a11.93,11.93,0,0,1,3.73-5c1.56-1.41,3.31-2.61,4.94-3.95a29.17,29.17,0,0,1,8.83-4.74c2.28-.81,4.55-1.64,6.82-2.48a7.27,7.27,0,0,0,1.67-.82,8.68,8.68,0,0,0,3.7-4.32c.3-.95.47-1.94.7-2.9A5.38,5.38,0,0,0,446.42,231.91Zm-267.8,16.75c-.33,0-.73-.45-.92-.78a6,6,0,0,1-.66-4.16,23,23,0,0,1,1.82-6.22c1.1-2.22,1.83-4.61,2.75-6.92.58-1.45.91-3.14,1.88-4.25,1.41-1.62,2.24-3.55,3.49-5.19a38.77,38.77,0,0,1,5-5,4.63,4.63,0,0,1,1.91-.69c2.46-.64,5-1,7.31-2.15a14.06,14.06,0,0,1,3.77-.92c2.94-.52,5.9-1,8.85-1.45,2-.31,4-.53,5.93-.83a24.73,24.73,0,0,1,10.9.73q3.76,1.12,7.53,2.16a29.51,29.51,0,0,1,7.32,3.69c3.35,2,6.68,4.11,10,6.23a39.94,39.94,0,0,1,7,5.54c.69.7,1.58,1.21,2.34,1.84a23.26,23.26,0,0,1,6.16,7.14c1,2,.5,3.65-1.56,5.2a2.55,2.55,0,0,1-.37-.58,6.69,6.69,0,0,0-4-5A18.38,18.38,0,0,1,262,235c-1.2-.83-2.23-.7-3.57.5a5.25,5.25,0,0,0,.85.89c1.62,1.05,3.24,2.1,4.9,3.07a3.72,3.72,0,0,1,1.88,2.42c.21.85.55,1.66.74,2.51a5.33,5.33,0,0,1-.05,1.36c-.95-.1-1.07-.66-1.26-1.18a3,3,0,0,0-2.52-2c-1.15-.22-2.28-.53-3.43-.78a7.86,7.86,0,0,0-1.29-.23c-.7,0-1.42,0-1.57.91a1.57,1.57,0,0,0,1.24,1.81c1.15.21,2.31.35,3.46.58.78.15,1.69.23,1.88,1.25s.24,2-.84,2.64a9.6,9.6,0,0,0-1.11.92c-1.75-1.66-3.49-3.23-5.14-4.89-2.15-2.17-4.33-4.32-6.32-6.63a36.19,36.19,0,0,0-9.73-7.77c-4-2.25-8.2-3.92-13-3.2-3.57.54-7.16.91-10.72,1.5a23.41,23.41,0,0,0-3.88,1.32,75.27,75.27,0,0,0-15.91,8.11A60.48,60.48,0,0,1,191,241.2a2.07,2.07,0,0,1-1.44.17,2,2,0,0,0-2.53,1.06c-1.37,2.12-3.51,3.49-5.14,5.35C181.08,248.77,179.8,248.72,178.62,248.66ZM57.24,406.36c2.78,1,3.19,1.77,3.09,5.87a19.08,19.08,0,0,0-3.3-5.4C57,406.77,57.16,406.52,57.24,406.36ZM184.1,467.19a6,6,0,0,1-3.66-4.12,10.46,10.46,0,0,0-.94-1.82,43.33,43.33,0,0,1-2.67-6.53,55.59,55.59,0,0,0-4.8-11.26,24.72,24.72,0,0,1-3.22-9.09,22.83,22.83,0,0,0-1.7-5.86c-.58-1.28-.35-2.55-.62-3.8a37.22,37.22,0,0,1,.74-18.46,16.1,16.1,0,0,1,.75-1.91,8.83,8.83,0,0,1,.6-1c.59.07,1.12.09,1.26.84a4.55,4.55,0,0,0,.5,1.2,4.11,4.11,0,0,1-.2,4.39c-.57.9-.4,1.58.38,1.91s1.41.06,1.9-.88a6.74,6.74,0,0,0-.27-7.05c-.67-1.11-1.18-2.3-1.77-3.48.95-1.39,1.72-1.46,2.87-.3a3.93,3.93,0,0,1,.95,2.76c.07,1.18.12,2.37.17,3.55,0,.66.15,1.35.91,1.43s1.2-.52,1.32-1.28c.09-.53.21-1.05.36-1.8a4,4,0,0,1,1.16,2.85c.45,5.27.81,10.55,1.37,15.81a16.62,16.62,0,0,0,3,8,9,9,0,0,0,3.08,2.37,2.36,2.36,0,0,1,1.5,2.12c.1,3.55.18,7.1.27,10.65.07,2.8.15,5.6.22,8.4,0,1.05.06,2.11,0,3.16a27.34,27.34,0,0,0,1.86,9.46c.08.23.13.46.25.91A10.41,10.41,0,0,1,184.1,467.19Zm80.34,2.32c-.59.19-1.16.44-1.76.59-1.2.3-2.43.49-3.62.84-4.85,1.41-9.72,2.7-14.83,2.72-1.42,0-2.85.27-4.27.4a39.38,39.38,0,0,1-4.27.31q-6.08-.13-12.16-.45c-1.79-.09-3.59-.66-5.35-.54-5.14.38-10.17-.51-15.2-1.17a24.23,24.23,0,0,1-8-2.44,8,8,0,0,1-4.44-6.44c-.4-2.76-.31-5.59-.51-8.38-.14-2-.42-4.08-.6-6.13a19.52,19.52,0,0,1,0-2.41c.09-2.48.36-5,.28-7.45s-.57-4.92-.72-7.39c-.24-3.78-.25-7.58-.53-11.37a45.9,45.9,0,0,1,1.49-14,38.14,38.14,0,0,1,3.36-9.65,10.34,10.34,0,0,0,.83-1.88,23.81,23.81,0,0,1,6.64-10.15c2.35-2.23,4.93-4.21,7.31-6.41a128.7,128.7,0,0,1,10.27-8.92,37.45,37.45,0,0,1,8.26-4.58c3.73-1.53,6.89-4,10.36-5.91,2.3-1.29,4.34-3,6.53-4.54,2.46-1.68,5-3.31,7.45-5,.78-.52,1.58-1,2.37-1.5,2-1.31,4.55-1.79,6.23-3.69a.83.83,0,0,1,.51-.17c2.5-.22,4.66-1.57,7-2.22,3-.83,6-2.1,9.14-2.47a10.66,10.66,0,0,1,7.94,2.41,6.78,6.78,0,0,0,1.23.82,20,20,0,0,1,7.25,5.11c1.12,1.33,2.19,2.71,3.21,4.12,1.48,2,3,4.06,4.32,6.23a51.81,51.81,0,0,1,5.2,12.75,5.76,5.76,0,0,0,.21.91,2.25,2.25,0,0,0,2.18,1.13c.75-.25,1.07-1.15.76-2.21-.24-.84-.48-1.68-.79-2.5a71.84,71.84,0,0,0-2.75-7.1,87.44,87.44,0,0,0-4.65-8,66.93,66.93,0,0,0-4.22-5.86,41.41,41.41,0,0,0-3.73-3.91,13.22,13.22,0,0,0-2.49-1.9c-1.66-1-3.39-1.78-5.08-2.68-2.08-1.11-4.08-2.6-6.53-2.51a29.17,29.17,0,0,0-6.41,1c-2.87.77-5.69,1.78-8.48,2.81a61.62,61.62,0,0,0-11.83,5.88c-4.2,2.68-8.31,5.5-12.45,8.25-3,2-5.78,4.46-9.39,5.46-.1,0-.14.2-.24.27a11.14,11.14,0,0,1-1.77,1.24c-5,2.29-9.86,4.74-14,8.47-.59.54-1.33.92-1.92,1.45-3.79,3.42-7.62,6.8-11.31,10.33-1.78,1.71-3.77,3.27-4.93,5.56-1.34,2.67-2.9,5.24-4.08,8-1.66,3.82-3.43,7.63-4,11.82-.22,1.53-.43,3.06-.64,4.59a65,65,0,0,0-.36,12.66,30,30,0,0,1,0,7c-.63-.58-1.15-.87-1.38-1.3-.76-1.42-1.39-2.91-2.11-4.35-.81-1.62-.72-3.38-.89-5.1-.36-3.78-.84-7.56-1-11.36a41.12,41.12,0,0,0-2.45-10.7,5.42,5.42,0,0,0-4.49-3.74c-1.57-.32-3-.27-3.86,1.39a1.36,1.36,0,0,1-.48.56c-1.84,1-2.52,3-3.3,4.65a28.82,28.82,0,0,0-3,13.72,16.43,16.43,0,0,1-.06,2.24,19.58,19.58,0,0,0,.65,6.85c.67,2.53,1.41,5.06,1.87,7.63A48.13,48.13,0,0,0,170,443.6c1.44,3,3.2,5.91,4,9.21a27,27,0,0,0,2,5.61c1.56,3.06,2.55,6.42,5,9.36-1.59.27-3,.48-4.36.73-1.64.3-3.27.74-4.92.93-3.77.44-7.57.57-11.26,1.66a21.64,21.64,0,0,1-5.69,1c-3.31.05-6.51.83-9.78,1.08-3.72.28-7.43.64-11.15.94-1,.08-2.11,0-3.16.1-2.11.17-4.2.55-6.31.56-4.11,0-8.21-.06-12.32-.21-3-.11-6-.36-9-.62-1.91-.16-3.83-.73-5.72-.62A22.61,22.61,0,0,1,86.94,471a11.55,11.55,0,0,1-4.49-3.78,28.57,28.57,0,0,0-3.19-3.86,22.69,22.69,0,0,1-4.75-6.55c-1-2-1.68-4.25-2.54-6.36-1-2.42-2-4.81-3-7.23s-1.84-5-2.89-7.46c-1.38-3.2-2.94-6.31-4.36-9.49-.76-1.7-1.36-3.48-2.12-5.19s-1.59-3.48-2.47-5.18c-.74-1.43-1.7-2.75-2.39-4.21-.6-1.25-.41-1.58.74-2.51a4.44,4.44,0,0,1,2.09,2.91c.42,1.44.8,2.89,1.33,4.28a1.53,1.53,0,0,0,1.14.72c.26,0,.72-.49.82-.84a19,19,0,0,0,.4-2.41l1.89-.29v-2.46a10.85,10.85,0,0,1,1.6,3.22q2.3,6.91,4.56,13.84c.31.94.51,1.92.89,2.83A39.67,39.67,0,0,0,75,439.18c.84,1.14,1.7,2.62,2.88,3.06A37,37,0,0,0,85.48,444c1.62.23,2.51-.71,2.89-2.3a24.48,24.48,0,0,1,.76-2.48c.66-1.88,1.49-3.71,2-5.62,1.14-4.2,2.12-8.44,3.17-12.66.06-.24.06-.49.12-.73a72.37,72.37,0,0,1,1.87-7.39c1.3-3.62,2.9-7.13,4.41-10.67.65-1.54,1.32-3.09,2.1-4.56a44.25,44.25,0,0,1,2.61-4.32c2.4-3.5,4.54-7.24,7.38-10.34a86.36,86.36,0,0,1,10.38-9.14c3.86-3,7.94-5.79,11.94-8.63a41.62,41.62,0,0,1,4.67-3.07,27.47,27.47,0,0,0,5.67-3.58,1.8,1.8,0,0,1,1.64-.69c-.07,2.3-.1,4.53-.23,6.76-.27,4.41-.66,8.81.27,13.21a38.31,38.31,0,0,1,.46,4.07,83.1,83.1,0,0,0,1,9.08c.9,4.19,2.24,8.28,3.38,12.42.22.8.38,1.61.65,2.79a7.54,7.54,0,0,0,1,1,1.39,1.39,0,0,0,1.88.13c.74-.6,1.12-2.25.42-2.86-1.17-1-1.38-2.44-1.9-3.75A58.48,58.48,0,0,1,150.7,388c-.59-3.74-.88-7.54-1.27-11.31a40.31,40.31,0,0,1-.42-5.39c.14-4.23.36-8.47.72-12.69.38-4.53,1.12-9,1.39-13.56.33-5.5,1.7-10.81,2.63-16.2.78-4.46,2-8.84,2.93-13.29.62-3.09,2-5.9,3-8.81a93.71,93.71,0,0,1,6.88-14.47,56,56,0,0,0,3.25-6.91c1.18-2.87,2.21-5.79,3.25-8.71.49-1.38.83-2.81,1.27-4.21s.92-2.7,1.35-4.05c.33-1.06.54-2.16.94-3.19,1-2.66,2.09-5.29,3.16-7.92a14.36,14.36,0,0,1,1.35-2.87,35.71,35.71,0,0,1,4-5.13,59.57,59.57,0,0,1,7.1-6c2.53-1.79,5.34-3.17,8-4.78a82.76,82.76,0,0,1,11.34-5.67,29.71,29.71,0,0,1,8-2.48c2.54-.28,5.07-.58,7.61-.89a8.22,8.22,0,0,1,2.39-.35c2.43.49,5,.78,7.18,1.88a47.15,47.15,0,0,1,8.67,5.82,63.23,63.23,0,0,1,6.56,6.91c2.74,3.11,5.38,6.32,7.91,9.3a3.71,3.71,0,0,0,3.15-1.21,10.46,10.46,0,0,1,2.14-1.43,12.52,12.52,0,0,1,1.12-.59c.65-.31,1.31-.6,1.94-.93.48-.25,1.21-.46,1.34-.85.62-1.85,2-3.13,3.2-4.53,2.21-2.59,2.37-3.83.72-6.78l-.27-.49a26.84,26.84,0,0,0-5.43-6.61c-2-1.83-4.21-3.49-6.34-5.2a56.37,56.37,0,0,0-4.71-3.67c-4.55-2.92-9.18-5.74-13.79-8.57a11,11,0,0,0-2.37-1.09c-3-1-6.06-1.92-9.12-2.77a24.37,24.37,0,0,0-9-1.17c-3.58.38-7.13,1.05-10.7,1.58-1.39.21-2.78.37-4.36.57.22-.65.57-1.14.45-1.4-.7-1.49-.36-3.08-.61-4.6-.1-.57-.29-1.24-1-1.1a1.81,1.81,0,0,0-1.18.95,8.37,8.37,0,0,0,.45,6.46c-3.17.86-6.33,1.76-9.52,2.58-2,.5-4.09.37-5.75,1.81-.59.51-1.22,1-1.86,1.51a9.57,9.57,0,0,1-3.15-5.57c-.31-1.9-.77-3.78-1-5.69-.44-3.43-.88-6.86-1.11-10.31-.25-3.72-.33-7.46-.37-11.19,0-2.67.66-5.33.22-8a17.7,17.7,0,0,1-.39-2.58c-.06-4-.05-7.91-.07-11.87,0-3.18,0-6.36,0-9.54,0-.94,0-1.87.06-2.81.1-1.67.3-3.33.33-5,.06-3.92,0-7.84.06-11.76a26.61,26.61,0,0,1,.41-3.9c.33-2,.67-4,1-5.94a1.81,1.81,0,0,0,.41-1,10.52,10.52,0,0,1,.8-3,1.65,1.65,0,0,0,.15-.29,4.4,4.4,0,0,0-.15-3.26,1.76,1.76,0,0,0-.25-.82l-.43-.63-.45-.81a40.56,40.56,0,0,0-3.62-5.4c-3-3.83-6.65-7.19-10-10.71s-6.75-7.1-10.11-10.67S154,78,151.08,74.33a17.55,17.55,0,0,1-1.63-2.48q-.21-.54-.38-1.09c-.18-.59-.58-1.1-.81-1.67l-.14-.33a17.89,17.89,0,0,1-.85-6.28,5.09,5.09,0,0,0,1.23.84c2.89,1.28,5,3.49,7.13,5.69a29.4,29.4,0,0,0,6.74,5c4.08,2.39,8.28,4.58,12.38,7a20.42,20.42,0,0,1,2.82,2.38c-1.3,1.24-1.55,2-.77,2.73a28.55,28.55,0,0,0,3.15,2.34,1,1,0,0,0,1-.1,1.12,1.12,0,0,0,.22-1,3.23,3.23,0,0,0-.78-1c-.58-.61-1.18-1.19-1.77-1.79.37-.2.62-.2.79-.09.82.53,1.61,1.12,2.44,1.64,3.32,2.09,6.63,4.2,10,6.25,2.43,1.49,4.9,2.91,7.36,4.34a1.38,1.38,0,0,0,2-.75,1.36,1.36,0,0,0-.88-2.05,32.08,32.08,0,0,1-8.57-4.41,70.33,70.33,0,0,0-6.9-4.46c-3.28-1.82-6.3-4-9.42-6.05-2.39-1.57-4.86-3-7.35-4.43-4.08-2.28-8.26-4.38-11.5-7.91a18.77,18.77,0,0,0-6.12-4.82c-.65-.29-1.06-1.1-1.74-1.85a6.43,6.43,0,0,1,3.9.74,56.16,56.16,0,0,0,7.16,3.19A103.93,103.93,0,0,1,172.54,69c1.76.79,3.47,1.69,5.25,2.45,3.09,1.31,6.18,2.63,9.34,3.79,2.45.9,5,1.58,7.5,2.3,2.34.67,4.7,1.22,7,1.89a20.27,20.27,0,0,0,5.44,1.18,28.55,28.55,0,0,1,3.3.44,22.25,22.25,0,0,0,8.87-.16,37.76,37.76,0,0,1,5.24-1.19,10.9,10.9,0,0,0,4.37-1.47c1.54-.92,3.05-1.9,4.66-2.7a49.17,49.17,0,0,1,6-2.58c2.34-.8,4.78-1.32,7.18-2,.48-.13,1-.21,1.45-.3,1.4-.24,2.84-.37,4.21-.73,3.23-.83,6.42-1.81,9.64-2.66a37.48,37.48,0,0,1,9.74-1.48c2.17,0,4.34-.31,6.52-.43a17.61,17.61,0,0,0,11.34-4.59c1.87-1.72,3.45-3.75,5.34-5.45a34.15,34.15,0,0,0,5.61-6.94c1.54-2.35,3.08-4.7,4.54-7.1,1.85-3,4.86-5.14,6.64-8.26,1.29-2.26,2.85-4.37,4.29-6.54A3.94,3.94,0,0,1,317.4,25a12.58,12.58,0,0,1,2.52-3.91L320,21c2-2.94,4.12-5.77,7.55-7.22a3.8,3.8,0,0,1,.52-.2,5.62,5.62,0,0,1,.81,0,27.85,27.85,0,0,1-.47,3.56c-.43,1.62-1,3.2-1.59,4.77a4.66,4.66,0,0,1-1,1.83,12.23,12.23,0,0,1-1,1.64,11,11,0,0,1-.84,1.83l-.16.23a8.53,8.53,0,0,1-.89,1.41c-1.66,2-3.44,3.92-5.09,5.94a87.2,87.2,0,0,1-7.09,8.15,35.57,35.57,0,0,0-3.46,3.92c-1.74,2.26-3.44,4.55-5,6.91s-3.07,4.83-4.56,7.28a20,20,0,0,0-2.45,8,1.43,1.43,0,1,0,2.85.25,10.81,10.81,0,0,0,0-1.12,12.47,12.47,0,0,1,1.61-6.23,59.74,59.74,0,0,1,3.82-6.19c1.74-2.34,3.33-4.78,5.06-7.12,1.14-1.54,2.54-2.91,3.56-4.52a2.5,2.5,0,0,1,2.29-1.14c-.13.6-.2,1.07-.33,1.52-.23.77-.5,1.54-.76,2.3-.18.52-.21,1,.4,1.25a1.24,1.24,0,0,0,1.61-.8c.26-.68.56-1.35.87-2,.63-1.38,1.13-2.73.26-4.25a1.77,1.77,0,0,1,.18-1.52,27.15,27.15,0,0,1,2.24-2.74c2.18-2.46,4.58-4.72,6.41-7.5a10.14,10.14,0,0,1,1.09-1.35,1.84,1.84,0,0,1,.61-1c.16-.13.31-.26.46-.41l.24-.24a5.43,5.43,0,0,0,.44-.72l.18-.38.1-.28c.12-.35.23-.71.33-1.07l0-.07a3.18,3.18,0,0,1,.17-.63c.74-2,1.57-4,2.38-6,0-.08.21-.1.5-.24,1.06,1.45,1.87,2.85,1.64,4.66-.1.78-.1,1.58-.14,2.37a2.31,2.31,0,0,1,0,1.2l-.11.38a3.22,3.22,0,0,1,0,.43c0,.07,0,.14,0,.2a8.88,8.88,0,0,1-.09,3,2.88,2.88,0,0,1,0,.48c-.19,1.23-.43,2.45-.71,3.66-1.05,4.61-2.3,9.19-3.14,13.84-1.09,6-2.79,11.88-4.33,17.78-.5,1.91-1.25,3.75-1.88,5.63l-1.91-1.23c-.64,1.49-1.24,2.78-1.74,4.1a5.21,5.21,0,0,0-.29,3.86l1.49.12c-.2,2.25-.46,4.35-.56,6.45a16.29,16.29,0,0,0,.35,3q.31,2.2.66,4.4c0,.31.28.62.22.9-.39,2.07.56,3.92.85,5.88a31.2,31.2,0,0,1,.52,4.82,26.21,26.21,0,0,0,.92,7,27.33,27.33,0,0,1,.88,3q1.24,8.79,2.36,17.59c.36,2.84.57,5.71.92,8.55.52,4.2,1.19,8.39,1.67,12.6.64,5.57,1.19,11.16,1.71,16.75.37,4,.61,8.07.92,12.1.42,5.58.75,11.17,1.29,16.74.42,4.34,1.07,8.65,1.66,13,.19,1.42.59,2.81.75,4.23.6,5.45,1.17,10.91,1.68,16.37.32,3.48.57,7,.76,10.45.22,3.91.36,7.83.49,11.75.1,3.24.09,6.49.19,9.73.14,4.35.33,8.71.5,13.06,0,.31.05.62.05.93,0,2.18,0,4.36,0,6.54s-.29,4.58-.31,6.88c0,5.28.2,10.58-.06,15.85-.2,4.17-.32,8.34-.3,12.51,0,4.59-.17,9.17-.16,13.76,0,5,.15,10.08.22,15.11s.12,10.36.22,15.54c0,2,.32,4,.32,6,0,3.92-.12,7.84-.11,11.77,0,3,.21,6,.25,9,0,3.81,0,7.61,0,11.42,0,2.68-.23,5.35-.32,8-.08,2.22.29,4.5-1.21,6.48a1.39,1.39,0,0,0,0,1.35c.94.86.83,1.89.72,2.95-.16,1.55-.32,3.1-.52,4.65-.39,3.09-1,6.17-1.15,9.27a16.87,16.87,0,0,1-1.6,6.65,25.73,25.73,0,0,0-.93,2.44,6.39,6.39,0,0,1-3.08,3.82,32.5,32.5,0,0,0-4.38,2.84c-1.56,1.19-3.08,2.41-4.7,3.54-2.64,1.83-5.58,2.72-8.49,3.8-2.62,1-5.25,1.95-7.84,3a40.63,40.63,0,0,1-8.15,2.61c-3.31.57-6.62,1.25-9.86,2.12s-6.15,2-9.23,3a36.92,36.92,0,0,1-13,1.89A3.24,3.24,0,0,0,264.44,469.51ZM443.79,238.7a4.34,4.34,0,0,1-2.72,3.12c-.69.27-1.33.7-2,1-1,.37-1.41,0-1.33-1a12.55,12.55,0,0,0,.13-1.67c-.06-.93-.78-1.81-1.4-1.7a1.49,1.49,0,0,0-1.27,1.59c-.09,1.36-.31,2.71-.5,4.32-.71.33-1.61.73-2.48,1.18-2.7,1.41-5.43,2.76-8.06,4.29a21.35,21.35,0,0,0-3,2.57c-.94.82-1.87,1.63-2.83,2.42a14.5,14.5,0,0,0-3.11,3.89c-2.21,3.65-3.63,7.65-5.23,11.57-.65,1.61-1.07,3.32-1.59,5-.19.59-.39,1.17-.55,1.67-.23.11-.36.22-.45.2-2.22-.55-4.16.36-6.1,1.2-1,.43-1.31,1-.92,1.69.56.94,1.33,1.18,2.13.5,1.34-1.13,2.83-1,4.46-.85a4.84,4.84,0,0,1-.33,3.33c-1.44,4.56-3.06,9.07-4.46,13.64-1.11,3.63-2,7.35-3,11-1.47,5.15-3,10.28-4.52,15.43-.46,1.61-.69,3.28-1.1,4.9-.93,3.62-1.81,7.26-2.91,10.82-1.32,4.28-3,8.43-3.47,13-.59,5.56-1.44,11.09-2.2,16.63-.18,1.3-.5,2.57-.66,3.87-.55,4.46-1.13,8.91-1.56,13.38-.56,5.82-.92,11.66-1.52,17.48-.36,3.46-1.1,6.88-1.56,10.34s-.8,6.94-1.15,10.41a30.53,30.53,0,0,1-1.74,7.44c-.53,1.46-.83,3-1.22,4.5-.27,1-.49,2.06-.79,3.07s-.59,1.93.06,2.78a22.63,22.63,0,0,0-3.6,7c-1.34,4-2.78,7.89-6.59,10.32a21.22,21.22,0,0,0-2.29,2.17,41.64,41.64,0,0,1-3.57,3c-2.24,1.56-4.57,3-6.85,4.5a24.69,24.69,0,0,1-6.26,3.2,45.71,45.71,0,0,0-8.23,3.51,54.59,54.59,0,0,1-13.77,5.11,42.1,42.1,0,0,0-7.6,2.46,20.45,20.45,0,0,1-8,1.37,43.65,43.65,0,0,0-10.7,1.4,12.59,12.59,0,0,1-5.92.24,7.16,7.16,0,0,0-1.67-.14,27.65,27.65,0,0,1-10.08-1.7,3.25,3.25,0,0,0-.91-.18c-2.32-.12-4.24-1.34-6.28-2.24l-1.88-.83a6.32,6.32,0,0,1-3.62-3.57c-.34-.93-.87-1.78-1.24-2.7a2.14,2.14,0,0,1,0-.89c.86-.69,1.43-1.19,2.05-1.63a3.26,3.26,0,0,1,1.27-.6c2.27-.35,4.57-.56,6.83-1a29.37,29.37,0,0,0,3.72-1.15c2-.65,4-1.27,6-2,4.6-1.61,9.44-2.14,14.16-3.21a37.06,37.06,0,0,0,5.16-1.66c3.47-1.35,6.89-2.81,10.35-4.19,1.15-.46,2.35-.83,3.54-1.19,3.86-1.17,6.87-3.61,9.76-6.31A16.38,16.38,0,0,1,332,448.6c.76-.41,1.64-.62,2.38-1.06a3.09,3.09,0,0,0,1.08-1.19,27.22,27.22,0,0,0,1.09-2.53c.41-1,1.28-1.84,1.09-3.1-.05-.34.39-.75.56-1.15.4-.92,1.29-1.69.57-2.93-.25-.43.11-1.2.19-1.82.38-3,.72-5.93,1.14-8.88.3-2.08.75-4.13,1-6.21.16-1.17.09-2.37.22-3.54a16.61,16.61,0,0,1,.57-2.34c.25-.94.53-1.88.8-2.82,0-.06,0-.14,0-.18,1.23-2,1.16-4.51,2.36-6.64s1.78-4.84,2.62-7.29c1.93-5.65,3.79-11.33,5.82-16.94,1.57-4.33,3.36-8.57,5-12.86.34-.87.61-1.77.91-2.65,1.9-5.59,3.75-11.19,5.73-16.75,1.27-3.57,2.82-7,4.11-10.6,1.37-3.79,2.58-7.64,3.86-11.46,1.42-4.25,2.7-8.55,4.29-12.73,1.3-3.42,2.94-6.72,4.49-10.05,1.73-3.72,3.53-7.41,5.3-11.12,1.61-3.37,3.16-6.76,4.82-10.1,1.77-3.56,3.53-7.14,5.47-10.61,2.15-3.83,4.54-7.54,6.78-11.32,1-1.65,1.84-3.38,2.83-5,.47-.78,1.17-1.42,1.68-2.18,1.14-1.69,2.19-3.44,3.33-5.13,1.39-2.05,2.83-4.07,4.27-6.08.94-1.3,1.89-2.6,2.9-3.85.41-.52,1.09-.83,1.46-1.37,1.89-2.79,4.83-4.48,7.19-6.77A29.64,29.64,0,0,1,432.8,226a2.62,2.62,0,0,1,2.69,0,12,12,0,0,1,2.61,1.44c2.11,1.82,4.44,3.45,5.73,6a4.12,4.12,0,0,1,.53,1.91A16.87,16.87,0,0,1,443.79,238.7Z"/><path class="cls-1" d="M429.82,240.83c-.6,1.6-1.15,3.22-1.81,4.79a1.36,1.36,0,0,1-2.52-1,12,12,0,0,0,1.28-4.82,1,1,0,0,1,1.25-1A2.24,2.24,0,0,1,429.82,240.83Z"/><path class="cls-1" d="M417.56,250.69a5.9,5.9,0,0,1,.12-.9c.37-1.32.7-2.65,1.18-3.93a2.4,2.4,0,0,1,1.11-1.11,1.41,1.41,0,0,1,1.18.1c.18.11.17.66.14,1-.15,1.48-.34,3-.52,4.44a3.81,3.81,0,0,1-.2,1.08c-.27.61-.51,1.32-1.45,1.16A1.73,1.73,0,0,1,417.56,250.69Z"/><path class="cls-1" d="M412.39,255.39c.19-.87.37-2.1.73-3.27a3.55,3.55,0,0,1,1.11-1.66,1.6,1.6,0,0,1,1.49-.11c.34.21.4.91.52,1.41,0,.14-.11.35-.21.5a7.81,7.81,0,0,0-1.19,4.4c0,.69,0,1.46-1,1.45s-1.3-.6-1.41-1.43C412.42,256.37,412.43,256.06,412.39,255.39Z"/><path class="cls-1" d="M408.76,271.1c-1.31.83-2.45,1.8-4.09,1.56-.82-.12-1.44-.4-1.52-1.32a1.85,1.85,0,0,1,1.58-1.95c.55-.09,1.1-.14,1.65-.22C408,268.93,408.27,269.13,408.76,271.1Z"/><path class="cls-1" d="M412.27,262.11c-.48,1.18-.86,2.14-1.26,3.11-.23.57-.66,1.05-1.26.81a2.79,2.79,0,0,1-1.29-1.17c-.37-.68.77-3.84,1.48-4.2a1.39,1.39,0,0,1,1.2,0A7.42,7.42,0,0,1,412.27,262.11Z"/><path class="cls-1" d="M396.78,289.85l4.47-1.12c.24-.06.45-.21.69-.27.58-.15,1.28-.5,1.61.3s-.37,1-.85,1.44a8,8,0,0,1-4.09,1.59C397.13,292,396.64,291.43,396.78,289.85Z"/><path class="cls-1" d="M434.16,240.16a2.87,2.87,0,0,1-1.18,2.69,1.58,1.58,0,0,1-1.3.24,1.56,1.56,0,0,1-.64-1.19,12.08,12.08,0,0,1,.31-2.57,2.65,2.65,0,0,1,.59-1.14,1.32,1.32,0,0,1,1.67-.45,1.19,1.19,0,0,1,.68,1.39C434.26,239.38,434.23,239.63,434.16,240.16Z"/><path class="cls-1" d="M402.58,273.57c1,0,2.14.25,3.13-.46a1.31,1.31,0,0,1,1.18.18c.66.52.12,1.12-.08,1.67a2.65,2.65,0,0,1-3.1,1.53C402.58,276.09,402.19,275.12,402.58,273.57Z"/><path class="cls-1" d="M405.38,283.14c-.36,1.84-1.14,2.58-2.71,2.78-1.4.18-1.88-.14-2.91-2.06.39-.21.84-.66,1.16-.59A5.73,5.73,0,0,0,404,283,4.15,4.15,0,0,1,405.38,283.14Z"/></svg>