<svg id="trace" xmlns="http://www.w3.org/2000/svg" viewBox="0 0 500 500"><defs><style>.cls-1{fill:#fff;stroke:#fff;stroke-miterlimit:10;stroke-width:0.7px;}</style></defs><title>meowshow-2</title><path class="cls-1" d="M203.57,89.21c-.77-2.73-1.41-5.36-2.27-7.91-1.48-4.44-2.2-9.08-3.8-13.5-1.26-3.5-2-7.18-3.13-10.75-.77-2.53-1.68-5-2.54-7.51a32.57,32.57,0,0,0-7.21-11.69,24,24,0,0,0-5.34-3.66c-2.82-1.68-5.12-4-7.63-6.06-.31-2.21-2.55-2.1-3.82-3.15a11.05,11.05,0,0,0-4.59-2.06A63.76,63.76,0,0,0,155,21.5c-2.88-.31-5.69-1.22-8.55-1.74a13.78,13.78,0,0,0-7.42.31c-1.65.61-3.4.95-5.06,1.51a10.86,10.86,0,0,0-2.53,1.26c-1.75,1.18-2.05,2.33-1.56,4.4a32.79,32.79,0,0,1,1,5.39,14.32,14.32,0,0,0,2.25,6.87c.79,1.25,1.26,2.7,2,4,1,1.74,2.19,3.42,3.37,5.07a39.58,39.58,0,0,1,3.36,5.75c1.11,2.28,1.61,4.8,3.07,7,1,1.47,1.29,3.41,1.84,5.16.5,1.59,1,3.19,1.35,4.82.43,1.84.7,3.72,1.09,5.58a30.43,30.43,0,0,1,.61,7.25,18.4,18.4,0,0,0,.65,3.11,20.15,20.15,0,0,1,.36,6.19c-.08.53.29,1.12.38,1.69a51,51,0,0,1,.57,9.61c-.08,1.73.08,3.47,0,5.2-.06,2.29-.2,4.59-.33,6.88-.16,2.9-.3,5.8-.51,8.7-.29,4-.66,7.91-1,11.87-.05.65,0,1.31,0,2a31,31,0,0,1-1.3,8.88c-.51,1.81-.61,3.74-1.09,5.56a14.53,14.53,0,0,0-.74,4.36,2.27,2.27,0,0,1-.25,1.19c-1.36,2.31-1.38,4.91-1.77,7.44s-.85,4.9-1.28,7.35l-1.25,7.06.41.12c1.45-2.21,1.77-5.12,4-6.83,1.94.74,2.05,1,1.29,2.75-1.15,2.7-2.31,5.39-3.6,8.39l-2.38-1.8c-.69,2.35-1.48,4.76-2.1,7.21-.76,3-1.46,6.06-2,9.13-.46,2.51-.68,5.07-1,7.6-.16,1.05-.44,2.09-.66,3.13-.71,3.28-1.46,6.56-2.13,9.86-.78,3.85-1.46,7.72-2.23,11.57-.29,1.46-.73,2.88-1.08,4.32-.23.91-.41,1.84-.65,2.75-.58,2.23-1.28,4.43-1.75,6.68a68.52,68.52,0,0,1-2.24,7.33,93,93,0,0,0-2.54,11.05c-.36,1.85-.77,3.69-1.14,5.54-.24,1.18-.44,2.37-.66,3.56-.45,2.46-.83,4.93-1.36,7.37-1.26,5.69-2.47,11.38-4.27,16.95a25.43,25.43,0,0,0-1.7,6.86,15.43,15.43,0,0,1-.93,3c-.88,3.34-1.67,6.71-2.58,10-.76,2.8-1.84,5.53-2.4,8.36-.87,4.37-2.22,8.61-3.14,13-.5,2.38-1.59,4.62-2.27,7-.94,3.24-1.73,6.52-2.61,9.78-.26,1-.65,1.93-.87,2.91-.41,1.85-.74,3.72-1.11,5.58a5,5,0,0,1-.28,1,11.53,11.53,0,0,0-1,4.9,46.42,46.42,0,0,1-.88,7.45c-.23,1.58-1,3.23-.72,4.7.38,2-.32,3.84-.39,5.74a14.08,14.08,0,0,0,.67,3c.27,1.44.46,2.89.71,4.33a35.25,35.25,0,0,0,2.55,8.73c.92,2,2.07,3.93,3.09,5.9.28.54.41,1.16.7,1.69,1,1.88,2.14,3.72,3.12,5.62,1.11,2.16,2.14,4.36,3.16,6.57A7.52,7.52,0,0,0,111,426.2a18.48,18.48,0,0,1,1.8,2.86c2.75,4,4.95,8.54,10,10.45,1.75.65,3.11,2.29,4.72,3.36a31.69,31.69,0,0,0,3.92,2.13c1.4.66,2.88,1.17,4.3,1.79q3.8,1.66,7.57,3.4c.48.22.88.63,1.35.9a10.35,10.35,0,0,0,1.45.67c1.26.48,2.52,1,3.79,1.39.95.33,1.91.64,2.88.89,1.63.41,3.26.86,4.92,1.11,2.67.41,5.08,1.69,7.73,2.23a21.66,21.66,0,0,1,6.07,2.15,14.38,14.38,0,0,0,6.21,1.73,35,35,0,0,1,4.54.95c.93.18,1.88.22,2.81.34a5.63,5.63,0,0,1,1.39.23c1.62.65,3.21,1.4,4.84,2a21.78,21.78,0,0,0,7.68,1.62,12,12,0,0,1,2.62.25c2.5.62,4.94,0,7.4-.25a5.87,5.87,0,0,1,2-.11c2.43.7,4.52-.52,6.72-1.06a6.83,6.83,0,0,0,1.34-.78c-.71-.43-1.18-.74-1.67-1-1.68-.86-3.56-1-5.34-1.51-5.14-1.4-10.41-2.32-15.38-4.3-2.45-1-4.94-1.84-7.4-2.8-1.25-.49-2.43-1.18-3.68-1.65-3-1.16-6.11-2.24-9.16-3.37a16.89,16.89,0,0,1-1.83-.88c-1-.5-1.88-1.07-2.87-1.51-3.78-1.67-7.6-3.25-11.35-5a11.31,11.31,0,0,1-3.14-2.21,52.83,52.83,0,0,0-7.59-6.75,3.3,3.3,0,0,1-1.18-1.38,14.8,14.8,0,0,0-2.93-3.86,12,12,0,0,1-2.52-4.34,77.23,77.23,0,0,0-4-9.41,27.79,27.79,0,0,1-1.59-5.24c-.41-1.76-.55-3.58-1-5.34a38.6,38.6,0,0,0-1.6-5.46c-1.46-3.68-1.64-7.57-1.73-11.41a32.2,32.2,0,0,0-.39-6,25.63,25.63,0,0,1-.56-4.62c-.09-2.85-.39-5.7-.28-8.53.19-4.88.43-9.77,1-14.61.55-4.56,1.58-9.05,2.39-13.58.63-3.53,1.17-7.09,1.91-10.6a110.44,110.44,0,0,1,3.06-12.66c1.83-5.38,3.15-10.86,4.51-16.35,1.16-4.67,2.11-9.42,3.64-14,1.37-4,2.42-8.18,3.53-12.28,1.17-4.32,2.46-8.6,3.66-12.9.51-1.83,1.4-3.54,2-5.36,1.53-4.93,3.21-9.83,4.37-14.85a71.7,71.7,0,0,1,3.92-12.84,121.28,121.28,0,0,0,4.93-14.2c.62-2.07.95-4.23,1.45-6.34.44-1.85,1-3.68,1.39-5.53.68-3,1.43-5.93,1.94-8.94a41.22,41.22,0,0,1,4.16-12.08,9.2,9.2,0,0,1,1.9-2.36,2.16,2.16,0,0,1,1.63-.62c2.29.58,4.42-.48,6.63-.5s4.32-.24,6.48-.14c1.77.08,1.77.23,3.48-.53,1.14-3.18-.06-6.16-1-9.07a19.89,19.89,0,0,1-.64-8.24c.31-3.16.85-6.31.33-9.5a10.67,10.67,0,0,0-.4-1.37c-.69-2.26-1.5-4.49-2-6.78a53.69,53.69,0,0,1-.76-5.8c-.69-6-1.68-12-2-18s-.65-12.22.39-18.31a12.26,12.26,0,0,0-.07-4.27c-.15-.82-1-1.51-1.58-2.37a4.45,4.45,0,0,0,2.57-3.37,1.4,1.4,0,0,1,2.42-.7c2.46,2.34,5.68,2.69,8.68,3.63a12.42,12.42,0,0,1,4.69,2.79c3.7,3.4,7.36,6.84,11,10.27a147.81,147.81,0,0,0,13.41,11.58c3.26,2.39,6.49,4.83,9.55,7.47a66.47,66.47,0,0,1,5.25,5.62,19.93,19.93,0,0,1,1.34,1.55c1.35,1.82,3,1.73,4.81.82,1.39-.7,2.7-1.55,4.08-2.26,3.5-1.78,6.95-3.7,10.57-5.21a34.3,34.3,0,0,1,6.69-1.51c4.72-.91,9.51-1.49,14.13-2.93a42.09,42.09,0,0,1,8.13-1.94,55.14,55.14,0,0,1,9.17.1,50.32,50.32,0,0,1,5.4,1c3.66.65,7.34,1.23,11,1.93a31.57,31.57,0,0,1,3.48,1.07c2,.63,4,1.35,6,1.83a2.7,2.7,0,0,0,2-.67c2.63-2.23,5.13-4.62,7.78-6.84s5.49-4.17,8-6.46c3.17-2.85,7-4.72,10.48-7,2-1.3,4.47-1.91,6.72-2.86,3.27-1.38,6.74-2,10.13-3,3.65-1,7.19-2.47,10.72-3.87a6.34,6.34,0,0,1,4.75-.16,4,4,0,0,1,1.21.72A33.76,33.76,0,0,1,402,100.4c.42.6,1.08,1,1.53,1.6a18.62,18.62,0,0,1,1.23,2,10.12,10.12,0,0,0,.67,1.23,9.74,9.74,0,0,1,2,5.25c.14,1.54.34,3.08.38,4.62a8.17,8.17,0,0,1-.39,2.8c-.73,2.12-1.67,4.16-2.42,6.27s-1.18,4.16-2,6.14c-1.09,2.57-1.36,5.34-2.2,8-.57,1.79-.93,3.66-1.38,5.49-.62,2.49-1.27,5-1.86,7.48a6.45,6.45,0,0,1-1.62,3.34c-.46.46-.47,1.38-.69,2.09-.79,2.5-1.66,5-2.34,7.5-.53,2-.8,4-1.21,6s-.83,3.82-1.24,5.74c-.58,2.71-1.08,5.44-1.74,8.13-.58,2.37-.28,4.74-.34,7.12,0,2-.07,4.06-.14,6.1q-.13,4.08-.31,8.16c-.14,3.32-.37,6.64-.41,10a32.91,32.91,0,0,0,.45,5.26c.38,2.56,1,5.11-.28,7.6,0,4.19-1.74,8-2.21,12.14a7.43,7.43,0,0,0,.07,1.57c0,.33.25.69.18,1-.47,1.91,0,3.74.28,5.6a19.05,19.05,0,0,1-.05,3.23A27.33,27.33,0,0,0,386,258c.68,3.59,1.22,7.21,1.76,10.83.17,1.13.14,2.29.22,3.43s.21,2,.26,3c.11,2.5.17,5,.28,7.49a8.92,8.92,0,0,0,.27,1.56,10.17,10.17,0,0,1,.63,2.76c-.18,2.39.72,4.54,1.3,6.75a19.14,19.14,0,0,1,.8,7c-.44,4.24-.59,8.52-.89,12.78-.07.94-.32,1.88-.41,2.82a6,6,0,0,0,.07,2,18,18,0,0,1,.71,6,6,6,0,0,0,.11,2,10.69,10.69,0,0,1-.18,5.24,29.59,29.59,0,0,0-.46,9.08c.35,3.56.64,7.13,1,10.69.1.93.55,1.83.57,2.76.07,2.83,0,5.67,0,8.51a23.31,23.31,0,0,1-.92,6.19c-1.07,4-1.1,8.06-1.72,12.08-.39,2.53-.28,5.14-.49,7.7-.15,1.88-.45,3.75-.67,5.63-.05.47,0,.94-.08,1.4a6.34,6.34,0,0,1-.32,2c-1.28,2.64-1.43,5.46-1.57,8.32a38.35,38.35,0,0,1-.71,4.42c-.36,2.13-.68,4.27-1.09,6.4a14,14,0,0,1-.75,2.29,49.66,49.66,0,0,1-2.81,6,86.05,86.05,0,0,0-3.66,8.12c-1.12,2.69-2,5.48-3.18,8.14-.84,1.9-2,3.67-3,5.5s-1.91,3.57-2.93,5.32-2.12,3.43-3.16,5.16c-.87,1.44-2,2.71-2.41,4.43a5.24,5.24,0,0,1-1,1.76,19.82,19.82,0,0,1-8.39,7.1c-3.14,1.36-5.94,3.52-8.85,5.38a18.38,18.38,0,0,1-8.16,3.3c-2.89.28-5.77,1-8.66,1a17.3,17.3,0,0,0-7.33,1.9,8.84,8.84,0,0,1-2.68.53c-1.34.15-2.69.26-4,.32s-2.57,0-3.85,0a29.27,29.27,0,0,0-5.26-.08c-1.69.26-3.48-.28-5.23-.29-3.23,0-6.23-1.12-9.33-1.75-4-.82-8.14-1.43-12.23-2.05-1.46-.22-3-.13-4.44-.34-2.48-.35-4.95-.81-7.42-1.23-1.06-.18-2.13-.32-3.18-.57-1.51-.37-3-.88-4.51-1.25q-8-1.95-16-3.84c-3.4-.8-6.84-1.47-10.22-2.38a51,51,0,0,1-7.08-2.46,3.78,3.78,0,0,0-3.62.31c-.71.38-1.44.71-2.18,1s-1.5.6-2.26.86a5.58,5.58,0,0,1-1.57.38c-1.89.05-3.79,0-5.67.07-1.61.09-3.2.49-4.81.53a37.85,37.85,0,0,1-4.41-.33c-1.14-.1-2.28-.16-3.4-.35a35.92,35.92,0,0,1-4.92-1.08c-2.45-.8-4.79-2-7.26-2.68a31.67,31.67,0,0,0-6.59-1.11,23.51,23.51,0,0,1-8.3-2.52,50.73,50.73,0,0,0-8.68-2.84c-3.54-.92-7.14-1.61-10.65-2.62a44.51,44.51,0,0,1-5.41-2.31l-8.13-3.56a72.84,72.84,0,0,1-7.23-3.19,30.34,30.34,0,0,1-6.08-4c-1.3-1.22-3.11-1.91-4.67-2.86a9.59,9.59,0,0,1-2-1.36c-1.87-1.94-3.89-3.75-5-6.29a11.25,11.25,0,0,0-1.7-2.54c-3-3.5-4.79-7.66-6.9-11.65-1-2-2.24-3.85-3.32-5.8-.49-.88-.83-1.85-1.26-2.76-1-2.14-2.18-4.22-3-6.43-1-2.79-2.15-5.54-2.11-8.66,0-1.86-.7-3.72-1-5.59a12.25,12.25,0,0,1-.4-3.63c.58-4.17,1.08-8.33,1.44-12.53a45.07,45.07,0,0,1,2.24-11.34c1-2.72,1.16-5.7,1.82-8.53.43-1.84,1.06-3.63,1.64-5.43.5-1.55,1.07-3.08,1.58-4.64.61-1.86,1.21-3.73,1.78-5.61.25-.84.43-1.7.62-2.55.58-2.57,1.07-5.17,1.74-7.71.62-2.36,1.47-4.66,2.13-7,.91-3.26,1.74-6.54,2.61-9.81q1.82-6.87,3.65-13.74c1.3-4.93,2.66-9.85,3.86-14.8a79.57,79.57,0,0,0,2.23-10.9c.57-5.84,2.4-11.39,3.35-17.13a8.13,8.13,0,0,1,.34-.94q1.21-4.06,2.42-8.13c.8-2.73,1.63-5.46,2.38-8.21.43-1.56.76-3.15,1.08-4.74.65-3.19,1.27-6.39,1.9-9.58,1-5,2-10,3-15,.85-4.33,1.71-8.65,2.48-13a89.61,89.61,0,0,1,2.95-11.61,16.28,16.28,0,0,0,.4-2.41c.42-2.67.83-5.35,1.25-8,.61-3.82,1.21-7.65,1.88-11.46.27-1.52.76-3,1.1-4.5.78-3.42,1.52-6.85,2.29-10.28,1.09-4.86.89-9.85,1.4-14.76.15-1.41.5-2.81.57-4.22.16-2.91.15-5.82.29-8.73.17-3.39.53-6.77.6-10.16.06-2.91-.09-5.84-.28-8.75-.25-3.92-.63-7.84-.95-11.76a2.38,2.38,0,0,0,0-.41c-.75-2.85-.51-5.81-1-8.68a75,75,0,0,0-1.68-7.33c-.66-2.41-1.42-4.8-2.27-7.15-.67-1.85-1.58-3.6-2.29-5.44A40.73,40.73,0,0,0,133.45,47a4.66,4.66,0,0,1-.54-.85c-1.38-2.57-2.87-5.08-4.06-7.73a13.57,13.57,0,0,1-1-4.54,29.85,29.85,0,0,0-1.15-6.77c-.78-2.52.82-5.2,3.22-6.48,3.35-1.79,7-2.58,10.57-3.5a16.27,16.27,0,0,1,7.66.33c3.78.82,7.48,1.93,11.35,2.38a50.3,50.3,0,0,1,6.31,1.5,15.59,15.59,0,0,1,7.15,4.49,41.15,41.15,0,0,0,8.67,6.91c4.1,2.34,6.92,5.83,9.25,9.81a50.5,50.5,0,0,1,5,11.51c1.63,5.61,3.35,11.19,5,16.8.79,2.73,1.47,5.48,2.12,8.24s1.22,5.62,1.87,8.42C205,88.3,204.75,88.79,203.57,89.21ZM376.05,428.45l4.26-8.69a1,1,0,0,0,.07-.19c.37-1.43.81-2.84,1.08-4.28.46-2.43.87-4.88,1.18-7.33.49-3.83,1.11-7.62,2-11.39a53.75,53.75,0,0,0,1.25-8.42c.41-6.51.6-13,2.14-19.42a40.76,40.76,0,0,0,.76-12.73c-.25-3.31-.8-6.59-1.1-9.89-.26-2.9-.47-5.82-.47-8.73,0-2.42.44-4.84.47-7.27a71.09,71.09,0,0,0-.28-9.75,42,42,0,0,1,.26-10.76c.53-4.11,1-8.26.3-12.41-.27-1.52-.86-3-1.16-4.51-.41-2.06-.61-4.17-1-6.23a66.9,66.9,0,0,1-.9-11.1c-.09-2.49.21-5-.62-7.41-1.39-4-1.22-8.28-1.62-12.45-.23-2.43,0-4.89-.08-7.34a62.2,62.2,0,0,1-.28-6.45c.24-3,.83-5.9,1.32-8.84.53-3.14,1.12-6.28,1.66-9.42a2.19,2.19,0,0,0-.14-1.19,14.49,14.49,0,0,1-.85-6.17c.05-5.28.24-10.57.38-15.85,0-1.16.09-2.31.17-3.47a75.45,75.45,0,0,0,.49-8.3,24.13,24.13,0,0,1,.79-6.6,56,56,0,0,0,1.71-8.16c.31-4.12,1.65-8,2.34-12a11.9,11.9,0,0,1,.78-2.73c1.7-3.92,2.31-8.17,4-12.13,1.29-3.1,1.91-6.48,2.85-9.73q1.24-4.28,2.53-8.55a93.49,93.49,0,0,1,3.13-10.06c.93-2.17,1.67-4.45.9-6.89a5.16,5.16,0,0,1-.17-1.62,5.22,5.22,0,0,0-1.7-3.78,1.62,1.62,0,0,0-2-.43,10.5,10.5,0,0,1-3.51,1,6.35,6.35,0,0,0-4,1.72,6.41,6.41,0,0,1-3.36,1.21c-2.33.24-4.68.41-7,.81a20,20,0,0,0-6.31,2.56c-2.42,1.34-5.21,2-7.63,3.47a3.6,3.6,0,0,1-.77.28c-1.21.39-2.45.72-3.62,1.19-.68.27-1.21,1-1.9,1.15-2.61.6-4.82,2-7.19,3.14-3.75,1.76-7.57,3.37-11.4,5a4.46,4.46,0,0,1-1.73,0c-.65,0-1.3-.08-2-.08a7,7,0,0,0-4,1.33,2.37,2.37,0,0,1-3,.14c-2.33-1.93-5.19-2.65-8-3.34-3.74-.93-7.57-1.48-11.35-2.27-1-.22-2-.84-3.05-1-2.27-.34-4.56-.5-6.84-.73a2.35,2.35,0,0,0-.4.07c-4.34.37-8.51,1.58-12.74,2.53-1.72.39-3.48.65-5.18,1.12-3.59,1-7.38.86-10.93,2-.7.23-1.48.27-2.16.53-3.21,1.26-6.46,2.42-9.29,4.5a26.32,26.32,0,0,1-4.67,2.85c-2.47,1.11-5.06,2-7.59,2.92-.64.24-1.28.56-1.9,0a1.43,1.43,0,0,1-.08-1.88,1.81,1.81,0,0,0-.27-2.25,25.48,25.48,0,0,0-3.11-3.76q-6.55-5.78-13.28-11.35c-2.26-1.87-4.67-3.55-6.78-5.6-3.49-3.41-6.9-6.92-10.5-10.22a104.08,104.08,0,0,0-8.5-6.93,11,11,0,0,0-6.34-2.39c-.41,1.39,1.3.77,1.4,1.84-1,1.28-.5,2.66.19,4.13a19.91,19.91,0,0,0,4.13,5.24c2.48,2.56,5.26,4.84,7.69,7.44a44.63,44.63,0,0,0,6.22,5.23c3.37,2.51,6.81,4.93,10.12,7.51a11.83,11.83,0,0,1,3.87,4.88c.86,2.13,1.7,2.55,4.19,2.58a5.51,5.51,0,0,1,2.16.51,2,2,0,0,1,.8,2.8c-.47,1-1.15,1.17-2.35.71a11.66,11.66,0,0,0-2.31-.63A6.29,6.29,0,0,1,231,132a18.57,18.57,0,0,0-7.36-8.18A83.56,83.56,0,0,1,209,112.32c-1.11-1.08-2.07-2.33-3.21-3.38-3.23-3-6.18-6.24-8-10.37-.11-.26-.42-.44-1-1-.17,1.81-.37,3.2-.42,4.59-.07,2.24,0,4.49-.05,6.74,0,1.13-.18,2.25-.13,3.38.15,3.31.39,6.61.55,9.91.09,1.88-.07,3.8.19,5.65a81.89,81.89,0,0,0,1.63,8.18c.85,3.42,1.88,6.79,2.81,10.18a2.77,2.77,0,0,1,.18,1.56c-.52,1.29-.18,2.55-.14,3.83.06,1.9.09,3.8,0,5.69-.13,2.57-.62,5.13,0,7.71.84,3.29,1.5,6.62,2.37,9.89a4.11,4.11,0,0,1-.67,3.83,3.68,3.68,0,0,0-.73,1.62,2.31,2.31,0,0,1-1.74,2,2.21,2.21,0,0,1-2.63-1.08,2,2,0,0,0-1.87-1,27.54,27.54,0,0,0-8.26.58,7.79,7.79,0,0,1-2.39.38,3.19,3.19,0,0,0-3,1.67c-2,2.92-2.68,6.32-3.56,9.64-1,3.72-1.27,7.59-2.53,11.26a44.2,44.2,0,0,0-1.63,6.29,77.85,77.85,0,0,1-4.43,14.7c-1.21,3-2.32,6.08-3.29,9.18s-1.68,6.44-2.63,9.62c-1.54,5.13-3.22,10.22-4.8,15.34-1.26,4.09-2.46,8.19-3.68,12.29-1.14,3.83-2.33,7.65-3.37,11.5-1.52,5.62-2.93,11.27-4.4,16.91-.33,1.29-.7,2.56-1,3.85-.69,2.58-1.35,5.17-2.07,7.75s-1.55,5.34-2.32,8c-.26.92-.5,1.84-.73,2.76-.65,2.55-1.68,5.09-1.84,7.67a55.46,55.46,0,0,1-2.3,12.13,12.86,12.86,0,0,0-.39,2q-.55,4.43-1.07,8.86c-.38,3.37-.77,6.74-1.1,10.11-.12,1.21.09,2.47-.1,3.67-.59,3.81.47,7.56.25,11.35a2,2,0,0,0,.1.6,24,24,0,0,1,.87,6.8,56,56,0,0,0,.27,7.08,20.81,20.81,0,0,0,1.16,3.45c.36,1.21.61,2.45.91,3.68.4,1.62.81,3.24,1.18,4.87.47,2.11.85,4.25,1.38,6.34a24.16,24.16,0,0,0,1.33,3.62c.8,1.84,1.7,3.65,2.54,5.48.7,1.52,1.27,3.11,2.11,4.55a23.92,23.92,0,0,0,2.62,3.35c1.14,1.33,2.32,2.64,3.54,3.9s2.38,2.06,3.34,3.27a18.83,18.83,0,0,0,7.55,5.65c4.26,1.83,8.46,3.82,12.69,5.72.52.23,1.1.63,1.7,0-1.36-3.23-2.71-6.48-4.09-9.71-.75-1.76-.66-2.14,1.14-3.59a11.14,11.14,0,0,1,1.4,1.84c.73,1.52,1.37,3.08,2,4.66a16.89,16.89,0,0,0,2.16,4.35,14,14,0,0,1,1.2,2.53l-1.55,1a2.87,2.87,0,0,0,.57.41c4.43,1.51,8.43,4,12.94,5.4,3.19,1,6.21,2.6,9.54,3.34,3.05.68,6,1.63,9.06,2.44.21.06.47-.09.92-.19-.72-1-1.31-1.91-1.94-2.76-1.79-2.44-2-5.41-2.62-8.2a36.26,36.26,0,0,1,0-12.1c.28-2.14.2-4.32.45-6.47.32-2.75.81-5.48,1.23-8.22.05-.34.07-.68.1-1,.26-3.51.18-7.09.85-10.52.94-4.79.51-9.61,1-14.4.19-2,0-4,0-6.07,0-3.25.2-6.51.19-9.76,0-1.76-.28-3.52-.35-5.29-.14-3.31-.18-6.62-.34-9.93-.12-2.57-.3-5.14-.54-7.7-.42-4.36-.7-8.75-1.46-13.06-.39-2.2-.77-4.4-1.05-6.62-.9-7-.57-14.07-.83-21.1-.05-1.34.48-1.85,2.23-2.28a16.52,16.52,0,0,1,.5,2.32c.21,2.76.37,5.53.5,8.3.15,3.09-.16,6.2.24,9.29.48,3.69.88,7.41,1.61,11.05a56.27,56.27,0,0,1,1.52,11.08c0,2.63-.07,5.26.08,7.88.2,3.49.59,7,.88,10.47.06.74,0,1.49,0,2.23.1,1.68.32,3.36.32,5,0,2.58-.19,5.16-.23,7.75-.1,7.11.15,14.23-1.09,21.28-.32,1.8-.3,3.67-.57,5.48s-.76,3.51-.28,5.32a.9.9,0,0,1,0,.4,81.36,81.36,0,0,0-1.48,11.28c-.33,4.07-.87,8.14-.42,12.21.43,3.89.79,7.87,4,10.85a4.17,4.17,0,0,0,4,1.13c-.41-3.32.95-6.53,0-9.75-2-1.29-4.5-2-4.77-4.87a1.59,1.59,0,0,1,2-.39,16.6,16.6,0,0,0,3.33,1.43,3.71,3.71,0,0,1,3.11,3.72,11.29,11.29,0,0,1,.1,1.63c-.2,2.77-.41,5.54-.66,8.31-.16,1.78.18,2.32,1.88,2.76.39.1.77.27,1.17.36,1.22.29,1.57,0,1.71-1.26.25-2.22.6-4.44.81-6.67a11,11,0,0,0-.1-3.22c-.12-.56-.75-1.35-1.23-1.42-1.27-.17-1.82-1.14-2.58-1.87-.29-.27-.31-.82-.46-1.25.47-.15,1-.51,1.42-.43a11.27,11.27,0,0,1,5,2.23,4.12,4.12,0,0,1,1.63,4.15c-.22,1.47-.65,2.9-1,4.36-.13.63-.2,1.27-.3,1.91.45-.09.69-.25.76-.47,1.51-4.79,3.07-9.56,3.41-14.65S236.53,431,237,426a101.83,101.83,0,0,0,.81-16,63.81,63.81,0,0,0-.74-7.7,28.16,28.16,0,0,1-.41-6.51c.24-4.41.71-8.81,1.09-13.21.1-1.14.13-2.3.31-3.43.38-2.48.9-4.94,1.24-7.42.39-2.9.53-5.83,1-8.71a45.7,45.7,0,0,0,0-11.35,45,45,0,0,1,.5-13.93c.23-1.06.23-2.17.51-3.21.53-2,1.15-3.89,1.78-5.81.48-1.47,1-2.92,1.53-4.38.24-.69.85-1.47.68-2-.45-1.57.28-2.94.37-4.4a2.2,2.2,0,0,1,2.18-2.34c1.79,1.47,1.82,1.81.78,3.76a9,9,0,0,0-.6,1.89c-.21.78-.33,1.59-.61,2.34a65.46,65.46,0,0,0-2.5,6.51c-.94,3.66-1.58,7.39-2.27,11.1a39.45,39.45,0,0,0-.28,9.48,81.46,81.46,0,0,1,.13,11.35c-.53,6.21-1.52,12.38-2.3,18.57a60.16,60.16,0,0,1-.89,6.84c-.55,2.25.41,4.59-.65,6.75a91.31,91.31,0,0,0,.55,9.95,68.6,68.6,0,0,1,.15,16.66c-.38,4.6-.89,9.19-1.29,13.79-.19,2.17-.22,4.35-.35,6.52a41.14,41.14,0,0,1-.33,4.22,64.16,64.16,0,0,1-1.39,6.93c-.79,2.84-.65,6-2.8,8.4-1.12,1.25-2.19,2.55-3.46,4,.24.24.53.78.95.9a58,58,0,0,0,8.25,2.19,25.44,25.44,0,0,1,4.87,1.16,8.3,8.3,0,0,0,1.17.29c2.52.48,5.07.85,7.57,1.46,3.82.93,7.58,2.12,11.4,3,2.64.63,5.34,1,8,1.42,2.48.39,5,.69,7.45,1,1.6.21,3.22.37,4.82.61,2.2.34,4.4.71,6.59,1.14,2.72.53,5.41,1.18,8.14,1.64a14.89,14.89,0,0,0,3.23-.22,14.63,14.63,0,0,1-3-5.34c-1-3-.86-6-.86-9,0-2.56.47-5.12.6-7.68a78.08,78.08,0,0,1,1.73-11.61c.62-3.06,1.22-6.13,1.73-9.21.65-3.89,1.19-7.79,1.79-11.68a11.29,11.29,0,0,1,.4-1.79A68.53,68.53,0,0,0,307.26,411c.51-3.63.87-7.27,1.36-10.9.33-2.42.79-4.81,1.14-7.23.39-2.68.88-5.36,1.05-8.06.35-5.36.46-10.74.75-16.1a63.82,63.82,0,0,0-.31-13.84,7.8,7.8,0,0,1-.18-2.24c.46-3.4-.66-6.58-1.37-9.8-.85-3.9-3-7.4-3.46-11.44a3.3,3.3,0,0,0-.37-.95c-.47-1-1-2.06-1.41-3.14a21.12,21.12,0,0,1-.86-3.35,1.48,1.48,0,0,1,2.78-.8c.82,1.83,1.61,3.68,2.33,5.56.28.74.15,1.65.51,2.33,1.24,2.35,1.62,5,2.73,7.4a12.14,12.14,0,0,1,1,3.29c.46,3.07,1.2,6.09,1.19,9.26,0,2.73.89,5.47.91,8.2,0,4.82-.27,9.64-.46,14.46-.08,2.1-.23,4.19-.38,6.28q-.28,4-.62,8.06c-.08,1-.23,2-.36,3-.45,3.48-1.46,6.87-1.59,10.41a14.22,14.22,0,0,1-.92,5.26c-.5,1.16-.22,2.62-.52,3.89-.58,2.48-.63,5.06-1.56,7.47a2,2,0,0,0,0,.41c-.34,2.13-.67,4.26-1,6.39-.46,2.81-1,5.62-1.38,8.44a43,43,0,0,1-1.65,8.16,6.7,6.7,0,0,0-.51,2.37c.1,2.12-.69,4.07-1,6.12-.5,3.7-1,7.4-1.2,11.12-.1,2,0,4.08,0,6.12,0,3.67.71,7,3.53,9.65.53.49.89,1,1.68.73a9.09,9.09,0,0,0,.15-6,37.54,37.54,0,0,0-2.4-5.67l2.3-1.32c1.18,1.63,2.28,3.07,3.3,4.57a3.81,3.81,0,0,1,.81,2.87c-.3,1.65-.53,3.32-.84,5-.25,1.3.44,2.08,1.79,1.95l1.81-.18c.83-.09,1.41-.42,1.42-1.4,0-2.38.08-4.76.12-7.14,0-.69-.32-1-1-1.33a37.09,37.09,0,0,1-3.5-2.18c1-2.07,2.49-2.51,4-1.43a7.08,7.08,0,0,0,1.36.79c2.37,1,2.95,1.71,2.9,4.26,0,1.33-.34,2.66-.5,4a8.6,8.6,0,0,0-.11,3.79,17,17,0,0,1,1.69-.31,4.51,4.51,0,0,0,4.42-4c.42-2.19.8-4.39,1.18-6.59.84-4.8,1.49-9.64,2.56-14.39.88-3.9.33-7.72-.08-11.53a93.74,93.74,0,0,1-.87-11.33c0-2.67.48-5.25.72-7.87.18-2,.65-4,.71-6.07.1-3.4,0-6.8,0-10.21,0-2.92-.1-5.86.12-8.76a22.66,22.66,0,0,0,0-6.65c0-.19.06-.4.06-.61a65.31,65.31,0,0,0-.21-7.91,33.61,33.61,0,0,1,1-14.08c.57-2,1-4.07,1.46-6.13.63-3.12,1-6.31,1.79-9.38,1.15-4.33,2.49-8.62,4-12.83a31.89,31.89,0,0,0,2.21-12.33c-.07-1.59-.23-3.35.64-4.94.63-1.13,1.36-1.4,2.38-.57a3.43,3.43,0,0,1,.64,4.06c-.74,1.8-1.72,3.56-1.25,5.65a2.72,2.72,0,0,1-.21,1.2c-.74,2.65-1.48,5.3-2.24,7.94-1.18,4.09-2.45,8.16-3.55,12.27-.75,2.81-1.28,5.68-1.91,8.53-.16.73-.34,1.45-.49,2.18-.68,3.39-1.43,6.77-2,10.19a39.21,39.21,0,0,0-.45,5.62c0,1.07.38,2.16.37,3.23-.06,4.8-.25,9.59-.31,14.39s.1,9.79,0,14.68a75,75,0,0,1-.78,9.31c-.92,6.09-1.25,12.13.1,18.2a26.12,26.12,0,0,1,.92,5.81,141.11,141.11,0,0,1-1.87,18.53c-.48,3.35-.86,6.71-1.3,10.06-.15,1.12-.37,2.24-.58,3.55a13.51,13.51,0,0,0,1.67,0c2.41-.32,4.82-.67,7.22-1a5.14,5.14,0,0,0,1.77-.38c1.64-.94,3.2-2,4.81-3,2-1.24,4-2.51,6-3.66,1.23-.69,2.59-1.16,3.87-1.75a4.08,4.08,0,0,0,1.57-.89c1.59-2.1,4-3.47,5.25-5.89.79-1.53,2-2.86,2.46-4.68a5.17,5.17,0,0,0-.95-.26c-1.07,0-1.23-.69-1-1.54a10.16,10.16,0,0,1,.53-1.54c.64-1.49,1.35-3,2-4.46a3.23,3.23,0,0,1,2.35-2.19c.65.64,1.87.89,1.46,2.53a16.77,16.77,0,0,0,3.66-5.68,70.29,70.29,0,0,1,2.87-6.94,16.46,16.46,0,0,0,1.38-4.58c-1.09.86-2,1.82-3,2.75-.64.62-1.33,1.25-2.51.28a16,16,0,0,1,1.81-3.48c1.22-1.4,2.15-2.76,2.06-4.69,0-1,.46-1.67,1.58-1.55A6.25,6.25,0,0,1,376.05,428.45ZM341.72,123.82l.25.49a34.85,34.85,0,0,0,3.86-1.07c4.65-1.87,9.27-3.8,13.89-5.74,2.75-1.15,5.5-2.3,8.21-3.57,4.42-2.06,8.8-4.22,13.56-5.38a30.32,30.32,0,0,1,5-1,13,13,0,0,0,7.25-2.38,13,13,0,0,1,3.1-1.41c.92-.37,1.87-.69,2.82-1a22.18,22.18,0,0,0-4.76-6.56,2.29,2.29,0,0,0-2.57-.69c-1.21.44-2.43.84-3.64,1.29a47.14,47.14,0,0,1-5.31,2,89.72,89.72,0,0,0-14.78,4.51,44.52,44.52,0,0,0-7.61,3.84c-4.06,2.79-7.9,5.89-11.77,9a20.09,20.09,0,0,0-3.75,3.71,12.08,12.08,0,0,1-1.64,1.95C343.09,122.37,342.42,123.11,341.72,123.82Z"/><path class="cls-1" d="M147.18,47.3c-3,.06-4.82-1.88-6.51-3.81-1-1.1-1.5-2.55-2.73-3.5a1.25,1.25,0,0,1-.15-2,1.47,1.47,0,0,1,2-.25,33.37,33.37,0,0,1,2.7,2.93,5.3,5.3,0,0,1,.67,1c.87,1.64,2.52,2.39,3.87,3.48C147.91,45.87,147.89,45.89,147.18,47.3Z"/><path class="cls-1" d="M154.65,77.37a8.9,8.9,0,0,1,1.3,1.91,40.61,40.61,0,0,1,1.31,4.66c.34,1.49.53,3,.84,4.81-.4.17-1,.64-1.53.6a2,2,0,0,1-1.88-1.59c-.13-.52-.36-1-.44-1.56-.33-2.19-.65-4.38-.91-6.58C153.2,78.47,153.27,78.46,154.65,77.37Z"/><path class="cls-1" d="M157.93,104.59c-2,.08-2.69-.29-2.74-1.94-.06-2.15.16-4.31.28-6.47,0-.52.17-1,.23-1.55.13-1.12.62-1.56,1.72-1.5.94,0,1.4.57,1.19,1.71a35.4,35.4,0,0,0-.34,8.06A7,7,0,0,1,157.93,104.59Z"/><path class="cls-1" d="M146.48,203.17c-1.09-.71-.77-1.49-.43-2.25,1-2.34,2.09-4.69,3.19-7a4.06,4.06,0,0,1,1.13-1.39c.37-.29,1-.6,1.35-.45a1.56,1.56,0,0,1,.78,1.25,9.39,9.39,0,0,1-.81,3.05c-.71,1.43-1.65,2.75-2.49,4.12A5.46,5.46,0,0,1,146.48,203.17Z"/><path class="cls-1" d="M153.6,57.83a1.45,1.45,0,0,1-1.9,1.31,5.12,5.12,0,0,1-2.08-1.22c-1.57-1.76-3.06-3.59-4.48-5.47-.72-1-.58-1.71.1-2.1a1.93,1.93,0,0,1,2.36.58c1.17,2.48,3.52,3.87,5.24,5.82A10.29,10.29,0,0,1,153.6,57.83Z"/><path class="cls-1" d="M157.46,43c.27.28.84.61,1,1.1a9.89,9.89,0,0,0,3.91,4.58,7.72,7.72,0,0,1,1.84,2.14,1.34,1.34,0,0,1-.07,1.27,1.53,1.53,0,0,1-1.26.34,3.13,3.13,0,0,1-1.42-.75c-1.51-1.36-3-2.7-4.42-4.18a4.26,4.26,0,0,1-1.18-3.16C155.92,43.47,156.37,43.07,157.46,43Z"/><path class="cls-1" d="M150.73,62.8c2.15-.08,2.38.07,3.06,1.75,1,2.47,2.08,4.92,3.08,7.39.11.26.1.8,0,.9a2.93,2.93,0,0,1-1.42.48,1.34,1.34,0,0,1-1-.53c-1.69-2.83-3.31-5.71-3.76-9.06A4.69,4.69,0,0,1,150.73,62.8Z"/><path class="cls-1" d="M153.5,29c.15-.22.37-.92.75-1a2,2,0,0,1,1.63.41c1.59,1.44,3.12,3,4.6,4.51a8.84,8.84,0,0,1,1.34,2,1.32,1.32,0,0,1-.45,1.8c-.67.44-1.2.08-1.76-.46-1.35-1.31-2.83-2.49-4.17-3.8C154.55,31.54,153.35,30.8,153.5,29Z"/><path class="cls-1" d="M159.09,26.83l1.44-1.69c.31,0,.49,0,.57.06a12.31,12.31,0,0,0,5,3.33c1.1.34,2,1.63,2.8,2.6a1.57,1.57,0,0,1,.16,1.46,1.13,1.13,0,0,1-1.64.19l-.86-.55a19.73,19.73,0,0,0-3.87-2.12C161.13,29.58,160.18,28.32,159.09,26.83Z"/><path class="cls-1" d="M157.53,38.27c-1.05,1.79-1.53,2-3.15.68s-3.08-2.62-4.59-4a3.56,3.56,0,0,1-.66-1c-.29-.54-.65-1.12,0-1.64a1.52,1.52,0,0,1,2-.21,17,17,0,0,1,2.15,1.52C154.73,35.1,156,36.64,157.53,38.27Z"/><path class="cls-1" d="M156,138.37c-2.23-.51-2.78-1.23-2.59-3.1a10.32,10.32,0,0,0,0-1.81,11.06,11.06,0,0,1,.93-4.93,1.67,1.67,0,0,1,2.06-1.17,1.62,1.62,0,0,1,.73,2.12,19.6,19.6,0,0,0-.78,7.43,3,3,0,0,1-.08.8A4.08,4.08,0,0,1,156,138.37Z"/><path class="cls-1" d="M158.19,117.5c0,.81.15,1.62.12,2.43a3.48,3.48,0,0,1-.38,1.7,2,2,0,0,1-1.37.92,1.74,1.74,0,0,1-1.24-1.07,7.34,7.34,0,0,1-.29-3.38,11.39,11.39,0,0,0,.13-3.15c0-1.62.33-2.29,1.29-2.28,1.13,0,1.79.89,1.79,2.41q0,1.22,0,2.43Z"/><path class="cls-1" d="M143.27,199.39c-.64-.06-1.81.13-2-.24a3.22,3.22,0,0,1-.14-2.45c.67-1.89,1.72-3.63,2.07-5.66.08-.45.87-1.14,1.24-1.08a2,2,0,0,1,1.46,1.14,6.38,6.38,0,0,1-.15,3.13A54.5,54.5,0,0,1,143.27,199.39Z"/><path class="cls-1" d="M136.83,24.52a2.47,2.47,0,0,1,3.27.44c1.66,1.59,3.31,3.2,4.89,4.88.46.49,1.11,1.13.56,2a1.87,1.87,0,0,1-2.41.26,6.17,6.17,0,0,1-1.26-1c-1.27-1.31-2.49-2.66-3.76-4C137.41,26.34,136.7,25.64,136.83,24.52Z"/><path class="cls-1" d="M160,159.17c-.46,1-.86,1.87-1.2,2.72s-.66,1.91-1,2.85c-.16.44-.28,1-.61,1.24a3.41,3.41,0,0,1-2.11.7c-.9-.21-1.08-1.2-.73-2,.9-2.15,1.85-4.29,2.86-6.39a1.2,1.2,0,0,1,1.72-.59C159.44,158,159.69,158.65,160,159.17Z"/><path class="cls-1" d="M132,29.09c0-1.54.53-1.92,1.54-1.51,3,1.19,4.76,3.69,6.7,6a2.56,2.56,0,0,1,.38,1.15c.19,1-.51,1.62-1.44,1.22a2.83,2.83,0,0,1-1.13-.85,22.21,22.21,0,0,0-5.19-4.8A3.75,3.75,0,0,1,132,29.09Z"/><path class="cls-1" d="M164,58l1.16-1.21a2.12,2.12,0,0,1,2.21,1.71c.79,2.41,1.8,4.75,2.75,7.2-1.32,1.47-2.31,1.45-3.12-.36C165.93,63,165,60.5,164,58Z"/><path class="cls-1" d="M153.87,150.69c-2.7.28-3.32-.21-3.38-2.58a10.75,10.75,0,0,1,1.51-5.64c.41-.72,1.12-1.3,1.81-.82a2.43,2.43,0,0,1,.93,2A21.54,21.54,0,0,0,153.87,150.69Z"/><path class="cls-1" d="M153,159.59a6.7,6.7,0,0,1-.9,2.13,6.73,6.73,0,0,0-1.58,4.22c-.05.51-.54,1.36-.87,1.38a2,2,0,0,1-1.68-.76,5.48,5.48,0,0,1-.43-2.93,12.2,12.2,0,0,1,1.38-3.37C150,158.34,151,158.18,153,159.59Z"/><path class="cls-1" d="M170.29,49.49a2.05,2.05,0,0,1-2.84-.5c-1.33-1.36-2.62-2.76-3.91-4.16a6.65,6.65,0,0,1-.7-1,1.25,1.25,0,0,1,.51-1.76A1.74,1.74,0,0,1,165,42c1.83,1.81,3.6,3.69,5.25,5.66C170.56,48,170.29,48.92,170.29,49.49Z"/><path class="cls-1" d="M175.92,48a4.6,4.6,0,0,1-3.35-2.5c-.4-.89-1.33-1.53-1.91-2.36-.83-1.21-1.78-2.45-1-4.12a2.05,2.05,0,0,1,2.24,1.07q2.08,2.75,4.1,5.55C176.63,46.52,176.6,46.55,175.92,48Z"/><path class="cls-1" d="M150.51,28.2a1.93,1.93,0,0,1-2.71.19c-1.7-1.44-3.26-3-4.85-4.6a3.15,3.15,0,0,1-.44-1l1.14-1.46a5.74,5.74,0,0,1,1.79.68c1.37,1.16,2.56,2.56,4,3.66A3,3,0,0,1,150.51,28.2Z"/><path class="cls-1" d="M158.76,54a3.38,3.38,0,0,1-.66.76,2,2,0,0,1-2.46-.24q-2.13-1.85-4.11-3.87a2,2,0,0,1-.49-1.48,2.58,2.58,0,0,1,.88-1.44c.58-.48,1.17-.1,1.59.38.58.66,1.07,1.4,1.68,2,.93,1,1.94,1.87,2.88,2.82A6.67,6.67,0,0,1,158.76,54Z"/><path class="cls-1" d="M181.78,60.82a14.83,14.83,0,0,1-1-1.45c-.77-1.4-1.44-2.87-2.26-4.24a2.87,2.87,0,0,1,0-2.89c.36-.79,1.5-1,1.8-.25,1,2.32,3,4.21,3,7C183.25,59.78,182.92,60.37,181.78,60.82Z"/><path class="cls-1" d="M163.46,69.85c-.8.86-1.55.86-2.16.09a7.52,7.52,0,0,1-1.29-2.2c-.64-1.91-1.14-3.86-1.73-5.94a5.32,5.32,0,0,1,.84-1c.61-.44,1.24-.31,1.46.42a22.92,22.92,0,0,1,1.22,3.3A32.32,32.32,0,0,0,163.46,69.85Z"/><path class="cls-1" d="M164.32,119.25c-2.15,0-2.45-.29-2.75-2-.37-2.15.56-4.1,1-6.12a1.46,1.46,0,0,1,1.2-.8,1.5,1.5,0,0,1,1,1c.14,1.59.62,3.18,0,4.82A16.2,16.2,0,0,0,164.32,119.25Z"/><path class="cls-1" d="M175,91.12a1.9,1.9,0,0,1,1.74,1.71,22,22,0,0,1-.2,7.4,2.78,2.78,0,0,1-.39.91.8.8,0,0,1-1.47-.06,4.2,4.2,0,0,1-.35-1.56c-.12-2-.17-4-.31-6.07A2.48,2.48,0,0,1,175,91.12Z"/><path class="cls-1" d="M168.5,72.87c1.38,1.36,1.45,3.05,1.67,4.7a5.93,5.93,0,0,0,.35,1.69c.61,1.32.65,1.51-.08,3.25a1.47,1.47,0,0,1-1.76-1c-.72-1.93-1.86-3.74-1.67-6A3.1,3.1,0,0,1,168.5,72.87Z"/><path class="cls-1" d="M164.89,131.8a9.56,9.56,0,0,1-2,4.83c-.46.5-1.06,1.23-1.68.7a2.62,2.62,0,0,1-.84-2.06,34.52,34.52,0,0,1,1.49-4.85c.29-.83,1-.76,1.72-.59C164.6,130.08,164.91,130.53,164.89,131.8Z"/><path class="cls-1" d="M162.27,144.87c-.93,2-1.75,3.85-2.68,5.65-.12.23-.87.32-1.23.19a2.46,2.46,0,0,1-1.21-2.75,41.5,41.5,0,0,1,1.93-3.81,1.48,1.48,0,0,1,1.91-.74C161.52,143.64,161.83,144.33,162.27,144.87Z"/><path class="cls-1" d="M170.62,97.46c-.12.51-.24,1.17-.44,1.81-.28.9-1,1.18-1.64.54A3.39,3.39,0,0,1,167.42,98a39.86,39.86,0,0,1,.33-5.4,1.3,1.3,0,0,1,.82-.93c.36,0,.81.34,1.16.61a1.12,1.12,0,0,1,.42.67C170.33,94.38,170.46,95.84,170.62,97.46Z"/><path class="cls-1" d="M162.93,84.29a2.9,2.9,0,0,0,.06.6c.19.59.15,1.15-.51,1.33a1.46,1.46,0,0,1-1.87-.82,10.46,10.46,0,0,1-.43-2c-.23-1.19-.42-2.4-.68-3.59s-.08-1.68.78-1.94A1.45,1.45,0,0,1,162.15,79c.45,1.71.73,3.47,1.09,5.21Z"/><path class="cls-1" d="M189.4,56.71c-.24-.19-.59-.34-.7-.6-.83-1.9-1.68-3.79-2.38-5.73-.57-1.6.08-2.3,1.71-2.36.56,1.08,1,2.09,1.59,3C191.11,53.38,191.1,54.9,189.4,56.71Z"/><path class="cls-1" d="M175.21,114a12.84,12.84,0,0,1-1.66,5.28c-.4.59-.82.88-1.51.66a1.16,1.16,0,0,1-1-1.35,12.76,12.76,0,0,1,.51-2.15c.4-1.14.94-2.24,1.33-3.38.22-.65.27-1.46,1.19-1.3s1.25.92,1.13,1.84C175.23,113.69,175.22,113.82,175.21,114Z"/><path class="cls-1" d="M164,100.23c-2.27.79-2.66.6-3-1.46-.34-1.9.46-3.59,1.18-5.26a1.3,1.3,0,0,1,1.16-.43,1.27,1.27,0,0,1,1.1,1.47c-.2,1.45-.42,2.9-.57,4.36A5.89,5.89,0,0,0,164,100.23Z"/><path class="cls-1" d="M182.15,44.11c-1.94.6-2.47.51-3-.63-.72-1.45-1.29-3-2-4.44-.35-.77-.15-1.45.57-1.66a1.79,1.79,0,0,1,1.57.43A18.82,18.82,0,0,1,182.15,44.11Z"/><path class="cls-1" d="M167.92,121.35A1.47,1.47,0,0,1,166.4,120a13.55,13.55,0,0,1-.19-5.84c.11-.46.53-1.11.88-1.16a1.58,1.58,0,0,1,1.26.76,6,6,0,0,1,.56,2.3c0,1-.14,2-.17,3A2.68,2.68,0,0,1,167.92,121.35Z"/><path class="cls-1" d="M172.81,56.16A4.27,4.27,0,0,1,173,54.7a1.69,1.69,0,0,1,1-.83,1.42,1.42,0,0,1,1,.74c.7,1.38,1.3,2.82,1.93,4.24.37.83.43,1.76-.53,2a2.24,2.24,0,0,1-1.95-.56A7.58,7.58,0,0,1,172.81,56.16Z"/><path class="cls-1" d="M153.56,183c-1.13.12-1.43-.65-1.62-1.47-.39-1.75.33-3.32,1-4.85a1.78,1.78,0,0,1,2.31-.65,1.69,1.69,0,0,1,.71,2.11C155.19,179.78,154.35,181.38,153.56,183Z"/><path class="cls-1" d="M145.86,37.26c2.44.41,2.65,3.3,4.84,3.93,0,1-.19,1.9-1.21,2.15a2.25,2.25,0,0,1-2.3-1c-.33-.42-.49-1-.79-1.41a3.56,3.56,0,0,0-.89-1c-1.28-.86-1.35-1.2-.25-2.24A3.67,3.67,0,0,1,145.86,37.26Z"/><path class="cls-1" d="M309.18,183.24c-1.09,3.68-2.24,7.35-3.24,11.06a22.29,22.29,0,0,0-.73,4.83c-.17,4.12-.25,8.26-.27,12.38,0,2.58.14,5.15.25,7.73.05,1.2.18,2.39.25,3.58,0,.26,0,.65-.15.77-1.15.91-1.14,2.2-1.3,3.48a3.3,3.3,0,0,1-2.37,2.78c.12.82.29,1.54.33,2.28a3.84,3.84,0,0,0,1.77,3.22,8.2,8.2,0,0,1,2.95,4.3,6.48,6.48,0,0,1-.63,4.93,2.39,2.39,0,0,1-2.67,1.13,53.1,53.1,0,0,1-6.35-1.43,2.32,2.32,0,0,1-1.53-3.64,1.76,1.76,0,0,0-.05-2.06,4.74,4.74,0,0,1-.4-1.22c1-.79,1.94-1.52,2.84-2.33a3.28,3.28,0,0,0-1.2-5.73,16.32,16.32,0,0,1-3.42-1.69,9.05,9.05,0,0,1-4.19-8.12c.07-2.17-1-3.9-1.37-5.85-.11-.52-.37-1-.43-1.54a103.55,103.55,0,0,0-3.81-18.05,68.11,68.11,0,0,0-2.8-7c-.52-1.18-1-1.34-2.27-1-.19,0-.38.22-.57.21-3.51-.17-6.56,1.56-9.74,2.59a36.61,36.61,0,0,1-8.08,1.89c-4.38.37-8.84.36-12.69-2.35a17.32,17.32,0,0,1-2.44-2.39c-.37-.39-.6-.9-1-1.3-1.26-1.43-1.55-2.31-.57-3.84,1.53-2.42,3.27-4.65,6.16-5.71,2.3-.84,4.68-.69,7-.79,3.17-.14,6.35.07,9.52,0,3.51-.1,6.95,0,10.15,1.69a4.1,4.1,0,0,1,1.07.58c1.55,1.59,3.09,3.19,4.59,4.84,1.92,2.11,2.16,5,3.19,7.49a55.17,55.17,0,0,1,3.16,10c.47,2.36,1.22,4.65,1.56,7a41.15,41.15,0,0,0,2,9.52,37.34,37.34,0,0,1,1.16,4.53c.28,1.12,1,1.41,2.15,1.39a36.68,36.68,0,0,1,5.06.21c1.6.19,2.49-.39,2.5-2,0-2.48-.15-5-.08-7.44.15-5.23.17-10.47.68-15.67.31-3.14,1.49-6.2,2.19-9.31a35.14,35.14,0,0,0,.76-4.8c.21-2.56,1.63-4.37,3.43-6a.81.81,0,0,1,.56-.22c1.9.25,3.19-1.06,4.58-1.91,5.37-3.27,11-5.62,17.41-5.58,4.89,0,9.79-.05,14.67-.4,3.4-.24,6.39,1,9.52,1.81a7.56,7.56,0,0,1,2.83,1.45,2.44,2.44,0,0,1,.82,1.91,50.65,50.65,0,0,1-1.44,5.64,7.64,7.64,0,0,1-.9,1.56c-.13.22-.4.49-.35.66.5,1.51-.61,2.18-1.56,2.74-1.42.83-3,1.45-4.47,2.15-.37.17-.87.19-1.12.45-.7.76-1.71.71-2.5,1.1-2.23,1.08-4.69,1-7,1.65a43,43,0,0,1-6.71,1.09,29.72,29.72,0,0,1-5,.48c-5.68-.22-11-1.61-15.13-5.83a5.82,5.82,0,0,0-1.91-1.12C311,183.76,310.1,183.54,309.18,183.24Zm26.07-11.39a17.36,17.36,0,0,1,.17,2.82c-.29,2.41-.25,4.72,1.28,6.78a2.18,2.18,0,0,1,.3,1c.21,1.51.4,3,.6,4.61,2.2.28,4.27-.43,6.4-.82a19.91,19.91,0,0,0,7.57-3.28c3-2,3.82-4.92,4.13-8.18a1.62,1.62,0,0,0-1.29-1.82,20.33,20.33,0,0,0-2.09-.74,28.66,28.66,0,0,0-6.17-1.08c-2.11,0-4.25.21-6.37.36C338.3,171.56,336.83,171.72,335.25,171.86ZM311,179.5a30,30,0,0,1,3.87,3.33,15,15,0,0,0,6.83,4.61,18.53,18.53,0,0,0,10.58.9c1.22-.3,1.52-.51,1.32-1.77a28.26,28.26,0,0,0-.76-3.17c-1-3.56-2.49-7.06-1.28-10.87,0-.1-.1-.24-.24-.58a10.22,10.22,0,0,0-2.47-.1,25.81,25.81,0,0,0-4.06,1.16c-2,.74-4.26,1.28-6,2.48C316.35,177.18,313.94,178.83,311,179.5Zm-64.61,2.44c1.5,3.74,2.74,4.64,6.38,5.42a31.5,31.5,0,0,0,8.31.26,4.84,4.84,0,0,0,1.23-.4c-.18-.88-.38-1.6-.48-2.33q-.34-2.72-.6-5.45c-.15-1.58-.51-1.9-2.21-1.92a33.72,33.72,0,0,0-3.66-.07,34.76,34.76,0,0,0-4.91.88C248.55,178.82,247.8,180.7,246.42,181.95Zm20.47,4.41a3.47,3.47,0,0,0,.63-.08c2.93-.8,5.86-1.6,8.78-2.44a1.63,1.63,0,0,0,1.07-1.93,4.91,4.91,0,0,0-1.17-1.87c-3.25-2.64-7-2.9-10.87-2.31-.64,1.57,0,2.85.33,4.15S266.43,184.69,266.89,186.36Z"/><path class="cls-1" d="M352.05,147.08c-.6,2,.62,3.68,1.13,5.47s.55,2.07-.89,3a9.86,9.86,0,0,1-5.75,2.06,74.28,74.28,0,0,0-11,1.19,51.74,51.74,0,0,0-11.72,3.61,22.59,22.59,0,0,1-3.28,1.11c-1.5.36-3,.88-4.52-.16a2.4,2.4,0,0,0-1.17-.19,2.51,2.51,0,0,1-2.06-1.47,5,5,0,0,1-.81-2.06,3.49,3.49,0,0,0-1.73-2.57c-1.23-1-1.16-2,.29-2.59,1.82-.74,3.73-1.25,5.57-1.93,1.37-.5,2.94-.62,3.91-2a1.62,1.62,0,0,1,1.28-.39,1.85,1.85,0,0,0,2.13-1.09c.76-1.4,1-1.43,2.41-.69a2.28,2.28,0,0,0,2.09.06c2-.73,4-1.31,6-1.92a3.43,3.43,0,0,1,1.21-.09,2.88,2.88,0,0,0,3.26-1.85,1,1,0,0,1,1.7-.44c1.16,1.13,2.41.68,3.63.42,1.71-.37,3.38-.94,5.08-1.35,2.31-.56,3-.11,3.26,2.22A12.4,12.4,0,0,1,352.05,147.08Zm-6.33,4.77-.32,0v2.91l1.65-.31Zm-2.46-4c-1.52.36-1.63,1-.49,3.49Zm-15,5.94a1.89,1.89,0,0,0-.09-2.51l-.48.1Zm4.89-3.72-.52.18.55,1.28.31-.1Zm15.14-2.72.39-.2c-.14-.3-.27-.6-.42-.9a1.72,1.72,0,0,0-.31.13C348,146.73,348.16,147,348.28,147.36Z"/><path class="cls-1" d="M260.5,167.4c-.52-2-2.1-2.1-3.81-2.22-4.41-.31-8.81-.73-13.19-1.24a7,7,0,0,1-2.77-1.19c-1.81-1.16-1.82-2.33-.31-4s2.73-3.17,4.12-4.74c.9-1,1.9-1.92,2.77-2.95a2.41,2.41,0,0,1,2-.83c1.76-.09,3.51-.28,5.27-.45a2.8,2.8,0,0,0,1.11-.27c1.42-.82,1.55-.83,2.69.35.09.1.15.23.24.33a4.64,4.64,0,0,0,.48.35,8.83,8.83,0,0,1,1-1.41c.36-.35,1-.87,1.28-.75a2.9,2.9,0,0,1,1.31,1.35,4.32,4.32,0,0,1,.21,1.81,1.25,1.25,0,0,0,1.22,1.35c1.77-1.59,1.77-1.59,3.27-1.06a3.15,3.15,0,0,1,.29-1.13c.34-.45.83-1.08,1.25-1.08a1.79,1.79,0,0,1,1.23,1.08,17.44,17.44,0,0,1,.48,2.86c.07.44.17.88.24,1.3a6.79,6.79,0,0,0,.74.13c1.77.07,2.72,1.52,1.76,2.95a4.06,4.06,0,0,0-.71,2.86,1.27,1.27,0,0,1,0,.61c-.9,1.94-1,4.17-2.11,6-.95,1.55-1.74,1.73-3.39.9a1.07,1.07,0,0,1-.18-.09,5.06,5.06,0,0,0-5.3-.88A3.58,3.58,0,0,1,260.5,167.4Zm-8.5-8.95a19.36,19.36,0,0,1-1.37,1.67,1.69,1.69,0,0,1-2.4.13,1.56,1.56,0,0,1-.56-2.12,22.63,22.63,0,0,0,1.2-3.44c.09-.32-.14-.73-.25-1.21-1.74,1.76-3.33,3.25-4.77,4.88a2.79,2.79,0,0,0-.5,2c0,.3,1,.61,1.52.69,1.54.23,3.1.38,4.65.51s2.87.19,4.42.29Zm10.88-1.93-.31,5.23a6.48,6.48,0,0,0,1.59-4.43C264.06,156.38,263.69,156.35,262.87,156.52Z"/><path class="cls-1" d="M244.9,447.15c-.42,3.22-.88,6.49-1.27,9.78-.21,1.8-.34,3.62-.42,5.43,0,.31.44.63.62,1a3.47,3.47,0,0,1,.58,1.42,2.7,2.7,0,0,1-.51,1.81,1.58,1.58,0,0,1-2.22-.25,4.73,4.73,0,0,1-1.31-2.6c-.09-2.77.07-5.55.23-8.32.1-1.67.37-3.34.6-5a12.73,12.73,0,0,1,.49-2.38C242.28,446.28,242.94,446.1,244.9,447.15Z"/><path class="cls-1" d="M145.66,362.21a5.77,5.77,0,0,1,.73,3.82c-.3,3-.76,5.92-1.06,8.88a6.65,6.65,0,0,0,.5,4,1.82,1.82,0,0,1-.94,2.83,2,2,0,0,1-2.71-1.38,3.93,3.93,0,0,1-.18-1.6c.4-4.73.8-9.46,1.27-14.18C143.44,362.78,143.63,362.67,145.66,362.21Z"/><path class="cls-1" d="M269.45,361.62c-1.86-.06-2.78-.76-3.12-2.22a46.79,46.79,0,0,1-1.27-5.52,69.28,69.28,0,0,1-.26-7.61,6.55,6.55,0,0,1,.64-2.34,1.77,1.77,0,0,1,2.31-1c.93.36,1,1,.82,2a30.16,30.16,0,0,0,.15,9.12c.27,1.88.5,3.77.71,5.66A19.3,19.3,0,0,1,269.45,361.62Z"/><path class="cls-1" d="M158.61,315.21c.68,1.23.31,2.54.11,3.78-.47,2.94-1.16,5.85-1.63,8.8a39.91,39.91,0,0,0-.25,4.62c0,.19.17.4.14.58-.12.7,0,1.66-1,1.78a1.71,1.71,0,0,1-2-1.11,5.83,5.83,0,0,1-.32-2.17c.15-1.89.41-3.77.65-5.65.38-2.89.79-5.78,1.17-8.67C155.87,314.78,156,314.66,158.61,315.21Z"/><path class="cls-1" d="M276.29,336l-1.64.27a11,11,0,0,1-1.19-5.2,97.53,97.53,0,0,1-.34-11.72,6.77,6.77,0,0,1,.14-1.41c.55-1.89,1.33-2.11,3.06-.92,0,.06.07.14.05.19-.59,2.32,0,4.64,0,7s.23,4.59.35,6.88a9.21,9.21,0,0,1,0,1.42C276.66,333.52,276.49,334.55,276.29,336Z"/><path class="cls-1" d="M284.58,379.28c-.15-1.74-.41-3.48-.42-5.22,0-2.43.16-4.86.31-7.28a2.74,2.74,0,0,1,.53-1.29,1.29,1.29,0,0,1,2.3.06,3.71,3.71,0,0,1,.36,1.56,93.87,93.87,0,0,1-.1,12.57,17,17,0,0,1-.33,2.78,1.73,1.73,0,0,1-.89,1.17,1.46,1.46,0,0,1-1.3-.6,33.79,33.79,0,0,1-.85-3.69Z"/><path class="cls-1" d="M142.93,340.33l2.55-.12a5,5,0,0,1,.16,3.22c-.64,2.35-1.29,4.7-1.86,7.07-.35,1.45-.57,2.93.37,4.3.5.71.52,1.59-.17,2a2.61,2.61,0,0,1-3.64-2.23,20.93,20.93,0,0,1,0-2.44,60.51,60.51,0,0,1,1.74-10A10.18,10.18,0,0,1,142.93,340.33Z"/><path class="cls-1" d="M265.41,384.1a2.93,2.93,0,0,1-2.29-2.88,65.55,65.55,0,0,1,0-12.41,2.69,2.69,0,0,1,1-1.9,1.73,1.73,0,0,1,2.09-.08c.75.37.44.94.31,1.57a15.28,15.28,0,0,0,0,2.22,69.69,69.69,0,0,0-.09,11.53A1.86,1.86,0,0,1,265.41,384.1Z"/><path class="cls-1" d="M277.73,345.59q.18,2.93.36,5.85a9.76,9.76,0,0,1,.11,1.22,13.36,13.36,0,0,0,.5,5.54c.47,1.3,0,2.11-.82,2.33a2.31,2.31,0,0,1-2.52-1.57,31.39,31.39,0,0,1-.89-5,33.2,33.2,0,0,1,.07-4.86,30.34,30.34,0,0,1,.53-4.22c.24-1.15.82-1.48,1.67-1.29S278,344.38,277.73,345.59Z"/><path class="cls-1" d="M145.69,390.88a2.12,2.12,0,0,1,2.17,2.06c.44,3.29.9,6.57,1.41,9.85a20.93,20.93,0,0,0,.73,2.67,8,8,0,0,0,.38.94,1.3,1.3,0,0,1-.64,1.88,2.36,2.36,0,0,1-2-.46,4.2,4.2,0,0,1-1.08-2.13c-.56-2.64-1-5.31-1.48-8-.22-1.19-.36-2.4-.69-3.56A2.79,2.79,0,0,1,145.69,390.88Z"/><path class="cls-1" d="M372,335.06c-1.79.84-2.44.75-3-.65a26,26,0,0,1-1-4.33c-.52-2.85-1-5.7-1.44-8.57a5,5,0,0,1,.21-2.35c.17-.46.89-1.06,1.29-1a2.13,2.13,0,0,1,1.45,1.11,11.78,11.78,0,0,1,.65,3c.43,3.2.79,6.41,1.21,9.61C371.52,332.89,371.76,333.93,372,335.06Z"/><path class="cls-1" d="M287.94,333.8c-1.83.85-2.72.53-3.2-1.18a33.84,33.84,0,0,1-.88-12.39,7.15,7.15,0,0,1,.15-.8c.23-1.12.87-1.76,1.67-1.69a2.32,2.32,0,0,1,1.57,2.09c0,.81,0,1.62,0,2.42,0,1.61,0,3.22.11,4.82C287.5,329.33,287.74,331.57,287.94,333.8Z"/><path class="cls-1" d="M159.09,378.92a3.56,3.56,0,0,1-2.62-3.81,47.12,47.12,0,0,1,1-11.69,4,4,0,0,1,.53-1.29c.4-.58.9-1,1.71-.69a1.34,1.34,0,0,1,1,1.54,22.84,22.84,0,0,1-.62,4.41c-.79,2.28-.43,4.55-.41,6.83,0,.95.14,1.9.06,2.84A8,8,0,0,1,159.09,378.92Z"/><path class="cls-1" d="M249.77,389.48a5.28,5.28,0,0,1,1.57-.6c.67,0,1.38.2,1.43,1.1a61.25,61.25,0,0,1,.32,6.67c-.15,2.91-.55,5.8,1,8.47-2.28,1.09-3.5.71-3.81-1.5a82.06,82.06,0,0,1-.5-8.29C249.71,393.45,249.77,391.56,249.77,389.48Z"/><path class="cls-1" d="M269.81,451c-.19,3.19-.41,6.29-.54,9.41-.08,1.9,0,3.81,0,5.71,0,1.09-.46,1.62-1.73,1.69-.25-.8-.57-1.61-.74-2.45-.39-1.86-.78-3.72-1-5.6a12.57,12.57,0,0,1,0-3,36,36,0,0,1,.64-3.6,5.42,5.42,0,0,1,.48-1.34C267.77,450,268.11,450,269.81,451Z"/><path class="cls-1" d="M288.73,358.32c-2.05.46-3,.09-3.39-1.47a19.65,19.65,0,0,1-.74-4.61c0-2.56.15-5.13.37-7.69a6.21,6.21,0,0,1,.86-2.46,1.45,1.45,0,0,1,1.3-.54c.46.21,1.11.94,1,1.29-.9,3.59.55,7.27-.46,10.85-.09.33.17.76.25,1.15C288.2,355.94,288.45,357.06,288.73,358.32Z"/><path class="cls-1" d="M154,417.47c1.15-.76,2.17-.57,2.77.41,1.81,2.91,4.32,5.36,5.49,8.7a23.68,23.68,0,0,0,2,3.71c.29.52.53,1.12-.07,1.42a2,2,0,0,1-1.66.09,4.74,4.74,0,0,1-1.61-1.75,35.65,35.65,0,0,0-5.65-8.13C154.38,421,154,419.5,154,417.47Z"/><path class="cls-1" d="M249.6,460.77c-.18-3.43.79-6.62,1.67-9.81a3.37,3.37,0,0,1,.84-1.58,2.14,2.14,0,0,1,1.58-.5,1.26,1.26,0,0,1,.92,1.59c-.22,1.34-.51,2.66-.71,4q-.57,3.81-1,7.63a2.47,2.47,0,0,0,.27,1.13,1.23,1.23,0,0,1-.8,1.78,1.35,1.35,0,0,1-1.88-.72C250.06,463.15,249.87,461.95,249.6,460.77Z"/><path class="cls-1" d="M266.82,317.84c0,1.93-.08,3.67,0,5.41a64.26,64.26,0,0,0,1.23,7.23c.12.67.48,1.28-.37,1.75a1.62,1.62,0,0,1-2.21-.3c-.77-1.05-1.78-2.08-1.35-3.65a3.55,3.55,0,0,0-.2-1.53,19,19,0,0,1-.44-7.25,5,5,0,0,1,.26-1C264.5,316.58,265.12,316.45,266.82,317.84Z"/><path class="cls-1" d="M173.51,332.09c-1.43.34-2.22.08-2.42-1.1a15.23,15.23,0,0,1-.12-3.35c.11-2.15.27-4.31.52-6.45a12.29,12.29,0,0,1,.8-3.12,2.44,2.44,0,0,1,1.26-1.17,1.25,1.25,0,0,1,1.88,1.31c0,1.21-.22,2.42-.38,3.63-.3,2.33-.6,4.67-.93,7C174,329.86,173.75,330.86,173.51,332.09Z"/><path class="cls-1" d="M271,391.24c1.57.47,1.65.47,1.58,1.95-.14,2.71-.41,5.41-.58,8.12-.09,1.53,0,3.06-.12,4.59a15.34,15.34,0,0,1-.4,2.1c-1.32.09-2-.39-2.25-1.48a4.44,4.44,0,0,1-.12-.6c-.34-3.78-.86-7.57.3-11.31C269.81,393.42,269.6,391.94,271,391.24Z"/><path class="cls-1" d="M259.88,400.93c.16-2.58.28-5.16.51-7.73a7.76,7.76,0,0,1,.75-2.32,1.27,1.27,0,0,1,1.7-.74,2.65,2.65,0,0,1,1.08,1.27,2,2,0,0,1,0,1.2c-.78,3.53-.33,7.13-.69,10.69,0,.45.27.94.21,1.38s-.22,1.31-.6,1.56c-.65.43-1.32,0-1.68-.67A7.31,7.31,0,0,1,259.88,400.93Z"/><path class="cls-1" d="M287.12,404a40.32,40.32,0,0,1,2.57-11.53c.24-.67.49-1.35,1.4-1.11a1.44,1.44,0,0,1,1.22,1.64c-.16,1.21-.45,2.4-.67,3.6-.37,2.06-.76,4.11-1.07,6.17-.2,1.33-.32,2.67-.44,4-.05.65-.12,1.26-.91,1.37a1.27,1.27,0,0,1-1.61-1.15Z"/><path class="cls-1" d="M370.25,338.42c1,3.13,2,6.23,1.64,9.65a25.79,25.79,0,0,0,.15,4.87c.07.89-.1,1.47-1,1.66s-1.62-.08-1.79-.91a22,22,0,0,1-.54-4.61,23.53,23.53,0,0,0-.47-6.64,7.48,7.48,0,0,1-.25-2.21C368,338.74,368.42,338.45,370.25,338.42Z"/><path class="cls-1" d="M351.05,447.07l2.57-1c.81,1.4-.19,1.95-.86,2.52a4.4,4.4,0,0,1-4,1.12,2.07,2.07,0,0,1-1.79-2.29,8.17,8.17,0,0,1,1.61-4.53c.87-1.37,1.88-2.66,2.85-4a1.73,1.73,0,0,1,2.26-.61,1.54,1.54,0,0,1,.58,2.13,18.46,18.46,0,0,1-2.11,3.23c-.83,1-.87,2.14-1.38,3.18Z"/><path class="cls-1" d="M369.37,377.6c1.14.35,1.32,1.3,1.21,2.27-.36,3.3-.8,6.59-1.19,9.89a17.54,17.54,0,0,0,0,1.81c0,1.28-.44,1.89-1.3,1.9a2.34,2.34,0,0,1-2.05-1.91c0-.87.2-1.75.28-2.62.18-1.87.4-3.74.49-5.61A7.65,7.65,0,0,1,369.37,377.6Z"/><path class="cls-1" d="M184.06,320.3c-.18,3.12-.36,6.24-.56,9.36a1.94,1.94,0,0,1-.3,1.15c-.4.41-1,.94-1.47.9a1.7,1.7,0,0,1-1.13-1.2c-.17-2-.92-4-.37-6.05a32.05,32.05,0,0,0,.46-4.44,11,11,0,0,1,.53-2.74,2.07,2.07,0,0,1,1.34-1,1.08,1.08,0,0,1,1.31,1c.15,1,.26,2,.38,3Z"/><path class="cls-1" d="M149.52,317.53a18,18,0,0,1-.21,2.64c-.52,2.36-1,4.74-1.75,7a17.88,17.88,0,0,0-1.19,4.44c0,.58-.3,1.57-1.39,1.41a1.73,1.73,0,0,1-1.51-2.06,42.57,42.57,0,0,1,1.8-6.86,23.44,23.44,0,0,0,1.12-5.12C146.77,316.82,147.09,316.55,149.52,317.53Z"/><path class="cls-1" d="M162.35,328.86a27.75,27.75,0,0,0,.38-6.83,6.89,6.89,0,0,1,.76-2.86,1.77,1.77,0,0,1,1-.89,2.43,2.43,0,0,1,1.69,0,1.59,1.59,0,0,1,.46,1.43c-1,3.49-.31,7.14-1.14,10.64-.13.56.18,1.21.08,1.79a2.15,2.15,0,0,1-.73,1.32c-.24.17-.88-.05-1.24-.27a2,2,0,0,1-1.17-2.15A9.41,9.41,0,0,0,162.35,328.86Z"/><path class="cls-1" d="M153.08,393.17c0-.5.05-1.25.18-2a2.18,2.18,0,0,1,2.48-1.55c.88.25.75.93.71,1.64a30.37,30.37,0,0,0,.79,9,32,32,0,0,1,.64,3.35c.09.62,0,1.35-.77,1.45a1.74,1.74,0,0,1-1.34-.56,6.59,6.59,0,0,1-1.54-2.51c-.49-2.37-.72-4.8-1-7.21C153.12,394.37,153.12,393.89,153.08,393.17Z"/><path class="cls-1" d="M374.16,358.73c-.16,1.7-.26,3.45-.51,5.18-.3,2-.06,4-.93,6-.43,1-.07,2.26-.07,3.43a1.82,1.82,0,0,1-2.74-1.16,4.47,4.47,0,0,1-.27-2c.38-3.42.48-6.88,1.55-10.2C371.76,358.2,372,358.08,374.16,358.73Z"/><path class="cls-1" d="M249.27,414.62c-.13,1.31-.31,2.57-.36,3.83a18.31,18.31,0,0,0,.29,1.95c.19,2.54.19,5.1,1.42,7.45.36.69-.37,1.45-1.25,1.33a2.46,2.46,0,0,1-2.3-2c-.42-2-.86-3.94-1.16-5.94a26.25,26.25,0,0,1-.2-3.81,5.36,5.36,0,0,1,.29-1.79C246.59,414,247.2,413.83,249.27,414.62Z"/><path class="cls-1" d="M189.79,317.41a2.7,2.7,0,0,1,1.78,1.86c.43,2.18.93,4.36,1.25,6.56.23,1.61.19,3.25,1.71,4.37a1.25,1.25,0,0,1,.11,1.23c-.33.42-1,.92-1.42.88a2.38,2.38,0,0,1-2.27-1.43c-.39-1.14-.76-2.29-1-3.46-.37-1.49-.69-3-1-4.49-.24-1.33-.46-2.66-.58-4A1.39,1.39,0,0,1,189.79,317.41Z"/><path class="cls-1" d="M273.34,367c2,.47,1.87.49,2.1,2.13.5,3.54-.19,7.17.83,10.67a5,5,0,0,1,0,1.27c-.47.05-.86.08-1.24.14-1.45.22-2.06-.09-2.32-1.45a29.72,29.72,0,0,1-.42-3.82c-.1-1.74-.1-3.49-.18-5.24A5.29,5.29,0,0,1,273.34,367Z"/><path class="cls-1" d="M295,383.53c-2.16-.15-2.69-.52-2.93-2.1a10.74,10.74,0,0,1-.16-3.22,30.41,30.41,0,0,0,0-7.68,2.66,2.66,0,0,1,1.25-2.4c.73-.59,2.09.08,1.92.95-.52,2.72.93,5.33.3,8a13.07,13.07,0,0,0-.36,2.33C295,380.75,295,382.07,295,383.53Z"/><path class="cls-1" d="M161.24,342.17c-.23,1-.42,1.84-.57,2.64-.39,2.06-.79,4.12-1.11,6.19a10.94,10.94,0,0,0,.19,1.75,2.54,2.54,0,0,1-.21,1.46,1.33,1.33,0,0,1-1.85.16,2.94,2.94,0,0,1-1.44-2.76c.13-3,0-6.13,1.32-9,.25-.54.46-1.28.91-1.52a3,3,0,0,1,2.08-.23C160.91,341,161.06,341.81,161.24,342.17Z"/><path class="cls-1" d="M262.27,431.07c-.34,4.12-.69,8.16-1,12.21a11.66,11.66,0,0,0,.18,2c-1.54,1.09-3.05.52-3.21-1.41a36.19,36.19,0,0,1,.11-5.67c.14-1.86.45-3.71.72-5.56S259.9,430.49,262.27,431.07Z"/><path class="cls-1" d="M203.28,317.71a22.86,22.86,0,0,0-.34,9.58,15.25,15.25,0,0,1,.14,3.46,4.23,4.23,0,0,1-.58,1.36,5.8,5.8,0,0,1-1.23-.75c-1.6-1.63-1.56-3.83-1.86-5.86a25.26,25.26,0,0,1-.08-4.84,6.59,6.59,0,0,1,.61-2.33C200.7,316.65,201.4,316.53,203.28,317.71Z"/><path class="cls-1" d="M338.77,453c2.78-.17,3.43.77,2.42,3-.88,1.91-1.79,3.8-2.61,5.72a6.38,6.38,0,0,0-.48,2.15c0,.9-.51,1.56-1.27,1.59a4.15,4.15,0,0,1-2.41-.69c-.31-.22-.3-1.3-.07-1.84C335.76,459.61,337.28,456.32,338.77,453Z"/><path class="cls-1" d="M163.78,401.35a4,4,0,0,1-2.22-3.31c-.3-1.66-.67-3.32-.84-5a42.3,42.3,0,0,1-.14-5,1.73,1.73,0,0,1,1.79-1.36,1.31,1.31,0,0,1,1.29,1.51,39.7,39.7,0,0,0,1.59,10.57C165.63,400.15,164.94,400.75,163.78,401.35Z"/><path class="cls-1" d="M280.31,406.35c-1.78-1.33-1.28-3.26-1.36-4.82a51.67,51.67,0,0,1,.66-7.89,1.71,1.71,0,0,1,.44-.91c.43-.47.75-1.14,1.65-.87a1.33,1.33,0,0,1,1,1.58c-.12,1.83-.39,3.66-.44,5.49a38.9,38.9,0,0,0,.21,5.45c.23,2,.22,2.06-1.74,2Z"/><path class="cls-1" d="M200,352.58a3.05,3.05,0,0,1-2-2.48,40.12,40.12,0,0,1-.45-10.92,3.79,3.79,0,0,1,.13-.8c.31-1,1-1.64,1.7-1.42a1.65,1.65,0,0,1,1.18,1.89,68.09,68.09,0,0,0,.36,11.84A1.6,1.6,0,0,1,200,352.58Z"/><path class="cls-1" d="M154.14,364.87c-.25,1.9-.57,3.83-.72,5.76s-.21,3.76-.18,5.64-.75,2.79-2.12,2.4a2.41,2.41,0,0,1-1.25-1.12,2.8,2.8,0,0,1-.21-1.58c.36-3.14.7-6.29,1.19-9.42C151.22,364.22,151.69,364,154.14,364.87Z"/><path class="cls-1" d="M151.73,340.88l1,.29c1,.3,1.18.87.83,1.86-.58,1.65-.93,3.38-1.49,5a8.43,8.43,0,0,0-.09,4.21c.22,1.28-.25,2.32-1.1,2.44-1,.14-1.88-.62-2.21-1.82a5.87,5.87,0,0,1,.07-4,9.22,9.22,0,0,0,.26-2.2C149.3,344.52,149.64,342.31,151.73,340.88Z"/><path class="cls-1" d="M354.34,361.84c2.42-.65,3-.31,3.07,1.83.05,3.39-.07,6.78-.06,10.17,0,.94-.47,1.54-1.24,1.54a2.68,2.68,0,0,1-1.57-1,2,2,0,0,1-.44-1.33C354.14,369.3,354.25,365.54,354.34,361.84Z"/><path class="cls-1" d="M263.15,451.65a22,22,0,0,1-.49,3.2c-.69,2.27-.64,4.63-.94,6.95-.09.73-.13,1.42-.88,1.61a1.55,1.55,0,0,1-1.94-1.06,5.62,5.62,0,0,1-.35-2.35c.36-2.88.86-5.75,1.3-8.62,0-.07,0-.13,0-.2.33-1.28,1-1.92,1.83-1.82S263.09,450.14,263.15,451.65Z"/><path class="cls-1" d="M187.28,398.46c-1.91-3.92-1.65-7.93-1.23-12a1.76,1.76,0,0,1,1.43-1.71c1-.27,1.46-.06,1.58.93a21.62,21.62,0,0,1,0,2.64c0,2-.06,3.93,0,5.89a5.35,5.35,0,0,0,.73,2.25c.3.54.74.9.39,1.62s-1.12.7-1.75.72A3.77,3.77,0,0,1,187.28,398.46Z"/><path class="cls-1" d="M262.58,427.71l-2.68-.73c-.59-4.25-1-8.39.31-12.5.48-1.56.71-1.61,2.4-.95,0,2.93,0,5.84,0,8.74a4.71,4.71,0,0,0,.2,2C263.38,425.39,263.08,426.36,262.58,427.71Z"/><path class="cls-1" d="M377.32,330.12a2.66,2.66,0,0,1-3-2.71c-.13-1.06-.4-2.11-.56-3.17-.31-2-.58-4-.87-6-.13-.92-.16-1.81,1-2.13.76-.21,1.9.61,2.17,1.67.33,1.3.58,2.63.79,4,.25,1.59.42,3.2.65,4.8A6.15,6.15,0,0,1,377.32,330.12Z"/><path class="cls-1" d="M288.28,466.33c0,.74-.05,1.49,0,2.23s0,1.22-.75,1.47a1.63,1.63,0,0,1-2.09-.77,10.22,10.22,0,0,1-.54-2.75c-.1-2-.14-4.07-.07-6.1a15.2,15.2,0,0,1,.55-3.39,1.47,1.47,0,0,1,1.71-1.14c1,.16,1,1,1,1.74,0,2.9,0,5.81,0,8.71Z"/><path class="cls-1" d="M340.16,467.81a2.45,2.45,0,0,1,1.06-2.42,22.31,22.31,0,0,0,5.51-7.61c.52-1.12,1-1.4,2.06-1.08s1.37.71,1.07,2a13.09,13.09,0,0,1-3.3,6,23.51,23.51,0,0,1-3.11,2.6A4.18,4.18,0,0,1,340.16,467.81Z"/><path class="cls-1" d="M295.49,318.29c1.89.31,2.31.77,2.18,2.26-.19,2.22-.49,4.43-.51,6.65a35.13,35.13,0,0,0,.59,4.76,1.77,1.77,0,0,1-3-.32,2.71,2.71,0,0,1-.54-1.3c-.3-3.92-.47-7.83.94-11.62A2.65,2.65,0,0,1,295.49,318.29Z"/><path class="cls-1" d="M172.33,427.89c-1.82.53-2.43.39-3.25-.94-1.25-2-3-3.82-3.41-6.35-.13-.73-.93-1.32-1.27-2a9.81,9.81,0,0,1-.87-2.64c-.12-.81.85-1.63,1.73-1.66s1.18.56,1.23,1.29c.13,1.87,1.54,3.13,2.22,4.74C169.79,422.81,171.06,425.26,172.33,427.89Z"/><path class="cls-1" d="M356.71,430.82a14.64,14.64,0,0,1,.47-1.78c1-2.59,2-5.16,3.06-7.74a5.9,5.9,0,0,1,.53-1.1c.42-.64.9-1.28,1.81-.81a1.58,1.58,0,0,1,1,2c-1.06,3.13-1.86,6.38-3.81,9.15a4,4,0,0,0-.42,1.11c-.33,1-.89,1.53-1.66,1.36-1-.23-.89-1.06-.94-1.79C356.71,431.15,356.71,431.08,356.71,430.82Z"/><path class="cls-1" d="M297.51,400.7c0-1.56,0-3.12,0-4.67a1.64,1.64,0,0,1,2.35-1.62c.65.31.75.84.81,1.5a59.2,59.2,0,0,1-.32,10.13,1.62,1.62,0,0,1-1.86,1.45,1.92,1.92,0,0,1-1.48-1.94c.06-1.62.19-3.23.29-4.84Z"/><path class="cls-1" d="M198.12,436.58q0,3.12,0,6.24a7.55,7.55,0,0,1,0,1.22c-.14.82-.91,1.14-1.45.53a4.62,4.62,0,0,1-1-1.91,41.22,41.22,0,0,1-.73-9.47,7.13,7.13,0,0,1,.48-2.36c.2-.55.6-1.18,1.36-.92s1.24.53,1.28,1.39c.07,1.76.19,3.52.28,5.27Z"/><path class="cls-1" d="M173.65,347.61a30.57,30.57,0,0,1,1.57-8.75,1.78,1.78,0,0,1,1.9-1.19c.83.2,1.21.82,1.07,1.89-.11.81-.33,1.6-.43,2.41-.28,2.27-.59,4.55-.74,6.83-.1,1.57-.25,2.14-1.07,2.21a2.77,2.77,0,0,1-2.36-2.18A7.8,7.8,0,0,1,173.65,347.61Z"/><path class="cls-1" d="M378.6,412.75c-1.89-.38-2.27-.86-1.88-2.43.23-.91.67-1.77.88-2.68.5-2.16.91-4.34,1.37-6.51.1-.46.09-1,.37-1.33a2.34,2.34,0,0,1,1.49-.77c.33,0,.81.63,1,1.07a4.37,4.37,0,0,1,.12,1.77c-.12,1.21-.28,2.41-.5,3.61a18.76,18.76,0,0,1-.63,2.31,7.29,7.29,0,0,0-.56,1.48A6.1,6.1,0,0,1,378.6,412.75Z"/><path class="cls-1" d="M277.37,454.09a1.85,1.85,0,0,1,1.13,2.2,20.24,20.24,0,0,0-.27,2.6c-.05,2.54-.73,5-.44,7.6a1.42,1.42,0,0,1-.86,1.1,2,2,0,0,1-1.55-.58,3.38,3.38,0,0,1-.57-1.91,73.83,73.83,0,0,1,.15-7.7C275.09,456,275.51,454.52,277.37,454.09Z"/><path class="cls-1" d="M364,411.93c-2.31.4-2.82-.07-2.46-2.23q.73-4.37,1.5-8.73a3.23,3.23,0,0,1,.46-1.33c.59-.8,1.43-.6,2.21-.32s.87.85.73,1.63c-.42,2.33-.67,4.68-1.15,7A35.5,35.5,0,0,1,364,411.93Z"/><path class="cls-1" d="M381.1,341.94c0-.83,0-1.5,0-2.17a1.27,1.27,0,0,1,1.08-1.47,1.66,1.66,0,0,1,1.85,1.23c.15.78.06,1.61.16,2.41.25,2.07.75,4.12.17,6.22-.07.27.2.62.2.94a12,12,0,0,1-.14,2.16c-.17.9-.85,1.16-1.69,1s-1.06-.65-1.1-1.44C381.48,347.83,381.27,344.81,381.1,341.94Z"/><path class="cls-1" d="M166.2,341c1.6,1.3.92,3,.72,4.5a19.06,19.06,0,0,0-.05,6.05,1.9,1.9,0,0,1,0,.2c.12,1.56-.25,2.29-1.2,2.37a2.19,2.19,0,0,1-2.31-2c0-2.42.12-4.85.25-7.27a16.77,16.77,0,0,1,.41-2C164.35,341.14,164.38,341.11,166.2,341Z"/><path class="cls-1" d="M376.48,338.81c.84.36,1.45.84,1.24,2-.57,2.95-.25,5.91-.11,8.87a19.42,19.42,0,0,1-.27,2.89c-2,.13-2.41,0-2.64-1.67-.34-2.41-.36-4.86-.5-7.3,0-.27.12-.54.1-.81A3.54,3.54,0,0,1,376.48,338.81Z"/><path class="cls-1" d="M297.24,357a7.25,7.25,0,0,1-.74-4.53,57.68,57.68,0,0,0,.17-5.85,3.18,3.18,0,0,1,1.39-2.77c1.77.55,1.73.65,1.75,2.15,0,2.54-.49,5.07-.16,7.61a7.22,7.22,0,0,0,.42,1.5c.5,1.38-.13,2.15-1.62,2C298,357.05,297.64,357,297.24,357Z"/><path class="cls-1" d="M340.11,380.55c-1.64.77-1.95.79-2.73-.46a11.3,11.3,0,0,1-1.45-3.34c-.49-2.11-.75-4.28-1.1-6.42,0-.2-.08-.4-.1-.6-.07-.67-.28-1.4.57-1.76a1.94,1.94,0,0,1,2.33.77,9.27,9.27,0,0,1,.8,2.5c.33,1.94.52,3.9.85,5.84C339.46,378.21,339.8,379.3,340.11,380.55Z"/><path class="cls-1" d="M199.44,373.29a3,3,0,0,1-3.1-2.41,22.14,22.14,0,0,1-.67-9c.11-1.28.82-1.75,1.88-1.57s1.47.73,1.39,2c0,.72.05,1.44.08,2.16a8.21,8.21,0,0,1,0,2,6.18,6.18,0,0,0,.73,4.67A1.44,1.44,0,0,1,199.44,373.29Z"/><path class="cls-1" d="M294.21,429.47c-2.67.28-3,0-2.86-2.22.22-2.56.56-5.11.94-7.64a5,5,0,0,1,.83-2c.3-.44,1-1,1.37-.88a2.05,2.05,0,0,1,1.21,1.37,9.51,9.51,0,0,1-.3,3.21,18.73,18.73,0,0,0-.81,6A9.46,9.46,0,0,1,294.21,429.47Z"/><path class="cls-1" d="M341.67,354.89c.39,1.69.74,3.4,1.19,5.07.3,1.15.13,2.27-.54,2.6a2.2,2.2,0,0,1-2.72-1.22,10.81,10.81,0,0,1-.84-2.69c-.29-1.6-.46-3.22-.66-4.84-.23-1.9.4-3,1.74-3.16,1.14-.11,2.16,1.24,2.2,2.94a12.15,12.15,0,0,1-.09,1.22Z"/><path class="cls-1" d="M346.35,373.45a35.33,35.33,0,0,1-.44-3.62,9.81,9.81,0,0,1,.38-3,1.27,1.27,0,0,1,1.53-1,1.52,1.52,0,0,1,1.36,1.53c.09,1.56.23,3.12.35,4.68a30.13,30.13,0,0,0,.41,4.25c.2.87.26,1.47-.58,1.86a1.77,1.77,0,0,1-2.36-1c-.41-1.19-.63-2.45-.93-3.67Z"/><path class="cls-1" d="M185.83,343.12a28.26,28.26,0,0,1,1.1-3.13,1.34,1.34,0,0,1,1.7-.74,1.32,1.32,0,0,1,1.06,1.51c-.56,3.11-.14,6.2.09,9.3.06.76.1,1.64-.83,1.84a1.6,1.6,0,0,1-1.87-1.2,18.73,18.73,0,0,1-.85-3C186,346.35,186,345,185.83,343.12Z"/><path class="cls-1" d="M255,323.7c0-1.56-.06-3.12,0-4.68s.66-2,1.8-2c.9,0,1.43.36,1.45,1.3,0,1.42.12,2.84,0,4.26-.11,1.89-.37,3.77-.54,5.65-.11,1.26-.47,1.68-1.5,1.72s-1.36-.8-1.4-1.62c-.08-1.55,0-3.11,0-4.66Z"/><path class="cls-1" d="M362.76,442.37c-.67,1.31-1.31,2.64-2,3.94-.51.94-1.15,1.81-1.67,2.75-.94,1.69-2,2.09-3.62,1.29-1.08-.53-1.27-1.09-.55-2.08s1.48-1.75,2.18-2.65c1-1.31,1.27-3,2.32-4.34.51-.64.71-1.52,1.75-1.25A2.64,2.64,0,0,1,362.76,442.37Z"/><path class="cls-1" d="M353.41,382.34c2.38,0,2.76.34,2.49,2.26-.25,1.74-.67,3.46-.86,5.2s-.22,3.64-.29,5.46c0,.63,0,1.38-.82,1.35-.39,0-.87-.52-1.1-.91a4.18,4.18,0,0,1-.78-2c.14-3,.41-5.94.71-8.9A15,15,0,0,1,353.41,382.34Z"/><path class="cls-1" d="M178,362.17a7.79,7.79,0,0,0-.84,5.17,25.89,25.89,0,0,1,.26,5.07,2.28,2.28,0,0,1-.23,1.19c-.22.37-.64.82-1,.84a1.35,1.35,0,0,1-1.06-.71,13.2,13.2,0,0,1-1-3.71,51.28,51.28,0,0,1,.24-6.88,3.3,3.3,0,0,1,1.2-1.77C176.33,360.7,176.81,360.9,178,362.17Z"/><path class="cls-1" d="M272.9,416.3c-.14,1.06-.33,2.2-.45,3.34-.19,1.87-.34,3.75-.52,5.62-.08.8,0,1.72-1.14,1.87a1.9,1.9,0,0,1-1.88-1.55,5.67,5.67,0,0,1-.07-1.41c0-1.14,0-2.29.14-3.42a16.64,16.64,0,0,1,.43-2.38c.27-1.11.66-2.2.85-3.32.12-.72.35-1.21,1.09-1.13s1.41.16,1.47,1.09C272.84,415.41,272.87,415.82,272.9,416.3Z"/><path class="cls-1" d="M259.77,358.1c-1.66.66-3.06.39-3.62-1-1.39-3.46-2.49-7-.27-10.6.82-1.32,1-1.36,2.37-.49-.13,2.17-.14,4.26-.41,6.32C257.55,354.57,259.28,356.06,259.77,358.1Z"/><path class="cls-1" d="M266.15,440.16c.34-1.43.7-3.13,1.17-4.81a2.66,2.66,0,0,1,.89-1.3,1.25,1.25,0,0,1,2.1.89,5.13,5.13,0,0,1-.11,2,11.65,11.65,0,0,0-.26,5.6,13,13,0,0,1,.16,2.43c0,.92-.61,1.16-1.38,1a2.34,2.34,0,0,1-1.92-1.89C266.53,442.92,266.39,441.71,266.15,440.16Z"/><path class="cls-1" d="M251.12,444.94c-2.42.24-3.56-.36-4.53-2.68a21.76,21.76,0,0,1-1.37-5.09,7.69,7.69,0,0,1,.54-2.76c.25-1,1.08-1.13,1.92-1.1,1,0,1.12.86,1.17,1.6.07,1.22,0,2.44.1,3.66a6.92,6.92,0,0,0,1.24,4A9.53,9.53,0,0,1,251.12,444.94Z"/><path class="cls-1" d="M187.64,432.6a2.67,2.67,0,0,1,1.79,2.37c.34,2.53.69,5.07,1.08,7.59a2.6,2.6,0,0,0,.57,1,1,1,0,0,1-.19,1.6c-.64.42-1.49.67-2-.1a11.46,11.46,0,0,1-1.74-3.41c-.49-2-.62-4.13-.93-6.2C186,434.23,186.15,433.15,187.64,432.6Z"/><path class="cls-1" d="M253.72,369.34c.13,2.23.25,4.24.36,6.25a3,3,0,0,0,.95,2.34,1.67,1.67,0,0,1,.29,1.61,2.36,2.36,0,0,1-1.69.78,3.08,3.08,0,0,1-2.68-2.4,16.57,16.57,0,0,1-.29-7C251,368.9,251.85,368.4,253.72,369.34Z"/><path class="cls-1" d="M303.81,368.12c1.88.61,1.88.61,1.87,2.16,0,2.67,0,5.34-.08,8a6.5,6.5,0,0,1-.13,1.61,1.41,1.41,0,0,1-2.4.61,2,2,0,0,1-.65-1.2c0-3.56-.48-7.18,1-10.61A4.83,4.83,0,0,1,303.81,368.12Z"/><path class="cls-1" d="M198.69,396.84a5.09,5.09,0,0,1-1.13-3.29c.08-2-.22-4.07-.28-6.1a4.91,4.91,0,0,1,.36-2.18,1.78,1.78,0,0,1,1.35-.91c.67.06,1.54.29,1.56,1.3,0,1.89.09,3.79.09,5.68,0,1.22-.1,2.45-.13,3.67A1.68,1.68,0,0,1,198.69,396.84Z"/><path class="cls-1" d="M172.16,394.89c0,1.74,0,3.49,0,5.23a1.82,1.82,0,0,1-1.53,1.64c-.9,0-1.14-.69-1.21-1.36-.16-1.6-.27-3.2-.32-4.8s0-2.95,0-4.42a7.9,7.9,0,0,1,.23-1.79c.18-.7.72-.9,1.42-.81s1.19.32,1.26,1.07c.15,1.75.29,3.5.43,5.24Z"/><path class="cls-1" d="M367.36,363.17c0,2.47,0,4.94,0,7.4,0,.76-.11,1.53-1,1.75a1.6,1.6,0,0,1-1.94-1.08,2.63,2.63,0,0,1-.3-1.16c.15-2.73-.33-5.5.58-8.19.45-1.33.84-1.93,1.74-1.84s1.47,1,1.36,2.31c0,.27-.07.54-.11.8Z"/><path class="cls-1" d="M384,386.7c-.48,2.1-.37,4.53-2,6.46-.8.92-1.57.87-2.08-.28a3.29,3.29,0,0,1,0-2.47,36.46,36.46,0,0,0,.91-5.74,6,6,0,0,0-.14-1,2.09,2.09,0,0,1,1.52-2.31c.82-.08,1.51.72,1.63,2C383.91,384.37,384,385.45,384,386.7Z"/><path class="cls-1" d="M174,412.13c.11.21.35.44.35.67,0,2.14.87,4,1.56,6a19.77,19.77,0,0,1,.81,4.77c0,.47-.5,1-.77,1.49a7.8,7.8,0,0,1-1.27-.77,2.23,2.23,0,0,1-.45-.9c-.86-2.33-1.73-4.66-2.55-7a5.22,5.22,0,0,1-.21-1.6C171.4,412.89,171.8,412.48,174,412.13Z"/><path class="cls-1" d="M375.1,370.28c.77-2.66,1.57-5.51,2.43-8.34.25-.81,1-.9,1.68-.73s1.35.67,1.14,1.63c-.14.66-.3,1.32-.44,2q-.58,2.74-1.16,5.48c-.11.52-.23,1-.29,1.57-.1.91-.83,1-1.47,1.12a1.17,1.17,0,0,1-1.39-.9C375.45,371.57,375.31,371,375.1,370.28Z"/><path class="cls-1" d="M363.59,333.3c-.64-.62-1.24-.95-1.39-1.42a70.55,70.55,0,0,1-2-7.21c-.38-1.87.17-3,1.52-4.44,1,.07,1.75.56,1.62,1.63-.34,2.81,1,5.39,1,8.17A10.65,10.65,0,0,1,363.59,333.3Z"/><path class="cls-1" d="M349.15,360.1a7.65,7.65,0,0,1-1.19-2.17c-.42-2.38-.7-4.8-.93-7.21a2.12,2.12,0,0,1,1.75-2.11,2,2,0,0,1,1.79,1.9c.16,1.82.2,3.65.3,5.48,0,.6,0,1.21.1,1.81C351.15,359.37,351.17,359.36,349.15,360.1Z"/><path class="cls-1" d="M351.37,325.95c.25-1.74.49-3.47.75-5.21.14-.88.56-1.63,1.56-1.52s1.2.87,1.22,1.65c0,1.14-.08,2.28-.08,3.42,0,1.68-.05,3.37.06,5,0,.7.31,1.46-.49,1.73a1.72,1.72,0,0,1-2.13-.77,7.6,7.6,0,0,1-.72-2.3,11.89,11.89,0,0,1,0-2Z"/><path class="cls-1" d="M372.24,390.34c.47-2.36.92-4.89,1.52-7.37a2.61,2.61,0,0,1,1.9-2.19c1.2-.27,2.12.59,1.65,1.71-1.27,3-1.46,6.28-2.29,9.4-.17.64-.48,1.26-1.18,1.16a2,2,0,0,1-1.16-.94A6.63,6.63,0,0,1,372.24,390.34Z"/><path class="cls-1" d="M168,362.91a10.24,10.24,0,0,1,.62,2,26.67,26.67,0,0,1,0,3.06c0,1.83,0,3.65-.07,5.48,0,1.53-1.27,2.31-2.48,1.49a2.11,2.11,0,0,1-.81-1.51c0-2,.13-4.07.25-6.1,0-.81.21-1.61.27-2.42C165.93,363.46,166.09,363.28,168,362.91Z"/><path class="cls-1" d="M276.66,442.83a17.27,17.27,0,0,1,1.5-6.24,1.35,1.35,0,0,1,2-.84c1,.32.89,1,.77,1.81q-.58,3.91-1,7.84c-.1.81-.22,1.5-1.21,1.57a1.67,1.67,0,0,1-1.8-1.52,9.12,9.12,0,0,1-.17-1.2C276.64,443.78,276.66,443.3,276.66,442.83Z"/><path class="cls-1" d="M198.49,409.25c1.14.25,1.5.92,1.91,2,.94,2.55.1,5.1.44,7.62.06.4-.35.86-.51,1.3s-.35,1.36-1.12,1.13a2,2,0,0,1-1.16-1.21,17,17,0,0,1-.3-2.94c-.15-1.89-.29-3.77-.45-5.66A2,2,0,0,1,198.49,409.25Z"/><path class="cls-1" d="M333.46,393.3c.3-2.49.57-4.7.82-6.91.12-1.06.68-1.62,1.65-1.58a1.58,1.58,0,0,1,1.45,1.81c-.19,1.87-.48,3.74-.66,5.61-.09,1,0,2-.05,3,0,.48-.09,1.18-.39,1.38a2.08,2.08,0,0,1-1.48-.06,1.62,1.62,0,0,1-1.2-1.48C333.54,394.38,333.49,393.71,333.46,393.3Z"/><path class="cls-1" d="M338.53,429.85l1.7,1.56A1.89,1.89,0,0,1,338,432.9a2.33,2.33,0,0,1-2.26-1.68,13,13,0,0,1-.1-7.21,2.21,2.21,0,0,1,.54-.85,2.08,2.08,0,0,1,2.39-.58c.91.47.57,1.3.49,2-.1.91-.43,1.8-.53,2.71A23.36,23.36,0,0,0,338.53,429.85Z"/><path class="cls-1" d="M192.66,410.26a9.07,9.07,0,0,1-.16,1.68,14.92,14.92,0,0,0,0,7.77,1.81,1.81,0,0,1-.33,1.42c-.46.51-1,.06-1.41-.27-1.28-.95-1.36-2.47-1.6-3.79a21.38,21.38,0,0,1-.13-4.82C189.13,409.46,189.85,409.07,192.66,410.26Z"/><path class="cls-1" d="M348.28,387.28c-.15.83-.42,2-.55,3.23a22.3,22.3,0,0,0-.06,3.23c0,.75.28,1.54-.74,1.84a1.85,1.85,0,0,1-2.29-1.19,3.94,3.94,0,0,1-.21-1.61c.28-2.39.67-4.77.92-7.17.1-1,.59-1.63,1.45-1.63s1.4.72,1.39,1.68C348.2,386.07,348.24,386.48,348.28,387.28Z"/><path class="cls-1" d="M337.33,403.84a1.93,1.93,0,0,1,1,2.34c-.82,2.61-.32,5.24-.25,7.87,0,.56.22,1.22-.43,1.36a2.85,2.85,0,0,1-1.86-.24,2.05,2.05,0,0,1-.69-1.39,17.91,17.91,0,0,1,.1-7.07C335.56,405.26,335.76,404.92,337.33,403.84Z"/><path class="cls-1" d="M384.55,361a5,5,0,0,1,1.42,4.35c-.51,2.41-1.16,4.8-1.8,7.42-.76-.08-1.61.07-1.93-.27a2.54,2.54,0,0,1-.4-1.87c.26-2,.66-4,1-6a3.3,3.3,0,0,0,0-.8C382.7,362,382.7,362,384.55,361Z"/><path class="cls-1" d="M383.47,314.24c1.47,1.65,1.12,3.79,1.51,5.72a39.5,39.5,0,0,1,.53,4.61c.06.7.31,1.62-.77,1.79-.88.14-1.44-.2-1.8-1.19a10.26,10.26,0,0,1-.68-3.31c0-1.82-.29-3.63-.47-5.44S381.62,314.67,383.47,314.24Z"/><path class="cls-1" d="M176.88,389.5c.1-1,.26-2.09.3-3.22,0-1,.76-1.41,1.36-1.86s1.79.38,1.67,1.32a36.07,36.07,0,0,0-.22,8.4,1,1,0,0,1,0,.4c-.21.68-.17,1.56-1.19,1.65a1.76,1.76,0,0,1-1.7-1.66c-.06-.81-.06-1.62-.09-2.43S176.93,390.5,176.88,389.5Z"/><path class="cls-1" d="M204.21,387.4c0-.48,0-1,0-1.43,0-.75,0-1.58,1.06-1.67a1.58,1.58,0,0,1,1.81,1.54,39.29,39.29,0,0,1,0,5.47,15.06,15.06,0,0,1-.9,3.69c-.14.4-.74.64-1.13,1-.29-.42-.79-.81-.83-1.25a37.2,37.2,0,0,1-.15-4.25c0-1,.16-2,.25-3Z"/><path class="cls-1" d="M188.73,369.67a2,2,0,0,1-2.22,1.77c-1,0-1.37-.89-1.69-1.77a11.13,11.13,0,0,1-.71-5.92,9,9,0,0,1,.11-1c.26-.84.76-1.49,1.74-1.39a1.46,1.46,0,0,1,1.33,1.55c.08,1.29.13,2.58.13,3.87S187.51,369.06,188.73,369.67Z"/><path class="cls-1" d="M346,430.36c-2.27-.57-2.41-.74-1.84-2.74s1.15-3.9,1.82-5.81c.59-1.67,1.17-1.84,3.08-1A18.07,18.07,0,0,1,346,430.36Z"/><path class="cls-1" d="M372.77,400.8l1.05,1.42a4.6,4.6,0,0,1-.11.57c-.72,2.26-1.48,4.5-2.15,6.77-.57,1.94-.81,2.08-2.65,1.17a6.58,6.58,0,0,1-.68-.48,46.06,46.06,0,0,1,1.79-6.48c.22-.57.46-1.12.71-1.68C371.09,401.28,371.1,401.28,372.77,400.8Z"/><path class="cls-1" d="M360.23,354.31c-2.63-.88-2.8-1.1-2.9-3.56-.06-1.36-.14-2.71-.14-4.07a1.67,1.67,0,0,1,1.72-1.84c1-.07,1.63.48,1.73,1.71.15,2,.29,3.91.3,5.86A6.1,6.1,0,0,1,360.23,354.31Z"/><path class="cls-1" d="M345.8,415a2.66,2.66,0,0,1-1.69-3.12,35.35,35.35,0,0,1,.72-3.58c.19-.92.41-1.83.53-2.76s.66-1.61,1.46-1.6,1.2.56,1.34,1.44c.37,2.19-.58,4.14-1,6.16A25,25,0,0,1,345.8,415Z"/><path class="cls-1" d="M365.05,430.72a2.1,2.1,0,0,1-.08-2.89c1.31-1.77,2-4,3.55-5.56.57-.57,1.16-1.07,1.91-.64s.72,1.25.49,2a2.5,2.5,0,0,1-.43.91,9.53,9.53,0,0,0-2.58,5.15,1,1,0,0,1-1.25,1C366.15,430.7,365.62,430.72,365.05,430.72Z"/><path class="cls-1" d="M287,448.26c-2-.34-2.54-.68-2.59-2.42a13.61,13.61,0,0,1,.95-6.32,6,6,0,0,1,1.24-1.35c1.92,1.33,1.83,1.31,1.45,3.21-.33,1.64-.43,3.34-.65,5C287.3,447,287.14,447.55,287,448.26Z"/><path class="cls-1" d="M180.77,409c.41,1.07.84,2,1.13,3,.36,1.23.61,2.49.89,3.74A7.43,7.43,0,0,1,183,417a1.42,1.42,0,0,1-1,1.6c-.8.26-1.12-.42-1.34-.94a41.08,41.08,0,0,1-2.14-5.61C178,410,178.24,409.91,180.77,409Z"/><path class="cls-1" d="M282.31,425c-.8.24-1.55.91-2.26,0s-1.65-1.65-1.19-3a9.83,9.83,0,0,0,.33-2.32,3.83,3.83,0,0,1,1.59-3.16,2.51,2.51,0,0,1,1.85-.1c.23.07.35.93.29,1.41a21.78,21.78,0,0,1-.58,3,4.3,4.3,0,0,0,0,3C282.49,424.11,282.33,424.57,282.31,425Z"/><path class="cls-1" d="M223.36,213.31l-1.08,3.55c-.21.7-.43,1.4-.64,2.1-.3,1-1,1.25-1.8.62a2.11,2.11,0,0,1-1-2.28c.41-1.64.87-3.26,1.31-4.89.23-.83.72-1.28,1.64-1.06A1.86,1.86,0,0,1,223.36,213.31Z"/><path class="cls-1" d="M333.35,444.37c.23-1.91.41-3.77.69-5.61a2.66,2.66,0,0,1,.76-1.32,1.44,1.44,0,0,1,2-.16,2.23,2.23,0,0,1,.51,1.82c-.45,1.92-1.09,3.8-1.66,5.7-.06.19-.07.45-.2.56a2.49,2.49,0,0,1-1.08.72c-.21,0-.57-.46-.76-.78A3.69,3.69,0,0,1,333.35,444.37Z"/><path class="cls-1" d="M358,404c-.41,1.48-.75,2.71-1.1,3.94a6,6,0,0,0-.45,1.55,1.44,1.44,0,0,1-1.41,1.65c-.72.07-1.74-1.28-1.54-2.12.42-1.76.93-3.51,1.48-5.24.24-.76,1.44-1.37,2-1A5.25,5.25,0,0,1,358,404Z"/><path class="cls-1" d="M303.43,353.85a3,3,0,0,1-.89-2.75c.23-1.46.36-2.93.63-4.38.16-.82.52-1.61,1.63-1.39.89.18,1.27.86,1.11,2.06-.22,1.66-.51,3.32-.69,5C305.1,353.49,304.52,353.9,303.43,353.85Z"/><path class="cls-1" d="M211.46,142.48a10,10,0,0,1,.29,1.54,5.12,5.12,0,0,1-.17,1.78.9.9,0,0,1-1.69.27,5.49,5.49,0,0,1-.87-2.22c-.17-1.21-.19-2.37-1.31-3.23-.59-.46-.42-1.21.13-1.79a1.34,1.34,0,0,1,2-.24A4.08,4.08,0,0,1,211.46,142.48Z"/><path class="cls-1" d="M358.19,133.32c.69-1.61,1.35-3.29,2.13-4.92a1.12,1.12,0,0,1,1.72-.49,1.46,1.46,0,0,1,.69,1.92,8.11,8.11,0,0,1-1.07,1.92,2.48,2.48,0,0,0-.43,2.81c.25.55.37,1.21-.39,1.56a1.23,1.23,0,0,1-1.71-.61A23.13,23.13,0,0,1,358.19,133.32Z"/><path class="cls-1" d="M295.47,440.14c-.26,1.79-.43,3.33-.74,4.85a1.77,1.77,0,0,1-2.08,1.42,1.71,1.71,0,0,1-1.06-2.12,18.79,18.79,0,0,1,.78-3.35,3.47,3.47,0,0,1,1.38-1.63C294.74,438.72,295.49,439.27,295.47,440.14Z"/><path class="cls-1" d="M371.22,125a8.18,8.18,0,0,1,2.41-5.46,1.84,1.84,0,0,1,2.54-.44c.76.48.83,1,.27,1.8-1.05,1.46-2,3-3.17,4.37a1.67,1.67,0,0,1-1.38.47C371.52,125.66,371.27,125.07,371.22,125Z"/><path class="cls-1" d="M203.29,123.78a3.19,3.19,0,0,1,.06,1c-.11.4-.29,1-.58,1.09a1.49,1.49,0,0,1-1.23-.39,3.7,3.7,0,0,1-.76-1.4c-.36-1-.68-2.05-1-3.09-.38-1.37,0-2.32.94-2.5,1.24-.24,2.11.44,2.37,1.89.11.6.2,1.2.25,1.8s0,1.07,0,1.61Z"/><path class="cls-1" d="M231.09,211.58c1.42,1.24,1.45,2.93,1.38,4.59a4.6,4.6,0,0,1-.66,2.11,2,2,0,0,1-1.37.89c-.34,0-.85-.54-1.08-1a2.79,2.79,0,0,1-.22-1.38c0-.94.11-1.87.2-2.81S229.73,212.57,231.09,211.58Z"/><path class="cls-1" d="M207.26,440c-2.35.24-2.48.18-3.25-1.53-.38-.85-.69-1.73-1.05-2.59a2.25,2.25,0,0,1,.91-2.94,2.93,2.93,0,0,1,2.18,2.67A40.79,40.79,0,0,0,207.26,440Z"/><path class="cls-1" d="M356.23,225c-.45-2,.35-3,2.31-2.48,1.33.32,2.79.48,3.6,2a1.5,1.5,0,0,1-.22,2c-.58.66-1.1.45-1.78.11C359,226,357.69,225.62,356.23,225Z"/><path class="cls-1" d="M397.07,114.29c-.4.58-.64,1.24-1.1,1.51-1.77,1-3.62,2-5.56,3-.53-2.12.81-3.09,1.88-4.16a12,12,0,0,1,1.2-.75C395.12,112.62,395.11,112.61,397.07,114.29Z"/><path class="cls-1" d="M216.91,131.89a3,3,0,0,1,0,1.2c-.2.42-.62,1-1,1a1.44,1.44,0,0,1-1.15-.8,47.29,47.29,0,0,1-1-5.16,1.31,1.31,0,0,1,1.16-1.62c.83-.08,1.12.47,1.27,1.25.27,1.37.67,2.71,1,4.06Z"/><path class="cls-1" d="M255.72,340.47A3.86,3.86,0,0,1,254,335.7a2.56,2.56,0,0,1,1.89-1.93,1.26,1.26,0,0,1,1.64,1.24,21.62,21.62,0,0,1-.55,3.57A7.75,7.75,0,0,1,255.72,340.47Z"/><path class="cls-1" d="M387.55,124.71a1.6,1.6,0,0,1-1.65-1.41,2.17,2.17,0,0,1,.53-2.38c1.4-1.29,3.58-1.58,4.44-.44s.62,1.66-.6,2.16C388.41,123.4,388.41,123.4,387.55,124.71Z"/><path class="cls-1" d="M205,134.81c-1.37.79-2.37.54-3.05-.66a18.53,18.53,0,0,1-1.41-2.88,2.14,2.14,0,0,1,1.29-2.27c.73-.17,1.45.09,1.56.86a7,7,0,0,0,1.41,3.51C205.09,133.71,205,134.37,205,134.81Z"/><path class="cls-1" d="M380.81,120.66c-2.45-.83-2.87-2.17-1.34-3.91a6.74,6.74,0,0,1,.72-.71c1.17-1,2.06-1,2.77,0s.34,2-.75,2.77A3,3,0,0,0,380.81,120.66Z"/><path class="cls-1" d="M221.47,142.07c-2.14,1.13-2.16,1.15-3.31-.25a12,12,0,0,1-1.64-2.29,1.93,1.93,0,0,1,.09-1.64c.42-.61,1.18-.55,1.83-.19a1.34,1.34,0,0,1,.48.37C219.76,139.36,220.57,140.66,221.47,142.07Z"/><path class="cls-1" d="M248.24,336.12c.05-.25,0-.66.21-.89a2.66,2.66,0,0,1,1.14-1,1.22,1.22,0,0,1,1.47.77c.78,1.48.13,3,.15,4.51,0,.29-.91.79-1.43.82-.34,0-.93-.56-1-1A28.24,28.24,0,0,1,248.24,336.12Z"/><path class="cls-1" d="M347.51,337.1a5,5,0,0,1,.82-1.39,2.51,2.51,0,0,1,1.53-.65c.68,0,.93.58.94,1.31,0,1.14.23,2.28.23,3.42,0,.45-.3,1.19-.62,1.28a1.83,1.83,0,0,1-1.38-.54,3.75,3.75,0,0,1-.81-1.35C348,338.57,347.78,337.91,347.51,337.1Z"/><path class="cls-1" d="M379.7,124.92c1.56,1.2,1.67,1.92.36,3.06a3.92,3.92,0,0,1-3.06,1.37c-1.32-.15-1.88-1.27-1.07-2.31a4.51,4.51,0,0,1,1.4-1.12C378,125.54,378.82,125.29,379.7,124.92Z"/><path class="cls-1" d="M219.36,127.95c1.64-1.52,1.76-1.51,3.69.18,1.35,1.18,1.41,2.47.08,4.19A6.63,6.63,0,0,1,219.36,127.95Z"/><path class="cls-1" d="M380.9,146.06l-1.39-.87c-.67-2.57,1.36-3.41,2.72-4.62a1.15,1.15,0,0,1,1.08.12,1.22,1.22,0,0,1,.34,1C383.24,143.36,382.92,145.07,380.9,146.06Z"/><path class="cls-1" d="M358.32,215.29c.82-.75,1.65-.33,2.49-.07,1.59.5,2.3,1.83,2.9,3.19a1.71,1.71,0,0,1-.28,1.27.91.91,0,0,1-.88.11C360.94,218.55,358.67,217.95,358.32,215.29Z"/><path class="cls-1" d="M367.87,137.84c-2.25-1-2.5-2.62-.47-4.18a10.4,10.4,0,0,1,1.33-.88c.59-.33,1.18-.35,1.56.34a1.4,1.4,0,0,1,0,1.85C369.48,135.81,368.77,136.74,367.87,137.84Z"/><path class="cls-1" d="M210.94,134.61a3.37,3.37,0,0,1-3.21-3c-.31-1.64-.15-2,1.15-3.06A6,6,0,0,1,210.94,134.61Z"/><path class="cls-1" d="M385,130.42c-1.19.69-2.41,1.46-3.69,2.08-.39.19-1-.07-1.49-.12.26-1.89,2-4,3.41-4.22C384.18,128,384.81,128.73,385,130.42Z"/><path class="cls-1" d="M261.56,331c.72.45,2,.37,1.79,1.74s.88,3.13-1.43,3.6C259.47,335,259.37,333.85,261.56,331Z"/><path class="cls-1" d="M203,116.5c-1.09-1.81-2.6-3.16-2.53-5.27,3-1.2,3-1.2,3.35,1.84a11.33,11.33,0,0,1,0,2.43C203.74,115.79,203.34,116,203,116.5Z"/><path class="cls-1" d="M210.68,122.08l-1.58,2.17a4,4,0,0,1-2.89-3,1.6,1.6,0,0,1,.37-1.39,1.53,1.53,0,0,1,1.43-.2A29.25,29.25,0,0,1,210.68,122.08Z"/><path class="cls-1" d="M374.67,136.24c.22.64.41,1.14.58,1.66a5,5,0,0,1,.11.69c-1,.82-1.76,2-3.36,2.07a2.14,2.14,0,0,1-.42-2.75A2.84,2.84,0,0,1,374.67,136.24Z"/><path class="cls-1" d="M395.7,129.19c-.34-.24-.87-.44-1.11-.83-.44-.72,0-1.65,1-2.4a1.83,1.83,0,0,1,2.4-.14,1.59,1.59,0,0,1-.32,2.78A17.66,17.66,0,0,1,395.7,129.19Z"/><path class="cls-1" d="M344.61,339.88c.24,1.84,1.77,3,1.54,4.83-1.44.35-2.42-.06-2.82-1.13C342.64,341.76,342.91,340.78,344.61,339.88Z"/><path class="cls-1" d="M388.6,132.82a13.42,13.42,0,0,1,.91,1.17c.68,1.15.63,1.41-.33,2.23s-2,1-2.51.33c-.66-.9-.18-1.67.44-2.35C387.51,133.76,388,133.39,388.6,132.82Z"/><path class="cls-1" d="M355.47,338c-1.07-.51-2.45-.58-2.37-2.18,0-.66.19-1.36,1-1.58a2,2,0,0,1,2.25,1C356.91,336.28,356.63,337.17,355.47,338Z"/><path class="cls-1" d="M226.15,137.32a11.56,11.56,0,0,0,1.52.92,1.28,1.28,0,0,1,.7,1.69,2,2,0,0,1-.92,1.19,1.44,1.44,0,0,1-1.76-.61C224.71,139.31,224.8,138.41,226.15,137.32Z"/></svg>