<svg id="trace" xmlns="http://www.w3.org/2000/svg" viewBox="0 0 500 500"><defs><style>.cls-1{fill:#fff;stroke:#fff;stroke-miterlimit:10;stroke-width:0.79px;}</style></defs><title>meowshow-2</title><path class="cls-1" d="M166,399.11c-.94-.13-1.72-.29-2.5-.35-3-.24-6-.62-9.07-.63s-6.34.32-9.51.54a94.62,94.62,0,0,1-13,0,43.88,43.88,0,0,0-10.08.13,27.35,27.35,0,0,1-4.14.09,15.15,15.15,0,0,0-2.67,0c-3.53.67-7,0-10.48-.36-1.51-.17-3-.14-4.54-.41a162.94,162.94,0,0,0-18.93-1.91,37.26,37.26,0,0,1-7.38-1.59,7.93,7.93,0,0,1-1.85-.93c-2.8-1.65-5.63-3.24-8.35-5A12.12,12.12,0,0,0,60,386.94a6.38,6.38,0,0,1-2.22-1.49q-4.74-4.07-9.42-8.21a16.79,16.79,0,0,1-2.79-2.76,44.33,44.33,0,0,1-3.17-5.39c-1.51-3-2.87-6-4.33-9.06a10.3,10.3,0,0,1-1.1-4.44c0-1.1-.43-2.19-.5-3.3-.16-2.45-.19-4.9-.32-7.35a15.28,15.28,0,0,0-.36-2,14.32,14.32,0,0,1-.33-1.85,68.73,68.73,0,0,1,.61-14.65c.57-3.52.61-7.13,1.05-10.68.3-2.43.87-4.82,1.34-7.23a7.62,7.62,0,0,0,.39-1.41c0-3.12.84-6.07,1.62-9A72.8,72.8,0,0,0,42,288c.42-3.62.92-7.23,1.58-10.81.48-2.61,1.32-5.16,1.92-7.75.3-1.29.35-2.64.66-3.94,1.14-4.84,2.51-9.63,3.45-14.5.82-4.26,2.82-8.05,4.11-12.12.89-2.79,2-5.49,3.16-8.19a24.28,24.28,0,0,1,1.62-2.9c.74-1.26,1.59-2.46,2.21-3.77A2.67,2.67,0,0,1,63,222.24c2.07-.09,4.15-.22,5.78,1.53a6.73,6.73,0,0,0,1.88,1.3,11.89,11.89,0,0,1,5.15,5.3,21.43,21.43,0,0,0,1.41,2c.33-2.73.59-5.1.91-7.46.42-3.13.73-6.28,1.35-9.36.51-2.52,1.47-4.94,2.14-7.43,1.16-4.33,2.2-8.7,3.39-13,.86-3.1,1.86-6.15,2.83-9.22,1.07-3.4,2.12-6.8,3.28-10.17.71-2,1.62-4,2.42-6,.6-1.49,1.11-3,1.77-4.49s1.46-2.86,2.18-4.29c1.85-3.69,3.55-7.47,5.57-11.06,1.84-3.29,4.07-6.35,6-9.59,2.08-3.48,4.1-7,6-10.57,2.1-3.93,3.91-8,6.09-11.9,2.49-4.43,5.47-8.58,7.83-13.08a83.42,83.42,0,0,1,5.73-8.7,46.2,46.2,0,0,1,6.09-7.34c2.26-2.14,4.29-4.52,6.45-6.77.47-.49,1.09-.84,1.61-1.3,4.25-3.7,8.46-7.44,12.74-11.09,1.47-1.25,3.12-2.29,4.71-3.4,1.81-1.27,3.65-2.49,5.44-3.78,3.87-2.77,8.24-4.49,12.61-6.25,5.64-2.28,11.15-4.86,16.78-7.15,4.85-2,9.75-3.82,15.08-4.13,2.12-.12,4.2-.89,6.31-1a34.16,34.16,0,0,0,9.22-2.16c5.56-1.86,11.07-3.88,16.65-5.64A63.33,63.33,0,0,1,256,34.44a57,57,0,0,1,8.34-1.36c2.56-.09,4.72-1.42,7.21-1.65a36.19,36.19,0,0,1,8.06-.12,15.18,15.18,0,0,0,3.52.14,62.38,62.38,0,0,1,8.67.16c.69,0,1.38,0,2.06,0,4.21,0,8.44-.14,12.63.18a19.4,19.4,0,0,1,8.15,2.27,19.62,19.62,0,0,0,3,.91c2.72,1,5.42,2,8.2,2.84A49.72,49.72,0,0,1,336,42.25a147.86,147.86,0,0,0,14.83,7.4,22.65,22.65,0,0,1,6.65,4.16,21,21,0,0,0,5.25,3.32,46.62,46.62,0,0,1,9.23,5.6c1.39,1.14,2.64,2.47,4,3.62,1.06.89,2.28,1.59,3.36,2.46q3,2.42,5.87,4.95A32.57,32.57,0,0,1,388.49,77c1.67,2,3.31,4,4.82,6,1.3,1.79,2.23,3.87,3.62,5.56,3.15,3.83,5,8.4,7.3,12.69a40.47,40.47,0,0,1,3.6,8c.41,1.4,1.16,1.63,2.31.64a19.39,19.39,0,0,0,3.33-3.44,11.71,11.71,0,0,1,5.84-4.39,11.08,11.08,0,0,1,6.63-.73,4.24,4.24,0,0,0,2.25-.17,12.61,12.61,0,0,1,7.52-.21c1.33.33,2.72.43,4.08.7,2.44.47,4.34,2,6.37,3.32,3.49,2.2,5.18,5.71,6.45,9.5.78,2.32,1.79,4.58,2.44,6.93a47.56,47.56,0,0,1,2,10.74c0,1.12.28,2.23.37,3.35.43,5.18.71,10.37,1.31,15.53.53,4.59,1.42,9.14,2.15,13.71.19,1.18.44,2.35.6,3.53.69,5.06,1.8,10,2.05,15.18.27,5.54,0,11.09.49,16.6a105.84,105.84,0,0,1,.64,12.39c-.05,2-.26,4.06-.48,6.08q-.66,6.07-1.42,12.13c-.47,3.76-1,7.51-1.5,11.28-.42,3.48-.6,7-1.17,10.44s-1.51,6.68-2.27,10c-.43,1.91-.83,3.82-1.24,5.73-.8,3.7-1.53,7.41-2.41,11.09-.92,3.89-1.91,7.76-3,11.6-.57,2-1.4,4-2.12,5.92-.6,1.64-1.18,3.3-1.81,4.93-1.1,2.87-2.2,5.74-3.38,8.57-.4,1-1.06,1.81-1.51,2.75-.64,1.32-1.15,2.69-1.8,4-1,2.12-2.2,4.2-3.23,6.33-1.88,3.88-3.6,7.85-5.59,11.67-1.31,2.53-3,4.87-4.47,7.31-1.31,2.14-2.56,4.33-3.9,6.45-1.59,2.53-3.27,5-4.88,7.52-.52.82-1,1.69-1.45,2.54a10.44,10.44,0,0,1-.78,1.43c-1.77,2.23-3.57,4.44-5.35,6.65a.7.7,0,0,0-.13.17c-.89,2.36-3,3.69-4.47,5.61-.94,1.26-2.25,2.23-3.18,3.49-1.57,2.12-3.66,3.75-5,6.05a24.89,24.89,0,0,1-3.32,3.68c-1,1.06-1.94,2.14-2.95,3.16-2,2-3.92,4.07-6,6-2.69,2.47-5.07,5.31-8.27,7.18a10.19,10.19,0,0,0-1.7,1.5,21.16,21.16,0,0,0-2.49,2.44c-2.17,2.87-5.61,4-8.19,6.35-1,1-2.55,1.37-3.78,2.14-1.69,1.06-3.3,2.24-5,3.32-3,1.89-5.9,3.8-8.92,5.57a26,26,0,0,1-7.29,2.74,18.79,18.79,0,0,0-6.3,2.89c-.86.58-1.8,1-2.66,1.62-1.71,1.16-3.34,2.44-5.1,3.52-2.06,1.26-4.2,2.39-6.34,3.5a32.61,32.61,0,0,1-4.32,1.94c-2,.7-4.08,1.26-6.15,1.77-1.54.38-3.15.48-4.68.86a29.58,29.58,0,0,0-3.7,1.33c-2.5,1-5,2-7.49,3.05a3.68,3.68,0,0,0-.58.23c-2.69,1.69-5.79,1.58-8.76,2.08-2.63.44-5.27.83-7.86,1.45a24.78,24.78,0,0,0-3.36,1.63c-2.29,1-4.58,1.93-6.94,2.68a32.75,32.75,0,0,1-4.86.92c-1.83.29-3.67.53-5.51.76-.68.08-1.36.06-2,.1a3.4,3.4,0,0,0-1.43.12c-1.73,1-3.74,1-5.54,1.6a39,39,0,0,0-6.89,3.3A44.62,44.62,0,0,1,225.34,467c-2.58.5-5.12,1.18-7.68,1.77a2.11,2.11,0,0,1-.61.12,31.1,31.1,0,0,0-5.5-.41,11.17,11.17,0,0,1-5.47-.58,5.66,5.66,0,0,0-4.06,0,6.63,6.63,0,0,1-6.15-.46c-1-.65-2.48-.61-3.73-.92a6.31,6.31,0,0,1-1.56-.54,17.4,17.4,0,0,0-5.87-2.41,3.53,3.53,0,0,1-1.58-1c-1.5-1.32-3.42-2.15-4.5-4-2.77-1.41-4.34-4-6.13-6.4-3.41-4.5-6.44-9.27-8.08-14.72-1.09-3.63-2.65-7-4-10.54a30.62,30.62,0,0,1-1.7-14.49c.27-2.38,1.81-4.21,3-6.19C163,404,164.42,401.75,166,399.11Zm19.6-150.91c-.33.21-.84.35-1,.66a6.26,6.26,0,0,1-2.66,2.57l-6.42,4.2a53.41,53.41,0,0,1-4.52,2.91c-2.19,1.13-4.76,1.19-7,2.55-1.57,1-3.33,1.64-4.65,3a2.85,2.85,0,0,1-1.14.84c-1.24.36-2.52.59-3.78.87a54.82,54.82,0,0,1-12.27,1c-2.66,0-5.39.51-7.91-.92a2.21,2.21,0,0,0-1-.06c-3.63,0-7.24-.28-10.89,0-2.22.15-4.49-.52-6.75-.71-2.47-.21-4.94-.34-7.42-.42-2.27-.07-4.56.14-6.82-.08-3.43-.34-6.84-.88-10.24-1.46A9.78,9.78,0,0,1,88.63,262c-.36-.18-.63-.59-1-.71-1.94-.59-2.88-2.21-3.92-3.77-1.23-1.85-2-4-3.74-5.5-2.75-2.41-5.44-4.9-8.17-7.33a13.23,13.23,0,0,0-2-1.49c-1.42-.85-2.88-1.63-4.34-2.41a7.27,7.27,0,0,0-1.72-.69c-2.38-.56-3.24-1.66-3.08-4.14.07-1,.22-2,.34-3a2.93,2.93,0,0,0-1.24,1.43c-.92,2.11-1.67,4.31-2.72,6.34a57.48,57.48,0,0,0-4.82,14.08c-1,4.37-1.81,8.77-2.8,13.14-.77,3.42-1.82,6.78-2.49,10.22-.71,3.64-1.11,7.35-1.68,11-1,6.3-2,12.61-3,18.9-.37,2.2-1.13,4.34-1.38,6.55-.59,5.21-1,10.44-1.45,15.67a73.39,73.39,0,0,0-.35,7.36c0,2,.48,3.89.66,5.84.31,3.34.46,6.7.85,10a19.18,19.18,0,0,0,3.07,8.78,17.55,17.55,0,0,1,1,1.84,62.06,62.06,0,0,0,3.17,6.07,20.52,20.52,0,0,0,4.65,5.13c1.71,1.3,3.26,2.81,5,4.13,2.06,1.62,4,3.48,6.34,4.63,2.54,1.27,4.89,2.8,7.3,4.24S76,391.58,79,391.85s6.06.43,9.08.74,6.12.74,9.18,1.14c2.1.27,4.19.63,6.29.83,1.5.15,3.05-.06,4.54.18,4.63.75,9.24-.13,13.86-.08,3.34,0,6.65-.59,10.05-.14a59.13,59.13,0,0,0,9,.21c3.38-.07,6.76-.41,10.14-.48s7,0,10.53.13c2.47.09,4.93.39,7.4.56a20.1,20.1,0,0,0,4.47-.59,11.17,11.17,0,0,0,4.26-1.39,8.55,8.55,0,0,1,5.79-1.12,19.57,19.57,0,0,0,5.73.1c1.9-.27,3.83-.43,5.7-.87a47.14,47.14,0,0,0,5.06-1.71c2.45-.88,4.92-1.74,7.33-2.72,2.11-.86,4.15-1.89,6.22-2.83a13.2,13.2,0,0,0,1.7-.74c2.89-1.86,6.11-3.31,8-6.46a1.54,1.54,0,0,1,.29-.3,26.16,26.16,0,0,0,6.44-8.9,19,19,0,0,1,1-1.87,9.69,9.69,0,0,0,1.56-5.77,26.22,26.22,0,0,1-.15-5.62,18.38,18.38,0,0,0-.76-7.46c-1-3.5-1.83-7-2.77-10.55q-.7-2.61-1.53-5.19c-.85-2.66-1.81-5.28-2.62-7.94s-1.51-5.5-2.34-8.22c-1.12-3.67-2.33-7.32-3.51-11-.19-.6-.49-1.16-.69-1.76a15.71,15.71,0,0,1-1.07-3.6,20.9,20.9,0,0,0-2.08-7c-.84-1.9-1.45-3.92-2.21-5.86-.27-.69-.53-1.61-1.07-1.94-1.49-.9-1.77-2.22-1.77-3.77,0-.7.21-1.58-.13-2.05-.76-1.09-.59-2.25-.72-3.41a12.39,12.39,0,0,0-.27-1.87q-1.1-4-2.27-8.08c-.49-1.68-1.1-3.32-1.56-5-.58-2.15-1-4.34-1.6-6.48a69.71,69.71,0,0,0-4.2-10.67c-.2-.44-.48-.85-.7-1.29a28.86,28.86,0,0,1-1.41-3,6.83,6.83,0,0,0-2.1-3.28,3.88,3.88,0,0,0-.55,3.24,4.16,4.16,0,0,1,0,2c-.19.58-.81,1.48-1.17,1.45a2.43,2.43,0,0,1-1.74-1.16,12.33,12.33,0,0,1-.88-3.44,2.78,2.78,0,0,1,3-3.25,3.13,3.13,0,0,0,.75-.19c-.51-4.29-1.69-8-6.21-9.73,0,.55,0,.88,0,1.21.21,2,.5,3.9.63,5.85.19,3,.29,6,.39,9a3.65,3.65,0,0,1-.84,2.47,12.61,12.61,0,0,0-2.93,5.94ZM314.07,354.58a13.87,13.87,0,0,1,1.33-.89,2.43,2.43,0,0,1,2.83.67,1.88,1.88,0,0,1,.27,2.51c-1.71,2-1.52,4.45-1.6,6.81s1.48,3.65,3.8,2.8c3.57-1.3,7.14-2.62,10.65-4.07,2.49-1,4.89-2.27,7.31-3.43,4.79-2.3,9.53-4.7,14.37-6.88A48.58,48.58,0,0,0,365,344.32c2.56-2.23,5.26-4.3,7.77-6.58,3.44-3.13,6.79-6.37,10.14-9.61,3.64-3.53,7.31-7,10.83-10.7,3.86-4,7.62-8.12,11.31-12.3a30,30,0,0,0,4.73-6.34,98.88,98.88,0,0,0,5.86-14.35c2-6.49,4-13,6-19.44a20,20,0,0,0,1.08-3.84c.3-3.14.4-6.3.57-9.46.22-3.85.46-7.7.63-11.55a43.3,43.3,0,0,0,0-5c-.29-4.11-.1-8.28-1.22-12.31a1.21,1.21,0,0,1,0-.21c-.32-3.48-.65-7-.95-10.44-.27-3.08-.51-6.16-.76-9.24q-.54-6.59-1.06-13.18c-.06-.7-.07-1.4-.12-2.1-.16-2.09-.24-4.2-.52-6.28-.42-3.05-1.27-6.07-1.44-9.13a101.09,101.09,0,0,0-1.37-13.58c-.89-4.61-1.28-9.3-2.5-13.86-.48-1.81-.48-3.76-.93-5.59-1.13-4.62-2.4-9.2-3.61-13.8-.62-2.37-1-4.8-2.55-6.84a6.67,6.67,0,0,1-.61-1.78c-1-2.77-1.76-5.61-2.91-8.29-1.29-3-3.05-5.82-4.34-8.84a36.38,36.38,0,0,0-5.47-8.38c-1.3-1.63-2.43-3.4-3.65-5.1-1.67-2.31-3.23-4.72-5.06-6.88a42.47,42.47,0,0,0-4.46-4c-1-.91-2-1.85-3.11-2.72-2-1.61-4.05-3.11-6-4.8-2.75-2.43-5.29-5.13-9-6.18a2.56,2.56,0,0,1-.94-.44c-2.53-2.13-5.66-3.33-8.13-5.58A19,19,0,0,0,349,53c-1.28-.65-2.72-1-4-1.65-4.71-2.44-9.63-4.45-14.15-7.28a13.94,13.94,0,0,0-2.72-1.5c-3.46-1.2-7-2.26-10.44-3.42a48.21,48.21,0,0,1-5.21-1.92,23.47,23.47,0,0,0-8.81-2.35c-5-.27-10,.49-15-.27-2.22-.33-4.51-.08-6.76-.23a11.83,11.83,0,0,0-3.87,0,8.59,8.59,0,0,1-1.65,0,46.43,46.43,0,0,0-5.53.35c-2.37.4-4.68,1.19-7.05,1.64-3,.56-6,1.07-9,1.37a43.28,43.28,0,0,0-10.25,2.4c-2.6.92-5.14,2-7.75,2.92-2.8,1-5.62,1.93-8.49,2.64-3.18.79-6.42,1.33-9.65,1.91-2.77.49-5.56.86-8.34,1.31-4.36.7-8.35,2.56-12.27,4.42s-7.72,3.35-11.63,4.91a95.46,95.46,0,0,0-9.91,4.23,76.35,76.35,0,0,0-12.23,8.18c-1.28,1-2.44,2.25-3.7,3.33-4.27,3.66-8.7,7.14-12.81,11a79.76,79.76,0,0,0-11.66,13.34c-1.53,2.25-3.23,4.38-4.64,6.71-1.78,2.92-3.32,6-5,9-2.28,4.09-4.78,8.07-6.84,12.26-2.7,5.47-5.51,10.85-8.71,16-2.31,3.75-4.66,7.47-6.94,11.24a37.83,37.83,0,0,0-2.33,4.46c-2.34,5.39-4.67,10.78-6.88,16.23a113.12,113.12,0,0,0-4.91,13.6c-.34,1.29-.55,2.61-.89,3.9-1.77,6.7-3.5,13.4-5.36,20.07a94.67,94.67,0,0,0-2.33,12.4,64,64,0,0,1-2.15,11.12,3.51,3.51,0,0,0,.41,2.81q1.77,3.44,3.36,7c1.2,2.67,2.18,5.44,3.47,8.06a14.89,14.89,0,0,0,2.86,4.07c1.73,1.69,4.07,2.21,6.4,2.53a18.46,18.46,0,0,1,3,.21c2.7.88,5.46.72,8.22.78a79.65,79.65,0,0,1,9.91.6,44.59,44.59,0,0,0,6.55.43c3.23,0,6.46,0,9.68.12,2,.1,3.95.71,5.94.82a49.06,49.06,0,0,0,15.6-1.22,5.08,5.08,0,0,0,2.22-1.38q4.51-4.75,8.9-9.63a93.4,93.4,0,0,0,10.2-13.5c1.28-2.08,2.76-4,4.13-6.06,1.09-1.62,2.18-3.24,3.2-4.9a4,4,0,0,0,.4-1.6c.21-1.95.44-3.9.54-5.85.12-2.37,1.69-3.3,3.84-1.73a14.27,14.27,0,0,1,1.51,1.41,32.91,32.91,0,0,0,2.49,2.46c2.85,2.26,5.08,4.9,5.87,8.63a20.33,20.33,0,0,0,1.45,4.16c1.94,4.26,4,8.46,5.94,12.73a33.59,33.59,0,0,1,3,8.91,23,23,0,0,0,.87,3.24c1,3.35,2.07,6.68,3,10,.47,1.68.75,3.42,1.12,5.14.46,2.18.89,4.37,1.39,6.54s.91,4.24,1.6,6.29c.57,1.7,1.61,3.25,2.19,4.95.68,2,1.63,3.89,1.48,6.08a1.57,1.57,0,0,0,.16.81,46.42,46.42,0,0,1,3.16,8.88c1.3,4.29,2.74,8.54,4.11,12.8,1.09,3.39,2.17,6.79,3.27,10.19.71,2.19,1.55,4.35,2.14,6.58,1,3.93,1.94,7.89,2.8,11.86.33,1.52,1.21,3,.54,4.67a7.94,7.94,0,0,0-.16,4.13c.3,2.5.88,5.09-.25,7.48-1.46,3.09-3.14,6.07-4.71,9.1-.24.46-.44.93-.76,1.61a44.69,44.69,0,0,0,4.57,1.41,16.85,16.85,0,0,1,4.73,1.46,3.41,3.41,0,0,0,2,.2,11.55,11.55,0,0,1,5.71.65,15.75,15.75,0,0,0,8.94.8,5,5,0,0,1,1.24-.09c3.31.08,6.62.21,9.93.23,1.65,0,3.31-.13,5-.24,2.94-.19,5.9-.24,8.82-.63,3.55-.48,7.09-1.16,10.58-2,2.18-.5,4.27-1.39,6.37-2.1-.43-2.39-.86-4.5-1.18-6.63s-.36-4.2-.83-6.23a21,21,0,0,1-.3-6.89c.27-2.73,1.69-5,3.19-7.22.82-1.21,1.61-2.44,2.47-3.61a8.56,8.56,0,0,1,2-2.33c3.67-2.25,6.31-5.65,9.41-8.51,2.59-2.38,4.72-5.27,7.26-7.71A33.09,33.09,0,0,0,327,315.95a26.74,26.74,0,0,0,2.16-9.39,17,17,0,0,1,.52-3.53,11.6,11.6,0,0,0,.28-5.61c-.48-2.47-.84-5-1.34-7.42-1-4.74-2-9.46-3-14.2a34.82,34.82,0,0,1-1-6c-.1-3.77,0-7.56.22-11.33s.67-7.82,1-11.73a32.33,32.33,0,0,1,2.48-10.82c1.3-2.87,2.54-5.76,3.69-8.69a133.81,133.81,0,0,0,5-13.58,76,76,0,0,1,4.2-11.19c2.27-5.09,5.11-9.93,7.81-14.8a17.48,17.48,0,0,1,3.12-4.16c2.91-2.77,5.94-5.43,9-8s6.09-4.83,9.2-7.14a41.1,41.1,0,0,1,4.37-2.73c1.35-.76,3-.78,4.09-2.24.66-.89,2.94-.44,3.35.4s-.38,1.78-1.62,2.34c-.13.06-.27.06-.4.12a61.67,61.67,0,0,0-5.57,2.66c-2.07,1.23-4,2.73-6,4.13a21.73,21.73,0,0,0-3.17,2.35c-2.62,2.71-5.67,4.88-8.51,7.31a20.65,20.65,0,0,0-3.68,4.21,73.53,73.53,0,0,0-4,6.86c-1.55,3-3,6-4.43,9-.56,1.19-.94,2.47-1.4,3.72a1.56,1.56,0,0,0,.72,2l1.35-.38c1.37-.36,1.87-.07,2.23,1.35.14.54.18,1.11.32,1.65.37,1.41.87,1.66,2.23,1.17l.65-.23c2.44.76,2.73,2.85,3.06,5.07,1.42-1,2.66-1.51,4-.54a8.79,8.79,0,0,1-.22,4.93c-.42,1.82-1.16,3.61-.63,5.55a1.76,1.76,0,0,1-.72,2.2,2.29,2.29,0,0,1-2.72-.09,13.73,13.73,0,0,1-1.24-1.1,2.9,2.9,0,0,0-.52.47c-.54.86-1.21,1.34-2.25.89a2.17,2.17,0,0,1-1.37-2.51c.12-1,.36-2.07.53-3.11a29.83,29.83,0,0,0,.5-3.54c.06-1.54-.65-2.35-2.29-2.8a11.36,11.36,0,0,0-1.16,5.62,2.13,2.13,0,1,1-4.18.59,10.27,10.27,0,0,1,0-2.71c.19-1.88.5-3.74.69-5.62a2,2,0,0,0-1.13-2.29,18.12,18.12,0,0,0-1,2c-1.84,5.07-3.59,10.17-5.49,15.21-.94,2.48-2.25,4.82-3.19,7.29-1.59,4.18-1.66,8.66-2.11,13s-.94,8.61-1,13A50.49,50.49,0,0,0,330,275.93c.88,3.6,1.76,7.21,2.48,10.85.69,3.43,1.23,6.89,1.72,10.36a19.37,19.37,0,0,1,.15,4.39c-.2,2.3-.64,4.58-.94,6.88-1.16,8.78-5.88,15.62-11.64,21.86-3,3.27-6.11,6.45-9.23,9.62a42.5,42.5,0,0,1-3.31,2.84,11,11,0,0,0-1,.68,43.12,43.12,0,0,0-7.28,9.36c-1.11,2.09-.76,4.36-.94,6.56,0,.28.36.58.5.89.94,2.09,2,4.16,2.73,6.31a5.5,5.5,0,0,1-.06,2.68c-.12.67-.6,1.27-.8,1.93-.12.42-.19,1.08,0,1.32a1.79,1.79,0,0,0,1.42.51,12.59,12.59,0,0,0,2.32-.95,38.65,38.65,0,0,1-.16-4c.17-2.72.51-5.43.72-8.15a10.6,10.6,0,0,1,2.78-6.21c1.26-1.46,2.59-1.66,3.82-.06ZM459.71,194.39l.18,0c0-2.11.1-4.22,0-6.32-.2-3.22-.41-6.45-.87-9.64-.7-4.85-1.61-9.68-2.46-14.51-.57-3.24-1.26-6.46-1.77-9.72-.29-1.86-.28-3.77-.44-5.65-.2-2.44-.57-4.88-.64-7.32-.17-6.07-1.32-12-2.35-17.93-.81-4.66-3.31-8.6-5.34-12.74a2.91,2.91,0,0,0-.83-.94c-2.88-2.27-5.73-4.53-9.62-4.77-2.2-.14-4.35-.66-6.6-.33-2,.29-4,.11-6,.44a8.39,8.39,0,0,0-5.92,3.43,14.61,14.61,0,0,1-3.09,3.34c-2.51,1.92-3.24,3.64-2.46,6.66q1.61,6.21,3.19,12.42c.36,1.42.66,2.87,1,4.29.78,3,1.7,5.94,2.37,9,.89,4,1.72,8.1,2.32,12.19.65,4.44,1,8.93,1.51,13.38.48,4,1.19,7.91,1.6,11.89.71,6.89,1.87,13.76,1.56,20.74a11.49,11.49,0,0,0,.1,1.68c.4,3.91.83,7.81,1.22,11.72.27,2.73.31,5.49.78,8.18a90.7,90.7,0,0,1,1.17,15.52c0,5.61-.33,11.23-.73,16.83a38.5,38.5,0,0,1-1.38,7.84c-1.68,5.86-3.57,11.66-5.45,17.46-.92,2.86-2.27,5.61-2.93,8.53-.89,3.93-3,7.21-4.77,10.68a27,27,0,0,1-2.59,4c-1.3,1.7-2.68,3.34-4.12,4.92-3.36,3.69-6.72,7.38-10.18,11-2.6,2.7-5.37,5.23-8,7.86-2.26,2.23-4.42,4.57-6.74,6.73q-5.93,5.55-12,10.93a57.17,57.17,0,0,1-12.59,8.73c-2.3,1.13-4.52,2.43-6.84,3.53-3.75,1.79-7.51,3.56-11.32,5.19-4.69,2-9.43,3.87-14.16,5.8q-2.4,1-4.81,1.92l-4.64,1.8c-1.73.67-3.48,1.31-5.18,2.05a3.48,3.48,0,0,0-1.17,1.12,5.39,5.39,0,0,1-5.46,2.2,5.92,5.92,0,0,0-3.36.58c-2.3.93-4.65,1.73-7,2.43-2,.58-4,1-6.06,1.37-2.71.52-5.43.95-8.15,1.4a5,5,0,0,1-.82,0c-1.51,0-3,0-4.54,0a57.32,57.32,0,0,1-7.85.08,39.91,39.91,0,0,0-9.69.33,7.78,7.78,0,0,1-4.45-.34,2.08,2.08,0,0,0-2.77.7,4.93,4.93,0,0,1-1.25,1.06c-1.14.74-2.4,1.33-3.46,2.18-2.06,1.64-3.91,3.56-6.33,4.71-1,.47-2,.94-3,1.48-3.12,1.78-6.31,3.47-9.31,5.46a21.22,21.22,0,0,1-4.94,2c-.64.23-1.3.4-2,.57a18.24,18.24,0,0,1-7,.53c-1.08-.14-2.19-.15-3.24-.4-1.72-.41-3.58-.39-5-1.81a6.3,6.3,0,0,0-2.25-1.41c-2.85-1-5.73-2-8.63-2.93a5,5,0,0,0-2.06-.1c-1.64.2-3.27.5-4.91.77-4,.65-8,1.36-12,1.92a5.25,5.25,0,0,0-2.81,1.13,26.1,26.1,0,0,0-7.94,12.32c-1.43,4.34-.68,8.72.49,13,.2.73.66,1.38.92,2.1,1.15,3.16,2.27,6.33,3.41,9.49,1,2.72,2.69,5,4.08,7.51a37.3,37.3,0,0,0,16.46,16c4,1.94,8,3.3,12.48,3.15a13.68,13.68,0,0,1,4.5.11c2.25.72,4.51.48,6.75.71a20.37,20.37,0,0,0,4.48,0,61.41,61.41,0,0,0,6.7-1.23,65.69,65.69,0,0,0,8.58-2.37c2.82-1.09,5.43-2.73,8.16-4.06a33.55,33.55,0,0,1,4.93-2.15,59.24,59.24,0,0,1,5.88-1.2c2.9-.57,5.79-1.21,8.71-1.67a48.55,48.55,0,0,0,10.54-2.86c1.73-.69,3.43-1.46,5.15-2.17,3.62-1.51,7.55-1.52,11.32-2.29,3.4-.69,6.82-1.36,9.84-3a34.12,34.12,0,0,1,11.37-3.71,38.09,38.09,0,0,0,9.18-3c4.47-1.91,8.38-4.82,12.52-7.33a81.58,81.58,0,0,1,9.5-4.54c2.08-.92,4.36-1.42,6.36-2.49,3-1.62,5.89-3.62,8.88-5.36,2.14-1.25,4.12-2.73,6.31-3.92a93.64,93.64,0,0,0,8.62-5.82,10.7,10.7,0,0,0,1-1c2.4-2.21,4.58-4.76,7.26-6.55,3.62-2.43,6.49-5.64,9.63-8.55s5.8-6.2,8.61-9.38c3.69-4.17,7.3-8.41,11-12.6a64.33,64.33,0,0,0,6.75-8.52c1.35-2.19,2.58-4.45,4-6.6,2.46-3.73,5.09-7.34,7.5-11.09,1.46-2.27,2.7-4.71,4-7.11,1.85-3.51,3.69-7,5.45-10.59s3.16-7.16,5.1-10.52a54.6,54.6,0,0,0,3.56-7.77c1.64-4.23,3.08-8.55,4.57-12.84a171.56,171.56,0,0,0,5.36-19.39c.41-1.84.6-3.74,1-5.58a148.53,148.53,0,0,0,3.75-19.18c.28-2.65.43-5.33.88-7.95.86-5,1.4-10,1.75-15,.13-1.89.55-3.76.67-5.65a100.79,100.79,0,0,0,.42-10.47C460.73,204.16,460.14,199.28,459.71,194.39Zm-216.43,189a10.81,10.81,0,0,0-1.27-.56c-1.73-.4-3.5-.68-5.2-1.18a40.16,40.16,0,0,0-8.57-2,4.16,4.16,0,0,0-3.37,1.19,38.66,38.66,0,0,1-3.68,3,51.23,51.23,0,0,1-9.9,5.44c-3,1.26-6,2.46-9,3.72-.65.28-1.52.35-1.73,1.54a56.16,56.16,0,0,0,5.58,2.77,28,28,0,0,0,5,1.05,10.32,10.32,0,0,0,3.27.36,39.3,39.3,0,0,0,6.76-1.6,34.35,34.35,0,0,0,5.32-2.7c2-1.15,4-2.38,6-3.6s4.13-2.46,6.11-3.82C240.19,386.09,241.54,384.84,243.29,383.42ZM184.86,227.07a58.23,58.23,0,0,0-3.7,4.73c-2.74,4.37-5.26,8.88-8,13.23-1.52,2.39-3.43,4.51-5,6.85-.75,1.08-2.09,1.87-2,3.55,2.52.57,4.45-.59,6.35-1.9s3.54-2.41,5.32-3.59a11.17,11.17,0,0,0,4.2-4.25,21.53,21.53,0,0,1,2.41-3.59,6,6,0,0,0,1.56-4.21c-.18-3-.28-6-.46-9A8.44,8.44,0,0,0,184.86,227.07Zm-119-.35c-1.5,2.71-1.6,5.71-1.95,8.64,0,.32.44.84.8,1.05,2.31,1.31,4.76,2.41,7,3.89a66.54,66.54,0,0,1,5.41,4.48c.47.39,1,.73,1.76,1.31-1.94-4.44-3.55-8.51-5.49-12.4A13.41,13.41,0,0,0,65.81,226.72Zm247.71,129c-3.28,4.2-3.8,8.66-3.14,13.35a2.35,2.35,0,0,0,3.16-.4,20.41,20.41,0,0,1-.75-3.48,31.05,31.05,0,0,1,.37-3.75C313.31,359.64,313.39,357.84,313.52,355.72Z"/><path class="cls-1" d="M159.7,93.7l-3,1.49c-1.84-2.45-1.82-3,0-5,1.92-2.2,3.79-4.45,5.74-6.61a8.36,8.36,0,0,1,2.22-1.79c1.51-.8,1.91-.61,2.78.9.14.24.27.49.38.7a6.77,6.77,0,0,1,1.76.66c.8.6.68,2-.12,3-1.44,1.7-3,3.33-4.26,5.13a11.69,11.69,0,0,0-1.65,3.53A1.58,1.58,0,0,1,161.92,97a1.51,1.51,0,0,1-1.78-1.08A19.3,19.3,0,0,1,159.7,93.7Zm.68-2,.42.3,1.82-2.49-.4-.31C161.42,89.9,160.38,90.38,160.39,91.73Zm3.22-4.19c.92.07,1.18-.39,1.31-1.22C164.16,86.51,163.55,86.6,163.6,87.54Z"/><path class="cls-1" d="M335.79,253.49l.7-9.07c0-.14,0-.28,0-.42.25-1.39.92-2.17,1.87-2.17a2.06,2.06,0,0,1,1.88,2.35c-.05,2.66-.34,5.32-.4,8a11.29,11.29,0,0,0,.47,3.26c.45,1.61-.73,3.74-2.3,3.8a1.66,1.66,0,0,1-1.81-1.42C336,256.15,335.88,254.48,335.79,253.49Z"/><path class="cls-1" d="M127.94,165.75l2.54-.22a2.06,2.06,0,0,1-1.36,2.07,4.81,4.81,0,0,0-2.73,4.59c-.78.51-1.5,1-2.27,1.47a1.41,1.41,0,0,1-2.23-1.18,9.94,9.94,0,0,1,.2-3.11c.44-1.75,1.08-3.45,1.62-5.18a8,8,0,0,1,2.63-3.44,1.68,1.68,0,0,1,2.28.13c.7.54.36,1.25,0,1.88A3.36,3.36,0,0,0,127.94,165.75Z"/><path class="cls-1" d="M200,61.35a3.26,3.26,0,0,1,1.12-3.54,17,17,0,0,1,2.32-1.75q4.45-2.65,9-5.19c.83-.47,1.75-.76,3-1.3a13.72,13.72,0,0,0,.77,1.24,1.88,1.88,0,0,1,.08,2.35,2.61,2.61,0,0,1-1.87,1,5,5,0,0,0-3.71,1.4,48.78,48.78,0,0,1-5.08,3.2,18.26,18.26,0,0,0-2.78,1.81A3.49,3.49,0,0,1,200,61.35Z"/><path class="cls-1" d="M109.87,158.41l-.76-1.63c.16-.2.25-.47.4-.51,1.3-.33,2.14.28,1.91,1.53a5.44,5.44,0,0,1-1.06,2.47c-2.11,2.49-3.06,5.63-4.6,8.43a5.89,5.89,0,0,0-.32,3c.06.92.08,1.68-.79,2.17a1.61,1.61,0,0,1-1.93-.06,1.82,1.82,0,0,1-.88-2.3c1.06-3,2-6.08,3.09-9.11a12.15,12.15,0,0,1,.88-1.91c.71-1.28,1.53-2.37,3.26-1.82C109.21,158.77,109.42,158.59,109.87,158.41Z"/><path class="cls-1" d="M260.36,43.65c.73.19,1.27.33,1.8.46,1,.22,1.67.68,1.59,1.83s-.92,1.5-1.8,1.72c-1.13.29-2.27.5-3.42.71-2.56.47-5.12.88-7.67,1.41a4.37,4.37,0,0,0-1.48,1c-.9.7-1.38.63-2-.32-1.2-1.78-.73-3.32,1.37-3.8,2.47-.57,5-.95,7.51-1.3A6.2,6.2,0,0,0,260.36,43.65Z"/><path class="cls-1" d="M354.31,197.42c.6-1.61,1.29-3.74,2.18-5.77a48.51,48.51,0,0,1,2.4-4.4,2.64,2.64,0,0,1,2.64-1.63c1.14.11,1.63.62,1.49,1.79a5.19,5.19,0,0,1-.6,1.76c-.79,1.47-1.64,2.91-2.48,4.36s-1.87,2.91-1,4.86c.36.86-.4,1.61-1.17,2C356.4,201,354.29,199.44,354.31,197.42Z"/><path class="cls-1" d="M150.57,89a6.61,6.61,0,0,1,.78-2c2.17-2.81,4.4-5.58,6.72-8.26a7.68,7.68,0,0,1,2.3-1.22,1.17,1.17,0,0,1,1.64.38,1.44,1.44,0,0,1-.18,1.93c-1.32,1.52-2.69,3-4,4.51a33.78,33.78,0,0,0-2.56,3,4.88,4.88,0,0,0-.66,2.09,2.61,2.61,0,0,1-2.35,2.16C151.24,91.65,150.52,90.69,150.57,89Z"/><path class="cls-1" d="M116.67,171.91a4.39,4.39,0,0,1-.94-4.09c.38-1.7.69-3.41,1.08-5.1a8.7,8.7,0,0,1,2.64-4.2,3.59,3.59,0,0,1,1.82-.85,1.25,1.25,0,0,1,1.47,1.67,27.85,27.85,0,0,1-1.26,3.09c-.81,2-1.65,4-2.4,6A3.61,3.61,0,0,0,119,170c.24,2,.08,2.16-1.9,2A1.93,1.93,0,0,1,116.67,171.91Z"/><path class="cls-1" d="M132.83,132.09a9.21,9.21,0,0,1,.74-2.18c1.67-2.79,3.43-5.53,5.19-8.27a2.79,2.79,0,0,1,1-1,2.05,2.05,0,0,1,2.51.14c.82.78.21,1.65-.18,2.28-1.1,1.77-2.42,3.39-3.51,5.16-.9,1.45-2.07,2.78-2.13,4.69,0,.84-1.52,1.79-2.14,1.64A3,3,0,0,1,132.83,132.09Z"/><path class="cls-1" d="M365,216.7a1.58,1.58,0,0,1,1.6,2q-.95,5.15-1.93,10.3a9.11,9.11,0,0,1-.42,1.63,2,2,0,0,1-2.14,1.29,2.16,2.16,0,0,1-1.38-2.11,5.09,5.09,0,0,1,.25-1.44c1-2.67.89-5.5,1.39-8.24a4,4,0,0,1,1.53-2.88A7,7,0,0,1,365,216.7Z"/><path class="cls-1" d="M121.92,129a20.59,20.59,0,0,1,.62-2.29c1.14-2.93,2.25-5.88,4.66-8.06.36-.33.68-.78,1.11-.93a2.11,2.11,0,0,1,1.52,0,1.41,1.41,0,0,1,.57,1.21,8.33,8.33,0,0,1-1,2.48c-.7,1.12-1.63,2.09-2.32,3.22a14.61,14.61,0,0,0-1.37,3,2,2,0,0,0,.23,1.5,1.53,1.53,0,0,1-.21,2.23,1.82,1.82,0,0,1-2.46.21A3,3,0,0,1,121.92,129Z"/><path class="cls-1" d="M166.61,97.83A23,23,0,0,1,168,95.08q1.73-2.45,3.65-4.77c.93-1.12,2-2.13,3-3.19a1.6,1.6,0,0,1,.32-.26c1-.62,2.26-.64,2.67,0,.63,1,0,1.7-.65,2.39-1.27,1.39-2.6,2.72-3.76,4.21a39.12,39.12,0,0,0-2.3,3.72c-.36.58-.7,1.17-1.09,1.73s-1,1.42-1.83.9C167.43,99.41,167.11,98.54,166.61,97.83Z"/><path class="cls-1" d="M180.22,106.41a3.58,3.58,0,0,1,.31-3.13,32,32,0,0,1,5.86-7.78c.78-.83,1.59-1.78,3-1.2s1.67,1.22.76,2.33-2.25,2.28-3.24,3.53a37.13,37.13,0,0,0-3.05,4.4C182.89,106.25,182.08,106.77,180.22,106.41Z"/><path class="cls-1" d="M257.64,60.36c1.17.08,2.41.12,3.64.26a2.06,2.06,0,0,1,1.94,1.85c.06.85-.51,1.49-1.73,1.75a3.33,3.33,0,0,1-1.61,0,12.08,12.08,0,0,0-6.64.28,19.64,19.64,0,0,1-3.46.55c-.44,0-1.19-.28-1.3-.62a2.47,2.47,0,0,1,0-1.93,3.12,3.12,0,0,1,1.88-1.1C252.76,60.95,255.16,60.69,257.64,60.36Z"/><path class="cls-1" d="M375.38,194.41c-.62,1.48-1.18,3-1.86,4.42-.54,1.13-1.3,2.15-1.83,3.29a11.08,11.08,0,0,0-.86,2.77c-.23,1.36-.7,1.83-2,1.65a1.8,1.8,0,0,1-1.46-2.18,51.26,51.26,0,0,1,2.1-5.89c.6-1.4,1.53-2.65,2.2-4a2.29,2.29,0,0,1,2.08-1.46C374.75,192.92,375.16,193.31,375.38,194.41Z"/><path class="cls-1" d="M136.82,163.64c-.28.79-.45,1.32-.66,1.83q-1.52,3.55-3.08,7.08a5.59,5.59,0,0,1-.83,1.43,1.67,1.67,0,0,1-2.24.39,1.78,1.78,0,0,1-.76-2.2c.57-1.57,1.16-3.12,1.75-4.68.1-.26.35-.51.34-.75-.1-2.11,1.19-3.27,2.71-4.37.58-.42,1.15-1,1.78-.5A5.69,5.69,0,0,1,136.82,163.64Z"/><path class="cls-1" d="M368.26,193c-.56,1.49-1.06,3-1.69,4.47-.71,1.65-1.6,3.22-2.26,4.89-.32.82-.46,1.65-1.53,1.66a2.35,2.35,0,0,1-2.13-2.15,7.07,7.07,0,0,1,.59-2.41,59.77,59.77,0,0,1,2.82-6,5.08,5.08,0,0,1,2.29-1.91C367.36,191.11,368,191.8,368.26,193Z"/><path class="cls-1" d="M183.43,90.89c-1.27,1.66-2.14,3-3.19,4.13a12.48,12.48,0,0,0-3.25,5.74l0,.21c-.18.92-.63,1.59-1.65,1.52a2.23,2.23,0,0,1-1.66-2.12,8.88,8.88,0,0,1,1-3.16,48.7,48.7,0,0,1,4-5.57,5.77,5.77,0,0,1,2.57-1.6C181.63,89.87,182.34,90.44,183.43,90.89Z"/><path class="cls-1" d="M355.7,246.11c-.25,1.42-.39,2.54-.66,3.62a4.32,4.32,0,0,0,.45,3.42c.87,1.51.74,2.16-.2,2.7-1.25.72-3.18.41-3.68-.75a6.39,6.39,0,0,1-.59-2.82,43.73,43.73,0,0,1,.79-5.62,2.79,2.79,0,0,1,1-1.7,2.65,2.65,0,0,1,2.07-.33C355.33,244.8,355.5,245.72,355.7,246.11Z"/><path class="cls-1" d="M127.22,129.14c.56-1.3,1-2.67,1.72-3.94s1.64-2.58,2.48-3.86a3.16,3.16,0,0,1,.56-.62c1-.89,2.25-1.21,2.8-.66.94.94.18,1.87-.2,2.68a27.75,27.75,0,0,1-2.11,3.6,10.09,10.09,0,0,0-1.75,4.42c-.11.86-.48,1.64-1.3,1.61a2.47,2.47,0,0,1-1.53-1.15A8.15,8.15,0,0,1,127.22,129.14Z"/><path class="cls-1" d="M257.81,52.73c1.26.06,2.43.16,3.2,1.27.32.46.69,1.25.51,1.61-.26.52-1,.81-1.56,1.17a.51.51,0,0,1-.41,0c-2.33-1-4.56,0-6.82.34l-2.59.36a1.36,1.36,0,0,1-1.5-1.73,2.28,2.28,0,0,1,1.83-1.81C252.92,53.5,255.37,53.12,257.81,52.73Z"/><path class="cls-1" d="M108.78,168.1a18.19,18.19,0,0,1,.83-2.32c1-2,2.07-4,3.06-5.95a1.45,1.45,0,0,1,2-.86c.9.34,1.18,1.06.74,2.24-.53,1.44-1.23,2.81-1.79,4.24-.43,1.1-.75,2.23-1.11,3.35a1.34,1.34,0,0,0,0,.21c-.26,1.71-.8,2.4-1.84,2.36S108.73,170.11,108.78,168.1Z"/><path class="cls-1" d="M224.06,74a5.71,5.71,0,0,1-1.37.88c-.86.23-1.77.27-2.65.44a22.27,22.27,0,0,0-7.27,2.92c-.61.36-1.31.69-1.89,0a1.68,1.68,0,0,1-.12-2.3,5,5,0,0,1,.81-.93,4.08,4.08,0,0,1,1.25-.71c2.49-.78,5-1.55,7.51-2.26a2.92,2.92,0,0,1,3,.91A9.65,9.65,0,0,1,224.06,74Z"/><path class="cls-1" d="M348.15,244.8c0,.66,0,1.22,0,1.77.11,1.45.23,2.91.4,4.36s.58,2.91-.24,4.3a1.55,1.55,0,0,1-2.72.31,3.44,3.44,0,0,1-1-2.44,27.39,27.39,0,0,0-.39-4.35C343.78,245.72,345.17,244.17,348.15,244.8Z"/><path class="cls-1" d="M219.45,60a2.59,2.59,0,0,1-2,1.58c-.86.25-1.71.54-2.55.84-2.2.79-4.38,1.61-6.58,2.39a8.48,8.48,0,0,1-1.41.25c-.3-2.61-.1-3.35,2.2-4.21a69.59,69.59,0,0,1,8.15-2.26C218.31,58.37,218.6,58.68,219.45,60Z"/><path class="cls-1" d="M250,70.37c0-2.22.74-3.37,2.6-3.59a20,20,0,0,1,3.48.08c1.5.09,3,.16,4.5.35a3.44,3.44,0,0,1,1.82.75,1.25,1.25,0,0,1-.46,2.27,6,6,0,0,1-3.19.36,12.76,12.76,0,0,0-6.53-.24A9.07,9.07,0,0,1,250,70.37Z"/><path class="cls-1" d="M152.84,135.33c-2.51-1.16-3-2.55-1.37-4.65,1.82-2.35,3.82-4.57,5.8-6.79a1.57,1.57,0,0,1,1.41-.43,1.81,1.81,0,0,1,.66,1.39,2.5,2.5,0,0,1-.6,1.5,33,33,0,0,0-5.61,8.73C153.1,135.18,152.95,135.24,152.84,135.33Z"/><path class="cls-1" d="M210.19,71.7c-.21-.84-.33-1.37-.49-1.89a1.39,1.39,0,0,1,.92-1.83l.38-.16c2.54-1,5.07-2.06,7.63-3,1.59-.6,2.71.2,2.41,1.63a1.19,1.19,0,0,1-.35.73c-1,.62-2.09,1.22-3.17,1.76a30.6,30.6,0,0,1-2.84,1.21C213.23,70.66,211.76,71.15,210.19,71.7Z"/><path class="cls-1" d="M250.06,78.41c-.46-.68-1-1.41-.44-2.28a2.24,2.24,0,0,1,2.34-.92c2.4.15,4.81.14,7.22.19,1.74,0,2.49.51,2.5,1.55,0,.84-.69,1.43-2.37,1.5-2.32.1-4.65,0-7,0Z"/><path class="cls-1" d="M145.44,123.3c1.71,0,2.42,1.28,1.74,2.57-.45.86-1.08,1.62-1.61,2.43-.94,1.45-2.07,2.78-2.09,4.7a1.25,1.25,0,0,1-1.55,1.28c-.85-.16-1.67-.58-1.61-1.61a8.09,8.09,0,0,1,.59-3.05,45.35,45.35,0,0,1,3.1-5.15A5.43,5.43,0,0,1,145.44,123.3Z"/><path class="cls-1" d="M214.37,85.09c-.9-2.74-.66-3.17,1.51-4.06,1.32-.53,2.53-1.33,3.8-2a13.57,13.57,0,0,1,2.6-1.14c.42-.11,1.33.23,1.38.49a3.15,3.15,0,0,1-.32,1.89,3.23,3.23,0,0,1-1.22,1.09c-1.68,1.05-3.36,2.14-5.11,3A11.07,11.07,0,0,1,214.37,85.09Z"/><path class="cls-1" d="M362.91,245.63c-.07.78-.14,1.61-.23,2.44a4.38,4.38,0,0,0,.35,2.83,3,3,0,0,1,.16,2,1.64,1.64,0,0,1-2.74.89,6.41,6.41,0,0,1-1.61-2.34c-.81-2.13.16-4.1,1-6C360.25,244.45,361.26,244.57,362.91,245.63Z"/><path class="cls-1" d="M381.55,198.91a6.23,6.23,0,0,1-.3,1.53q-1.3,2.36-2.71,4.67a1.68,1.68,0,0,1-2.34.59,1.78,1.78,0,0,1-.84-2.32,4.54,4.54,0,0,1,.45-1.17c.77-1.31,1.55-2.62,2.39-3.88a1.7,1.7,0,0,1,2.18-.67C380.9,197.91,381.24,198.56,381.55,198.91Z"/><path class="cls-1" d="M381.05,124.31a25.67,25.67,0,0,1,3.39,1.4,1.82,1.82,0,0,1,.66,1.58c-.1.42-.85.87-1.37.94a8.64,8.64,0,0,1-2.66-.11,3.8,3.8,0,0,1-1.43-.75,1.5,1.5,0,0,1-.46-1.86C379.48,124.53,380.21,124.52,381.05,124.31Z"/><path class="cls-1" d="M385.71,114.44l-1,1.61a25.82,25.82,0,0,1-3.42.11,2.35,2.35,0,0,1-1.68-.86,1.76,1.76,0,0,1,.72-2.18,2.71,2.71,0,0,1,3.24-.37A17.12,17.12,0,0,1,385.71,114.44Z"/><path class="cls-1" d="M116.78,351.27c-2-1.19-2.63-3.07-2.86-5.16,0-.42-.14-.83-.2-1.24-.43-3-.85-5.93-1.29-8.88-.1-.68-.3-1.35-.44-2-.27-1.29-.54-2.58-.8-3.87-.61-3.15-1.13-6.33-1.85-9.46a3.12,3.12,0,0,0-3.29-2.58,29.49,29.49,0,0,1-4.39-.94c-1.07-.2-2.18-.23-3.26-.36-2.25-.29-4.49-.66-6.75-.88a11.06,11.06,0,0,0-2.86.19c-1.84.31-3.66.7-5.49,1.07s-3.5-.63-5-1.51a2.61,2.61,0,0,1-.82-1.84,8.63,8.63,0,0,1,.27-2.7,1.7,1.7,0,0,1,1.63-1.4c3.85-.2,7.69-.78,11.54.1,2.09.48,4.2.82,6.31,1.21a3.81,3.81,0,0,0,1.43.12c2.32-.51,4.54.13,6.73.68a5.31,5.31,0,0,0,2.82,0,8.35,8.35,0,0,1,1.61-.36c2-.14,3.06,1.15,2.75,3.17a10.32,10.32,0,0,0,0,3.08c.61,3.94,1.27,7.88,2,11.8.25,1.29,1,2.49,1.19,3.78.43,2.41.71,4.86.95,7.3a19,19,0,0,0,2.08,6.14c.51,1.08,1.52,1.17,2.46,1.29,2.8.35,5.62.63,8.57,1,1.08-1.33,1.31-3.08,1.85-4.71q1.22-3.68,2.48-7.35c1.64-4.77,3.35-9.51,4.91-14.31a8.87,8.87,0,0,0-.09-2.82,22.82,22.82,0,0,1,0-2.44,7,7,0,0,1,.43-1.18c.64-2.33,1.1-2.85,3.41-2.75a20.8,20.8,0,0,0,6.92-.73c4.38-1.32,8.84-1.38,13.35-1.28a37.84,37.84,0,0,0,5.33-.59c1.62-.2,3.24-.49,4.87-.58s2.85,1.95,2.48,3.65c-.15.68-.3,1.35-.41,2a2.83,2.83,0,0,1-3.79,2.42c-2.68-1.16-5.34-.88-8.12-.7-3,.19-6.06-.24-9.09-.3a15.74,15.74,0,0,0-3.46.4c-2.08.43-4.15.94-6.21,1.48a6.66,6.66,0,0,0-2.29.94,4.47,4.47,0,0,0-1.66,2q-1.56,5.23-2.8,10.55a40.41,40.41,0,0,1-1.88,5.93,13.53,13.53,0,0,0-.32,2.68c-.45,2.62-1,5.22-1.37,7.85-.26,2-1.65,3.33-2.67,4.88-.26.39-.67.8-.69,1.22-.06,1.53-1,2.1-2.21,2.72-3.22,1.7-4.11,4.6-2.49,7.92a9.24,9.24,0,0,0,2.31,3.42,2.45,2.45,0,0,1-1,4.27,6.15,6.15,0,0,1-6.49-2c-.62-.8-.94-2.32-.35-2.91,2-2,1.07-4.25.7-6.48a4.89,4.89,0,0,1-.13-1.41,3.8,3.8,0,0,0-3-4.65c-1.88-.54-1.95-.63-1.8-2.52C116.58,352.84,116.68,352.15,116.78,351.27Z"/><path class="cls-1" d="M153.67,281.5c.54-1.19,1.37-1.81,2.75-1.19a2.56,2.56,0,0,0,1.2-.05,2.59,2.59,0,0,1,2.92,1.43c.15.31.27.65.4,1l.57-.27c.24-.54.47-1.09.73-1.62a8.29,8.29,0,0,1,.78-1.47c.63-.82,1.32-.83,1.83,0a6.74,6.74,0,0,1,.76,2.15c.35,1.83.48,1.93,2.06,1.25.19-.08.37-.27.56-.27,1.54,0,3.08.06,4.62.1,1.16,0,2.31,0,3.47.1a5.34,5.34,0,0,1,1.77.24c1.27.53,1.47,1.21.95,2.53-.33.84-.64,1.7-1,2.53-.87,2.05-.76,4.25-1,6.41a3.38,3.38,0,0,1-4.58,3,46.93,46.93,0,0,0-11.42-2.63c-1.08-.15-2.21,0-3.31,0-2.26-.11-4.57.16-6.74-.79a3.07,3.07,0,0,0-1-.09c-.72,0-1.68.21-2.12-.16a9.92,9.92,0,0,1-2.43-3,3.19,3.19,0,0,1,.32-2.39,10.06,10.06,0,0,0,1.22-4,2.37,2.37,0,0,1,2.21-2.54,2.61,2.61,0,0,0,.61-.1C151.86,280.8,151.86,280.8,153.67,281.5Z"/><path class="cls-1" d="M88.88,281.15a25.53,25.53,0,0,1,3.58.82q5.89,2.24,11.71,4.67c2,.83,2.17,1.65,1.31,3.62-.52,1.19-.77,2.5-1.23,3.72a2.52,2.52,0,0,1-1,1.21c-1.3.76-2.65,1.43-4,2.06a1.92,1.92,0,0,1-1.33.09A44.82,44.82,0,0,0,89,295.07a3.47,3.47,0,0,0-2.1.55,1.42,1.42,0,0,1-2.17-.4c-1.07-2-2.94-2.88-4.66-4s-1.93-2.69-.26-4.24c.31-.28.77-.52.88-.87.73-2.28,2.82-3,4.55-4.06C86.23,281.45,87.58,281.44,88.88,281.15Z"/><path class="cls-1" d="M200.07,330.12l-2-1.62-2,1.8a26.78,26.78,0,0,1-2.37-2.79c-.55-.85.45-2.91,1.44-3a2.26,2.26,0,0,1,1.52.75,7.77,7.77,0,0,1,1,1.69l.47-.05c.09-.64.15-1.28.27-1.9.21-1.1,1.21-1.49,2-.71a4.24,4.24,0,0,1,1.19,3.24A2.59,2.59,0,0,1,200.07,330.12Z"/><path class="cls-1" d="M63.3,339.87c-2.48-1.31-3.09-3.6-3.58-5.93a3.49,3.49,0,0,1,.2-1.64,1.56,1.56,0,0,1,1.77-1.12,1.77,1.77,0,0,1,1.74,1.5c.34,1.63.7,3.25,1,4.88A2.06,2.06,0,0,1,63.3,339.87Z"/><path class="cls-1" d="M185.57,248.26a9.76,9.76,0,0,1,.67-.8,1.93,1.93,0,0,1,2.25-.59c.88.42.87,1.28.82,2.18-.07,1.32,0,2.64,0,4a1.79,1.79,0,0,1-1.36,1.86c-.79.29-1.34-.15-1.68-.84-.63-1.24-1.39-2.43-.86-4a7.94,7.94,0,0,0,.19-1.87Z"/><path class="cls-1" d="M195.79,250.66c0,.77,0,1.55,0,2.31-.08,1.06-.5,1.32-1.51,1a2.51,2.51,0,0,1-2-2.37c0-1.54.16-3.08.31-4.61.08-.82.4-1.48,1.4-1.49a1.53,1.53,0,0,1,1.58,1.39,34.22,34.22,0,0,1,.3,3.74Z"/><path class="cls-1" d="M56.38,259.06c1.08-.78.79-1.72.53-2.66-.19-.67-.33-1.35-.51-2-.66-2.36-.14-2.95,2.66-2.67.45,2,.94,4.08,1.38,6.17a1.05,1.05,0,0,1-1,1.35c-.92.12-1.86.11-2.8.16Z"/><path class="cls-1" d="M195.32,259.56c-.12,1.41-.13,2.68-.34,3.91-.25,1.47-1,2-2,1.76a2.11,2.11,0,0,1-1.39-2.8c.41-1.18.87-2.35,1.34-3.5a2.88,2.88,0,0,1,.65-1,1,1,0,0,1,1.71.58A6.21,6.21,0,0,1,195.32,259.56Z"/><path class="cls-1" d="M181.39,259.05c.33,2,.56,3.58.85,5.12a1.44,1.44,0,0,1-.83,1.72,2,2,0,0,1-1.65-.32c-1.47-1.19-1.65-4.94-.41-6.39A1.27,1.27,0,0,1,181.39,259.05Z"/><path class="cls-1" d="M186.63,257.89a2.35,2.35,0,0,1,1.9,1.85,12.86,12.86,0,0,1,.58,3.09,2.37,2.37,0,0,1-.82,1.73c-.67.47-1.44.13-2-.5C184.86,262.56,185,260.08,186.63,257.89Z"/><path class="cls-1" d="M58.47,272.75c-1.51.3-1.92.17-2.35-.86s-.69-1.81-1-2.71a2.14,2.14,0,0,1-.07-.41c-.24-1.56.5-2.86,1.63-2.88s1.8,1,1.81,2.52S58.47,271.19,58.47,272.75Z"/><path class="cls-1" d="M63.13,262.48a2.94,2.94,0,0,1,2.35,1.89,21.55,21.55,0,0,1,.71,2.32,3.12,3.12,0,0,1-.1,1.61c-.42,1.12-1.21,1.32-2.06.47a6.2,6.2,0,0,1-1.82-4.89C62.24,263.35,62.88,262.85,63.13,262.48Z"/><path class="cls-1" d="M65.41,256.34c-2.27.9-2.43.84-3.38-1.19-.54-1.16-1-2.36-.37-3.59.25-.47.95-1.07,1.33-1a2.17,2.17,0,0,1,1.45,1.21A44.6,44.6,0,0,1,65.41,256.34Z"/><path class="cls-1" d="M202.38,252.51a17.34,17.34,0,0,1-1.63,2.72c-.55.63-1.29.41-1.62-.43a17.08,17.08,0,0,1-1-3.16,2.06,2.06,0,0,1,.63-1.59,1.59,1.59,0,0,1,1.45.05C201.06,250.61,202.41,250.81,202.38,252.51Z"/><path class="cls-1" d="M71.6,263.26a3.51,3.51,0,0,1,0,1.24c-.19.46-.58,1.16-.89,1.16a1.76,1.76,0,0,1-1.4-.79,15.28,15.28,0,0,1-.88-3.59c-.11-.88.72-1.83,1.38-1.78a1.62,1.62,0,0,1,1.68,1.5c.08.75.19,1.5.28,2.26Z"/><path class="cls-1" d="M69.23,254.93a4.43,4.43,0,0,1-1.71-3.54c0-.28-.08-.64.06-.81.5-.61,1-1.52,1.65-1.65,1-.2,1.2.81,1.38,1.69.22,1.11.6,2.18.93,3.36Z"/><path class="cls-1" d="M65.07,247.66l-2,1.08c-.49-.85-.95-1.61-1.35-2.39a3.2,3.2,0,0,1,.14-2.84,1.23,1.23,0,0,1,1.51-.79c.66.12,1.14.39,1.21,1.19C64.71,245.09,64.89,246.26,65.07,247.66Z"/><path class="cls-1" d="M201.59,260.84c-.1,1.83-.64,2.56-1.83,2.47a2.8,2.8,0,0,1-2-2.39,2.71,2.71,0,0,1,2.37-2.24C201.16,258.78,201.65,259.53,201.59,260.84Z"/><path class="cls-1" d="M75.2,258.79c0-1.07.8-2.17,1.59-2.05a1.78,1.78,0,0,1,1.68,1.75c0,.55.23,1.09.25,1.63.06,1.21-.73,1.75-1.85,1.3A3,3,0,0,1,75.2,258.79Z"/><path class="cls-1" d="M69.83,334.19c0,1.13-.75,2.14-1.53,2.13a2,2,0,0,1-2-2.17c0-1.35.68-2.11,1.78-2.07A1.87,1.87,0,0,1,69.83,334.19Z"/><path class="cls-1" d="M392.61,353.26c-.33.31-.83.82-1.38,1.27a10.81,10.81,0,0,0-1.78,1.28c-1.35,1.67-2.57,3.44-3.88,5.14a5,5,0,0,1-1.35,1.25,1.54,1.54,0,0,1-2.28-.65,3.51,3.51,0,0,1,0-4.11,12.59,12.59,0,0,1,1.43-1.79A44.06,44.06,0,0,1,387,352a7.69,7.69,0,0,1,2.9-1.44C391,350.22,392.61,351.77,392.61,353.26Z"/><path class="cls-1" d="M337.34,390.23a2.05,2.05,0,0,1-2.22-1.41,1.94,1.94,0,0,1,.52-2.28,1.7,1.7,0,0,1,.85-.54c2.71-.58,4.68-2.58,7.05-3.81,1.26-.66,2.53-1.26,3.89-.55a2.52,2.52,0,0,1,1.22,1.49,1.9,1.9,0,0,1-.78,1.54q-4.21,2.58-8.54,5A8.2,8.2,0,0,1,337.34,390.23Z"/><path class="cls-1" d="M376.94,377.07a5.94,5.94,0,0,1-.91,1.31c-2.38,2-4.76,4-7.24,5.87-1.26,1-2.08.71-3-.47-.79-1-.74-1.9.35-2.94.85-.81,1.8-1.51,2.72-2.25l3.68-3c1.43-1.15,2.84-1.08,3.81.2A7.54,7.54,0,0,1,376.94,377.07Z"/><path class="cls-1" d="M329.63,420.57c1.26,1.31,1.51,2.37.56,3.63a9.52,9.52,0,0,1-7.31,4.1,24.89,24.89,0,0,1-2.67,0,2.18,2.18,0,0,1-2.18-2.66c.22-1.24.63-1.49,2-1.59a47.06,47.06,0,0,0,4.85-.62,5.58,5.58,0,0,0,1.77-.88C327.6,421.93,328.57,421.27,329.63,420.57Z"/><path class="cls-1" d="M402.63,340c.57-1.48,1.13-3,1.71-4.46.43-1.1.94-2.16,1.33-3.28a3.89,3.89,0,0,1,2.62-2.71,2,2,0,0,1,2.42.54,2.14,2.14,0,0,1,.21,2.55c-.79,1.31-1.66,2.57-2.45,3.88s-1.59,2.76-2.4,4.13c-.2.35-.41.85-.71.94a3,3,0,0,1-1.94.12C403,341.56,402.93,340.71,402.63,340Z"/><path class="cls-1" d="M287.81,406.56a10.74,10.74,0,0,0-5.72,2.09,2.82,2.82,0,0,1-1.66.59,1.55,1.55,0,0,1-1-2.16c.71-1.57,1.54-3.1,3.43-3.58s3.53-1.1,5.33-1.49c2-.44,3.23.71,3.07,2.71C291.12,406.23,290.54,406.61,287.81,406.56Z"/><path class="cls-1" d="M320.17,403.38c1.07.18,2,.3,2.35,1.49a2.2,2.2,0,0,1-1.39,2.52c-2.56,1.2-5.13,2.37-7.77,3.37a3,3,0,0,1-2.49-.22c-1.41-1-1-2.68.61-3.42,2-.92,4-1.92,6-2.82A28.08,28.08,0,0,1,320.17,403.38Z"/><path class="cls-1" d="M308.42,402.33a1.85,1.85,0,0,1-1.87-1.73,2.15,2.15,0,0,1,1.31-2.33,1.39,1.39,0,0,1,.4-.1,15.36,15.36,0,0,0,7.06-2.7,3.66,3.66,0,0,1,2.56-.15c1.16.3,1.41,2.08.56,3.19a1.27,1.27,0,0,1-.44.43C314.89,400.21,312,402.1,308.42,402.33Z"/><path class="cls-1" d="M342.2,396.65a2.73,2.73,0,0,1-2.57-1.83,2,2,0,0,1,1.3-2.69,5.75,5.75,0,0,1,2.18-.54,5.07,5.07,0,0,0,3.66-1.62,2.4,2.4,0,0,1,2-.82c.94.07,1.79.2,2.2,1.22s-.33,1.41-.83,1.95A15.24,15.24,0,0,1,342.2,396.65Z"/><path class="cls-1" d="M323.81,414c.56.11,1,.22,1.37.26,1.67.18,2.28,1.06.94,2.72a3.92,3.92,0,0,1-2.07,1.23c-2.81.63-5.64,1.16-8.47,1.63a1.71,1.71,0,0,1-1.62-2.44,3.39,3.39,0,0,1,1.67-1.4,34,34,0,0,1,3.41-.59c1-.21,2-.55,3-.84C322.64,414.41,323.29,414.2,323.81,414Z"/><path class="cls-1" d="M381.88,387.37a12.21,12.21,0,0,1-1.82,2.34c-1.62,1.3-3.37,2.42-5.08,3.59a2.52,2.52,0,0,1-2.56.24,1.84,1.84,0,0,1-.63-3.18,14.84,14.84,0,0,1,2-1.45c1.2-.81,2.48-1.52,3.6-2.43C379.5,384.76,380.35,384.85,381.88,387.37Z"/><path class="cls-1" d="M290.54,416l-4,.82a15.84,15.84,0,0,1-2,.37,2.52,2.52,0,0,1-2.62-2.12,3.21,3.21,0,0,1,.48-1.49c.07-.15.33-.26.53-.31,2.47-.56,4.94-1.13,7.42-1.64a2,2,0,0,1,2.18.81,2.7,2.7,0,0,1,.6,2.9C292.57,416.5,291.54,416.26,290.54,416Z"/><path class="cls-1" d="M364.83,374.77a2.32,2.32,0,0,1-2.55-2c-.28-1.23-.05-1.52,1.25-2.21,1.45-.78,2.82-1.72,4.29-2.48,1.27-.65,2.61-1,3.85.16a1.72,1.72,0,0,1-.07,2.83c-1.74,1.11-3.53,2.15-5.32,3.17A8.17,8.17,0,0,1,364.83,374.77Z"/><path class="cls-1" d="M395.27,358.42a4.54,4.54,0,0,1-.86,4.84c-.94,1.11-1.65,2.4-2.53,3.56a2.75,2.75,0,0,1-2.75,1,2.93,2.93,0,0,1-1.83-2.56c0-.48.35-1.2.72-1.35,2.21-.88,3.43-2.73,4.61-4.62A1.8,1.8,0,0,1,395.27,358.42Z"/><path class="cls-1" d="M410.29,346.64c-1.33,0-1.85-.55-1.42-1.81.73-2.1,1.51-4.19,2.43-6.21a3.9,3.9,0,0,1,2.74-2.34,2.17,2.17,0,0,1,1.65.44c.26.23.24,1,.06,1.48q-1.37,3.38-2.9,6.68A2.64,2.64,0,0,1,410.29,346.64Z"/><path class="cls-1" d="M290.41,435.23c-.62,0-1.24-.05-1.84-.15a2.16,2.16,0,0,1,.66-4.27,7,7,0,0,0,5.19-.25,2.42,2.42,0,0,1,3.44,1.27,1.46,1.46,0,0,1-.82,2.05,2.06,2.06,0,0,1-.38.16l-6.22,1.34Z"/><path class="cls-1" d="M288.3,424.68a15.21,15.21,0,0,1-1.66-.1,1.79,1.79,0,0,1-1.14-3.1,4.21,4.21,0,0,1,2.92-1.27,11.28,11.28,0,0,0,4-.42,2.56,2.56,0,0,1,1.19-.16c.76.25,1.73.32,1.95,1.34a2.29,2.29,0,0,1-1.13,2.31c-1.38,1.07-3.09,1.13-4.72,1.38A10.77,10.77,0,0,1,288.3,424.68Z"/><path class="cls-1" d="M346.23,405.45a2.62,2.62,0,0,1-2.55-1.53,1.94,1.94,0,0,1,1.09-2.43,27.73,27.73,0,0,0,5.77-3.16,2.72,2.72,0,0,1,2.79.78,1.5,1.5,0,0,1,0,1.31c-1.22,1.2-2.53,2.31-3.85,3.41a6.65,6.65,0,0,1-1.41.85C347.39,405,346.68,405.27,346.23,405.45Z"/><path class="cls-1" d="M425.3,123.26c-2,.79-3.78,1.58-5.66,2.22a1.63,1.63,0,0,1-1.39-.49,1.37,1.37,0,0,1,0-1.33c1.22-1.3,2.41-2.77,4.46-2.57A2.48,2.48,0,0,1,425.3,123.26Z"/><path class="cls-1" d="M426.33,132.6a1.42,1.42,0,0,1-1.56,1.51,2.32,2.32,0,0,1-1.79-2,1.88,1.88,0,0,1,1.81-1.38A1.68,1.68,0,0,1,426.33,132.6Z"/></svg>