<svg id="trace" xmlns="http://www.w3.org/2000/svg" viewBox="0 0 500 500"><defs><style>.cls-1{fill:#fff;stroke:#fff;stroke-miterlimit:10;stroke-width:0.75px;}</style></defs><title>meowshow-2</title><path class="cls-1" d="M426.92,352.77a5.54,5.54,0,0,0,1.36.77c1.4.27,2,1.27,2.69,2.4a26.09,26.09,0,0,1,3.27,11.49,15.73,15.73,0,0,1-2.6,10.11,24.54,24.54,0,0,0-1.92,3.88c-1.42,3.09-2.74,6.23-4.25,9.27-1.87,3.76-3.88,7.45-5.87,11.15a20.4,20.4,0,0,1-1.82,2.8c-2.77,3.59-5.52,7.2-8.41,10.7a100,100,0,0,1-7.08,7.91,28.33,28.33,0,0,1-5.17,3.58,132.05,132.05,0,0,0-12.18,8.39,30.64,30.64,0,0,1-4.84,2.59c-1.2.62-2.45,1.17-3.62,1.86-3.11,1.84-6.1,3.92-9.3,5.59-4.16,2.16-8.22,4.62-12.86,5.71a1.64,1.64,0,0,0-.56.19c-2.42,1.68-5.35,2.08-8,3.13s-5.56,1.39-8.36,2c-.32.07-.72,0-1,.15-2.11,1.49-4.63,1.84-7,2.55-2.83.85-5.68,1.67-8.58,2.27-1.51.31-3.18-.12-4.67.23-2.24.52-4.53.2-6.76.88a27.91,27.91,0,0,1-5.8.9,71.06,71.06,0,0,1-13.94-.21c-4.37-.49-8.79-.54-13.2-.77a63.81,63.81,0,0,1-9.76-1.16c-4.09-.86-8.15-2.07-12.41-1.82a15.41,15.41,0,0,0-1.54.09,46.55,46.55,0,0,1-10,0c-1.42-.08-2.85-.16-4.27-.31-1.1-.12-2.19-.47-3.29-.52-3.54-.18-7.1-.24-10.64-.4a73.69,73.69,0,0,1-7.86-.5c-4.67-.71-9.25-1.77-13.84-2.85-2.2-.52-4.45-1-6.73-1.32-2.59-.35-5.21-.24-7.77-.82s-5-1-7.52-1.61c-2-.48-4-1-5.89-1.67-1.74-.57-3.41-1.32-5.12-2-3.77-1.45-7.56-2.83-11.29-4.36-2-.82-3.88-1.9-5.82-2.85-1.66-.81-3.33-1.58-5-2.42a25.2,25.2,0,0,0-3.25-1.83c-4.27-1.43-7.57-4.47-11.37-6.67-2-1.14-3.6-2.85-5.44-4.23-3-2.24-6.09-4.32-9-6.67a59.18,59.18,0,0,1-6.11-5.83c-3.55-3.85-7.12-7.72-9.8-12.26-1.16-2-2.18-4-3.16-6.11-1.15-2.43-2.22-4.91-3.28-7.38-1.81-4.22-3.63-8.43-5.36-12.68-1.48-3.65-2.92-7.32-4.21-11-1.52-4.41-2.85-8.88-4.27-13.32A41.5,41.5,0,0,1,80.41,341a26.91,26.91,0,0,0-1-3.94,5.75,5.75,0,0,1-.26-1.35,79.85,79.85,0,0,0-2-15.8c-.55-2.69-1.36-5.32-1.91-8a180.27,180.27,0,0,1-3.34-20.31c-.2-2.34-.68-4.66-1.06-7-.42-2.59-.81-5.19-1.32-7.76-.36-1.8-.91-3.55-1.37-5.33-.17-.64-.32-1.28-.51-1.91-.68-2.26-1.25-4.57-2.1-6.77-1.19-3.12-2.79-6.09-3.83-9.25a57.57,57.57,0,0,0-3.18-7.16c-1.43-2.92-3.15-5.71-4.67-8.59-1.09-2.08-2-4.24-3.09-6.34a38.9,38.9,0,0,0-3.12-5.89c-1.72-2.31-3-4.9-4.69-7.26q-3.5-5-7.24-9.84c-1.85-2.39-3.41-5-5.06-7.49-2.18-3.34-4.34-6.7-6.6-10s-4.46-7-5.17-11.14c-.24-1.42-.09-2.92-.44-4.31-.72-2.85-.56-5.75-.6-8.62a22.07,22.07,0,0,1,1.28-8.72c.69-1.7,1.43-3.39,3.26-4.28a8.29,8.29,0,0,0,1.46-1.3A50.7,50.7,0,0,1,29,148.43a15.77,15.77,0,0,1,7.4-2.54,13.13,13.13,0,0,1,7.43,1.45c1.43.78,3.11,1.06,4.6,1.74,2.37,1.08,4.79,2.1,6.5,4.24.8,1,1.85,1.83,2.75,2.77a20.44,20.44,0,0,1,4.24,7.4,21.78,21.78,0,0,0,1.4,2.55c.82,1.57,1.52,3.2,2.43,4.71a17.24,17.24,0,0,0,3.25,3.9,12.14,12.14,0,0,0,0-1.53c-.35-2.73-.65-5.46-1.11-8.17s-1.11-5.27-1.63-7.91a63.88,63.88,0,0,1-1.6-11.47,4.62,4.62,0,0,0-.07-.77c-.26-1.42,1-2.6.52-4.14a17.79,17.79,0,0,1-.24-4.08c0-1.44-.14-2.89-.09-4.32.08-2.29.19-4.59.43-6.87a94.27,94.27,0,0,1,1.38-10.72c.68-3.06.6-6.13.92-9.19a51,51,0,0,0,0-6.3c-.06-2.69.15-5.37.09-8.07A37.62,37.62,0,0,1,68.7,82c1.07-4.67,2.48-9.25,3.75-13.88,0-.13.14-.25.13-.37-.29-2.76,1.8-4.38,3.13-6.32A4.06,4.06,0,0,1,80.76,60,34.78,34.78,0,0,0,87,61.86a21.4,21.4,0,0,1,9,4.64,83.46,83.46,0,0,1,7.59,7.39A59.72,59.72,0,0,1,107.81,80a6.1,6.1,0,0,0,1,.91c.38.35,1,.63,1.1,1.06.64,1.87,2.13,3.1,3.28,4.57,1.68,2.16,3.26,4.46,5.56,6a13,13,0,0,1,4,4.51c1,1.84,2.73,1.78,4.42,1.89a18.66,18.66,0,0,0,3.5.12,24.47,24.47,0,0,0,4.93-1.1,85.77,85.77,0,0,1,10.68-2.68,7.54,7.54,0,0,1,2.16,0A56.6,56.6,0,0,0,161.33,95a52.18,52.18,0,0,1,9.61-.81c4.69.2,9.24-.76,13.84-1.37a7.57,7.57,0,0,0,5.42-3.56c1.73-2.63,3.29-5.38,4.94-8.05,1.3-2.1,2.71-4.14,3.95-6.28,1.54-2.66,2.9-5.43,4.42-8.1.73-1.29,1.66-2.48,2.5-3.71.07-.11.21-.19.24-.3.71-2.67,2.43-4.79,3.79-7.11,1.23-2.09,2.39-4.21,3.59-6.31q1.12-2,2.26-3.9a23.62,23.62,0,0,1,6.23-7,4.09,4.09,0,0,1,5.21-.12,2.77,2.77,0,0,0,1.44.53c2.59,0,3.7,1.8,4.47,3.82.59,1.52.85,3.16,1.3,4.73a12.86,12.86,0,0,0,.75,1.83,37,37,0,0,1,3,7.42c.12.52.68.93,1,1.43a52.65,52.65,0,0,0,3.37,5.32,28.89,28.89,0,0,1,2.71,5.6c.75,1.68,1.16,3.6,2.23,5,2,2.64,2.34,6,4.13,8.62,0,1.53,1.14,2.45,1.81,3.63.58,1,1,2.11,1.59,3.15a14.24,14.24,0,0,0,.81,1.23l.46-.1q0-1.4,0-2.81a20.63,20.63,0,0,1,0-3.14c1-6,1.8-12.09,3-18.07a76.32,76.32,0,0,1,3.1-9.34c.8-2.29,1.56-4.61,2.51-6.84s2.13-4.46,3.23-6.68c.7-1.41,1.45-2.79,2.14-4.21a3.55,3.55,0,0,1,3-2.43,39.64,39.64,0,0,1,4.23-.69,9.82,9.82,0,0,1,5.81,1.18,5,5,0,0,0,3.17.84,4.35,4.35,0,0,1,3.25,1.14q2.7,2.27,5.48,4.43a6.66,6.66,0,0,0,1.54.64c-.18,1.44-.06,2.91-1.26,4.11a7.69,7.69,0,0,0-1,2.08,6,6,0,0,1-.74,1.39c-1.88,2.09-3.86,4.08-5.68,6.22-.92,1.09-1.43,2.52-2.35,3.61-2.42,2.9-3,6.32-3.13,9.91-.08,2.16-.29,4.33-.34,6.49,0,1.57.15,3.14.17,4.7,0,1.24-.1,2.49-.08,3.73,0,.78.18,1.55.27,2.33.26,2.34.54,4.68.78,7,.11,1,.16,2.06.25,3.31,1.58-.45,3-.76,4.29-1.24,1.11-.39,2.11-1.13,3.24-1.42a20.19,20.19,0,0,1,4.8-.76c3.19,0,6.38.42,9.57-.3a7,7,0,0,1,3.12.14,30,30,0,0,1,8.47,3.49,1.91,1.91,0,0,1,1,2,2.7,2.7,0,0,0,.19,1.54c1.38,2.23,1,4.52.47,6.89-.76,3.38-1.4,6.79-2,10.2a2.51,2.51,0,0,1-2.67,2.34c-1.77,0-3.53-.25-5.3-.33a10,10,0,0,0-2.89.11c-1.72.45-3.38,1-5.22.67a3.24,3.24,0,0,0-1.74.21c-3.09,1.23-6,2.62-8.21,5.38-1.67,2-2.82,4.35-4.32,6.45a25.13,25.13,0,0,0-1.78,3.06c-1.53,3-3.1,5.91-4.5,8.93-1,2.15-1.61,4.47-2.63,6.61-1.2,2.54-2.65,5-4,7.44-1,1.8-2,3.58-2.81,5.43-.36.79-.73,1.77.25,2.52a.77.77,0,0,1,.27.5c.11,1.63.26,3.26.26,4.88,0,3.07-.06,6.14-.11,9.22,0,1.25-.12,2.5-.12,3.75,0,2.61,0,5.23,0,7.84q0,2,.09,3.91a1.33,1.33,0,0,0,.82,1.41c1.63.67,3.25,1.4,4.84,2.17,3,1.45,6,3,9,4.38a29.63,29.63,0,0,0,10.73,2.95,20,20,0,0,1,5.14,1.29c1.93.62,3.8,1.41,5.71,2.11a4,4,0,0,0,1.34.32c4.12,0,7.84,1.46,11.58,3,2.31.93,4.74,1.57,7.13,2.31a14.67,14.67,0,0,1,5.48,2.91,4.39,4.39,0,0,0,1.74.9c2.91.75,5.31,2.53,8,3.8a34.37,34.37,0,0,1,3.43,1.43c1.77,1.1,3.42,2.4,5.11,3.64.83.61,1.63,1.25,2.76,2.11.52-2.16,1-4,1.38-5.82.68-3.08,1.15-6.22,2-9.25a91.63,91.63,0,0,1,3.14-8.69c1-2.43,3.09-3.83,5.12-5.28a7.16,7.16,0,0,0,.81-.56c2-1.94,4.67-2.92,7.06-4.28s5.08-2.75,7.67-4c1.82-.9,3.72-1.65,5.56-2.5s3.82-1.76,5.65-2.77a2.57,2.57,0,0,0,1.53-3.06,43.35,43.35,0,0,1-.93-5.62c-.37-3.87-.68-7.74-.89-11.62-.17-3.07-.24-6.15-.2-9.22s.25-5.93.41-8.89.31-5.9.53-8.84a9.87,9.87,0,0,1,.61-2l1.67-5.47a28.87,28.87,0,0,1,4.48-8.92,84.36,84.36,0,0,1,7.83-9.08c2.39-2.41,5.12-4.49,7.67-6.75a54.38,54.38,0,0,1,8.28-5.69,28.81,28.81,0,0,0,2.47-2c2.48-1.9,5-3.77,7.45-5.69a6,6,0,0,0,.87-1.07c1.1-1.39,2.3-2.71,3.29-4.17a39.5,39.5,0,0,0,2.72-4.78,30.82,30.82,0,0,0,1.89-4.74c.63-2.14,1.09-4.33,1.54-6.52a51,51,0,0,1,3.67-11.82c.79-1.65,1.84-3.17,2.09-5.06.06-.42.61-.78.92-1.16,1,.53,1.88,1,2.74,1.45A3.45,3.45,0,0,1,455,62c.92,2.87,2,5.7,2.89,8.57a39.31,39.31,0,0,1,1,4.4c.4,2.07.8,4.14,1.08,6.22a35.41,35.41,0,0,1,.41,5.47,26.56,26.56,0,0,1-.69,5.67c-.66,2.67-1.57,5.28-2.44,7.9-1,3.19-2,6.41-4,9.19-1.33,1.88-2.79,3.67-4.21,5.48A34.56,34.56,0,0,0,444,124.8c-.56,1.55-1.19,3.08-1.7,4.65-1.64,5-3.13,10.05-4.9,15a52.15,52.15,0,0,0-2.16,8,3.74,3.74,0,0,0,.17,1.48,13.79,13.79,0,0,1,.69,2.64c.15,5.57,1.64,10.93,2.54,16.38.81,4.94,1.78,9.86,2.7,14.78.13.68.35,1.35.62,2.39.86-.68,1.44-1.16,2-1.6,1-.73,2-1.46,3.05-2.12s2.27-1.33,3.41-2a25.44,25.44,0,0,1,2.76-1.52,10.15,10.15,0,0,0,5.86-6.74c1.16-3.55,1.13-7.27,1.72-10.89a4.44,4.44,0,0,1,.09-1c1.6-3.79,1.28-7.9,2-11.83.76-4.14,1.59-8.27,2.54-12.37.78-3.38,1.69-6.74,2.75-10.05.5-1.57.88-3.24,2.41-4.41,2.29-1.76,4.11-2.16,6.49-.6a11.26,11.26,0,0,1,5.08,7.88,19.11,19.11,0,0,1-.23,4.69c-.24,2.48-.55,5-.86,7.42-.11.84-.33,1.67-.44,2.52-.18,1.29-.32,2.59-.45,3.88-.22,2.09-.37,4.2-.65,6.28-.4,3-1.24,5.92-1,9,.17,2.35.45,4.7.48,7.06a37.86,37.86,0,0,1-.47,5.31c-.27,2-.81,4-.93,6-.19,3.22-.06,6.45-.18,9.67-.07,2.09-.3,4.18-.51,6.27-.16,1.63-.39,3.26-.61,4.89-.71,5.42-.25,10.88-.74,16.31a2.79,2.79,0,0,1-1.81,2.72,21.6,21.6,0,0,0-4.16,2.6,13.47,13.47,0,0,1-4.49,2.27,24.11,24.11,0,0,0-7.47,3.45,7.13,7.13,0,0,0-1.4,1.65c-2.78,3.74-5.58,7.47-8.29,11.26a27.1,27.1,0,0,0-2.56,4.43,9.08,9.08,0,0,0-.73,3.25c-.16,3-.17,6.06-.26,9.09-.2,7.12-.36,14.24-.63,21.35-.14,3.75-.3,7.52-.78,11.24-.59,4.5-1.51,9-2.35,13.43-.8,4.27-1.77,8.51-2.52,12.79-1,5.85-2.43,11.56-5.23,16.87-1.13,2.15-2,4.45-2.91,6.7-.82,1.94-1.62,3.89-2.42,5.84C427.29,351.6,427.15,352.1,426.92,352.77ZM452.19,63a4.75,4.75,0,0,0-.7.57,12,12,0,0,0-.78,1.14c-3,4.74-4.06,10.09-5.24,15.44-.42,1.91-1.14,3.76-1.74,5.63a8,8,0,0,0-.52,1.27,12.56,12.56,0,0,1-2.41,5.33,39.26,39.26,0,0,1-10.94,11.26c-2.53,1.65-5,3.41-7.43,5.19-2.18,1.58-4.33,3.2-6.43,4.88a62.11,62.11,0,0,0-6,5.12,104,104,0,0,0-7.35,8.47,31.26,31.26,0,0,0-3.59,6.1,57.36,57.36,0,0,0-1.94,6,20.05,20.05,0,0,0-1.2,5.57c-.11,3-.25,5.92-.6,8.85a92.4,92.4,0,0,0-.26,13.4c.07,2.88.67,5.76.63,8.63a37.35,37.35,0,0,0,1.43,9.11,13.26,13.26,0,0,0,.77,2.42c1,2.15.65,3.09-1.22,4.55a19,19,0,0,1-5.08,2.45,114.17,114.17,0,0,0-13.73,6,75.75,75.75,0,0,0-11,6.87c-3,2.41-4.4,5.69-5.59,9.1a56.77,56.77,0,0,0-1.75,7.06c-.79,3.8-1.49,7.61-2.22,11.42-.32,1.67-.56,3.36-.92,5-.71,3.34-1.65,6.65-2.17,10-.56,3.63-.83,7.31-1.05,11-.2,3.41-.27,6.83-.22,10.25.06,3.93.31,7.85.51,11.77a4.19,4.19,0,0,1-1.35,2.91.83.83,0,0,1-1.48-.17,6.66,6.66,0,0,1-.8-2.59c-.08-3.63,0-7.26,0-10.88,0-2.28,0-4.56,0-6.85a50.7,50.7,0,0,1,.18-5.12c.39-3.47.88-6.93,1.39-10.38.21-1.42.58-2.82.84-4.24.47-2.57.92-5.14,1.38-7.75a23.4,23.4,0,0,1-4.9-3.47c-1.95-1.56-3.72-3.29-6.28-4.17-3.07-1-5.86-2.89-8.78-4.38-3.09-1.58-6-3.55-9.41-4.44a35.18,35.18,0,0,1-3.79-1c-2.27-.87-4.45-1.95-6.71-2.84a6.69,6.69,0,0,0-2.86-.58c-3.49.3-6.57-1.2-9.71-2.23-2.81-.93-5.65-1.58-8.51-2.25a31.32,31.32,0,0,1-4.72-1.26c-2.73-1.12-5.4-2.41-8.06-3.69a71.53,71.53,0,0,0-11.2-4.74c-1.69-.48-3.22-1.47-4.88-2.08-2.09-.77-4.22-1.45-6.36-2.06a3.84,3.84,0,0,1-2.8-3,1.64,1.64,0,0,1,.58-1.94c.68-.46,1.18,0,1.76.41a7.29,7.29,0,0,0,2.91,1.49c2.09.2,3.6,1.48,5.34,2.31.75.36,1.55.62,2.61,1,.24-2.14.61-4,.63-5.87,0-3.47-.12-6.95-.18-10.42a1.55,1.55,0,0,1,.1-.77c.67-1.13.33-2.3.23-3.48a8.66,8.66,0,0,1,0-2,5,5,0,0,0,.25-2.48,9,9,0,0,1-.05-2.56l-.38-.11c-.72,1.23-1.42,2.47-2.16,3.69-.9,1.5-1.39,3.28-3.07,4.25-.38.22-.52.88-.75,1.34s-.42.95-.69,1.38c-1.29,2.06-2.6,4.1-3.9,6.14-.25.39-.39,1-.73,1.14-1.25.48-1.41,1.6-1.81,2.61a7.68,7.68,0,0,1-.78,1.36c-1.76,2.68-3.49,5.38-5.32,8-1.15,1.66-2.44,3.23-3.72,4.78-.35.43-1,.6-1.36,1-1.66,2.11-3.22,4.3-4.89,6.4a18.31,18.31,0,0,1-1.92,1.67c-2.24,2.11-4.57,4.14-6.66,6.4a14,14,0,0,1-5.87,4.08c-2,.67-3.88,1.57-6,1.47a1,1,0,0,0-.37.14c-1.51.63-3,1.28-4.52,1.86a5.1,5.1,0,0,1-1.55.18c-2.09.09-4.18.2-6.27.22a4,4,0,0,1-1.31-.5c.23-.43.35-1,.7-1.24a8.62,8.62,0,0,1,2.37-.91c2-.48,4.11-.82,6.15-1.32,1-.25,2-.8,3-1,1.85-.44,3.8-.56,5.59-1.18a11.58,11.58,0,0,0,5.46-3.34,35.7,35.7,0,0,1,6.63-6.46,17,17,0,0,0,3.65-3.52c1.59-2.08,3.26-4.11,5-6a49.85,49.85,0,0,0,5.82-7.72c.68-1.12,1.33-2.27,2.06-3.35.4-.59,1-1,1.42-1.61.94-1.49,1.73-3.08,2.69-4.57,1.63-2.55,3.38-5,5-7.57,1.79-2.82,3.62-5.63,5.2-8.57,2.09-3.87,3.71-8,6.2-11.64a40.06,40.06,0,0,0,4.25-8.87,55.06,55.06,0,0,1,2.31-5.65c2.11-4.17,4.33-8.27,6.54-12.39a28.77,28.77,0,0,1,7.71-9c2.26-1.78,4.8-3.28,8-2.89a6.08,6.08,0,0,0,1.75-.22c2.77-.5,5.49-1.23,8.39-.68,2,.38,3.19-.71,3.58-2.73a43.19,43.19,0,0,1,1.26-5.78c1-3,0-5.59-1-8.23a2.4,2.4,0,0,0-1.23-1.23c-2-.77-4-1.69-6.23-1.67-3.15,0-6.29.07-9.44.08-2.72,0-5.41,0-7.7,1.84a3.17,3.17,0,0,1-.72.31c-2.1.91-4.42,1.5-6.24,2.8-3,2.11-6.12,4.09-8,7.41-1,1.76-2.31,3.34-3.35,5.08-2,3.39-3.95,6.83-5.92,10.25-.62,1.08-1.31,2.13-1.86,3.24-1,2.12-2,4.3-3,6.4-2.33,4.58-4.72,9.12-7.09,13.67a25.69,25.69,0,0,1-1.33,2.41c-1,1.53-2,3-3.17,4.5a65.86,65.86,0,0,1-5.69,7,46.53,46.53,0,0,0-6.82,8.65,27.11,27.11,0,0,1-5.06,6.2c-3.74,3.29-7.66,6.41-10.91,10.24a44.86,44.86,0,0,1-7.86,6.69,62.29,62.29,0,0,0-8.16,6.5,6.55,6.55,0,0,1-5.34,2.1c-3.54-.25-7.1-.29-10.64-.55a4.23,4.23,0,0,1-2.27-1.09,1.51,1.51,0,0,1-.31-2.25c1.07.14,1.92.28,2.78.35s1.45,0,2.17.07c2.62.12,5.25.25,7.87.35a4.68,4.68,0,0,0,3.42-1.26,61.25,61.25,0,0,1,6.2-5.11,51.49,51.49,0,0,0,10.55-8.77c3.33-3.83,7.33-6.9,11-10.37a14.39,14.39,0,0,0,3.79-4.68,14.34,14.34,0,0,1,2.19-3.5c1.79-2.16,3.62-4.3,5.6-6.28,4.79-4.82,7.89-10.76,11.16-16.58,1.77-3.15,3.36-6.4,5-9.61q1.22-2.35,2.4-4.72c.88-1.75,1.63-3.59,2.66-5.24a2.31,2.31,0,0,0,.29-2.37c-.57-1.31-1.21-2.6-1.74-3.93a24.3,24.3,0,0,1-1.42-8.84,12.56,12.56,0,0,0-1.31-5.91,19,19,0,0,1-.74-2c-.56-1.46-1.13-2.91-1.74-4.35a.93.93,0,0,0-.55-.52c-1.71-.3-1.76-1.68-2.07-3A26.3,26.3,0,0,0,252,89.9c-1.37-3-3.16-5.77-4.44-8.78-1.68-3.94-3.67-7.72-5.55-11.55-.63-1.29-1.07-2.7-1.8-3.93-1.74-2.93-4-5.56-4.92-8.95-.06-.24-.29-.43-.42-.65a17.7,17.7,0,0,1-1.42-2.54c-.85-2.28-1.56-4.61-2.38-6.9a20.92,20.92,0,0,0-1.16-2.3c-2.47,2.47-2.78,5.64-3.63,8.55-.59,2-.69,4.13-1.14,6.18-.65,3-1.7,5.89-1.69,9a4.25,4.25,0,0,1-.56,1.47c-.84,2-1.67,4-2.52,5.92a5.37,5.37,0,0,1-.64,1.16c-.52.68-1.17,1.26-1.65,2a11.33,11.33,0,0,1-4.63,4.1,4.77,4.77,0,0,0-1.26.91c-.74.72-1.38,1.55-2.14,2.25a14.63,14.63,0,0,1-4.26,3c-2.11.86-4,2.21-6.2,2.88-2.35.73-4.77,1.14-6.68,2.89a1.47,1.47,0,0,1-1.38.14,1.91,1.91,0,0,0-2.36.3,6,6,0,0,1-2.92,1.05c-2.61.3-5.2.73-7.81,1-1.49.16-3,.19-4.5.2-2,0-4-.18-5.91,0-3.38.28-6.73.91-10.11,1.14s-6.71.13-10.06.18c-1,0-1.95,0-2.91.12s-2,.37-2.94.38a9.08,9.08,0,0,0-4.12,1.18,16.25,16.25,0,0,1-9.46,1.94,9.34,9.34,0,0,0-2.56-.16c-2.17.35-3.4-.74-4.56-2.39a16.47,16.47,0,0,0-3.45-3.7,29.87,29.87,0,0,1-5.37-5.43c-1.7-2.15-3.24-4.44-4.91-6.61s-3.37-4.19-5.05-6.29a32.52,32.52,0,0,0-2.81-3.54C97.44,72,95,70,92.68,68a10.72,10.72,0,0,0-1.68-1l-2.1,3.11c-.25.37-.7.74-.73,1.13-.15,2.26-1.61,4-2.33,6A15.85,15.85,0,0,1,85,79c-.41.81-.88,1.6-1.22,2.43-.85,2.1-1.56,4.25-2.47,6.32a40.7,40.7,0,0,0-3,9,27.57,27.57,0,0,1-1.41,5.33,41.1,41.1,0,0,0-2.21,9.11,18.77,18.77,0,0,1-1.36,5.06c-1.11,2.36-2.62,4.52-3.88,6.82a9.6,9.6,0,0,0-1.12,2.93,45.58,45.58,0,0,0-.74,9.83,27,27,0,0,1-.15,6.65,18.57,18.57,0,0,0-.05,7.21c.54,3,1.22,5.92,1.76,8.89.21,1.13-.1,2.44.36,3.41.84,1.74.83,3.57,1.19,5.37.65,3.22,1.34,6.44,2,9.66.53,2.57,1,5.15,1.61,7.7.32,1.38.5,2.81,1.57,4a1.54,1.54,0,0,1,.08,2.31c-.2.2-.19.73-.13,1.08.46,3,.92,6,1.46,9,.17,1,.68,1.85.87,2.81.65,3.4,1.23,6.82,1.81,10.24.27,1.6.47,3.22.72,4.83a36.1,36.1,0,0,0,.64,3.61c.42,1.58,1,3.11,1.46,4.68.27.94.35,1.94.64,2.88.55,1.78,1.19,3.54,1.79,5.3a13.94,13.94,0,0,1,.56,1.66c.43,2.12.93,4.24,1.2,6.39.39,3.11,1.26,6.2.63,9.39a1.57,1.57,0,0,0,0,.57c.27,1.45.54,2.9.84,4.35.74,3.6,1.46,7.2,2.26,10.79,1,4.29,2.09,8.55,3,12.85.87,4,1.05,8.23,2.28,12.21.46,1.5.84,3,1.34,4.51,1,2.79,2,5.56,3,8.34a58.93,58.93,0,0,0,2.37,6.87,61.82,61.82,0,0,1,3.85,10.7c1.11,3.89,2.82,7.62,3.33,11.67a.76.76,0,0,0,.07.19l5,11.91c1.23,3,2.5,5.9,3.7,8.88.54,1.34.8,2.8,1.42,4.09a82.15,82.15,0,0,0,4.13,7.83c2.14,3.43,4.49,6.72,6.81,10,1.24,1.78,2.66,3.43,3.9,5.21,2.7,3.87,6.62,6.55,9.65,10.11,1.7,2,3.81,3.62,5.56,5.57,2.84,3.16,6.34,5.45,9.77,7.86,1.55,1.09,3.15,2.11,4.68,3.22.63.45,1.05,1.25,1.72,1.56,2.42,1.13,4.21,3.09,6.37,4.56s4,3.2,6.83,3.67a47.52,47.52,0,0,1,8.24,2.44c2.12.78,4.1,1.9,6.15,2.87a30.9,30.9,0,0,0,11.27,2.6,26.13,26.13,0,0,1,6.91,1.42c2,.7,4.11,1.25,6.16,1.89a10.48,10.48,0,0,0,1.43.63c3.77.54,7.5,1.29,11.37.63a50.6,50.6,0,0,1,8-.67c2.81,0,5.63.47,8.44.42,5.18-.08,10.37-.37,15.55-.64a20.16,20.16,0,0,0,3.09-.62c2.11-.45,4.2-1.08,6.34-1.32,3-.33,6-.16,9-.59,4.79-.68,9.73-.44,14.37-2.17a5.79,5.79,0,0,1,.59-.07c1.26-.32,2.53-.6,3.77-1a31.87,31.87,0,0,1,3.72-1.26c3-.51,6-.92,9-1.21,3.21-.31,6.43-.42,9.65-.62A6.58,6.58,0,0,0,324,423c2.06-.65,4.11-1.33,6.15-2,3.25-1.15,6.65-1.47,10-2,2.91-.45,5.88-.77,8.45-2.44a32.09,32.09,0,0,1,3.31-2.13c2.95-1.44,6-2.77,8.94-4.13.36-.16.77-.19,1.12-.36a29.84,29.84,0,0,0,4.93-2.41c4-2.87,7.81-5.92,11.68-8.93a49.43,49.43,0,0,1,8.16-4.78,35,35,0,0,0,8.26-6c4.27-4.08,8.37-8.34,12.67-12.39a31.62,31.62,0,0,0,6.16-8.15c1.81-3.39,4.21-6.33,6.26-9.53.39-.61,1-1.07,1.34-1.7,1.72-3.31,3.38-6.66,5.06-10a1.05,1.05,0,0,0,.1-.38c.2-2.45,1.62-4.41,2.65-6.52,1.41-2.9,3-5.7,3.79-8.87.4-1.59,1-3.13,1.36-4.74.67-3.08,1.24-6.18,1.83-9.28a67.54,67.54,0,0,1,1.33-7.16,71.38,71.38,0,0,0,2.51-12.34c.3-2.55.43-5.12.65-7.67.18-2.16.44-4.32.54-6.48.14-3.22.14-6.45.23-9.68.08-2.76.2-5.52.28-8.29,0-1.51.09-3,.08-4.54a19.52,19.52,0,0,0-.21-2c-2.32.07-2.31.08-3.51,1.76a4.23,4.23,0,0,1-1,.94c-.66.47-1.34.92-2.1.14s-.66-1.32.07-2.27c.88-1.14,1.75-2.3,2.62-3.45.58-.78,1-1.68,2.32-1.35.26.07.74-.28,1-.56a4.4,4.4,0,0,0,1.13-3.07c-.19-2.89-.22-5.79-.45-8.67a93.67,93.67,0,0,1,.16-15,42.52,42.52,0,0,0-.73-11.18c-1-5.71-1.1-11.48-1.6-17.22-.27-3.07-.21-6.17-.54-9.22-.3-2.67-1-5.3-1.43-8-.65-3.68-1.26-7.37-1.88-11.06-.36-2.13-.64-4.27-1.08-6.38-.37-1.78-.52-3.6-1.54-5.26a6.76,6.76,0,0,1-.72-6.05c1.18-3.34,2.08-6.77,3.11-10.16.8-2.65,1.5-5.34,2.41-7.95,1.4-4,3-8,4.41-12a34.41,34.41,0,0,1,6.91-11.38,37,37,0,0,0,5.08-8.36c1.13-2.32,1.54-5,2.41-7.45a33.85,33.85,0,0,0,1.51-7.51,16.84,16.84,0,0,0-.81-7.58,17.28,17.28,0,0,1-.54-2.85c-.25-1.49-.37-3-.74-4.46-.55-2.16-1.26-4.29-1.91-6.43A4.82,4.82,0,0,0,452.19,63ZM68.58,262.4a3,3,0,0,0-.1.86q.51,2.29,1.07,4.56c.78,3.11,1.52,6.22,2.18,9.36.87,4.18,1.59,8.36,2.19,12.58.46,3.19.79,6.4,1.36,9.57.76,4.24,1.69,8.46,2.58,12.68.65,3.09,1.43,6.16,2,9.26.49,2.76.76,5.57,1.12,8.35.14,1.11.29,2.21.37,3.32a52.77,52.77,0,0,0,1.77,10.59c.6,2.14,1.31,4.25,2,6.38.59,1.88,1.19,3.75,1.79,5.63.46,1.43.95,2.85,1.37,4.3A126.17,126.17,0,0,0,95,377.08a65.51,65.51,0,0,1,2.44,6.22,17,17,0,0,0,2,4.49,6.11,6.11,0,0,1,.67,1.42,33.26,33.26,0,0,0,3.91,8.36c2.58,3.56,4.86,7.34,7.55,10.81a53.61,53.61,0,0,0,5.92,6,49.08,49.08,0,0,0,6.21,4.84c3.52,2.37,6.79,5.1,10.21,7.61,1.21.89,2.66,1.48,3.83,2.41a39.31,39.31,0,0,0,6.76,4.31c3.73,1.91,7.46,3.78,11.25,5.56,2.54,1.19,4.91,2.63,7.75,3.24,2.4.51,4.65,1.75,7,2.64,1.35.52,2.77.88,4.07,1.49a45,45,0,0,0,12.74,3.34c5,.72,10.07,1.16,15,2.41,1.91.49,3.81,1.07,5.74,1.45,2.52.49,5.06.88,7.6,1.21,2.31.31,4.63.6,7,.69,2.82.11,5.65-.12,8.46,0,2.62.14,5.22.65,7.83.86,3.47.28,7,.5,10.43.6,1.75,0,3.51-.31,5.27-.34,4.09-.06,8,1,12,1.88a69.61,69.61,0,0,0,7.39,1.1c2.66.3,5.36-.35,8,.21a34.92,34.92,0,0,0,4.12.43c1.37.12,2.75.19,4.12.3,1.18.09,2.36.26,3.54.28,1.83,0,3.69-.18,5.5,0a17.5,17.5,0,0,0,6.26-.6c3-.77,6-.77,8.94-1.27,1.73-.29,3.6.16,5.3-.21,3.33-.72,6.59-1.75,9.87-2.69s6.3-1.88,9.46-2.78c1.39-.4,2.85-.59,4.21-1.08,4.44-1.61,8.86-3.26,13.25-5a100.31,100.31,0,0,0,15.55-8.1c2.06-1.27,4.18-2.45,6.28-3.66,2.56-1.48,5.15-2.89,7.67-4.43,1.84-1.13,3.56-2.46,5.37-3.63,2.37-1.53,4.79-3,7.17-4.48a12.52,12.52,0,0,0,2.89-2c2.89-3.31,5.74-6.66,8.43-10.14,3.57-4.62,7.24-9.18,9.88-14.46,2.35-4.71,5.2-9.16,7-14.15a13.73,13.73,0,0,1,1.53-3.8c.9-1.18,1.34-2.54,2.1-3.74,1.73-2.71,1.48-5.69,1.22-8.62a27.23,27.23,0,0,0-2.47-8.26,4.16,4.16,0,0,0-3.46-2.65c-.37.63-.68,1.26-1.08,1.84-3.26,4.69-6.9,9.12-9.5,14.25a7.15,7.15,0,0,1-.79,1.14,41.1,41.1,0,0,1-5.16,5.94c-3.08,2.68-5.9,5.65-8.86,8.47-1,1-2.4,1.76-3.16,2.92a11.36,11.36,0,0,1-2.76,2.74c-1,.8-2.09,1.61-3.2,2.31-1.56,1-3.17,1.85-4.77,2.77-1.87,1.08-3.8,2.06-5.59,3.26s-3.66,2.78-5.48,4.17a15.28,15.28,0,0,0-2,1.52c-2.76,3-6.32,4.65-9.91,6.28-3.11,1.41-6.25,2.76-9.31,4.26-1.58.77-3,1.85-4.55,2.73-3.95,2.25-8.42,2.49-12.76,3.1a38.41,38.41,0,0,0-7,1.72,36.57,36.57,0,0,1-8.79,2c-3.78.31-7.58.54-11.35,1a43.68,43.68,0,0,0-7.13,1.39,68.1,68.1,0,0,1-12.29,2.81q-1.57.16-3.14.28c-2.61.21-5.23.37-7.84.63-3.26.32-6.55.56-9.77,1.13-4.78.85-9.5,1.87-14.42,1.95-3.88.06-7.73-.09-11.6-.15-.79,0-1.58-.06-2.37-.08a33.49,33.49,0,0,0-6.27-.05,59.91,59.91,0,0,1-12,.5,32.46,32.46,0,0,1-5.93-1.23,20.62,20.62,0,0,1-3-.76,45.37,45.37,0,0,0-12.86-2.69c-3.05-.26-5.63-1.56-8.4-2.44-1.86-.59-3.59-1.58-5.42-2.32s-3.63-1.77-5.51-1.94c-4.33-.39-7.65-2.69-11-5.07s-6.63-5.38-10.23-7.62a77.38,77.38,0,0,1-12.59-10c-3-2.86-6-5.7-8.91-8.67-2.43-2.5-4.78-5.08-7-7.79-1.82-2.24-3.29-4.77-5-7.07a71.8,71.8,0,0,1-8.52-14.62c-2.35-5.34-4.51-10.76-6.76-16.15-.55-1.32-1.14-2.63-1.7-3.94a5.84,5.84,0,0,1-.24-.74c-.8-2.9-2.11-5.61-2.82-8.57-.85-3.56-2.3-7-3.46-10.47-.33-1-.46-2.06-.82-3.05-.87-2.41-1.85-4.77-2.71-7.17-1.49-4.14-2.94-8.29-4.38-12.45A45.7,45.7,0,0,1,93.73,296c-.85-4-1.43-8-2.31-11.93-1.51-6.79-3.17-13.54-4.75-20.31a11.27,11.27,0,0,1-.2-1.37c-.51-4.77-.9-9.56-1.56-14.32a80.59,80.59,0,0,0-2.77-13.29c-1-3.25-1.93-6.56-2.72-9.88-.73-3.05-1.26-6.15-1.84-9.23q-1.18-6.28-2.29-12.57c-.72-4-1.36-8-2.16-12a13.53,13.53,0,0,0-1.36-3.22c-.76-1.53-1.69-3-2.37-4.54-.44-1-1-1.72-2.1-1.78A1.18,1.18,0,0,1,66,180.11c.2-1.86-.81-3.37-1.49-4.91-1.24-2.8-2.79-5.45-4.2-8.18-.36-.69-.62-1.43-.94-2.14A40.56,40.56,0,0,0,57.6,161c-2-3.31-4.36-6.25-7.91-8-2.18-1.06-4.43-2-6.64-3a11.82,11.82,0,0,0-6.1-1.27,13.44,13.44,0,0,0-7.82,2.8c-2.27,1.88-4.55,3.74-6.81,5.64a2.59,2.59,0,0,0-.63,1,18.22,18.22,0,0,0-1.63,7.44c0,1.31.08,2.62.09,3.93a17.88,17.88,0,0,0,.41,5.43,6.61,6.61,0,0,1,.2,1.76,15.65,15.65,0,0,0,1.9,7.55c1.77,3,3.35,6.1,5.86,8.58a2.67,2.67,0,0,1,.54.82c1.7,3.89,4.43,7.14,6.71,10.66,2.64,4.07,5.7,7.85,8.46,11.84a91.44,91.44,0,0,1,9.54,16.47c1.53,3.65,3.86,7,5.76,10.46.62,1.13.92,2.44,1.54,3.57a57.69,57.69,0,0,1,3.64,7.65,29.57,29.57,0,0,0,1.74,3.32c.81-1.35,1.69-1.91,3.06-1.51a19.1,19.1,0,0,0,1.6,3.6c1.16,1.61.17,2.8-1.93,2.69Zm376-17.1.54.2c.71-.91,1.45-1.82,2.14-2.75.31-.42.5-.92.82-1.34,2.08-2.72,4.11-5.48,6.29-8.12a15.7,15.7,0,0,1,6-4.41c2.83-1.22,5.84-2,8.4-3.86a11.54,11.54,0,0,1,2.38-1.38,3.47,3.47,0,0,0,2.19-2.82,51.34,51.34,0,0,0,.59-5.3c.29-4,.46-8,.78-11.94.24-3,.73-6,.93-9,.14-2.21-.06-4.45,0-6.67a46.84,46.84,0,0,1,1-8.2,43.55,43.55,0,0,0,.21-11,25.09,25.09,0,0,1,.7-9.21,20.5,20.5,0,0,0,.51-3.5q.54-4.4,1.06-8.8c.25-2.09.51-4.17.73-6.26a28.53,28.53,0,0,1,.3-3.54,9.05,9.05,0,0,0-2.09-8.8c-1.16-1.25-2.48-2.23-4.3-2-1.12.16-3.39,2.77-3.65,3.92-.66,2.94-1.36,5.87-2,8.8-1,4.49-2.1,9-3.1,13.46-.88,4-.31,8.13-1.75,12.08-.7,1.92-.48,4.15-.82,6.21a31.31,31.31,0,0,1-3.18,10.52,6,6,0,0,1-3.09,2.89c-1.75.7-3.67,1.1-4.92,2.74a2.83,2.83,0,0,1-1,.61c-2.25,1.14-4.62,2.08-6,4.4a3.32,3.32,0,0,1-1.13,1.09,2.26,2.26,0,0,0-1.12,2.46c.52,7.69.95,15.4,2.33,23,.79,4.35.17,8.66,0,13-.11,3.75,0,7.51,0,11.27A17.24,17.24,0,0,0,444.56,245.3Zm-162.9-144a3.32,3.32,0,0,1-1.35-3.79,5.6,5.6,0,0,0,0-1.77c-.24-2.94-.52-5.88-.73-8.83-.09-1.24,0-2.49-.09-3.73s-.23-2.24-.19-3.35q.16-4.73.46-9.45a20.77,20.77,0,0,1,.58-4.1c1-3.82,3.86-6.68,5.61-10.13a.36.36,0,0,1,.12-.15c2.25-1.24,3-3.75,4.73-5.48a7,7,0,0,0,1.32-3,2,2,0,0,0-.46-1.58,17.21,17.21,0,0,0-2.86-2.7,8.24,8.24,0,0,0-3.31-1.58c-1.26-.19-2.47-.2-3.44-1.17a1.17,1.17,0,0,0-.7-.33c-2.1-.11-4.23-.37-6.24.46a4.26,4.26,0,0,0-2,1.49,84.39,84.39,0,0,0-4.57,8.27c-1.45,3.16-2.6,6.46-3.77,9.74-.89,2.51-1.65,5.08-2.38,7.64-.42,1.49-.65,3-1,4.54-.74,3.17-1.51,6.34-2.24,9.52a4.15,4.15,0,0,0,0,1.14c0,.65.14,1.31.13,2,0,4.06-.12,8.12-.16,12.19,0,.39,0,1,.23,1.13,1.17.72.77,1.81.81,2.8,0,1.42.8,2.57,1.3,3.84a65.23,65.23,0,0,1,2.25,7.15c.31,1.17,1.11,2.28.64,3.62-.65,1.84.12,3.26,1.41,4.64l2.22-3.75c.43-.72.82-1.46,1.28-2.16,1.21-1.87,2.46-3.72,3.67-5.6a19.82,19.82,0,0,1,4.57-4.6C278.77,103.19,280.1,102.38,281.66,101.31ZM193.61,90.44a10.94,10.94,0,0,0,1.48-.22c1.61-.56,3.19-1.19,4.82-1.7a25.06,25.06,0,0,0,10.67-6.42A13.86,13.86,0,0,1,214,79.16a2.65,2.65,0,0,0,1-.91c1.29-2.11,2.84-4,3.79-6.38A36.21,36.21,0,0,0,221.25,64c.25-1.55.63-3.08,1-4.62.22-1,.41-2.06.7-3.07.76-2.71,1.51-5.43,2.35-8.12a10.58,10.58,0,0,0,.85-4.21,6.43,6.43,0,0,1,.39-1.86c-.14-.12-.29-.25-.44-.36-1.66-1.17-1.71-1.19-3.38,0a9.57,9.57,0,0,0-1.75,1.51,30.35,30.35,0,0,1-2.34,3.12A21.29,21.29,0,0,0,214,53.58a23.13,23.13,0,0,1-2.4,4.44c-1.43,1.87-1.43,4.55-3.53,6-.12.08-.06.39-.14.56-.28.58-.57,1.17-.9,1.72-.5.84-1.07,1.64-1.54,2.5-.93,1.72-1.8,3.47-2.71,5.19-.24.45-.6.85-.85,1.3-1.48,2.64-2.52,5.55-4.62,7.83,0,0,0,.13-.05.19-.8,1.64-1.6,3.28-2.41,4.91C194.5,88.85,194.15,89.45,193.61,90.44ZM89.21,66.36c-.15-.22-.2-.39-.3-.42-3.07-.92-6.13-1.88-9.23-2.69-.47-.12-1.21.35-1.67.73s-.83,1.26-1.4,1.63a4,4,0,0,0-1.79,2.71c-.57,3.71-2.56,7.06-2.61,10.88,0,.36-.32.7-.45,1.06a6.31,6.31,0,0,0-.38,1.3c-.24,1.85-.42,3.71-.65,5.56-.12.91-.31,1.81-.46,2.71-.49,2.9.85,5.85-.23,8.74a.94.94,0,0,0,0,.39,39.23,39.23,0,0,1,.44,4.51c0,2,.14,4.07-.68,6a3.07,3.07,0,0,0-.16,1.17c0,1.1,0,2.2.06,3.29,0,.63.07,1.26.11,2,1.5-1,1.8-1.33,2.12-2.82.49-2.23.84-4.49,1.37-6.71.64-2.68,1.4-5.34,2.12-8,.48-1.76,1-3.53,1.51-5.28.49-1.55,1.06-3.09,1.65-4.61.94-2.45,1.84-4.92,2.89-7.33,1.7-3.9,3.49-7.77,5.3-11.63a12.24,12.24,0,0,1,1.43-2.09A12.74,12.74,0,0,1,89.21,66.36Z"/><path class="cls-1" d="M177.41,158.65a14.23,14.23,0,0,0-2.13,2.18,18.77,18.77,0,0,0-2.94,8.06,57.18,57.18,0,0,1-1.69,9.67c-.59,2-.46,4.3-.62,6.46a19.45,19.45,0,0,1-.05,2.16,3.24,3.24,0,0,0,.59,2.6,6.86,6.86,0,0,1,1,4.33,3.89,3.89,0,0,1-2.27,3.82,4,4,0,0,0-2.26,4.9c.3,1.33.68,2.65,1.05,4.1.52.1,1.09.23,1.66.33,1.56.27,1.93.86,1.69,2.53a2.06,2.06,0,0,1-2.79,1.74c-1.64-.45-3.25-1.07-4.92-1.35-2.65-.44-5.33-.7-8-1a1.84,1.84,0,0,1-1.65-1.19,11.26,11.26,0,0,1-.41-2c3.3-1,6.54.09,9.9,0-.14-1.34-.24-2.57-.41-3.79a4,4,0,0,0-2.12-3.34,2.45,2.45,0,0,1-1.23-2.11,22.61,22.61,0,0,0-.85-4,79.31,79.31,0,0,1-2.45-10.29c-.3-1.6-.83-3.17-1.12-4.77-.6-3.36-2.08-6.44-2.89-9.74a12.71,12.71,0,0,0-1.5-3c-.86-1.53-1.76-3-2.64-4.55-1.48,0-2.09,1.16-2.89,2.08-2.24,2.57-5.16,3.64-8.47,4.15-3,.46-5.88,1.31-8.83,1.93a10.08,10.08,0,0,1-2.53.15,15.85,15.85,0,0,1-3.52-.41,9,9,0,0,1-2.76-1.44c-1.26-.92-2.42-2-3.62-3a1.82,1.82,0,0,1-.42-2.49,11.24,11.24,0,0,1,2.44-3.06,68.1,68.1,0,0,1,6.54-4.38,10.14,10.14,0,0,1,8.21-.95,57.7,57.7,0,0,0,11.34,1.59,15.72,15.72,0,0,1,5.53,1.32,5.52,5.52,0,0,1,2.94,3.7,21.75,21.75,0,0,0,2.36,5.52,7.71,7.71,0,0,1,.77,2c.92,2.92,2.17,5.79,2.59,8.78.25,1.83,1.36,3.48.93,5.52-.25,1.18.36,2.56.68,3.82.46,1.82,1,3.64,1.53,5.43.46,1.41,1.07,2.78,1.69,4.37,1.43-.28,2.78-.45,4.07-.83a2.33,2.33,0,0,0,1-2.9c-1-2.39-.58-4.78-.11-7.14,1-4.82,1.93-9.64,3.14-14.4.68-2.71.94-5.58,2.38-8.06a14.75,14.75,0,0,1,2.2-3.26c2.29-2.25,4.74-4.34,7.14-6.47,2.1-1.86,4.28-3.63,6.31-5.56a20.35,20.35,0,0,1,9-5.33A15.61,15.61,0,0,0,201,140a12.8,12.8,0,0,1,6.52-1.23c1.9.12,3.79.38,5.67.66,1.68.25,2,.81,2.44,2.53a8.94,8.94,0,0,1-1.38,7.65,6.45,6.45,0,0,0-.8,1.58c-1,3-3.28,4.79-5.94,6.23-1.83,1-3.58,2.16-5.4,3.18-2.37,1.34-4.85,2.44-7.67,2.06a53.22,53.22,0,0,0-9.24-.4,12.11,12.11,0,0,1-5.31-1.33C179,160.56,178.44,159.63,177.41,158.65Zm34.15-15.83c-.65-.13-1.36-.23-2-.42a13.52,13.52,0,0,0-2.05-.65,10.11,10.11,0,0,0-3.65,0,10.08,10.08,0,0,1-2.61.57c-1.83,0-2.61,1.05-2.44,2.91a22.58,22.58,0,0,1,.36,2.93c-.13,3.15,1.15,6,1.62,9.06a3.74,3.74,0,0,0,.41.89c2.21-1.24,4.33-2.38,6.4-3.61a5.46,5.46,0,0,0,2.58-2.87c.6-1.74,1.22-3.47,1.82-5.2A3.8,3.8,0,0,0,211.56,142.83Zm-29,16.59a14.11,14.11,0,0,0,2.25.25,24,24,0,0,1,7.22.56,11.68,11.68,0,0,0,3.53.18,10,10,0,0,0,2.16-.6c-2-4.84-1.83-9.82-2.72-14.9a30.91,30.91,0,0,0-3.66,2.24c-2.87,2.37-5.64,4.87-8.47,7.3-.58.5-1.21.93-1.67,1.28Zm-53.07,5.32-.89-9.06a21.81,21.81,0,0,0-3.75,1.46c-2.08,1.31-4,2.83-6,4.23C120.77,165.84,126.61,166.82,129.54,164.73Zm15.31-6.5c-2.34-.42-4.24-.79-6.15-1.09s-3.85-.55-6-.84c.3,1.55.5,2.83.81,4.09s-.68,2.66.79,3.68c1.37-.31,2.76-.73,4.18-.91C141.41,162.78,143.07,160.92,144.85,158.23Z"/><path class="cls-1" d="M173,124.75l2.73,2c.62.46,1.13.25,1.23-.53a2.21,2.21,0,0,0,0-.59c-.2-1.45.24-2.47,1.85-2.61l.28-1.8c1.54-.46,2.53.59,3.69,1.21.81-.9.32-1.66-.08-2.38s-1.05-1.7-.46-2.9c1.82-.28,2.48,1.55,4,2.34.47-.45,1-1,1.55-1.49s1-1.64,2.23-1.78c.33,0,.65-.87.83-1.39.54-1.58.55-1.61,2.2-1.54a1.5,1.5,0,0,0,1.66-1.48c.09-.65,0-1.32.15-2,.17-1.07.72-1.36,1.65-.89.52.26,1,.6,1.68,1,.31-.64.57-1.14.81-1.66s.48-1.06.74-1.65c.38,0,.8,0,1,.13a2.13,2.13,0,0,0,2.5.43c1-.41,1.95.21,2.46,1.41a28.54,28.54,0,0,0,4.3,7.5c.5.6.95,1.26,1.47,1.84a1.51,1.51,0,0,1-.69,2.67,2.15,2.15,0,0,1-.58.1h-6L197,125.62c-.27.18-.59.28-.84.48-1.22,1-2.35,2.09-3.65,2.95a30.91,30.91,0,0,0-6.29,5.88c-1.21,1.41-1.3,1.35-2.91.41a4.12,4.12,0,0,0-2.35-.68,3.8,3.8,0,0,1-2.89-.91c-1-.73-2.11-1.3-3.12-2a2.24,2.24,0,0,1-1-1.13,7,7,0,0,0-1.52-2.93C171.47,126.46,171.53,126.18,173,124.75Zm24.18-7.47-.48.11a6.79,6.79,0,0,0,.52,4.62l1.9-1Zm9.25-.47-1.89-2.72L203.51,118Zm-15.85,10.07,2.36-1.56-2.62-1.25Zm13-14.17c.34-.65.25-1.13-.55-1.24-.18,0-.55.21-.56.36C202.4,112.63,202.92,112.77,203.61,112.7Zm-19,12.53-.49.11c-.21.82.18,1.4,1.15,2.16-.13-.65-.16-1-.25-1.24S184.78,125.58,184.64,125.23ZM202,119c.29-.31.56-.47.58-.65s-.24-.44-.42-.49-.46.2-.48.35S201.82,118.63,202,119Zm-7.27,4.7-.27-.41-.72.59.19.27Zm-11.89,8.16-.07.41.81.08,0-.23Z"/><path class="cls-1" d="M119.71,126.24c1.34,2,3.31,1.56,5.29,1.36s4.08-.18,6.11-.34a4,4,0,0,0,2-.61,1.56,1.56,0,0,1,2.27.06c1.34,1.12,1.57,1.09,3.07.16,1.09-.67,1.94-.26,2,1,.05.85-.06,1.7-.07,2.56a3.47,3.47,0,0,0,.08,1.35c.87,2-.15,3.7-1,5.41a1.37,1.37,0,0,1-1.69.69c-2.8-.63-5.63-.27-8.45-.36a23.23,23.23,0,0,0-6.64.44,1.06,1.06,0,0,1-.76-.09c-1.55-1-3.17-.45-4.78-.26-.56.07-1.14-.08-1.71,0-1.9.12-3.79.29-5.69.41a3.39,3.39,0,0,1-1.56-.08,11.88,11.88,0,0,0-4.45-.67,62.33,62.33,0,0,1-6.46-.85A2.19,2.19,0,0,1,96,133a6.18,6.18,0,0,0,1.63-5.39c-.2-1,.54-1.47,1.25-1.79a24.21,24.21,0,0,1,3.88-1.45,4.9,4.9,0,0,1,2.5.1c1.82.55,3.59,1.29,5.39,1.92a14.28,14.28,0,0,0,1.91.48,28.51,28.51,0,0,1,3.09.59,2.28,2.28,0,0,0,2.7-.51A5.23,5.23,0,0,1,119.71,126.24Zm12,6.46c.41.63.64,1.39,1.07,1.55a10.26,10.26,0,0,0,2.91.42c1.45.06,2.2-1.44,1.4-2.9-.23.26-.46.48-.64.73-.95,1.33-1.44,1.45-2.58.21C133.27,132,132.8,132.27,131.76,132.7Zm-18.67-2.06c-.38,1.16-.76,2-1,3-.13.61.31,1,.93,1s1.31-.08,1.28-.85A3.53,3.53,0,0,0,113.08,130.63Zm-11.68-.45h-.61c-.33,1.06-1.15,2-.6,3.45l1.78.13Zm5.65,1.41c-1.21,1.93-1.21,1.93,0,2.22Zm23.9-1.44c-.58-.3-1.2-.68-1.65.11a1.22,1.22,0,0,0,.45,1.07C130.51,131.5,131,131.07,130.95,130.15Zm-4.5,2.33-.6,0-.64,1.63.29.33c.39-.17,1-.26,1.13-.53A3.48,3.48,0,0,0,126.45,132.48Zm-7.12,1.75c.4-.77.58-1.37-.36-1.83C118.25,133.22,118.63,133.69,119.33,134.23ZM104.67,128l.48-.22-.38-1-.65.28Zm6,1-.49-.32a2.07,2.07,0,0,0-.33.57c0,.08.21.23.33.34Z"/><path class="cls-1" d="M214.53,241.4A7,7,0,0,1,209,236c-.23-1.38,0-1.64,1.86-2.43A17.36,17.36,0,0,1,212,235c.62,1,1.1,2.07,1.77,3A3.5,3.5,0,0,1,214.53,241.4Z"/><path class="cls-1" d="M363.81,278.42c.17,2,0,2.34-1.43,2.95-1.14.49-2.32.87-3.48,1.31a1.49,1.49,0,0,1-1.8-.32,2,2,0,0,1,.54-2.87A14.51,14.51,0,0,1,363.81,278.42Z"/><path class="cls-1" d="M342.75,252.93c-1.28.41-2.57.79-3.83,1.25a7.14,7.14,0,0,0-1.14.75,1.44,1.44,0,0,1-2-.25,1.51,1.51,0,0,1,.06-2.14,7.34,7.34,0,0,1,3.91-2.14C341.3,250.19,342.43,251.2,342.75,252.93Z"/><path class="cls-1" d="M223,80.68c.17-1.53.25-2.63.43-3.71a2.94,2.94,0,0,1,.58-1.43,1.74,1.74,0,0,1,1.27-.55c.27,0,.63.61.7,1a7,7,0,0,1-.09,1.52c-.06,1.69-.06,3.37-.17,5.06a4.93,4.93,0,0,1-.52,1.36c-.51-.22-1.29-.3-1.46-.68A13.44,13.44,0,0,1,223,80.68Z"/><path class="cls-1" d="M81.49,105.41c.44-1.57.78-2.89,1.2-4.2.19-.59.59-1.08,1.32-.82a1.19,1.19,0,0,1,.87,1.37,11.33,11.33,0,0,1-.37,1.52A3,3,0,0,0,85,106.4c.76.92.61,1.5-.12,2a1.56,1.56,0,0,1-2.27-.3A14.83,14.83,0,0,1,81.49,105.41Z"/><path class="cls-1" d="M86.13,87.71c1.75.44,2.28,1,2.09,2.37a46.27,46.27,0,0,1-.91,4.79,1.59,1.59,0,0,1-1.12.85,1,1,0,0,1-1.15-1.07C85,92.32,84.75,89.94,86.13,87.71Z"/><path class="cls-1" d="M89.46,82.94a1.78,1.78,0,0,1-1.16-2.18c.43-1.71,1-3.41,1.52-5.08A1.72,1.72,0,0,1,92,75a1.15,1.15,0,0,1,.56,1.67c-.42,1-.91,2-1.36,3a2.11,2.11,0,0,0-.31.91C91,81.72,90.26,82.24,89.46,82.94Z"/><path class="cls-1" d="M362.58,258.81c-2.16.92-4,2.27-6.41,2.5l-.73-1.9c1.12-2.08,3.18-2.23,5.17-2.42C361.62,256.9,361.63,257,362.58,258.81Z"/><path class="cls-1" d="M228.08,70.64c-.2-.22-.48-.38-.53-.59a11.72,11.72,0,0,1,.13-6.55c.23-.68.62-1.38,1.56-1.15a1.5,1.5,0,0,1,1,2,6.19,6.19,0,0,0-.42,3.46A2.46,2.46,0,0,1,228.08,70.64Z"/><path class="cls-1" d="M219.21,233.52a11.29,11.29,0,0,1,2.27,1.49,12.23,12.23,0,0,1,1.68,2.64,1.36,1.36,0,0,1,0,1.23,1.2,1.2,0,0,1-1.76.2,6.84,6.84,0,0,0-2.8-1.73,1.67,1.67,0,0,1-.78-2.2A8,8,0,0,1,219.21,233.52Z"/><path class="cls-1" d="M342.55,244.76a.89.89,0,0,1-1.15.83,28.15,28.15,0,0,1-3.92-1.17,1.32,1.32,0,0,1-.68-1.67,1.92,1.92,0,0,1,1.49-1.65C339.8,240.81,342.51,243.05,342.55,244.76Z"/><path class="cls-1" d="M363.39,269.19l-5.3,1.71c-.86-.27-1.14-1.21-1-2.23s1.05-1.4,2.05-1.49c.65-.06,1.29-.21,1.94-.25C362.8,266.81,363.57,267.65,363.39,269.19Z"/><path class="cls-1" d="M342.31,257.33a5.44,5.44,0,0,1-.51,1.85,26,26,0,0,1-2.6,2.66c-.88.81-1.85.86-2.44.2a1.88,1.88,0,0,1,.09-2.5A6.76,6.76,0,0,1,342.31,257.33Z"/><path class="cls-1" d="M225.09,178.74c-1.18-.46-1.45-1.43-1.81-2.33-.19-.48-.31-1-.49-1.49a1.83,1.83,0,0,1,.78-2.48,2.3,2.3,0,0,1,2.25.81A4.17,4.17,0,0,1,225.09,178.74Z"/><path class="cls-1" d="M96.44,99.88c1-.46,1.64-1,2.17-.89.9.11,1.14,1,1.26,1.81a7.14,7.14,0,0,1-.71,4.6,1.44,1.44,0,0,1-1,.72,1.32,1.32,0,0,1-1-.78,5.37,5.37,0,0,1,0-2.3C97.38,102,97.82,101,96.44,99.88Z"/><path class="cls-1" d="M234.36,83.42A2.42,2.42,0,0,1,233,80.37c.34-1.46.71-2.92,1.14-4.36a1.15,1.15,0,0,1,.79-.7,1.05,1.05,0,0,1,.86.57c.21,1.19.82,2.36.05,3.62a11.13,11.13,0,0,0-.61,2.07C235,82.16,234.69,82.71,234.36,83.42Z"/><path class="cls-1" d="M230.44,171.48a10.06,10.06,0,0,1,0,2.13,1.71,1.71,0,0,1-.91,1.05,1.19,1.19,0,0,1-1-.54,44.84,44.84,0,0,1-1.27-4.87,1.21,1.21,0,0,1,1-1.45,1.49,1.49,0,0,1,1.73,1,18.75,18.75,0,0,1,.61,2.67Z"/><path class="cls-1" d="M108,202.89c2.64-.54,3.9.28,4.16,2.49a11.16,11.16,0,0,1,.11,2c-.07,1.12-.79,1.49-1.77.91a2,2,0,0,1-.84-.8C109,206,108.51,204.44,108,202.89Z"/><path class="cls-1" d="M234.65,64.11h1.61c.11.73.54,1.63.27,2.18a7.06,7.06,0,0,0-.22,4.39c-1.62.67-2.31.39-2.57-1.09A8.06,8.06,0,0,1,234.65,64.11Z"/><path class="cls-1" d="M228.13,79.43c.29-.84.58-1.76.93-2.66.23-.59.71-1.11,1.34-.82.46.21,1,.86,1,1.27a26.1,26.1,0,0,1-.79,4.6c-.19.71-1.33.71-1.75,0A11.86,11.86,0,0,1,228.13,79.43Z"/><path class="cls-1" d="M240.27,79.64A17.85,17.85,0,0,1,241.39,77a.78.78,0,0,1,1.49.23c.43,1.84.88,3.72-.25,5.49a1.23,1.23,0,0,1-.88.57,1.2,1.2,0,0,1-.83-.7C240.64,81.7,240.51,80.79,240.27,79.64Z"/><path class="cls-1" d="M92.26,88.35c1.86,1,2,1.42,1.58,2.85a11.31,11.31,0,0,0-.56,2.24c-.08.73-.24,1.32-1,1.46a1.59,1.59,0,0,1-1.57-1.45,5.1,5.1,0,0,1,.17-1.95C91.21,90.46,91.74,89.48,92.26,88.35Z"/><path class="cls-1" d="M361.94,247.91c-.52,2-2.41,1.84-3.69,2.53-.54.29-1.82-.84-2-1.57-.25-.9.4-1.34,1-1.73C358.43,246.32,360.45,246.67,361.94,247.91Z"/><path class="cls-1" d="M230.2,60.22a1.72,1.72,0,0,1-1.31-1.75c0-1.18-.09-2.36,0-3.52,0-.4.6-.84,1-1,.2-.1.72.24,1,.5.86.91.73,2.1.62,3.19S231.46,59.74,230.2,60.22Z"/><path class="cls-1" d="M405.49,180.9a13.86,13.86,0,0,1,2.58.24,1.71,1.71,0,0,1,1,1,1.26,1.26,0,0,1-.57,1.08,14.35,14.35,0,0,1-2.94,1,2,2,0,0,1-2.22-1.16c-.18-.79.86-2,1.83-2.17C405.43,180.88,405.69,180.88,405.49,180.9Z"/><path class="cls-1" d="M92,99.8a2.05,2.05,0,0,1,1,2.26c-.2,1.09-.27,2.2-.41,3.29-.08.63-.35,1.28-1,1.16a2.07,2.07,0,0,1-1.28-1C89.67,104.18,90.68,101,92,99.8Z"/><path class="cls-1" d="M97.81,87.55A3.28,3.28,0,0,1,99,90.1a36.31,36.31,0,0,1-.44,3.69c-.06.35-.53.87-.81.87s-.85-.39-1.27-.63c0,0-.05-.12-.06-.18C96.19,91.71,96.23,89.62,97.81,87.55Z"/><path class="cls-1" d="M91.84,81.79c.61-1.4,1.09-2.66,1.7-3.86a1.09,1.09,0,0,1,1.66-.48c.51.36,1,.82.62,1.63-.51,1-.95,2.12-1.38,3.2-.24.6-.64,1.16-1.27.89S92.35,82.34,91.84,81.79Z"/><path class="cls-1" d="M230,232.82a1,1,0,0,1-1,1.19,3.15,3.15,0,0,1-3.13-3.43,1.44,1.44,0,0,1,2.25-1A3.79,3.79,0,0,1,230,232.82Z"/><path class="cls-1" d="M404.68,188.9c1.43-1.2,3-.71,4.48-.78.34,0,.86.57,1,1a1.31,1.31,0,0,1-.32,1.19,5.05,5.05,0,0,1-1.72.83,4.35,4.35,0,0,1-1.17,0C404.94,191.1,404.94,191.1,404.68,188.9Z"/><path class="cls-1" d="M434.74,251.31c-1,.11-1.35-.62-1.66-1.35a1,1,0,0,1,.77-1.37,24.72,24.72,0,0,1,4.15-.78c.67-.06,1,1,.46,1.5A5.57,5.57,0,0,1,434.74,251.31Z"/><path class="cls-1" d="M436.86,242.54a17,17,0,0,1-2-.16,1.63,1.63,0,0,1-1.4-1.84c.09-1,.85-1.21,1.56-1.16a10.48,10.48,0,0,1,2.85.62,1.29,1.29,0,0,1,.67,1.68C438.33,242.41,437.8,242.77,436.86,242.54Z"/><path class="cls-1" d="M101.15,78.39c.93.61.82,1.43.77,2.2s-.17,1.81-.26,2.72c-.06.63-.24,1.17-1,1.18a1.09,1.09,0,0,1-1.2-1c-.05-.32-.16-.63-.23-1C98.72,80.17,98.9,79.77,101.15,78.39Z"/><path class="cls-1" d="M427.1,156.47l-3.86,2.13c-1-.57-1.4-1.24-1-2.29a3.79,3.79,0,0,1,3.42-1.83C426.8,154.61,427,155.4,427.1,156.47Z"/><path class="cls-1" d="M405,193.41c.62,0,1.25,0,1.87-.1,1-.1,1.6.63,1.19,1.55-.56,1.26-2.57,2.26-3.77,1.52a2.48,2.48,0,0,1-1-2.12C403.55,193.35,404.31,193.32,405,193.41Z"/><path class="cls-1" d="M107.35,97.66c.33.73,1,1.33.44,2.3a1.42,1.42,0,0,0,0,1.1c.4.9-.09,1.53-.58,2.13a1.24,1.24,0,0,1-2-.22c-.63-1.33.22-2.54.44-3.8A1.66,1.66,0,0,1,107.35,97.66Z"/><path class="cls-1" d="M120.55,205.84a8.42,8.42,0,0,1-1.25,1.89c-.24.21-1,0-1.43-.21-.88-.47-1.34-2.65-.84-3.54a1.62,1.62,0,0,1,2.52-.17A10.12,10.12,0,0,1,120.55,205.84Z"/><path class="cls-1" d="M408.59,354.42c.73-.08,1.59-.44,2.06-.16a8,8,0,0,1,2.18,2.17c.45.62-.06,1.34-.92,1.55C410,358.46,408.29,356.83,408.59,354.42Z"/><path class="cls-1" d="M104.68,88.12c1.15-.1,1.57.24,1.61.95.08,1.23.15,2.47.15,3.71,0,.7-.32,1.36-1.1,1.39a1.23,1.23,0,0,1-1.26-1.45C104.19,91.18,104.47,89.67,104.68,88.12Z"/><path class="cls-1" d="M423.6,151.3c-.39-.34-1-.62-1.11-1-.25-.73-.32-1.65.64-2a8.14,8.14,0,0,1,2.11-.39c.59-.06,1.26,0,1.43.72a1.5,1.5,0,0,1-.65,1.88A22.59,22.59,0,0,1,423.6,151.3Z"/><path class="cls-1" d="M426,160.89c.58,1,.84,1.8.22,2.43a9.68,9.68,0,0,1-2.65,1.93c-.64.3-1.33-.67-1-1.44a4.15,4.15,0,0,1,1.15-1.56A17.66,17.66,0,0,1,426,160.89Z"/><path class="cls-1" d="M412.41,350.07c.83-.43,1.43-1.31,2.37-.51a2.8,2.8,0,0,1,.59,2.68c-.32.63-.71,1.13-1.52.89C412.3,352.67,412.56,351.36,412.41,350.07Z"/><path class="cls-1" d="M34.43,189.32c-1.47-.15-2.55-.21-3.35-1.24a6.15,6.15,0,0,0-1.75-1.19c-1.1-.67-1.57-1.58-1-2.61a3.46,3.46,0,0,1,1.7-1.42c.28-.11.92.54,1.33.9,1.16,1,2.26,2.12,3.45,3.1.48.4,1.06.75.73,1.39A4.21,4.21,0,0,1,34.43,189.32Z"/><path class="cls-1" d="M37.6,163.66A5.86,5.86,0,0,1,31.85,159c-.1-.66-.16-1.39.58-1.72a1.69,1.69,0,0,1,2.13.49c.89,1,1.75,2.1,2.68,3.1A2,2,0,0,1,37.6,163.66Z"/><path class="cls-1" d="M75.4,267.62c.91,0,1.43.3,1.65,1.2.32,1.32.87,2.57,1.25,3.88.25.86.61,1.75-.13,2.62s-1.26.83-1.74.06a30.39,30.39,0,0,1-2.17-3.93C73.63,270,74.45,268.81,75.4,267.62Z"/><path class="cls-1" d="M41.55,198.85a2,2,0,0,1-2,1.74,2.56,2.56,0,0,1-1.11-.37c-1.28-.86-2.55-1.72-3.75-2.68a1.22,1.22,0,0,1-.22-1.18c.36-.47,1-1.12,1.44-1,1.07.2,2.34-.05,3.12,1.21.42.68,1.32,1,2,1.6A3.66,3.66,0,0,1,41.55,198.85Z"/><path class="cls-1" d="M40.28,180.85A3.93,3.93,0,0,1,36.61,176a1.47,1.47,0,0,1,1.6-1.2c.82.06,1.43.38,1.55,1.23A2.2,2.2,0,0,0,41,178a1.38,1.38,0,0,1,.67,2C41.3,180.47,40.52,180.7,40.28,180.85Z"/><path class="cls-1" d="M69.56,247.83c.05,1-.41,1.32-1.07,1.21a2.87,2.87,0,0,1-1.34-.7C65.62,247,65.43,245,65,243.2a1.36,1.36,0,0,1,1.11-1.6,1.51,1.51,0,0,1,1.74,1,3.64,3.64,0,0,1,.34,1.12,4.71,4.71,0,0,0,1.12,3.42C69.53,247.29,69.52,247.7,69.56,247.83Z"/><path class="cls-1" d="M80.13,290.16a4.12,4.12,0,0,1-3-4.22,18.78,18.78,0,0,1,.21-1.95,1.43,1.43,0,0,1,1.43-1.36,1.48,1.48,0,0,1,1.59,1.2,15.62,15.62,0,0,1,.25,1.94,6.63,6.63,0,0,1,0,1.37C80.49,288.1,80.31,289.05,80.13,290.16Z"/><path class="cls-1" d="M25.3,169.21A10.08,10.08,0,0,1,31,174.88c-2,1.32-3.5.7-4.57-1.12a8.86,8.86,0,0,1-1.1-2A10.8,10.8,0,0,1,25.3,169.21Z"/><path class="cls-1" d="M42.18,161.27c-.18-.1-.49-.16-.63-.35-1-1.31-1.93-2.6-2.77-4a1.34,1.34,0,0,1,.53-2,1.41,1.41,0,0,1,2,.59c.71,1,1.53,2,2.19,3a2.16,2.16,0,0,1-.89,2.67A2.94,2.94,0,0,1,42.18,161.27Z"/><path class="cls-1" d="M45.26,206.41a1,1,0,0,1,.1-.7,2.15,2.15,0,0,1,1-.75,1.21,1.21,0,0,1,1.5.6c.67.95,1.37,1.87,2,2.83a3.57,3.57,0,0,1,.57,1.22,1,1,0,0,1-1,1.32,3.55,3.55,0,0,1-.78,0C47.13,210.63,45.28,208.41,45.26,206.41Z"/><path class="cls-1" d="M62.09,219.78c-2.19,1.3-3.29.94-3.89-1.18a21,21,0,0,1-.42-3c1.66-1.52,2.85-1.28,3.49.74C61.61,217.42,61.81,218.58,62.09,219.78Z"/><path class="cls-1" d="M52.28,169.1c-.26.42-.51,1.24-.84,1.27a2.9,2.9,0,0,1-1.94-.58c-1-.88-1.42-4-.66-5.18a2.05,2.05,0,0,1,1.38-.84c.29,0,.79.61.92,1C51.58,166.16,51.88,167.55,52.28,169.1Z"/><path class="cls-1" d="M54,221.27c-.19-.12-.85-.29-1.09-.71a14.7,14.7,0,0,1-1.16-2.85c-.29-.89.4-1.28,1-1.66a1.22,1.22,0,0,1,1.74.35A12.4,12.4,0,0,1,56,219.71C56.32,220.78,55.66,221.3,54,221.27Z"/><path class="cls-1" d="M51.73,203.11a1,1,0,0,1,.14-.69c.33-.43.83-1,1.28-1a1.71,1.71,0,0,1,1.23,1,29.07,29.07,0,0,1,1.17,3.92c.09.38,0,1.1-.25,1.21a1.68,1.68,0,0,1-1.45,0A4.69,4.69,0,0,1,51.73,203.11Z"/><path class="cls-1" d="M41,172.63c0,.12-.06-.1,0-.26.24-.51.43-1.26.83-1.41a1.62,1.62,0,0,1,1.49.55,15.93,15.93,0,0,1,1.56,3.94c.21,1-.94,1.64-1.92,1.23a2.73,2.73,0,0,1-1.81-2.15C41.1,174,41.08,173.47,41,172.63Z"/><path class="cls-1" d="M46,192.44c-.38.7-.71,1.52-1.8,1.4a2.76,2.76,0,0,1-2.42-1.71,5.92,5.92,0,0,1-.32-1.12,1.54,1.54,0,0,1,1.1-2,1.59,1.59,0,0,1,2,.8C45,190.68,45.53,191.51,46,192.44Z"/><path class="cls-1" d="M30.53,168.13a3.05,3.05,0,0,1-3.18-3,.89.89,0,0,1,1-.93,6.25,6.25,0,0,1,3.75,1.53c.88.76.51,1.87-.64,2.22A8.21,8.21,0,0,1,30.53,168.13Z"/><path class="cls-1" d="M63.84,235.59c-2.7,1.1-4.34.06-4.27-2.68,0-.39.24-1,.52-1.12.49-.19,1.33-.3,1.63,0C62.78,232.76,64.14,233.66,63.84,235.59Z"/><path class="cls-1" d="M67.3,228.71c.32.31,1,.69,1.21,1.25a11.71,11.71,0,0,1,.59,2.85c.12.93-.37,1.41-1.28,1.1a3.35,3.35,0,0,1-1.73-1.36,5.86,5.86,0,0,1-.52-2.45C65.53,229.25,66.14,228.86,67.3,228.71Z"/><path class="cls-1" d="M74.94,261c-1.47-1.33-2.09-3.39-1.39-4.82.18-.37.91-.83,1.2-.73a3.15,3.15,0,0,1,1.64,1.24C77.11,258,76.4,259.94,74.94,261Z"/><path class="cls-1" d="M81.29,296.38c.63,1.11,1.39,2.13.49,3.32a1.85,1.85,0,0,1-2.52.11,4.13,4.13,0,0,1-.9-2.42C78.34,296.51,79.29,296.23,81.29,296.38Z"/><path class="cls-1" d="M50.82,187.19c-.14.19-.4.91-.79,1a2.79,2.79,0,0,1-2-.36,2.58,2.58,0,0,1-.12-3.5,1.38,1.38,0,0,1,1.19-.21C49.79,184.34,50.78,186.1,50.82,187.19Z"/><path class="cls-1" d="M74.06,241.78a4.47,4.47,0,0,0-.12.63c0,.87,0,1.91-.93,2.15s-1.42-.9-2-1.47a1.56,1.56,0,0,1,.3-2.25,2,2,0,0,1,2.49.14A2.27,2.27,0,0,1,74.06,241.78Z"/><path class="cls-1" d="M59,181.64c-2.17.88-2.63.69-3.27-1-.09-.24-.24-.46-.35-.69-.35-.74-.32-1.57.45-1.84a1.9,1.9,0,0,1,1.67.59A18.43,18.43,0,0,1,59,181.64Z"/><path class="cls-1" d="M449.05,193.5c.49,1.23.43,2.88,2.24,3.32-.33.73-.58,1.31-.85,1.89a.92.92,0,0,1-1.61.33,5.48,5.48,0,0,1-1.88-3.78C446.89,194,447.48,193.6,449.05,193.5Z"/><path class="cls-1" d="M455.32,196.69a3.71,3.71,0,0,1-.83.91.94.94,0,0,1-1.43-.56,18.22,18.22,0,0,1-1-3,2.27,2.27,0,0,1,.32-1.47,1.54,1.54,0,0,1,1.05-.67c.27,0,.74.39.84.7C454.68,193.87,454.95,195.14,455.32,196.69Z"/><path class="cls-1" d="M456.5,190.66a4.83,4.83,0,0,1,.43-1.44,2.15,2.15,0,0,1,1.17-.83c.21,0,.58.54.83.89a6.72,6.72,0,0,1,.67,1.19,1.54,1.54,0,0,1-.52,2.07,1.48,1.48,0,0,1-2-.58A6,6,0,0,1,456.5,190.66Z"/></svg>