<svg id="trace" xmlns="http://www.w3.org/2000/svg" viewBox="0 0 500 500"><defs><style>.cls-1{fill:#fff;stroke:#fff;stroke-miterlimit:10;stroke-width:0.67px;}</style></defs><title>meowshow-2</title><path class="cls-1" d="M102.31,371.7c.79,1.63.47,2.62-.61,2.79-2.91.47-5.9,1-9.24-1C96,370.7,99.44,372.73,102.31,371.7Z"/><path class="cls-1" d="M81.33,386.84l7.6-1.9c1.26,1.63,1.23,2.45-.5,3.13A25.64,25.64,0,0,1,84,389.35C82.49,389.66,81.53,389,81.33,386.84Z"/><path class="cls-1" d="M88,354.34c-1.12,3.62-5.17,4.3-9.25,1.93.54-2.71,2.69-.91,4-1.29A32.56,32.56,0,0,1,88,354.34Z"/><path class="cls-1" d="M79,362.16c2.9-1.83,5.78-.79,8.18-1.91l.56.57c-.35.71-.52,1.74-1.1,2.07C84.33,364.21,82,364.23,79,362.16Z"/><path class="cls-1" d="M93.28,274.83c1.5,0,3,0,4.52,0s2.08.81,1.87,2.7c-1.7.07-3.42.28-5.13.18S92.66,277.31,93.28,274.83Z"/><path class="cls-1" d="M100,279.41c-.74,2.71-4.12,4.74-6.13,3.83-1.46-.66-1.27-1.76-.68-2.66Z"/><path class="cls-1" d="M93,361.33l7.49-.35c0,1.9-.76,2.91-2.45,3S94.1,364.52,93,361.33Z"/><path class="cls-1" d="M91.34,354.84c2.64-1.67,5-.78,7.43-.76C97.77,357.4,95.49,357.69,91.34,354.84Z"/><path class="cls-1" d="M90.89,286.88l7,1.07c-.62,2.71-2.49,2.14-4,2S90.68,289.73,90.89,286.88Z"/><path class="cls-1" d="M94.61,369c-.44-2.21.88-2.46,2.43-2.47h4.08c.78,1,.74,2.16-.88,2.41A37.78,37.78,0,0,1,94.61,369Z"/><path class="cls-1" d="M80.84,367.81c1.84,0,3.31,0,4.78,0,.4,0,1,.36,1.1.66.11.49,0,1.44-.28,1.54a6.84,6.84,0,0,1-3.23.65C81.91,370.47,80.47,369.88,80.84,367.81Z"/><path class="cls-1" d="M87.84,373c.71,2.62-.51,3.41-1.8,3.88-1.85.68-3.36,0-4.82-1.77C83.23,373.46,85.84,375.08,87.84,373Z"/><path class="cls-1" d="M87.57,380c-.39,2.13-1.78,2.6-3.41,2.64-1.34,0-2.64-.14-2.82-2.1A8.88,8.88,0,0,1,87.57,380Z"/><path class="cls-1" d="M93.89,270.66c2.19-3,3.87-3.28,5.22-1.58.7.89.38,2.06-.73,2.11A30.16,30.16,0,0,1,93.89,270.66Z"/><path class="cls-1" d="M425.94,281.17a48.93,48.93,0,0,0,1.17-5.31,65.39,65.39,0,0,0,.24-10.35c-.21-.89-.42-1.78-.62-2.68l0-.15a7.29,7.29,0,0,1-.44-2.83,17.33,17.33,0,0,1,.4-5.13,18.4,18.4,0,0,0-.1-2.15,7.35,7.35,0,0,1-.31-2.43c0-.14,0-.28,0-.43l-.11.09c-.4-2.5-.91-4.49-1-6.5-.29-5.49-.3-11-.64-16.48a82.82,82.82,0,0,0-1.32-12.1,294.7,294.7,0,0,0-8.75-33.59,52.53,52.53,0,0,0-9.81-16.86,30.84,30.84,0,0,0-8.12-6.89c-3.7-2.13-7.87-3.44-12.35-2.57-1.8.35-3.05,1.11-3.33,3.16-.38,2.83-.84,5.67-1.49,8.45-1,4.11.25,7.46,2.94,10.56,6,6.92,8.92,15.42,12,23.82,1.24,3.36,2.47,6.74,3.42,10.19a47.94,47.94,0,0,1,1.76,9.09c.39,5.23.33,10.48.51,15.73.18,5.49.88,11,.55,16.45a229.26,229.26,0,0,1-5.62,40.42c-2.77,11.34-5.74,22.74-9.91,33.61-6.52,17-15.11,33-27.15,46.85-2.78,3.2-6,6.17-10.54,7.65-1.46-2.73-.72-5.22-.59-7.67a63,63,0,0,0,.35-6.38c-.22-4.28-.62-8.55-1.06-12.81-.57-5.46-1.24-10.91-1.89-16.36-.5-4.18-1.36-8.24-3.86-11.78a12.42,12.42,0,0,1-1.33-2.92,112.27,112.27,0,0,0-10-20.93,151.43,151.43,0,0,1-9.45-18,69.94,69.94,0,0,0-8.19-14.22c-1.81-2.36-3.35-4.94-4.93-7.47-2-3.24-3.68-6.72-6-9.75-3.89-5.16-7.86-10.21-9.38-16.68a3.85,3.85,0,0,0-.46-1c-2.48-4.36-5.06-8.67-7.41-13.1-2-3.68-3.82-7.43-5.42-11.27s-2.82-7.59-4-11.45c-1.56-5-4-9.72-4.18-15.08a30.44,30.44,0,0,0-.77-4.23c-.75-4.09-1.67-8.16-2.2-12.28-.46-3.54-.47-7.14-.69-10.72-.17-2.72-.39-5.45-.5-8.17-.13-3.57,0-7.15-.28-10.7-.56-6.46.12-12.84.74-19.25.66-6.85,1.18-13.72,1.52-20.59.27-5.6.09-11.23.3-16.83.13-3.41.79-6.81.91-10.22.15-4.3.3-8.51,1.59-12.73A46.78,46.78,0,0,0,271.53,48c.34-4.63.32-9.28.59-13.92a25.72,25.72,0,0,0-1.52-11.54c-.79-1.91-1.78-2.59-3.16-1.95a13.79,13.79,0,0,0-6.66,5.58c-2.92,5.06-6,10.06-9.28,14.87-3.79,5.5-7.88,10.8-11.9,16.14a92.92,92.92,0,0,1-6.72,8.37c-3.76,3.94-3.33,3.92-8.63,1.53s-10.36-5.34-16-7c-6.4-1.9-12.66-4.25-19-6.39-2.7-.91-5.43-1.76-8.13-2.68-1.67-.56-3.3-1.29-5-1.76s-2.78-1.31-2.87-3.16c-.2-3.8-.4-7.6-.62-11.41a60.48,60.48,0,0,0-.52-6.77c-.73-4.22-1.69-8.4-2.58-12.59a4.88,4.88,0,0,0-6.79-3.17c-7,3.66-14,7.3-19.36,13.36-3.63,4.12-7.42,8.12-11,12.33-4.6,5.49-9.16,11-12.44,17.47a170.58,170.58,0,0,1-8.48,14.93,35.57,35.57,0,0,0-4.67,11.11,82.84,82.84,0,0,0-1.76,10.14,121.26,121.26,0,0,0,.13,26.11c.7,6.52,1.3,13,1.92,19.58.35,3.68.46,7.41,1,11.05,1.42,9.06,3.73,18,3,27.32-.4,5.1-.42,10.31-1.54,15.26-2.32,10.23-5.27,20.32-8,30.47-2.1,8-4.29,15.89-6.27,23.88-1.78,7.17-3.36,14.39-5,21.61-1.28,5.83-2.27,11.72-3.71,17.51-2.24,9-4.94,17.93-7.1,27-3.27,13.7-6.67,27.39-6.76,41.64,0,7.75-.86,15.46.48,23.22s2.31,15.36,5.95,22.38c2.46,4.76,4.36,9.83,8.07,13.88,2.9,3.17,5.53,6.61,8.55,9.66,4.53,4.59,9.15,9.09,14,13.34,2.76,2.42,6,4.27,9,6.39a117,117,0,0,0,24,12.74c6.28,2.52,12.49,5.2,18.58,7.74-.4,8.54,6.85,18,15.55,20a100.35,100.35,0,0,0,12.3,2.37c9.75.94,19.53,1.51,29.29,2.27,5.82.46,11.68.13,17.49,1.13a31.07,31.07,0,0,0,8.93.13c5.3-.65,10.54-1.79,15.82-2.62,6.94-1.09,13.9-2.09,20.85-3.11,5.3-.78,10.64-1.24,15.75-3.1,4.36-1.58,8.86-2.76,13.28-4.17a26.78,26.78,0,0,0,3.95-1.64c3.18-1.62,6.17-3.74,9.5-4.88a45.32,45.32,0,0,0,11.91-6.41c2-1.46,4.27-2.64,6.26-4.15a24.13,24.13,0,0,0,3.45-3.54c2.73-3.15,5.17-6.58,8.15-9.46,5.13-5,10.8-9.31,14.95-15.3,3.78-5.47,8.3-10.36,11.4-16.39,2.49-4.83,6.16-9,8.07-14.25,1-2.79,2.56-5.39,3.73-8.13q2.46-5.75,4.72-11.58a35.11,35.11,0,0,0,2.37-7.1,66.24,66.24,0,0,1,4.18-14.42,28.23,28.23,0,0,0,2.19-7.17c.87-8,4.59-15,7.07-22.46,2.37-7.13,4.71-14.28,6.73-21.51,2.25-8,4.1-16.2,6.16-24.3A10,10,0,0,1,425.94,281.17ZM236.53,65.54c6.69-9.24,13.47-18.41,20-27.73a73.07,73.07,0,0,0,5.49-9.61c1.18-2.36,2.72-3.83,5.67-3.84A14.5,14.5,0,0,1,268.5,36c-1.11,3.52-2.49,7-3.52,10.49a6,6,0,0,1-4.18,4.45c-4.92,1.48-8.73,4.78-12.8,7.66-3.92,2.77-7.86,5.5-12.2,8.54A11.19,11.19,0,0,1,236.53,65.54Zm-95.41-34a111.88,111.88,0,0,1,11.55-10.65c2.86-2.25,6.32-3.73,9.55-5.48,1.31-.71,2.72-1.06,3.89.36.94,1.16,1.27,3.88.57,5a7.39,7.39,0,0,1-1.29,1.7c-5.1,4.58-8.7,10.39-12.92,15.7-2.65,3.33-5.66,6.23-10.6,5.21-.77-.16-1.76.43-2.58.81-4.17,1.93-8.31,3.91-12.47,5.88l-.5-.68A152.62,152.62,0,0,1,141.12,31.54ZM161.3,459.28c-7.13-3-14.3-6-21.34-9.22a157.49,157.49,0,0,1-24.48-14c-9.54-6.65-16.94-15.39-24.55-24-7.32-8.25-11.52-18.08-13.61-28.76a107.51,107.51,0,0,1-2.14-18.46c-.14-7.5.49-15,1.08-22.52a135.88,135.88,0,0,1,3.91-21.42c1.49-6.11,2.62-12.31,4.07-18.43.9-3.8,2.17-7.52,3.13-11.31q2.51-9.87,4.83-19.78c.43-1.82.54-3.71.79-5.6,2.81.27,5.43.51,7.76-1.59-2.06-2.66-4.67-.22-7-1.22.16-1.07.25-2.23.51-3.34,1.65-7,3.29-13.91,5-20.83,1.4-5.52,3-11,4.43-16.49,1.39-5.18,2.71-10.37,4.14-15.53q1.72-6.19,3.66-12.32a51,51,0,0,0,2.54-19.06c-.12-1.78.17-3.59,0-5.37a92.84,92.84,0,0,0-1.05-10.28c-1.84-9.87-3.35-19.75-3.43-29.83a86.81,86.81,0,0,0-1.17-9.94c-1.15-9.25-1.75-18.58-.52-27.79,1.05-7.83,2.34-15.76,7-22.65,1.84-2.75,3-5.95,4.54-8.9s3-5.69,6.11-7.2,6.19-3.29,9.69-4.37a129.27,129.27,0,0,1,12.89-3.74c3.42-.68,5.53-3.46,7.34-6.36,1.12-1.81,2.47-3.48,3.9-5.47l1.75,1.93c2.38-.66,2.5-2.95,3.79-4.69l-2.68-1.45,6.44-5.72c.39,3.45.84,6,.93,8.57.18,4.75.14,9.52.23,14.28,0,2.49,2.17,4.88,5.06,5.89,6.3,2.19,12.86,3.72,19.07,6,9.6,3.47,19.76,5.7,28.53,11.39,2.14,1.39,4.91,2.67,7.33,2.55,2.92-.14,6.18-.88,8.42-3.34,4.22-4.64,10-7.23,14.76-11,3.33-2.63,7.18-3.62,10.85-5.15,2.3-1,3.66-2,3.6-4.57a2.42,2.42,0,0,1,.83-1.67c0,2.19.52,4.54-.1,6.54-2,6.6-2.61,13.33-2.81,20.16a8.58,8.58,0,0,1-1.16,4,4.71,4.71,0,0,0-.59,3.66,55.8,55.8,0,0,1,.43,6.38,181.39,181.39,0,0,1-1.41,32.16c-.77,6.52-1.39,13-.52,19.64.42,3.17,0,6.43.2,9.64.43,8,.83,16,1.53,23.94.27,3,1.29,6,2,9-1.39,1.54-4.34.49-4.83,3.11,1.52,2.1,3.46-.32,5.48.91l-.65,2.91.08-.09-1.27,4.08c.84,1.77,4.35-1.45,4.18,2.42l-2.67,1.75c.24,2.73,2.6.79,3.57,1.74-1.62,1.09-1.86,1.12-3.95.87-1.34-.16-2.81-1.13-4.11.89,2.83,2.51,6.72,1.22,9.85,2.58-1.72.87-3.29,1.62-5.2.5a5.53,5.53,0,0,0-3.12-.39c-.46,0-.84.87-1.77,1.92L273.41,207l2.48,6.9c-1,1.35-3.44-.1-3.76,2.2.45,1.48,1.76,1.29,2.91,1.37,2.34.18,2.34.17,3.42,2.91-4.27.25-7.89,2.17-11.48,4.14-.36.2-.36,1-.53,1.57,2,1.59,3.74.34,5.14-.35,1.9-.94,3.61-2.15,5.83-2.31.62,0,1.2-.67,1.82-1,2,1.72,4.35,5.55,6.25,10.13-.88.7-1.8,1.34-2.62,2.1s-1.4,1.49-2.27,2.43c3.18,2,4.35-1.54,6.64-1.6a18.7,18.7,0,0,1,.83,1.87c2.12,6.48,6,11.88,10.12,17.21,1.88,2.45,3.34,5.22,5,7.83,2.19,3.41,4.18,7,6.66,10.17,3.5,4.51,5.55,9.71,7.77,14.85.61,1.42,1.24,2.83,2,4.64-1.09.7-2.15,1.35-3.18,2-1.21.8-3.2,1-2.87,3.1.18,1.16,1.68,1,4.29-.61,1-.61,2-1.31,3.15-2.12l3.94,6.75c-2,.66-3.57,1.1-5.1,1.71-2,.82-2.1,1.43-.62,3.79l6.86-3.11a67.65,67.65,0,0,1,6.92,12.63c2,5,4.37,9.79,6.33,14.78a35.68,35.68,0,0,1,1.39,6.59c.1.57-.06,1.19,0,1.78.34,3.83.33,3.83-2.88,5.58a13.16,13.16,0,0,0-1.89,1.59c2,1.75,3.9.7,5.88.62,1.85,7.43,1.44,14.95,2.34,22.51-1.21.33-2.12.51-3,.81-1,.38-2.14,1-1.87,2.27.31,1.51,1.5,1.18,2.58.85a7.16,7.16,0,0,1,1.4-.08l.46,8.55a20.17,20.17,0,0,0-3.33.48c-.55.17-1.33.89-1.29,1.29a2.13,2.13,0,0,0,1.3,1.37,12.67,12.67,0,0,0,2.79.33c1.11,5,.3,9.83-.17,14.69-.82,8.49-5,15.58-9.12,22.73a12.21,12.21,0,0,1-2.35,2.67c-5.92,5.54-11.91,11-17.79,16.59A78.52,78.52,0,0,1,295,455.12c-7.12,3.62-14.13,7.54-21.84,9.79A49.26,49.26,0,0,1,262,467c-6.5.32-12.71,1.94-19,3.18a40.39,40.39,0,0,1-12.81.38,196.27,196.27,0,0,0-25-2,14.27,14.27,0,0,1-2.15-.09c-9.07-1.42-18.12-3-27.21-4.25C170.59,463.51,166,461.29,161.3,459.28ZM414.52,317c-1.89,6.27-4.25,12.41-6.73,18.47a92.41,92.41,0,0,0-4.55,14.65c-.79,3.47-2,6.83-3,10.25s-2,6.61-2.86,10a35.84,35.84,0,0,1-2.7,8.47c-1.92,3.68-3,7.79-4.78,11.57-3.08,6.58-5.84,13.32-10.2,19.25-2.31,3.15-4,6.74-6.11,10.07a38.81,38.81,0,0,1-2.9,3.58l-4.82-5.84-.7.26c-.06.72-.38,1.57-.12,2.15a19.64,19.64,0,0,0,2.37,4c1.28,1.64,1,2.76-1,3.85L362.46,421c-1.77,3.18-.85,5.47,3,8.59-2.14,4-5.57,6.75-8.79,9.76q-5.23,4.88-10.28,10c-1.08,1.09-1.84,2.49-2.82,3.69a11.67,11.67,0,0,1-2.41,2.55c-6.28,4.08-12,9.15-19.49,11.16a15.23,15.23,0,0,0-3.48,1.83,48.58,48.58,0,0,1-13.21,5.39c-3.11.75-6.07,2.12-9.13,3.11a41.79,41.79,0,0,1-5.86,1.55c-5.88,1-11.79,1.83-17.68,2.77-8.25,1.31-16.48,2.84-24.77,3.87-4,.49-8.09.14-12.13,0q-8-.28-16.07-.84c-9.41-.67-18.83-1.26-28.2-2.26a82.87,82.87,0,0,1-14-2.85c-6.19-1.78-9.94-6.34-12.11-12.25a7.84,7.84,0,0,1,.1-2.61c2.81.76,5.26,1.61,7.78,2.06,3.39.6,6.85.81,10.25,1.34,7,1.09,13.86,2.5,20.83,3.38,4.84.61,9.77.48,14.65.83,3.09.22,6.15.83,9.23,1.05a114.38,114.38,0,0,0,12.85.48c2.81-.12,5.57-1.3,8.39-1.75,5.75-.92,11.52-1.79,17.31-2.43a48.71,48.71,0,0,0,13.39-3.73A169.12,169.12,0,0,0,307.63,451c3.45-2.27,6.39-5.33,9.46-8.13,4.76-4.34,9.33-8.89,14.17-13.13,3.38-3,6.4-6.07,8.19-10.26,1.63-3.83,3.43-7.6,5-11.45a21,21,0,0,0,1-4.51c.41-2.47.86-4.95,1-7.44a81.1,81.1,0,0,0,.07-8.52,4.71,4.71,0,0,1,3-4.77,34.52,34.52,0,0,0,11.66-9.72c7.82-9.69,13.69-20.59,19.36-31.62,7.11-13.82,11.25-28.65,14.84-43.61a191.59,191.59,0,0,0,5.32-33.21c.15-2.5.8-5,.82-7.46.06-8-.05-16-.11-24,0-4.65.09-9.31-.19-13.94a40.88,40.88,0,0,0-1.56-8.06,113.18,113.18,0,0,0-3.68-12c-3.26-8.29-5.59-17.09-11.91-23.85a9.81,9.81,0,0,1-2.63-7.87,49.53,49.53,0,0,1,1-7.44c.69-2.85,2.12-3.82,5-3.42,5.73.83,10.65,3.22,14.23,7.91-.36,2.15-2.24,3.71-2.18,5.85l.74.41,3.28-4.49,1.93,3.43,0-.1a27,27,0,0,1,6.85,11.53c1.83,6.29,4.44,12.39,5.9,18.75,2.29,10,5.24,19.87,5.09,30.29-.07,5.13.25,10.27.4,15.41,0,.48-.11,1.06.12,1.41,2.11,3.26,1.48,6.94,1.58,10.47.13,4.54-.14,9.1.1,13.63.33,6.14-1.88,11.74-3.32,17.49C419.83,298.18,417.34,307.65,414.52,317Z"/><path class="cls-1" d="M198.33,150.67l-1.1,4.29c1.61-.62,2.57-.93,3.48-1.35,2.44-1.12,2.44-1.14,3.94,1.77a13,13,0,0,1-9.32,2.58c-2-.17-4.73-3-5-5-.18-1.32.59-1.78,1.71-1.55a9.39,9.39,0,0,1,2.1,1c1.16-1.15,1.21-2,.17-3.18-1.95-2.23-2-2.47-.18-4.82,1.68-2.13,1.82-4.38,2-6.92.24-4.39,1-8.75,1.52-13.13.16-1.37.22-2.75.32-4-2.63-.51-5-.51-6.92-1.48a27.48,27.48,0,0,0-5.91-2.3c-2.07-.52-4.39-.68-6.13-1.75-4.3-2.66-8-6.05-9.24-11.28a4.25,4.25,0,0,0-.22-.67c-1.34-3.1-1-3.61,2-4.77s5.66-.28,8.45.21c3.29.59,6.53,1.46,9.83,1.92a11.36,11.36,0,0,1,8.35,5.54c1.83,2.91,3.47,5.94,5.33,9.15-2,1.49-2.1,3.77-2.44,6-.45,2.94-1.38,5.83-1.68,8.78-.48,4.62-.58,9.27-.89,13.9-.15,2.22,1.48,2.71,3.32,3.53.79-1.79,1.44-3.55,2.31-5.2,3.75-7.2,7.43-14.43,11.41-21.5a46.42,46.42,0,0,1,5.53-7,5.58,5.58,0,0,1,4.43-1.83,20,20,0,0,0,6.61-1.33c4.25-1.66,8.07,0,11.68,1.57,1.52.66,2.31,3.16,3.23,4.92.19.37-.39,1.3-.81,1.8a51,51,0,0,1-4.78,5.28,14.53,14.53,0,0,1-4.29,2.44c-2.2.88-4.59,1.29-6.74,2.27s-4.23.54-6.22-.28c-2.72-1.11-5.36-2.4-8.1-3.65a70.85,70.85,0,0,0-10.26,19.34c-.66,1.89-1,3.9-1.78,5.74a3.06,3.06,0,0,1-2,1.51C201,151.32,199.88,150.91,198.33,150.67Zm-25.47-50.25c-.62,6.11,5.92,12.81,11.8,12.44l3.44-10.13C182.67,102.35,178,99.86,172.86,100.42ZM217.57,121c3.13,2.81,6.92,3.6,10.62,5.14.79-4.21,1.39-8,.75-11.84C223,112.76,220.53,116.65,217.57,121Zm15-7.73c.85,3.41-.74,7.06.66,11,2.2-1.4,5-.34,6.64-3.08,1.33-2.19,3.73-3.82,1.78-6.78C238.83,113.14,236.14,110.78,232.6,113.23Zm-43.15,1.25c1.59.71,3.22,1.82,5,2.17,3.16.62,4.66-1,3.78-4.06a22.86,22.86,0,0,0-2.84-5.69c-.91-1.44-1.95-3-4.21-3.24Z"/><path class="cls-1" d="M234.34,85.88c.4.74,1.12,1.46,1.14,2.21.06,2.13-.32,4.26-.23,6.39a3.05,3.05,0,0,1-2.4,3.46c-1,.31-2.1.46-3.13.76-1.75.51-3.47,1.08-5.69,1.78-1.81-1.57-2.59-4.38-3.57-6.94-.43-1.12.36-2.71.62-4.19,2.43,0,4.64.15,6.81,0s4.41-.94,5.53-3.38Z"/><path class="cls-1" d="M187.49,91.15c3.06-2.69,4-7.37,8.83-6.45l3.24,5.69a13.31,13.31,0,0,1-1,1.24,13.39,13.39,0,0,0-2.14,2c-1.86,3.07-3,3.28-5.69.72C189.71,93.44,188.75,92.43,187.49,91.15Z"/><path class="cls-1" d="M275.26,232.75l2.33-3.43-4-.88c.6-.86.88-1.74,1.43-2a16.24,16.24,0,0,1,4-1.07c.2,0,1,1.35.79,1.55-.94,1.17-.26,1.83.33,2.85.76,1.31-.05,2.41-1.29,3.23C277.17,234.13,277.21,234.19,275.26,232.75Z"/><path class="cls-1" d="M288.69,297.91a4.63,4.63,0,0,1-1.76,0,8.92,8.92,0,0,1-1.76-1.37c.53-.5,1-1,1.61-1.5s1-.62,1.46-1c1.27-1.23,5.59-.42,5.93,1.24a2.19,2.19,0,0,1-1,1.88,30.67,30.67,0,0,1-4.46,1Z"/><path class="cls-1" d="M337.51,383.18c-.68.47-1.31,1.24-2,1.35a43.45,43.45,0,0,1-6.69.56,3.78,3.78,0,0,1-2.27-1.26c-.21-.21.25-1.65.51-1.68,3.43-.42,6.89-.74,10.25.16Z"/><path class="cls-1" d="M307.74,308.77c-.59,0-1.29.14-1.74-.13a2.56,2.56,0,0,1-1.1-1.54,1.55,1.55,0,0,1,.93-1.23c1.87-.21,3.64-.43,5-2,.23-.25,1.71.14,2,.62a2.38,2.38,0,0,1-.1,2.21A5.36,5.36,0,0,1,307.74,308.77Z"/><path class="cls-1" d="M318.92,362a18.61,18.61,0,0,1-8,.93c-.68-.09-1.25-1.12-1.87-1.71a6.46,6.46,0,0,1,1.95-1.13C313.67,359.71,316.48,358.81,318.92,362Z"/><path class="cls-1" d="M310.09,369.95c0-1.8.55-2.61,2.08-2.58,2.33,0,4.67,0,7.14,0,.91,1.62-.15,2.52-1.47,2.76C315.33,370.58,312.73,371.09,310.09,369.95Z"/><path class="cls-1" d="M193.26,465c-2.68-2.07-3.39-5.06-4.15-8-.26-1,1-1.72,1.91-1.19a2.62,2.62,0,0,1,1.25,1.19A16.68,16.68,0,0,1,193.26,465Z"/><path class="cls-1" d="M298.41,301.92a12.15,12.15,0,0,1-2.73,2.13,16.84,16.84,0,0,1-4.51.9,2.13,2.13,0,0,1-1.56-1c-.19-.34.15-1.44.44-1.52,2.25-.62,4.54-1.12,6.83-1.55C297.19,300.79,297.61,301.35,298.41,301.92Z"/><path class="cls-1" d="M308,351.77c3.69-2.43,7.78-2.45,9.5-.23C314.33,353.81,310.23,354,308,351.77Z"/><path class="cls-1" d="M335.79,374.86c-.24,1-.18,1.79-.53,2.11-.93.87-6.21.8-7.21-.1a2.12,2.12,0,0,1-.66-1.76,2,2,0,0,1,1.61-1C331.12,374.26,333.23,374.57,335.79,374.86Z"/><path class="cls-1" d="M298.78,294.64c0-3.41.48-4,3.18-3.79.35,0,.7,0,1.06,0,1.33,0,2.89,0,2.88,1.79,0,1.49-1.46,1.63-2.68,1.71Z"/><path class="cls-1" d="M292,287.64c-.38.63-.62,1.6-1.16,1.82a37.8,37.8,0,0,1-6.07,1.83c-.54.11-1.27-.67-1.91-1,.45-.61.79-1.61,1.37-1.77,2.36-.68,4.79-1.11,7.19-1.63Z"/><path class="cls-1" d="M300,313.45a8.85,8.85,0,0,1-7.78,2.27,1.88,1.88,0,0,1-1.12-1.12c-.11-.29.23-.91.54-1.19C293.08,312.12,297.63,312,300,313.45Z"/><path class="cls-1" d="M105.17,385.46c-.26.84-.29,1.73-.61,1.85-2.31.9-4.67,1.68-7,2.41-.26.08-1-.48-1-.71,0-.63.19-1.58.62-1.8A14.1,14.1,0,0,1,105.17,385.46Z"/><path class="cls-1" d="M318.7,380.24c-.54.86-.82,1.89-1.33,2a25.54,25.54,0,0,1-5.54.78c-.53,0-1.08-1-1.62-1.51.52-.52,1-1.39,1.57-1.5A11.7,11.7,0,0,1,318.7,380.24Z"/><path class="cls-1" d="M298.51,306.68c-.37.83-.54,1.95-1,2.07a50.6,50.6,0,0,1-6.56,1.3c-.32,0-.9-.66-1.07-1.12-.09-.24.38-1,.71-1C293,307.2,295.38,305.76,298.51,306.68Z"/><path class="cls-1" d="M300.2,299.12c2.26-.68,4.13-1.3,6-1.77a1.73,1.73,0,0,1,1.49.49,1.87,1.87,0,0,1,.12,1.61c-.87,1.88-5.79,2.63-7.23,1.11C300.33,300.27,300.36,299.71,300.2,299.12Z"/><path class="cls-1" d="M326.1,368.25c2.4-1.47,4.8-1.06,7.08-1.09,1,0,1.55,1.71.71,2.06a17.53,17.53,0,0,1-4.7,1.1A2.54,2.54,0,0,1,326.1,368.25Z"/><path class="cls-1" d="M325.72,354.46c-.24,0-.55.1-.7,0-.58-.46-1.1-1-1.65-1.48.46-.46.85-1.17,1.4-1.33a23,23,0,0,1,4.5-.9,2,2,0,0,1,1.64.86,1.91,1.91,0,0,1-.78,1.7,37.42,37.42,0,0,1-4.33,1.43Z"/><path class="cls-1" d="M315.94,374.09c.79.08,2.67-.87,2.86,1,.21,2-1.85,1.69-3.17,1.92a8.66,8.66,0,0,1-1.78.13c-1.14,0-2.26-.32-2.17-1.76.08-1.18,1-1.5,2.08-1.43Z"/><path class="cls-1" d="M315.56,289.16c-.06,1.95-4.17,4.24-5.8,3.14-.37-.25-.61-1.51-.38-1.7a21.21,21.21,0,0,1,4-2.8A1.48,1.48,0,0,1,315.56,289.16Z"/><path class="cls-1" d="M217.22,464.27c-1.23-2.6-.1-4.88,0-7.12,0-.25,1-.71,1.4-.62a1.69,1.69,0,0,1,1.09,1.14C220,460,219.9,462.37,217.22,464.27Z"/><path class="cls-1" d="M200.6,464.09c-2.87-1.8-2.67-3.89-2.56-5.79a2.21,2.21,0,0,1,1.64-1.42c.49,0,1.44,1,1.45,1.52A48.38,48.38,0,0,1,200.6,464.09Z"/><path class="cls-1" d="M334.65,352.78c.27-.84.35-1.93.69-2,2.11-.54,4.27-1.22,6.5-.48C341.12,353.35,340.43,353.6,334.65,352.78Z"/><path class="cls-1" d="M110.83,268.88c-.55.46-1,1.19-1.66,1.31a9.32,9.32,0,0,1-3.17-.07c-1.17-.19-2.63-.54-2.32-2.09s1.62-1,2.66-.76c1.36.27,2.73.49,4.1.73Z"/><path class="cls-1" d="M103.47,378c-.74,1.2-1,2.18-1.49,2.32a28.16,28.16,0,0,1-5.14.86c-.36,0-1.16-.78-1.1-1.05.14-.58.64-1.44,1.11-1.52C98.78,378.29,100.76,378.22,103.47,378Z"/><path class="cls-1" d="M210.19,464.13c-2.6-2.15-1-4.38-.72-6.47a1.5,1.5,0,0,1,2.33,1A5,5,0,0,1,210.19,464.13Z"/><path class="cls-1" d="M272.74,217.79c-1.81,3-4.08,4.09-6,3.38a1.77,1.77,0,0,1-1-1.22c0-.45.46-1.27.84-1.34C268.37,218.25,270.19,218.1,272.74,217.79Z"/><path class="cls-1" d="M335.83,365.14c1.32-2.4,3.64-2,5.41-2.67.27-.11,1.11.5,1.22.9a1.7,1.7,0,0,1-.49,1.53C340.12,366,338.16,366.75,335.83,365.14Z"/><path class="cls-1" d="M102.08,272.84c3.28-.16,5.77-.55,8.07,1.62-2.15,1.76-4.27,1.1-6.24.77C103.33,275.13,102.93,274,102.08,272.84Z"/><path class="cls-1" d="M103.13,278.92l5.22.65c.88,1.15,0,1.82-1,2.31a3.91,3.91,0,0,1-4.62-.67C102.08,280.45,102.12,280.31,103.13,278.92Z"/><path class="cls-1" d="M313.14,283.86c-2.41,2.16-4.5,1.87-6.47,1.88-.39,0-.93-.64-1.11-1.09-.12-.31.19-1.12.44-1.18a19.17,19.17,0,0,1,4.19-.7C311,282.76,311.78,283.33,313.14,283.86Z"/><path class="cls-1" d="M104.15,356.21a7.2,7.2,0,0,1,2.32-.81,10.59,10.59,0,0,1,3.12.71c.9.3,2.07.79,1.38,1.94a2.73,2.73,0,0,1-2.36.71,29.82,29.82,0,0,1-4.3-1.53Z"/><path class="cls-1" d="M328.72,364a7.53,7.53,0,0,1-1.78-.4c-.37-.18-.83-.7-.8-1a1.89,1.89,0,0,1,.75-1.42,8.48,8.48,0,0,1,3.08-.68c.67,0,1.35.56,2,.87a8.21,8.21,0,0,1-1.31,2.19C330.24,363.91,329.37,363.84,328.72,364Z"/><path class="cls-1" d="M116.92,281.19c-3.57,2-6.88,1.24-7.3-1.93l7.37,1.09Z"/><path class="cls-1" d="M146.66,122.28l-6.42,1c.6-3.11,2.55-3.49,4.91-3.88Z"/><path class="cls-1" d="M127.41,213.37c-.39.56-.71,1.51-1.21,1.63-2.23.52-3.51-1.27-5.2-2,.43-1.63,1.13-2.14,2.39-1.56S125.81,212.58,127.41,213.37Z"/><path class="cls-1" d="M117.73,210.15c-.92,1.77-2.16,1.61-3.22,1.06a21.11,21.11,0,0,1-3.34-2.44c-.11-.09,0-.81.22-.91.47-.24,1.16-.54,1.55-.36C114.51,208.25,116,209.18,117.73,210.15Z"/><path class="cls-1" d="M110.57,284.7l4.55,1.77c-.67,2-1.84,2.81-3.55,2.36S109.75,287.5,110.57,284.7Z"/><path class="cls-1" d="M265.21,229.82c1.82,1.93,1.81,2.6-.31,3.43a7.44,7.44,0,0,1-3,.38c-.36,0-.91-.78-1-1.23a1.69,1.69,0,0,1,.77-1.36A33,33,0,0,1,265.21,229.82Z"/><path class="cls-1" d="M254.7,217.5c1.78-1.69,1.78-1.69,6-1.32a1.39,1.39,0,0,1-.83,2.22C258.12,219,256.36,219.31,254.7,217.5Z"/><path class="cls-1" d="M335.37,357.13c1.91-.47,3.46-.92,5-1.19a1.67,1.67,0,0,1,1.41.68,1.88,1.88,0,0,1-.14,1.62C340.59,359.87,336.89,359.39,335.37,357.13Z"/><path class="cls-1" d="M303.19,287.51c-1.64.51-3.27,1.1-4.94,1.49a1.57,1.57,0,0,1-1.37-.7c-.17-.41.05-1.38.37-1.52a10.25,10.25,0,0,1,3.27-.91,11,11,0,0,1,2.74.43Z"/><path class="cls-1" d="M119.08,274.3c-3.7,1.2-4.8.82-5.67-1.94C116.93,271.35,118.32,271.83,119.08,274.3Z"/><path class="cls-1" d="M129.81,203c-1.52,2.76-3.11,2.77-6,.24C125.31,201.69,126.18,201.63,129.81,203Z"/><path class="cls-1" d="M264.87,227c-1,2.32-4,3.46-5.59,2.25a1.33,1.33,0,0,1,.5-2.28A6,6,0,0,1,264.87,227Z"/><path class="cls-1" d="M256,221.67a38.54,38.54,0,0,1,4.64-.66c1,0,1.63,1,.88,1.7a5.71,5.71,0,0,1-3.1,1.19C257.34,224,255.92,224,256,221.67Z"/><path class="cls-1" d="M112.46,369c1.06,1.81.14,2.87-1.1,3.27a5.74,5.74,0,0,1-3.68-.06c-.84-.35-.52-1.52.47-1.89C109.45,369.84,110.82,369.5,112.46,369Z"/><path class="cls-1" d="M118.74,217.39c1.62-1.75,2.15-1.64,5.52,1.18C122.19,220.87,121.28,220.68,118.74,217.39Z"/><path class="cls-1" d="M127.05,207.69c-1.07,2.79-2.14,2.88-5.37.47C122.95,206.17,123.69,206.11,127.05,207.69Z"/><path class="cls-1" d="M303.25,278.25c1.64-2.8,3.69-3.32,6.38-1.85C307.72,278.51,306.52,278.88,303.25,278.25Z"/><path class="cls-1" d="M255.91,210.78a5.71,5.71,0,0,1,1.78-.4,5.35,5.35,0,0,1,1.7.74c-.35.55-.6,1.46-1.06,1.58a11.67,11.67,0,0,1-3.79.29c-.49,0-.91-.87-1.36-1.34.6-.37,1.19-.78,1.82-1.1C255.14,210.47,255.43,210.65,255.91,210.78Z"/><path class="cls-1" d="M101.94,288.8c2,.26,1.92,3.19,4.32,1.29-.53,2.59-1.86,3-3.33,2.74-.75-.15-1.81-.94-1.91-1.58C100.9,290.47,101.63,289.55,101.94,288.8Z"/><path class="cls-1" d="M121.26,189.18c.52,1.3-.38,1.94-1.46,2.19-1.81.43-3.55.36-4.75-2.19Z"/><path class="cls-1" d="M160.9,37.39a31.36,31.36,0,0,1-1.52,3.83c-.27.48-1.36,1.07-1.55.92a2.88,2.88,0,0,1-1.16-1.84C156.6,38.4,157.93,37.44,160.9,37.39Z"/><path class="cls-1" d="M264.31,215.53c.11-1.63,1-2.09,2.19-2s2.29.32,3.43.49c-.15.68-.11,1.8-.5,2A4.55,4.55,0,0,1,264.31,215.53Z"/><path class="cls-1" d="M106,364.68c1-2.87,3.31-1.79,5.21-2.12C111,365.77,109.87,366.22,106,364.68Z"/><path class="cls-1" d="M108.73,379.41c1.22-2.36,3.27-2.55,5.59-2.52C113.2,380.17,111.61,380.89,108.73,379.41Z"/><path class="cls-1" d="M293.81,280.41c2.13-1.12,3.61-2,5.18-2.65a1.54,1.54,0,0,1,1.37.64,1.84,1.84,0,0,1-.3,1.57C298.88,281.45,297.12,281.67,293.81,280.41Z"/><path class="cls-1" d="M259.47,191.82c-2.12,1.47-3.7.3-5.27-.32a1.58,1.58,0,0,1-.56-1.43c.33-.47,1.15-1,1.58-.93C256.76,189.58,258.47,189.88,259.47,191.82Z"/><path class="cls-1" d="M121.87,183.88a1.88,1.88,0,0,1-2.4,1.69,10.83,10.83,0,0,1-3.11-1.41c-.24-.14-.33-.92-.17-1.24a1.31,1.31,0,0,1,1.12-.57C118.86,182.79,120.36,183.36,121.87,183.88Z"/><path class="cls-1" d="M238.1,149.29a23.35,23.35,0,0,1-2.72-2.61c-.32-.41-.28-1.68,0-1.83a2.52,2.52,0,0,1,2.11-.11C239.58,145.94,239.78,147.28,238.1,149.29Z"/><path class="cls-1" d="M140.94,128.1l2.45-3.47,3.29,1.89C145.65,129.23,143.76,128.38,140.94,128.1Z"/><path class="cls-1" d="M252.11,201.84c3.25-1.47,4.53-1.09,5.59,1.44C254.88,204.13,254.44,204,252.11,201.84Z"/><path class="cls-1" d="M118.31,204.78c-2.85.67-5.07,1.16-6.72-1.32C113.43,202,115.45,202.27,118.31,204.78Z"/><path class="cls-1" d="M252.29,205.9c1.95-1.2,3.54-.59,5.08-.14a1.33,1.33,0,0,1,.58,1.14,1.4,1.4,0,0,1-.89,1C255.25,208.16,253.5,208.11,252.29,205.9Z"/><path class="cls-1" d="M254.15,66.65c-.67,1.3-1.24,2.53-1.95,3.67a1.42,1.42,0,0,1-1.21.48,1.46,1.46,0,0,1-.94-.88C249.51,68,251.59,66.18,254.15,66.65Z"/><path class="cls-1" d="M119.94,197.92c.36,1.87-.38,2.52-1.59,2.48-1.58-.06-3.26-.18-3.93-2.29C116.51,196.56,118.2,198.59,119.94,197.92Z"/><path class="cls-1" d="M265.26,53.86c1.43,1.95.94,3.33-1.7,4.79C262.45,55.87,262.54,55.61,265.26,53.86Z"/><path class="cls-1" d="M326.83,309.39c1.08,1.58.62,2.45-.34,2.82a5.86,5.86,0,0,1-3,.35c-.94-.18-.93-1.8.07-2.26A20.21,20.21,0,0,1,326.83,309.39Z"/><path class="cls-1" d="M101.68,285l5.43,1.18c-1.53,1.7-3.21,2.17-4.72,1.48C101.22,287.09,100.82,286.25,101.68,285Z"/><path class="cls-1" d="M167.5,30.63c1.69,2.52-.29,3.84-1,6-.79-.89-1.61-1.42-1.54-1.8C165.26,33.31,165.51,31.64,167.5,30.63Z"/><path class="cls-1" d="M108.74,214.93c1.72-1.68,3.21-.69,4.62-.43a1.54,1.54,0,0,1,.8,1.29,1.61,1.61,0,0,1-1.1,1.08A4.08,4.08,0,0,1,108.74,214.93Z"/><path class="cls-1" d="M162.94,43.79c-1.82-2.41-1.44-3.58,1.62-5.76C166.51,40.77,163.36,41.72,162.94,43.79Z"/><path class="cls-1" d="M256,62c-1.54-2.51-1-4.38.9-4.72a1.38,1.38,0,0,1,1.19.42,1.94,1.94,0,0,1,.14,1.58A23.61,23.61,0,0,1,256,62Z"/><path class="cls-1" d="M249.85,65.38a37.72,37.72,0,0,1-2.46,3.5,1.78,1.78,0,0,1-1.54.18c-.27-.09-.51-.79-.48-1.2C245.5,66.1,246.81,65.23,249.85,65.38Z"/><path class="cls-1" d="M252.38,195.55a4.26,4.26,0,0,1,4.94,1.33c-.13,1.27-.86,1.89-1.89,1.47C254.17,197.83,252.24,197.86,252.38,195.55Z"/><path class="cls-1" d="M265.7,211.7c-1-.67-2.36-1.11-2.38-1.61-.1-1.81,1.57-1.43,2.62-1.43.65,0,1.31.66,2,1Z"/><path class="cls-1" d="M125.94,196.71c.46-2.07,1.21-3,3-2,.87.5,1.72,1.21,1,2.21C128.65,198.89,127.4,197.33,125.94,196.71Z"/><path class="cls-1" d="M244.17,146.81c-.48.27-.74.53-.89.48-1.19-.39-2.85-.35-2.71-2.21,0-.5.87-1.37,1.26-1.32C243.46,143.94,244.37,144.92,244.17,146.81Z"/><path class="cls-1" d="M258.53,72.39c-1-2.21-.89-3.46.47-4.19a1.53,1.53,0,0,1,1.3-.11c.39.31.84,1,.75,1.39C260.73,70.84,260.21,72.17,258.53,72.39Z"/><path class="cls-1" d="M262.09,59.77l-2.23,4a2.09,2.09,0,0,1-1.28-3.07C259,59.64,260.09,59,262.09,59.77Z"/><path class="cls-1" d="M127.34,186.68a9,9,0,0,1,2.73-1.16c.57,0,1.22.81,1.84,1.27-.55.47-1.07,1.25-1.67,1.33a8.7,8.7,0,0,1-2.67-.47Z"/><path class="cls-1" d="M264.18,196.05c-1.77-.39-2.87-.55-3.92-.89-.34-.11-.81-.75-.73-1a2,2,0,0,1,1-1.2C261.86,192.55,262.83,193.28,264.18,196.05Z"/><path class="cls-1" d="M155.52,48.64c-1.72,0-2.11-.88-1.83-1.87a3.63,3.63,0,0,1,1.48-2.19c.91-.44,1.63.38,1.44,1.37A14.32,14.32,0,0,1,155.52,48.64Z"/><path class="cls-1" d="M128.4,190.09l4,.84C130.53,193.13,129.81,193.06,128.4,190.09Z"/><path class="cls-1" d="M260.36,74.1c1.47,2,.72,3.1-.7,3.85a1.29,1.29,0,0,1-1.14-.52C257.73,75.63,258.93,74.94,260.36,74.1Z"/><path class="cls-1" d="M254.6,72.62c1.6,2.38.28,3.18-.8,4a1,1,0,0,1-.94-.16c-.26-.33-.57-1-.41-1.23A26.28,26.28,0,0,1,254.6,72.62Z"/><path class="cls-1" d="M159.87,50.45c-.67-.95-1.46-1.65-1.33-2a8.23,8.23,0,0,1,1.64-2c.44.44,1.32,1,1.24,1.31A11.77,11.77,0,0,1,159.87,50.45Z"/><path class="cls-1" d="M254.42,70.6c-.32-2.19.15-3.35,1.54-3.42a1.58,1.58,0,0,1,1.25.84C257.6,69.32,256.67,70.11,254.42,70.6Z"/><path class="cls-1" d="M266,188.5c-1.39.72-2.8,1.91-4.44-.57a14.15,14.15,0,0,1,3.23-1.12c.32,0,.76,1.15,1.14,1.78Z"/><path class="cls-1" d="M243.51,74.16c-1.81-1.29-1.12-2.33-.3-3.19a1.6,1.6,0,0,1,1.54-.12,1.51,1.51,0,0,1,.4,1.44A9.78,9.78,0,0,1,243.51,74.16Z"/><path class="cls-1" d="M250.93,73.65l-1.37,2.68c-1.63-.33-1.82-1.27-1.43-2.17S249.4,72.45,250.93,73.65Z"/><path class="cls-1" d="M261.72,65.73c-.36-1.17-.62-2.32,1-2.73.32-.08,1.14.52,1.19.87C264.08,65.34,263.36,66,261.72,65.73Z"/><path class="cls-1" d="M352.52,441.75c-.87-.38-1.86-.52-2-.92-.8-2.63-3.09-4.82-2.63-7.89C351.32,433,353.09,436.28,352.52,441.75Z"/><path class="cls-1" d="M357.74,426.1c.82.43,1.42.53,1.62.88a39.35,39.35,0,0,1,2.48,5c.15.38-.51,1.44-1,1.61a2,2,0,0,1-1.72-.77,23.37,23.37,0,0,1-2-4.53C356.92,427.71,357.47,426.94,357.74,426.1Z"/><path class="cls-1" d="M377.37,350c2.3-1.05,3.83-.51,4.56,1.22.58,1.36,2.71,2.76.36,4.79Z"/><path class="cls-1" d="M375.4,367.49c-1.18-1.36-2.55-2.79-3.72-4.38-.27-.37.13-1.25.23-1.89.55.1,1.29,0,1.63.32a27.87,27.87,0,0,1,3.1,3.46C377.34,365.95,377,366.8,375.4,367.49Z"/><path class="cls-1" d="M386.41,347.57l-4.68-5.33c1.08-1.58,2.31-1,3.45-.35C386.88,342.91,387.42,344.5,386.41,347.57Z"/><path class="cls-1" d="M368.45,366.82c1.43.58,2.88,1.05,4.22,1.73a1.14,1.14,0,0,1,.27,2c-1.35,1-2.73.29-4-.46S367.17,368.33,368.45,366.82Z"/><path class="cls-1" d="M376,354.31c2.42,0,3.87,1.55,5.21,3.12a1,1,0,0,1-.8,1.79,5.53,5.53,0,0,1-2.63-1.48C376.82,356.92,375.19,356.34,376,354.31Z"/><path class="cls-1" d="M356.15,437.11c-1.11-.84-2-1.21-2.38-1.87a10.6,10.6,0,0,1-.92-3.3c0-.26.57-.87.89-.88a2.56,2.56,0,0,1,1.57.55C356.06,432.23,356.41,434.33,356.15,437.11Z"/><path class="cls-1" d="M409.44,303.44a11.45,11.45,0,0,1,6.29,1.66c.28.14.19,1,.33,1.94C413.35,306.56,411.06,306.2,409.44,303.44Z"/><path class="cls-1" d="M395.1,167.23a11.53,11.53,0,0,1-1,1c-.15.12-.43.09-.91.18-.28-2.49-.73-4.93,1.35-7.53a14.46,14.46,0,0,1,.45,6.46Z"/><path class="cls-1" d="M408.29,309.74c.95-.44,1.54-1,2.07-.92a5.33,5.33,0,0,1,4,2.41C412.38,312.66,411.91,312.56,408.29,309.74Z"/><path class="cls-1" d="M407.86,240.58c-3.82,2.18-3.88,2.18-5.12-.26C406.78,238.9,406.78,238.9,407.86,240.58Z"/><path class="cls-1" d="M403.68,179.21c.06-2.66,2.5-3.34,3.59-5.5C407.58,176.95,406.76,178.13,403.68,179.21Z"/><path class="cls-1" d="M404.07,233.72l3.8-.67c-.17,2.09-1.11,3.31-2.55,3.36C404.35,236.44,404.06,235.85,404.07,233.72Z"/><path class="cls-1" d="M395,167.33l2.22-3.08c1.18,1.54.79,3.15-1.45,5.71-.27-1.07-.48-1.91-.69-2.74Z"/><path class="cls-1" d="M405.48,169.72c-.79,1.64-1.24,3.53-3.34,4.51-1.09-2.59,1.82-3.44,1.69-5.76l1.69,1.34Z"/><path class="cls-1" d="M390.31,160.76c1.85,2.38,1.78,3-.39,5.44C388.8,164.19,390.74,162.57,390.31,160.76Z"/><path class="cls-1" d="M413,298.09c3.33-.67,3.33-.67,4.76,1.38A3.66,3.66,0,0,1,413,298.09Z"/><path class="cls-1" d="M406.56,222c-.08,2.1-1.3,3.24-3.43,4.37A4.86,4.86,0,0,1,406.56,222Z"/><path class="cls-1" d="M420.52,286.23c-1.2,1.71-2.41,1.7-3.53.85a1.87,1.87,0,0,1,.07-1.75C418.34,284.54,419.34,285.37,420.52,286.23Z"/><path class="cls-1" d="M404.21,245.36l3.41,2.37C404.83,249,404.43,248.74,404.21,245.36Z"/><path class="cls-1" d="M407.38,227.59c0,3.56-.19,3.69-3.82,3Z"/><path class="cls-1" d="M405.53,217.15c-.08,1.82-.94,2.87-3,3.18C402.75,218.25,404.16,217.71,405.53,217.15Z"/><path class="cls-1" d="M415,292.68a5.71,5.71,0,0,1,2,.06c.49.2.78.87,1.15,1.34-.59.23-1.25.75-1.74.62-.66-.17-1.18-.85-1.76-1.32Z"/></svg>