<svg id="trace" xmlns="http://www.w3.org/2000/svg" viewBox="0 0 500 500"><defs><style>.cls-1{fill:#fff;stroke:#fff;stroke-miterlimit:10;stroke-width:0.75px;}</style></defs><title>meowshow-2</title><path class="cls-1" d="M481.29,149.1c-.18-.51-.53-1-.76-1.46-1-2.07-4.64-2.72-6.42-1.25-2.7,2.23-5.41,4.47-8.27,6.49s-6.23,3.84-9.2,6c-5.68,4-11.22,8.24-16.87,12.31a28.29,28.29,0,0,1-4.3,2.47c-3.54,1.7-7.21,3.13-10.41,5.47a11.85,11.85,0,0,1-5.45,2.35c-2.8.39-5.58.94-8.37,1.4-1.22.2-2.46.4-3.69.49-3.72.29-7.46.34-11.14.84a13.92,13.92,0,0,1-8.28-1,4.73,4.73,0,0,0-2-.35,81.66,81.66,0,0,0-8.26.2,40.2,40.2,0,0,1-13.91-1.35c-2-.5-4-1.21-6.07-1.81-2.5-.74-5-1.39-7.51-2.22-1.66-.56-3.07-1.93-5-1.44-2.36-1.18-4.95-1.22-7.49-1.48-1.09-.11-2-.33-2.43-1.54a1.78,1.78,0,0,0-1.45-.86c-1.41.16-2.16-.68-3-1.52a28,28,0,0,1-4.45-6.19c-2-3.65-5.08-6.51-7.87-9.56-3-3.3-6.24-6.44-9.4-9.61a6.58,6.58,0,0,0-1.73-1.1c-.92-.46-1.87-.87-2.83-1.27a27.91,27.91,0,0,0-3.27-1.25c-2.11-.57-4.25-1-6.37-1.52-.26-.78,0-2-1.24-1.86a4,4,0,0,0-3.25,1.46c-2,2.56-4.21,4.89-5.19,8.08-.1.31-.45.54-.58.85-.73,1.77-1.87,3.52-2,5.35a69.28,69.28,0,0,1-1.26,7.94,17.67,17.67,0,0,0-.11,7,19,19,0,0,1,.28,6.79c-.76,4.56-1.43,9.14-2.1,13.72-.31,2.12-.46,4.26-.81,6.37-.63,3.81-1.36,7.61-2,11.41-.48,2.71-.91,5.43-1.38,8.15a3.45,3.45,0,0,0,2,4.06c.72.37,1.42.34,1.69-.51a10.55,10.55,0,0,0,.36-2.41c0-.54-.17-1.1-.1-1.63.35-2.87.72-5.74,1.16-8.6.38-2.46.93-4.88,1.29-7.34.47-3.26.83-6.53,1.22-9.8.21-1.77.33-3.54.57-5.3.44-3.07,1.07-6.12,1.37-9.2a50.41,50.41,0,0,0-.13-6.15c1.16.48,1.52,2.12,3.11,2l.45-1.38c-.61-1.51-1.54-2.77-1.52-4,0-1.58-.36-2.52-1.77-2.95.25-2.41.53-4.66.69-6.92a6.17,6.17,0,0,1,2.15-4.74c1.05.93,2,1.91,3.13,2.73a55.93,55.93,0,0,0,6.27,4.37,34.86,34.86,0,0,0,6.31,2.46,19.88,19.88,0,0,1,7.72,5c1.89,1.81,4,3.34,5.9,5.19,1.54,1.54,3.55,2.61,4.63,4.66.64,1.21,1.87,1.5,3.22,1.47,2.2-.05,4.41,0,6.62,0a5.74,5.74,0,0,1,1.36.42,48.66,48.66,0,0,0,4.77,1.35c1.55.29,3.19.13,4.73.44a52.78,52.78,0,0,1,5.77,1.59c1.3.41,2.52,1.09,3.82,1.48,2.31.68,4.68,1.19,7,1.86,5.39,1.55,10.83,2.7,16.48,2.36,1.79-.11,3.57-.35,5.36-.52a17.44,17.44,0,0,1,7.53.91,9.54,9.54,0,0,0,3.81.68c2.4-.15,4.8-.35,7.2-.55a28.57,28.57,0,0,1,3.69-.33,29.71,29.71,0,0,0,7.9-.39c3-.66,6.1-1.09,9.15-1.63,1.29-.23,2.58-.42,3.84-.77a27.93,27.93,0,0,1,13.09-.85,18,18,0,0,0,6.78-.21c1.87-.35,3.25-1.47,4.79-2.34a67.49,67.49,0,0,0,7.58-4.57c2.57-1.94,4.8-4.33,7.2-6.51.71-.65,1.5-1.22,2.18-1.9,1.26-1.26,2.49-2.55,3.71-3.85s2.67-2.6,3.25-4.48a9.2,9.2,0,0,1,.84-1.42c1-1.86,2.7-3.27,3.18-5.45a1.38,1.38,0,0,1,1.5-1.28c.75,1.2.42,2.52.15,3.75-.47,2.14-1,4.27-1.68,6.36-1.21,4-2.6,7.88-2.59,12.12a9.14,9.14,0,0,1-.41,1.81c-1.08,5.13-2.2,10.24-3.18,15.39a9.84,9.84,0,0,1-1.27,3.67,9.65,9.65,0,0,0-1,2.24c-.31,1-.51,2-.75,3-.2.79-.41,1.59-.57,2.39s-.27,1.92-.5,2.85A63.65,63.65,0,0,0,464.25,215c-.22,2.94-.86,5.85-1.3,8.78a26.23,26.23,0,0,0-.61,4.87,30.68,30.68,0,0,1-.74,7c-.41,2.23-1.23,4.5-1.08,6.7.28,4.17-.43,8.24-.65,12.34a41.25,41.25,0,0,0,.15,8.62,29.82,29.82,0,0,1,.22,5.36c-.07,2.55-.32,5.09-.42,7.64,0,1.16.15,2.33.1,3.49-.14,3.71-.36,7.42-.51,11.13-.07,1.79,0,3.59-.05,5.39-.27,5.44-.59,10.88-.9,16.32-.06,1-.14,2.05-.2,3.08-.07,1.3-.06,2.62-.21,3.91-.2,1.7-.58,3.38-.79,5.08-.52,4.18-.91,8.37-1.48,12.55-.91,6.6-2.5,13-5.87,18.84-2.72,4.73-6,8.88-10.89,11.5q-3.29,1.75-6.55,3.54a89.42,89.42,0,0,1-10.29,5.22c-3.59,1.41-7.1,3-10.66,4.52-1.2.5-2.48.82-3.69,1.32s-2.46,1.16-3.7,1.71-2.67,1.13-4,1.7c-.82.35-1.61.78-2.45,1-3.22,1-6.53,1.83-9.67,3.06a48.53,48.53,0,0,1-12.64,2.87,36.51,36.51,0,0,0-6.9,1.21c-4.21,1.32-8.49,1.21-12.74.84a39.54,39.54,0,0,0-10.09.29,13.45,13.45,0,0,1-6.16-.1c-1.7-.51-3.41-1-5.12-1.43a27.3,27.3,0,0,0-12.47-.8,3.91,3.91,0,0,1-3.15-.62,11.73,11.73,0,0,0-6.81-2.13c-3,0-5.89.13-8.73-1.16a6,6,0,0,0-3.67-.28,15,15,0,0,1-4.29,0,39.7,39.7,0,0,0-4.51,0c-3.36.27-6.56,1.59-10,1.45a1.62,1.62,0,0,0-1.59,1.8,2.1,2.1,0,0,0,2.85,2,27.39,27.39,0,0,1,9.9-1.86,10.21,10.21,0,0,1,3.81.63,5.65,5.65,0,0,0,4.4.13,6.82,6.82,0,0,1,2.42-.39c2.3.15,4.59.46,6.89.65,1.09.09,2.19,0,3.29,0a5.17,5.17,0,0,1,1.79.18c2,.82,3.86,1.82,5.84,2.6,1.29.51,2.58,1.08,4.13.37a3.91,3.91,0,0,1,2.73.36,7.32,7.32,0,0,1,4.36,4.14,13.25,13.25,0,0,0,1.73,2.56,3.56,3.56,0,0,1,.62,1,35.09,35.09,0,0,1,1.18,5.47c.2,2.58-.49,3.93-2.36,4.82a27.65,27.65,0,0,1-6.94,1.95c-1.88.35-3.79.55-5.68.91-4.37.83-8.53,2.94-13.17,2a6.32,6.32,0,0,0-1.24.07c-3.85,0-7.7.33-11.53-.17a32.36,32.36,0,0,0-4.05-.58c-2.81,0-5.63.08-8.43.33a17.19,17.19,0,0,1-6.33-.5,37.12,37.12,0,0,0-11.69-1.17,13.92,13.92,0,0,1-5.52-.56c-3.68-1.44-7.5-1.3-11.24-1.31-3.1,0-6.19-.05-9.28-.24a13.09,13.09,0,0,1-5.53-1.5,6,6,0,0,0-2-.48c-.79-.11-1.6-.13-2.4-.19a12.33,12.33,0,0,0-2-.15,9.9,9.9,0,0,1-5.76-1c-.89-.48-1.66-1-1.26-2.26a60.14,60.14,0,0,1,1.88-5.83c1.85-4.15,4-8.17,5.81-12.34,1.5-3.48,3.41-6.8,4.23-10.55.65-3,1.43-5.9,2-8.88s.92-5.85,1.35-8.77a21.9,21.9,0,0,0,.27-2.26,2,2,0,0,0-1.32-2.08c-.78-.19-1.61.37-1.89,1.5-.45,1.8-.84,3.63-1.13,5.47-.42,2.71-.6,5.46-1.13,8.14-.5,2.49-1.33,4.91-2,7.36a22.7,22.7,0,0,1-.7,2.58c-.57,1.4-1.28,2.75-1.92,4.12s-1.16,2.57-1.86,4.13a3.2,3.2,0,0,0-4-1.24,56.69,56.69,0,0,1-8.26,1.83c-4.24.56-8.37,2-12.72,1.71a1.75,1.75,0,0,0-.6.14c-3.33,1.06-6.82.83-10.24,1.24a11.78,11.78,0,0,1-2.47.12c-2.61-.24-5.2-.63-7.81-.84-4.17-.34-8-2-12-3-2.39-.6-4.7-1.48-7-2.28a21,21,0,0,1-3.54-1.44c-2.29-1.3-4.23-3.29-7.08-3.47a1.79,1.79,0,0,1-.76-.3c-2.06-1.25-4.19-2.41-6.15-3.81-2.41-1.72-4.62-3.64-7.53-4.62-3.19-1.07-6.19-2.75-9.4-3.75a30.71,30.71,0,0,1-9.15-4.55c-.56-.4-1.19-.7-1.75-1.09a10.24,10.24,0,0,1-2.28-1.73,65.53,65.53,0,0,1-4.45-6.17,15.38,15.38,0,0,1-1.41-3.87c-.54-1.85-.83-3.79-1.48-5.6a16.34,16.34,0,0,1-1.28-7.48c.14-1.19-1-2-2.38-1.94-1,.07-1.57.83-1.3,2.12.55,2.56,1.19,5.1,1.86,7.63.5,1.86,1.29,3.66,1.63,5.55a17.66,17.66,0,0,0,2.88,7c.27.4.45.86.74,1.25a24.46,24.46,0,0,0,3.27,4.22,58.78,58.78,0,0,0,6,4.06c.74.5,1.47,1,2.25,1.47,1,.57,2,1.43,3.11,1.51a17.63,17.63,0,0,1,6,2c2.06.94,4.14,1.84,6.19,2.79,1.85.86,3.92,1.4,5.22,3.14,1,1.41,2.61,2,4.09,2.69a16.28,16.28,0,0,1,3.25,1.76,11.94,11.94,0,0,0,4.61,2.5,2.67,2.67,0,0,1,2.23,2.21,7.91,7.91,0,0,1-1.86,6.1c-2,2.24-4.72,3.56-7.22,5.13s-4.79,1-7.26,0a25.31,25.31,0,0,1-4.32-.72,2.44,2.44,0,0,1-.56-.23c-.66-.12-1.33-.25-2-.39a9.68,9.68,0,0,1-1.61-.26,2.84,2.84,0,0,1-.7-.28,14.2,14.2,0,0,1-5.88-.6,2.38,2.38,0,0,1-1-.61,25.63,25.63,0,0,1-2.88-1.11,1.68,1.68,0,0,1-.4-.26,26.85,26.85,0,0,1-6.21-2.88l-.13-.08-1.36-.56c-1.38-.59-2.79-1.14-4.11-1.85-2.41-1.3-4.69-2.84-7.14-4a91.85,91.85,0,0,1-8.08-4.53c-4.79-3-9.71-5.75-14.63-8.52A79.37,79.37,0,0,0,66,372.58a10.45,10.45,0,0,1-2.53-1.7,24.83,24.83,0,0,0-4.93-3.71,36,36,0,0,1-11.88-9.42,109.4,109.4,0,0,1-6.47-8.84A4.52,4.52,0,0,1,39.5,347a146.82,146.82,0,0,1-1.76-16,24.41,24.41,0,0,1,.87-7.56,72.82,72.82,0,0,0,2.21-9.23,52.5,52.5,0,0,1,2.16-8.4c1.07-3.33,2.13-6.68,3.43-9.93,1.07-2.67,2.43-5.24,3.74-7.8,1.79-3.48,4.57-6.46,5.27-10.49.05-.31.37-.57.54-.87,2-3.45,4.07-6.89,6-10.37.84-1.5,1.44-3.12,2.19-4.67.9-1.85,1.81-3.69,2.78-5.5.61-1.15,1.42-2.19,2-3.34,1.14-2.2,2.09-4.51,3.31-6.67,1.56-2.75,3.34-5.37,5-8.08a73.3,73.3,0,0,1,7-10.25c1-1.15,2.06-2.22,3.1-3.31s2.14-2.13,3.15-3.25c2.22-2.48,4.54-4.8,7.78-6s6.22-2.29,9.33-3.46c2.81-1.06,5.64-1.83,8.43-.9a13.13,13.13,0,0,1,3.16-1.82c3.49-.81,7-1.52,10.57-2,2.8-.4,5.65-.48,8.48-.6,1.71-.07,3.44.12,5.15.07a91.59,91.59,0,0,1,16.54.63c3.86.6,7.8.69,11.71,1,2.55.2,5.12.28,7.66.57,3.56.4,7.1,1.13,10.67,1.37a33.71,33.71,0,0,1,6.53,1,9.2,9.2,0,0,0,2,.4c3.65.13,7.31.29,11,.29s7.59-.11,11.39-.27c3.52-.15,7.06-.24,10.54-.7,5.58-.74,11.13-1.79,16.69-2.68,1.85-.3,3.5-1.23,5.5-1.21,1.62,0,3.28-.79,4.88-1.34a94.84,94.84,0,0,0,8.92-3.3c2.35-1.09,4.4-2.83,6.71-4a10.58,10.58,0,0,0,4.36-4.73,6.82,6.82,0,0,0-3.94.91c-1.82,1.12-3.68,2.18-5.48,3.33a59.58,59.58,0,0,1-9.91,4.64,37,37,0,0,1-5.74,1.73c-2.35.53-4.76.8-7.14,1.24-4,.74-8,1.53-12,2.29a25.4,25.4,0,0,1-3,.52c-2.34.15-4.68.22-7,.3l-15.11.53a51.64,51.64,0,0,1-13.58-.94c-2.94-.68-6-.69-9-1.19a91.16,91.16,0,0,0-15.64-1.35,50.74,50.74,0,0,1-7-.62c-4.84-.66-9.61-1.83-14.58-1.28a32.92,32.92,0,0,1-6.59.12A57.6,57.6,0,0,0,126.2,205c-2.3.45-4.6.93-6.92,1.3-1.78.29-2.11.09-2.2-1.73a24.79,24.79,0,0,1,.17-7.19c.48-2,.56-4.09,1.68-5.92a5.87,5.87,0,0,0,.42-1.6c.29-1.13.5-2.29.89-3.39.64-1.81,1.35-3.6,2.12-5.36a80.85,80.85,0,0,1,5.09-10.36c1.31-2.11,2.65-4.21,3.82-6.4a43.18,43.18,0,0,1,7-9.42q3.29-3.43,6.68-6.75a57.94,57.94,0,0,1,4.84-4.48c3-2.31,6.05-4.47,9.11-6.66,2.06-1.48,4-3.35,6.29-4.27,3.52-1.4,6.75-3.43,10.42-4.48a17.14,17.14,0,0,0,3.54-2c.35-.21.73-.6,1.07-.58,2.76.21,4.89-2,7.6-1.94a.26.26,0,0,0,.19-.07c.72-1.09,1.87-.75,2.89-1,3.77-.79,7.52-1.72,11.26-2.65,4.94-1.22,9.86-2.5,14.79-3.73a10.85,10.85,0,0,0,2.23-.44c2.86-1.45,6.05-.58,9-1.38,1.83-.49,3.84-.27,5.77-.45a32.69,32.69,0,0,1,5.12-.57,41.21,41.21,0,0,0,8.84-.69c2.15-.31,4.22-.62,6.3.26a3,3,0,0,0,1.23.08c1.44,0,2.88-.19,4.31-.15a8.7,8.7,0,0,1,3.65.47,16.5,16.5,0,0,0,5.17,1.23c3.52.59,7.07,1.07,10.62,1.52a9.73,9.73,0,0,0,3.24,0,8.77,8.77,0,0,1,2.61-.05,12.9,12.9,0,0,0,4.45-.38c2.24-.66,4.36-1.7,6.56-2.52,3.47-1.29,7.42-.93,10.68-3,.31-.2.81-.11,1.22-.15a8.63,8.63,0,0,0,5.39-2.37c.83-.81,1.78-1.48,2.64-2.26,1.45-1.33,3.25-2.45,3-4.88-.05-.49.38-1,.53-1.56.36-1.26,1.11-2.59.94-3.78-.36-2.56-.76-5.24-2.77-7.21-1.33-1.3-2.68-2.58-4.06-3.82a5.71,5.71,0,0,0-1.54-1q-3.7-1.59-7.45-3.09a6.92,6.92,0,0,0-1.61-.32c-1.7-.24-3.42-.43-5.12-.7s-3.63-.78-5.47-1c-4-.38-7.94-.66-11.92-.89a76.47,76.47,0,0,0-9.3-.22c-3.64.24-7.24,1-10.87,1.41a24,24,0,0,1-5.16.23,53.08,53.08,0,0,0-12.13.31c-4.31.56-8.62,1-12.92,1.66-5.23.75-10.53,1.12-15.65,2.6-3.55,1-7.1,2-10.57,3.3a77.28,77.28,0,0,1-10.54,3.37,128.26,128.26,0,0,0-14.66,4.27A98.84,98.84,0,0,0,161.2,102c-1.06.61-2.18,1.13-3.29,1.65a53.21,53.21,0,0,1-6.22,2.75,43.13,43.13,0,0,0-9.22,4.57c-2.77,1.66-5.35,3.65-8.2,5.16a77.9,77.9,0,0,0-11.38,7.48c-3.2,2.49-6.4,5-9.57,7.49-1.44,1.15-2.79,2.43-4.19,3.64-3.55,3.06-7.21,6-10.62,9.21a110.66,110.66,0,0,0-10,11.51c-3.13,3.9-5.38,8.32-8.23,12.38-2,2.8-3.46,5.93-5.17,8.91l-2.76,4.81c-1.24,2.15-2.55,4.26-3.69,6.46-2.27,4.38-3.53,9.21-5.83,13.58a16.42,16.42,0,0,0-1.28,2.83c-1.3,4.28-3.84,7.91-6.06,11.71-.76,1.31-1.62,2.56-2.35,3.89-2.22,4-4.38,8.13-6.62,12.16-2.14,3.86-4.36,7.67-6.53,11.52-1,1.85-1.93,3.79-3.06,5.57a59.69,59.69,0,0,0-4.66,8.68c-.73,1.71-1.26,3.5-2,5.22-1.56,3.82-3.22,7.59-4.76,11.42-.82,2-1.43,4.16-2.18,6.23a15.29,15.29,0,0,0-1.13,6.25c.28,4-.75,7.79-1.62,11.64A83.34,83.34,0,0,0,19,308.91c-.29,3-.18,6-.32,9.07-.16,3.31-.5,6.61-.61,9.91a26.93,26.93,0,0,0,3.55,13.46c1.23,2.35,2.56,3,5.68,1.45,1.23-.61,2.42-1.3,3.67-1.86,2.11-1,3.23-.36,3.67,1.92.3,1.53.53,3.07.89,4.58a12.84,12.84,0,0,0,2.47,5.8,46.19,46.19,0,0,1,4.3,6.06,7.09,7.09,0,0,0,2.62,2.5,13.54,13.54,0,0,1,3.73,2.88c.29.36.56.73.81,1.11,2.24,1.24,4.5,2.5,5.83,4.66a17.65,17.65,0,0,1,2.16,1,20,20,0,0,1,1.73,1.43,9.16,9.16,0,0,0,1.28.62,18.12,18.12,0,0,1,1.63.87c.86.55,1.65,1.24,2.55,1.73,3,1.62,5.94,3.16,8.9,4.76,1,.56,2,1.26,3,1.83a84,84,0,0,1,10.8,6.75,9.5,9.5,0,0,0,2,1c2.37,1.06,5.06,1.71,7,3.27,1.71,1.36,3.77,2,5.38,3.55,1.37,1.3,3.3,2,5,2.94a23.54,23.54,0,0,1,9,3.35l2.29.85c1.8.33,3.6.62,5.41.92a2.27,2.27,0,0,1,1.5,0c1.13.27,2.25.57,3.42.88a53.44,53.44,0,0,1,6.73,1.8h0c3.19.6,6.14.29,8.73-2,1.86-1.62,3.88-3.06,5.86-4.53a7.64,7.64,0,0,0,3.36-4.77,31,31,0,0,1,1.37-4,12.34,12.34,0,0,1,1.67.35c2,.7,4,1.4,6,2.17a58.54,58.54,0,0,0,13,3.35,52.34,52.34,0,0,0,7.6.91,130.61,130.61,0,0,0,20.37-1.79c5.51-.9,11.09-1.46,16.4-3.34a4.31,4.31,0,0,1,1.44.12,13.48,13.48,0,0,1-1.06,2.58,30.9,30.9,0,0,0-3.34,7.28,34.06,34.06,0,0,1-1.22,3.68,7.67,7.67,0,0,0-.9,4.15c.12,1.59.5,2.1,2.11,2.53a5.4,5.4,0,0,1,2.06.84,4.69,4.69,0,0,0,4.08,1.06c1.84-.45,3.56-.05,5.32.05a13.05,13.05,0,0,1,2.91.81,11.44,11.44,0,0,0,2.74.84c4.13.14,8.26.2,12.39.16a40.5,40.5,0,0,1,11.06,1.34,22.74,22.74,0,0,0,5.3.66c4.12.11,8.25,0,12.2,1.51a7.51,7.51,0,0,0,2.85.41c3.79-.1,7.57-.32,11.35-.42a9.74,9.74,0,0,1,3,.37c3.66,1.11,7.4.54,11.1.64,1.08,0,2.18-.21,3.26-.11,3.53.32,7,.36,10.38-1a13.87,13.87,0,0,1,4.74-1.31,32.19,32.19,0,0,0,14.09-3.65,3.51,3.51,0,0,0,1.64-1.49,27.44,27.44,0,0,0,1.46-4.5,3.63,3.63,0,0,0-.27-1.8,19.52,19.52,0,0,1-1.25-5,5.27,5.27,0,0,0-1.78-3.63,8.39,8.39,0,0,1-2.49-5l6.1,2.26a2.21,2.21,0,0,0,.78.2,39.16,39.16,0,0,0,6.76-.32c3.24-.68,6.43-.38,9.66-.26a56,56,0,0,0,8.06,0c3.4-.36,6.75-1.18,10.13-1.77a9.3,9.3,0,0,1,2.46-.22,19.47,19.47,0,0,0,8.2-1.31c2.6-.88,5.15-1.88,7.75-2.75,2-.66,4.08-1.09,6.06-1.8,2.84-1,5.58-2.28,8.4-3.36,4.75-1.82,9.17-4.4,14-6,.91-.31,1.74-.83,2.62-1.22,1.55-.68,3.11-1.33,4.54-1.94a4.46,4.46,0,0,1,1.45,5.45,2.14,2.14,0,0,0-.15.81,6.31,6.31,0,0,1-1.88,4.47,54,54,0,0,0-6.21,8.48,17.54,17.54,0,0,0-2.45,5.42,5.53,5.53,0,0,0,3.73,6.82c3.51,1.36,7,.91,10.6.68l6.91-.41a10.48,10.48,0,0,0,1.84-.15,38.85,38.85,0,0,0,12.29-5.72,24.34,24.34,0,0,0,3.88-3.4q3.3-3.42,6.42-7a17.43,17.43,0,0,0,3.26-4.49c1.61-4,4-7.57,6.16-11.24a21.72,21.72,0,0,0,2.33-6.56c.43-1.95.44-4,.82-5.94a7.09,7.09,0,0,0-.63-4.22c-.74-1.78-1.62-3.5-2.41-5.27-1.18-2.64-2.43-5.26-3.45-8a16.16,16.16,0,0,0-3.59-6c-1.56-1.55-3.08-3.15-4.7-4.63a21.29,21.29,0,0,0-2.65-1.8c0-.41,0-.68-.05-1a41.64,41.64,0,0,1,1.06-8.57,79,79,0,0,0,.93-11c.15-4.14.48-8.26.72-12.4.1-1.85.17-3.7.24-5.56.16-4.33.34-8.66.47-13a28,28,0,0,0,0-5.58c-.38-2.2.12-4.34.19-6.47.08-2.33.21-4.65.1-7A98.67,98.67,0,0,1,463.2,253a75.94,75.94,0,0,0,.41-9.08,19.28,19.28,0,0,1,.42-4.28c.41-2.45,1-4.87,1.36-7.33.25-1.82.08-3.7.27-5.53.49-4.52,1.11-9,1.62-13.55a22.78,22.78,0,0,1,1.91-7.31,4.83,4.83,0,0,0,.49-2.39,11.05,11.05,0,0,1,1.91-7,16.41,16.41,0,0,0,1.81-5c.54-2.49.75-5,1.19-7.56a30.23,30.23,0,0,1,1.33-5.82,20.36,20.36,0,0,0,1.29-6.65,6.82,6.82,0,0,1,.08-1.44c.85-3.13,1.8-6.23,2.59-9.37s1.44-6.16,2-9.28A5.13,5.13,0,0,0,481.29,149.1ZM323.68,171.54a102.13,102.13,0,0,1-9.84-8.82,22.24,22.24,0,0,0-10.38-6,28.77,28.77,0,0,1-10.23-6c-.37-.31-.75-.6-1.14-.89A3.07,3.07,0,0,1,291,146.2a2.22,2.22,0,0,1,1.63-1.66,16.21,16.21,0,0,0,3.18-1.81c1.29.42,3.15.93,4.93,1.64a34.06,34.06,0,0,1,4.62,2.27,17.75,17.75,0,0,1,3.3,2.47c2.08,2,4,4.14,6.08,6.19a62.27,62.27,0,0,1,10.45,13.31c.79,1.41,1.59,2.81,2.51,4.43C325.84,173.53,324.69,172.38,323.68,171.54ZM472.6,154.7c-2.52,4.79-6.64,8.23-10.47,11.87-2.24,2.13-4.79,3.93-7,6.09-2,2-4.6,3-7.05,4.24a13.22,13.22,0,0,0-2.18,1.17,9.51,9.51,0,0,1-7.45,1.68c-1.89-.25-3.8-.41-5.69-.61l-.22-.56a9.79,9.79,0,0,1,1.93-1.35,22.84,22.84,0,0,0,7.1-4.14c1.77-1.58,3.92-2.72,5.73-4.27,1-.83,1.77-1.82,2.85-2.59a88,88,0,0,1,7.75-5.3c5.46-3.11,10.89-6.33,15.69-10.77C474.4,152.1,473.29,153.4,472.6,154.7ZM35.2,321.36c-.48,1.73-1,3.44-1.47,5.17a6,6,0,0,0-.2,1.83,27.48,27.48,0,0,0,.4,4.33,9.54,9.54,0,0,1-.24,4.41L25.43,341a4.07,4.07,0,0,1-1.07-1c-1-1.67-1.89-3.37-2.68-5.13a11.43,11.43,0,0,1-.37-2.39c-.76-3.78-.23-7.55.06-11.32.33-4.33.63-8.66,1-13a29.36,29.36,0,0,1,.53-3.42c.78-3.85,1.71-7.68,2.36-11.56a17.52,17.52,0,0,0,0-5.34,8.81,8.81,0,0,1,.53-4.22c1.34-3.92,2.82-7.78,4.24-11.67,1-2.78,1.89-5.62,3.07-8.32a58.28,58.28,0,0,1,5.07-10.17,50.72,50.72,0,0,0,3-5.62c.92-1.77,1.75-3.59,2.72-5.33,1.72-3.06,3.58-6.05,5.29-9.13,1.21-2.17,2.23-4.44,3.4-6.63.41-.77,1-1.42,1.49-2.17,2.09-3.57,4.26-7.09,6.2-10.74,1.61-3,2.78-6.28,4.42-9.29,2.17-4,3.37-8.31,5.13-12.43a78.81,78.81,0,0,1,5.14-10.07c1.65-2.7,3.08-5.54,4.68-8.27,1.3-2.24,2.65-4.45,4.08-6.61,2.8-4.24,5.51-8.56,8.57-12.6a60.59,60.59,0,0,1,10.39-10.87c2.09-1.67,3.94-3.65,6-5.35,3.57-2.92,7.23-5.73,10.85-8.6,1.78-1.41,3.49-2.92,5.34-4.24,2.17-1.56,4.43-3,6.7-4.43,3.59-2.26,7.24-4.43,10.83-6.7A88,88,0,0,1,154,108.62c3.77-1.66,7.44-3.57,11.17-5.34q4.48-2.12,9-4.16a93.89,93.89,0,0,1,14.19-4.7c2-.56,4.11-1,6.14-1.63,2.76-.82,5.51-1.7,8.25-2.59,2.49-.81,5-1.71,7.46-2.51,2.15-.69,4.3-1.38,6.49-1.9a51.42,51.42,0,0,1,5.91-1c3.91-.45,7.83-.75,11.73-1.21,2.59-.3,5.17-.7,7.73-1.16A42.47,42.47,0,0,1,253,82a50.05,50.05,0,0,0,9.86-.49c3.49-.42,7-1,10.47-1.19a63.27,63.27,0,0,1,7.64.42c.82.06,1.64.26,2.47.27a80,80,0,0,1,14,1.73c1.35.27,2.72.41,4.07.63a13.85,13.85,0,0,1,2.22.46c1.74.59,3.43,1.34,5.18,1.89,3.1,1,5,3.46,6.93,5.72a5.54,5.54,0,0,1,1,4.94,30.84,30.84,0,0,1-1.84,5.48c-.36.81-1.26,1.38-1.94,2a7.1,7.1,0,0,1-1.08.94,14.93,14.93,0,0,1-2.79,1.64,27.28,27.28,0,0,0-5,1.91c-1.12.68-2.63.72-4,1a36.24,36.24,0,0,0-3.6.86c-2.4.84-4.76,1.82-7.15,2.71a7.82,7.82,0,0,1-2,.46c-2.13.19-4.26.42-6.4.41a21.53,21.53,0,0,1-3.84-.64c-.87-.16-1.72-.45-2.6-.53a59.15,59.15,0,0,1-12-1.92,20.38,20.38,0,0,0-4.09-.54c-2-.18-4-.39-6-.4a47.15,47.15,0,0,0-5.34.39c-2.26.25-4.51.62-6.77.87-3.63.41-7.27.76-10.9,1.15-1.51.16-3,.43-4.53.51a29.46,29.46,0,0,0-6.92,1.11c-1,.29-2.05.24-3,.49-3.78,1-7.6,1.83-11.31,3-5.46,1.79-11.21,2.25-16.71,3.84A72.54,72.54,0,0,0,176.1,125c-2.24,1.06-4.45,2.16-6.7,3.19a20.78,20.78,0,0,1-3.47,1.32c-2.92.74-5.13,2.62-7.38,4.41a71.46,71.46,0,0,1-7.18,5.15,31.54,31.54,0,0,0-6.26,5c-3,3.13-6.14,6.08-9.26,9.07a23.35,23.35,0,0,0-2.77,3.29c-2,2.8-4,5.6-5.85,8.5-2.28,3.59-4.7,7.11-6.17,11.18-.91,2.52-2.21,4.89-3.27,7.36-.46,1.07-.76,2.22-1.15,3.32a57.83,57.83,0,0,0-2.44,7,28.13,28.13,0,0,0-.59,11.29,10,10,0,0,1,0,1.83,12.65,12.65,0,0,1-1.51.54A85.5,85.5,0,0,0,95.92,213a14.7,14.7,0,0,0-6.61,5.13c-1.13,1.66-2.88,2.88-4.3,4.34s-3,3.07-4.39,4.69C77.56,230.73,75.5,235,73,238.89c-1.3,2-2.64,4.06-3.83,6.15-1.84,3.23-3.6,6.5-5.34,9.79-1.89,3.58-3.66,7.23-5.57,10.8-.94,1.76-2.14,3.39-3.08,5.15-1.86,3.46-3.58,7-5.43,10.45-1.62,3-3.44,6-5,9.06A68.15,68.15,0,0,0,42.18,297c-.71,1.94-1.23,4-2.05,5.84a54.24,54.24,0,0,0-3.45,12.91A53.54,53.54,0,0,1,35.2,321.36Zm426.37,18.08q2.46,2.23,4.78,4.6a6.3,6.3,0,0,1,1.06,1.75c1.29,2.75,2.61,5.48,3.8,8.27s2.14,5.37,3.16,8.08a8.22,8.22,0,0,1,.12,3.46c-.31,5.43-2.41,10.08-5.53,14.46-1.49,2.1-2.3,4.66-3.58,6.93a12.58,12.58,0,0,1-2.61,3.4,87.42,87.42,0,0,0-6.93,7.35,20,20,0,0,1-4.13,3.4,39,39,0,0,1-6.1,3.06,14.42,14.42,0,0,1-5.61,1.1c-3.43,0-6.86.45-10.29.69a9.58,9.58,0,0,1-5.79-1.16,2.22,2.22,0,0,1-1.26-2.75,19.83,19.83,0,0,1,1.78-4.61,68.13,68.13,0,0,1,5.21-7.16,13,13,0,0,0,3.28-7,23.43,23.43,0,0,0-.07-5.33,10.29,10.29,0,0,0-1.11-2.74c1.61-1.08,3.14-2.11,4.68-3.12a1.38,1.38,0,0,1,.75-.32c1.56.17,2.53-1,3.71-1.63a31.75,31.75,0,0,0,4.11-2.74,18.13,18.13,0,0,0,4.24-4.46c1.74-2.63,4-4.91,5.13-8,.35-1,.62-2,.91-3,.06-.2,0-.44.1-.61,2.17-4.06,3-8.52,3.87-13A2.51,2.51,0,0,1,461.56,339.44Z"/><path class="cls-1" d="M388.76,243.6a4,4,0,0,0-.85,1c-1,2.56-2,5.12-2.89,7.72a26.49,26.49,0,0,0-1,4c-.53,3-.93,6-1.48,9a42.27,42.27,0,0,1-2.3,8.14,39.11,39.11,0,0,1-3.18,7.14l-2.2.48-.43,2.64a4.36,4.36,0,0,1-3.53-.23c-2-1.06-3.07-.58-3.43,1.56-.51,3.05-.82,6.14-1.23,9.27,1.71.85,3.1,1.82,3.68,3.62a2.32,2.32,0,0,1-2.49,2,1.2,1.2,0,0,0-.61.11c-2.11,1.2-3.71-.06-5.29-1.14a2.34,2.34,0,0,1-.88-3.26,7.49,7.49,0,0,1,2.08-1.43l.4.24c.23-1.94.45-3.89.7-5.83s.55-4,.87-6.19l-2.23-.33a31.21,31.21,0,0,1-3.26-.48c-1.73-.44-2.4-1.51-2.5-3.32a3.53,3.53,0,0,0-.69-2.25c-2.48-2.21-2.6-5-2.29-8,.25-2.39.87-4.75,1.06-7.15a85.79,85.79,0,0,0,.23-15.1,58.83,58.83,0,0,0-1.27-6.29,1.43,1.43,0,0,0-1.43-1.22c-1.9-.22-3.79-.58-5.68-.82-1-.12-1.93-.07-2.89-.15-3.08-.27-6.15-.55-9.23-.86-2.16-.22-4.33-.47-6.48-.78-1.08-.15-2.13-.47-3.14-.7a4.48,4.48,0,0,1,3.64-6.3,17.84,17.84,0,0,1,7.75.83c4.44,1.51,9,1.93,13.59,2.61,1.29.19,2.57.46,3.84.75a2.43,2.43,0,0,1,1.81,1.83,68.08,68.08,0,0,1,2,7.51,44.09,44.09,0,0,1,.79,8.4c0,2-.13,4-.19,6a68.61,68.61,0,0,1-1.12,11.52,6.76,6.76,0,0,0,.24,3.21,3.52,3.52,0,0,0,2.41,2.6c3.57,1.2,7.08,2.65,10.91,2.93,4.3.31,5.15-.08,7.16-3.9a35.49,35.49,0,0,0,3.13-9.38c1-4.65,2.3-9.22,3.39-13.84.75-3.18,2.67-5.86,3.57-9a2.57,2.57,0,0,1,2-1.63,25.22,25.22,0,0,1,10.24-1c6,.71,11.9,1.51,17.87,2.12,2,.2,3.35.68,4.08,2.72s.32,3.2-1.78,3.44a31.06,31.06,0,0,1-5.32-.2c-.41,0-.82-.3-1.2-.26-4.06.42-7.95-.77-11.92-1.16-1.15-.11-2.33.08-3.49.08-2.54,0-5.08.06-7.61-.08C390.13,244.74,389.52,244.06,388.76,243.6Z"/><path class="cls-1" d="M398.15,211.47a10.91,10.91,0,0,0,2.64-1,18.47,18.47,0,0,1,8.55-2.67c1.3-.13,2.56-.56,3.85-.79,2.56-.46,5.13-.88,7.69-1.32,1.19-.21,2.42.8,2,1.87-.86,2.34-.13,4.46.58,6.62s-.77,5-2.66,5.3a5.21,5.21,0,0,1-2.42-.26,11.35,11.35,0,0,0-7.7-.09,4.37,4.37,0,0,1-3.19,0,7.28,7.28,0,0,0-3.27,0c-1.28.16-2.54.49-3.81.75-.83.17-1.62.31-2.23-.57-.21-.31-.67-.46-1-.68a4.42,4.42,0,0,1-2.17-5.48C395.46,211.61,395.94,211.29,398.15,211.47ZM418.66,216l-.69-4a3.73,3.73,0,0,0-1.27,3.85Zm-7.15-4.78c-.13-.21-.19-.43-.32-.48s-.36,0-.54,0a1.91,1.91,0,0,0,.25.61C410.95,211.44,411.22,211.31,411.5,211.23Z"/><path class="cls-1" d="M341.87,201c1.06.54,1.89,1,2.71,1.38,1.38.72,2.66,1.18,4.16,0a1.49,1.49,0,0,1,2.47,1.42,3.87,3.87,0,0,0,.81,3.22c.23.28-.12,1.5-.53,1.74-1.3.79-1.43,1.92-1.33,3.22a4,4,0,0,1-3.54.61c-3.46-.58-6.92-1.19-10.37-1.86a27.28,27.28,0,0,1-3.34-1,12.76,12.76,0,0,0-4.59-1c-2.4.08-3-1.14-1.86-3.31a2.65,2.65,0,0,0,.21-.36,6.59,6.59,0,0,1,5.53-4.62c1-.19,1.89-1.05,3.06-1.74l2.09,1.94,1.24-.83c1.63-1.09,2.33-.88,3.16.93A2,2,0,0,1,341.87,201Zm5.26,7.4c-1.12-.22-2.2-.35-3.23-.64-1.24-.35-1.23-.4-2.09,1.17,1.38.23,2.72.48,4.07.68C346.83,209.79,347.3,209.4,347.12,208.43Z"/><path class="cls-1" d="M193.31,216.78c-2.83,2.1-6.08,1.69-9.49,2,1.3,1.73,2.9,1.7,4.39,1.85a16.66,16.66,0,0,0,2.06-.16c1.19,0,1.87.46,2,1.39s-.71,1.13-1.44,1.41c-1.94.76-4,.54-5.92.44a5,5,0,0,1-2.5-1.31c-.29-.23-.28-1-.15-1.51a8.41,8.41,0,0,1,.89-1.7c-.61-.52-1.37-.89-1.65-1.48a2,2,0,0,1,1.69-2.75,5.65,5.65,0,0,1,1.44,0,22.64,22.64,0,0,0,6.36-.12C192.54,214.56,193,215.06,193.31,216.78Z"/><path class="cls-1" d="M143,220.65c-1,.13-1.9.26-2.85.4-.75.11-1.49.3-2.24.36-1.2.1-1.89-.38-2-1.26a1.75,1.75,0,0,1,1.53-1.91c2.09-.35,4.2-.58,6.3-.82,1.35-.15,2.72-.18,4.07-.33a1.67,1.67,0,0,1,2,1.06c.26.71-.36,1.68-1.47,1.93-1.73.39-3.51.56-5.27.82Z"/><path class="cls-1" d="M128.39,224.25a1.85,1.85,0,0,1-1.3,2.48,21.62,21.62,0,0,1-10,1.92,4.31,4.31,0,0,1-1.22-.16,1.11,1.11,0,0,1-.47-1.69,2.7,2.7,0,0,1,2.25-1.23c2-.18,4-.44,5.93-.73a10.13,10.13,0,0,0,2.17-.62A3,3,0,0,1,128.39,224.25Z"/><path class="cls-1" d="M144.89,210.69c.9,0,1.8,0,2.69,0a1.87,1.87,0,0,1,1.89,1.33,2,2,0,0,1-.06,1.52c-.14.26-.85.37-1.26.29a17,17,0,0,0-5.52.37,20.51,20.51,0,0,1-3.28.32c-1.21,0-1.72-.68-1.76-1.87,0-1,.43-1.48,1.71-1.59,1.86-.16,3.71-.28,5.57-.42Z"/><path class="cls-1" d="M162,221.49a22.83,22.83,0,0,1-3-.77,1.4,1.4,0,0,1-1-1.81,1.62,1.62,0,0,1,1.89-1.2c2.79.19,5.59.33,8.39.48,1.37.07,2.24.59,2.19,1.36a2.79,2.79,0,0,1-2.34,1.93h-.41l-5.73-.33Z"/><path class="cls-1" d="M206.14,226.07a24.82,24.82,0,0,1-3-1,1.47,1.47,0,0,1-.72-2c.26-.65.74-1.28,1.57-1.05,2.78.75,5.47.05,8.17-.45.74-.14,1.38-.16,1.65.74s0,1.78-.88,2C210.64,225,208.37,225.51,206.14,226.07Z"/><path class="cls-1" d="M117.33,221.76l.91-2.6,8.6-1.58a1.77,1.77,0,0,1,2,1.28c.29,1-.29,1.43-1.06,1.7a16.75,16.75,0,0,1-2.38.64c-1.88.35-3.77.71-5.67.94A10,10,0,0,1,117.33,221.76Z"/><path class="cls-1" d="M127.66,214.63c-1.11,1.23-2.66,1.38-4.15,1.41a11.36,11.36,0,0,0-6,1.41,5.49,5.49,0,0,1-2,.25c.13-1.85.61-2.94,2.2-3.64,2.7-1.21,5.52-1,8.33-1.11C127.06,212.91,127.51,213.65,127.66,214.63Z"/><path class="cls-1" d="M234.59,222.22a5.25,5.25,0,0,1-3.46,2,35.55,35.55,0,0,0-4.45.77,2.09,2.09,0,0,1-2.78-1.46,2.89,2.89,0,0,1,2.83-2.16c1.64-.16,3.27-.37,4.91-.59A2.53,2.53,0,0,1,234.59,222.22Z"/><path class="cls-1" d="M164.87,215.75c-1,0-1.92,0-2.88,0-.71,0-1.38-.16-1.48-1.08a1.92,1.92,0,0,1,1.27-2.27,23.31,23.31,0,0,1,3.07-.31c1.29,0,2.58,0,3.86,0a1.8,1.8,0,0,1,1.82,1.63c.1,1-.28,1.51-1.58,1.68s-2.73.21-4.09.3Z"/><path class="cls-1" d="M213.17,218.48a7.82,7.82,0,0,1-1.61.51c-1.92.11-3.85.21-5.77.19a2.75,2.75,0,0,1-1.86-.66,2.52,2.52,0,0,1-.35-1.87,1.52,1.52,0,0,1,1.72-1.18c2.43.05,4.9-.14,7.47.83Z"/><path class="cls-1" d="M79.28,253.14a12,12,0,0,1-1.45,2.38,9.29,9.29,0,0,0-2.14,3.7c-.38,1.16-.93,1.49-1.76,1.2-1-.37-1.79-1.55-1.35-2.39,1-1.88,2-3.74,3.17-5.52a2.89,2.89,0,0,1,1.74-.93C78.42,251.38,79,252,79.28,253.14Z"/><path class="cls-1" d="M98.84,227.5l-1.39-2.2a9.7,9.7,0,0,1,6-4.94,1.64,1.64,0,0,1,1.21,0,2,2,0,0,1,1,1.08,1.69,1.69,0,0,1-.56,1.36C103.1,224.41,101,225.89,98.84,227.5Z"/><path class="cls-1" d="M270.19,217c-.21,1-.17,1.5-.4,1.69-1.45,1.19-2.52,2.83-4.41,3.52a8.11,8.11,0,0,1-4.19-.06c-.7-.11-.9-.77-.66-1.48a2.16,2.16,0,0,1,2.07-1.45,14.1,14.1,0,0,0,4.46-1.44A20.48,20.48,0,0,1,270.19,217Z"/><path class="cls-1" d="M191.15,225.12a4,4,0,0,1-1.91,2.44,7.94,7.94,0,0,1-5.76.9c-1.65-.32-2.26-1.77-1.29-2.87a1.93,1.93,0,0,1,1.21-.65c2.32-.09,4.65-.1,7-.12A3,3,0,0,1,191.15,225.12Z"/><path class="cls-1" d="M246.09,217.93c-.54-.17-1.25-.19-1.64-.56a2.66,2.66,0,0,1-.81-1.73c0-.71.6-1.14,1.41-1.25,1.9-.25,3.79-.6,5.69-.85a1.62,1.62,0,0,1,2,1.11,1.59,1.59,0,0,1-1.14,2C249.81,217.17,248,217.49,246.09,217.93Z"/><path class="cls-1" d="M269.92,210.35c-.16,1.83-.71,2.82-2.37,3-1.16.11-2.29.5-3.45.6a6.49,6.49,0,0,1-2.14-.33,1.32,1.32,0,0,1-1-1.78c.2-.81.76-1.47,1.6-1.35a12.33,12.33,0,0,0,5.29-.53C268.43,209.78,269.15,210.18,269.92,210.35Z"/><path class="cls-1" d="M100.76,360.18a3.12,3.12,0,0,1-2.3,3.24c-1.23.43-2.43.94-3.65,1.38a2.07,2.07,0,0,1-1.19.2A3.08,3.08,0,0,1,92,364a1.36,1.36,0,0,1,.77-1.89,21.7,21.7,0,0,1,7.42-2.21C100.33,359.9,100.52,360.07,100.76,360.18Z"/><path class="cls-1" d="M168.32,225.65l-.14,1.83c-3.33,1.5-6.11,0-9.23-1l.87-2.6Z"/><path class="cls-1" d="M114.85,342.44c1.68.13,2.1.95,1.46,2.48a25.92,25.92,0,0,0-.86,3.1,9.91,9.91,0,0,1-.56,1.75c-.35.71-.88,1.25-1.81,1a1.84,1.84,0,0,1-1.15-2.14c.26-1.4.53-2.81.78-4.21S113.66,342.34,114.85,342.44Z"/><path class="cls-1" d="M88.33,235.39a6.33,6.33,0,0,1,1.35,1c.39.5,0,.92-.33,1.43a42.53,42.53,0,0,0-2,4c-.63,1.32-1.37,1.61-2.61.82a1.66,1.66,0,0,1-.72-1.28A10.36,10.36,0,0,1,86.86,236C87.15,235.73,87.7,235.66,88.33,235.39Z"/><path class="cls-1" d="M142.8,222.79a18.79,18.79,0,0,1,2.67,0c.47.07,1.25.51,1.25.78,0,.52-.35,1.38-.75,1.51-2.08.66-4.17,1.39-6.44.93a1.59,1.59,0,0,1-1.29-1.83,1.4,1.4,0,0,1,1.46-1.45c1,0,2.07,0,3.1,0Z"/><path class="cls-1" d="M101.56,230.06c1.38-.83,2.67-1.7,4-2.39a4,4,0,0,1,2.13-.39,1.53,1.53,0,0,1,1.09,1,2.07,2.07,0,0,1-.69,1.53c-1.05.86-2.23,1.56-3.37,2.31a5.75,5.75,0,0,1-1.08.58c-1.48.57-2.06.19-2.12-1.35C101.55,230.94,101.56,230.54,101.56,230.06Z"/><path class="cls-1" d="M84.73,253.7a1.55,1.55,0,0,1,1.51,2.09c-.47,1.34-.86,2.72-1.45,4a2.3,2.3,0,0,1-1.39,1,1.46,1.46,0,0,1-1.22-.48c-1.35-1.66-.2-5.62,1.8-6.4C84.25,253.82,84.52,253.77,84.73,253.7Z"/><path class="cls-1" d="M212.62,227.72c-.59,1.86-2.27,2.33-3.54,3a10.62,10.62,0,0,1-3.81.78c-.68.08-1.41-.05-1.61-.93a1.53,1.53,0,0,1,1-2c2.39-.53,4.83-.87,7.25-1.26C212.08,227.33,212.27,227.53,212.62,227.72Z"/><path class="cls-1" d="M287.91,173.81c.26.82.5,1.5.7,2.18a5.66,5.66,0,0,0,1.74,3.18,2,2,0,0,1,.73,1,7.73,7.73,0,0,1,0,1.71,8.74,8.74,0,0,1-1.49-.14,3.88,3.88,0,0,1-2.67-2.62,17.34,17.34,0,0,0-.94-1.82C285.12,175.62,285.62,174.56,287.91,173.81Z"/><path class="cls-1" d="M253,221.16c-1.93,2.45-4.08,4-7.15,4.06-.69,0-1.4-.05-1.61-.94a1.34,1.34,0,0,1,.86-1.68c1.45-.57,2.94-1.08,4.43-1.52a11.82,11.82,0,0,1,2.42-.38C252.17,220.68,252.46,220.94,253,221.16Z"/><path class="cls-1" d="M230.53,214c.75.23,1.72.55,2.69.82a1.12,1.12,0,0,1,.87,1.41,1.67,1.67,0,0,1-1,1.08c-1.61.3-3.25.46-4.89.59-.79.06-1.54-.15-1.72-1.11a2.57,2.57,0,0,1,1.35-2.32C228.62,214.23,229.45,214.15,230.53,214Z"/><path class="cls-1" d="M281.26,384.66c-2.68.14-2.68.14-3.52-2.06a6.93,6.93,0,0,1-.8-2.32,4.21,4.21,0,0,1,.93-2.33c.21-.26,1.13-.05,1.69.09a1.12,1.12,0,0,1,.65.71c.41,1.58.78,3.18,1.12,4.77A4.76,4.76,0,0,1,281.26,384.66Z"/><path class="cls-1" d="M294,166.33c.11.34.3,1,.55,1.7s.62,1.23.79,1.88c.11.41.1,1.14-.13,1.27a1.91,1.91,0,0,1-1.47.08,3.51,3.51,0,0,1-1.48-1,5.75,5.75,0,0,1-1.06-4.84,1.64,1.64,0,0,1,1.91-1.38C294.1,164.3,294.47,164.94,294,166.33Z"/><path class="cls-1" d="M92.11,243.8c0-2.06,2.54-4.15,4.44-3.86a1.32,1.32,0,0,1,.79,2.2c-.69.91-1.41,1.81-2.11,2.71-.47.6-1,1.25-1.86,1A2,2,0,0,1,92.11,243.8Z"/><path class="cls-1" d="M233,226.7c-1.2,2.84-3.9,4.3-6.36,3.75a1.54,1.54,0,0,1-1.23-1.45,2,2,0,0,1,1.54-1.94C228.85,226.85,230.8,226.82,233,226.7Z"/><path class="cls-1" d="M297.31,180.13a1.38,1.38,0,0,1-1.75,1.3c-1.58-.42-3.45-3.11-3.19-4.76a3.25,3.25,0,0,1,.83-1.59,1.26,1.26,0,0,1,2.24.53,6.47,6.47,0,0,0,1.61,3.88A1.69,1.69,0,0,1,297.31,180.13Z"/><path class="cls-1" d="M120.63,360c-1.46-.94-1.8-1.61-1.47-2.75a7,7,0,0,1,2.85-3.65,1.47,1.47,0,0,1,2,.33c.56.54.3,1.1-.08,1.65-.49.72-.88,1.51-1.4,2.21S121.25,359.28,120.63,360Z"/><path class="cls-1" d="M290.91,155.89a1.58,1.58,0,0,1,.57.19c1.11.76,1.95,4.32,1.18,5.42a2.68,2.68,0,0,1-1.59,1c-.79.14-.86-.66-1-1.26-.29-.91-.64-1.81-1-2.69C288.41,157,289.12,155.91,290.91,155.89Z"/><path class="cls-1" d="M299.08,242.41c-1.28-1.67-1.19-3.58-1.44-5.36-.08-.59.57-1.37,1.05-1.92s1.58-.19,2,.62c.76,1.31.2,5.28-.93,6.42C299.69,242.29,299.44,242.3,299.08,242.41Z"/><path class="cls-1" d="M304.61,179l-2.81,1.32c-.83-1.21-1.58-2.19-2.22-3.23a3.15,3.15,0,0,1,.27-3.63c.8-.82,1.74-.69,2.1.35a23.6,23.6,0,0,0,.72,2.71A16,16,0,0,0,304.61,179Z"/><path class="cls-1" d="M300.16,163.78a6.91,6.91,0,0,1,1,1.32c.47,1,.77,2,1.18,3,.3.74.55,1.47-.24,2a1.52,1.52,0,0,1-2.06-.28,6.08,6.08,0,0,1-1.86-4.23A2,2,0,0,1,300.16,163.78Z"/><path class="cls-1" d="M91.73,355.46c1.62-1.47,3.5-1.21,5.32-1.12a1.14,1.14,0,0,1,1.22,1.15c0,.8-.15,1.55-1,1.79a17.42,17.42,0,0,1-2.62.52C92.56,358,92.2,357.73,91.73,355.46Z"/><path class="cls-1" d="M311.19,177.53c-2.09.92-2.53.86-3.71-.39s-1.48-3.78-.48-5c.46-.54,1-1,1.78-.67a1.11,1.11,0,0,1,.55,1.58c-.48,1,.15,1.56.57,2.25S310.75,176.77,311.19,177.53Z"/><path class="cls-1" d="M251.63,224.95c0,.78.13,1.21,0,1.41-1.28,1.63-2.68,3.1-4.82,3.61-1,.24-1.41-.29-1.73-1-.41-1-.27-1.8.58-2.11C247.48,226.14,249.38,225.63,251.63,224.95Z"/><path class="cls-1" d="M464,175.07a2.19,2.19,0,0,1-.2-3.15c.58-.75,1-1.64,1.6-2.36,1.26-1.48,1.3-1.45,3,.19-.27.51-.55,1.1-.88,1.66a31.84,31.84,0,0,0-1.65,2.79C465.45,175.12,464.75,175,464,175.07Z"/><path class="cls-1" d="M289.39,379.82c-.55,1.29-1.1,2.4-1.49,3.57-.23.7-.6,1.21-1.26,1.1a2.3,2.3,0,0,1-1.41-.95,4.07,4.07,0,0,1,1.24-4.82C287.37,378.18,288.46,378.59,289.39,379.82Z"/><path class="cls-1" d="M290.75,192.34c-2.5-.3-3.11-1.28-3.63-6,.56-.25,1.26-.84,1.81-.73.88.17,1.08,1.09,1.09,2a2.36,2.36,0,0,0,.47,1.31A3,3,0,0,1,290.75,192.34Z"/><path class="cls-1" d="M267.14,225.74c-.23,2.73-3,4.47-5.18,3.45a1.33,1.33,0,0,1-.88-1.65c.18-.76.31-1.44,1.36-1.47C264,226,265.56,225.86,267.14,225.74Z"/><path class="cls-1" d="M116.81,355.86c-.34-.84-1-1.63-.85-2.29a11.26,11.26,0,0,1,1.34-3.16,1.21,1.21,0,0,1,1.77-.5c.49.34,1.1,1.27.95,1.62C119.34,353.1,119.14,355.08,116.81,355.86Z"/><path class="cls-1" d="M450.87,193.67c-1.43-.55-1.65-.8-1.27-2a9.57,9.57,0,0,1,3.53-4.52c1.13,1.46,1.16,2.29.17,3.55C452.56,191.69,451.76,192.61,450.87,193.67Z"/><path class="cls-1" d="M293.85,380.64a14.92,14.92,0,0,1,.91-2.23,1.62,1.62,0,0,1,1.21-.78,2.16,2.16,0,0,1,1.38.92,2.5,2.5,0,0,1,.11,1.56c-.1.67-.43,1.3-.54,2a1.19,1.19,0,0,1-1.47,1.07,2.59,2.59,0,0,1-1.33-1C293.9,381.82,294,381.32,293.85,380.64Z"/><path class="cls-1" d="M459.28,187.28c.08-.7-.05-1.49.27-1.94a30.3,30.3,0,0,1,2.95-3.4,1.21,1.21,0,0,1,1.12-.15c.29.14.66.74.57,1a11.74,11.74,0,0,1-1.64,3C461.85,186.57,461.14,187.71,459.28,187.28Z"/><path class="cls-1" d="M445.92,191c-1.72-1.38-1.78-1.58-.79-3.27.48-.82,1.08-1.56,1.63-2.34a.9.9,0,0,1,1.42-.22c.34.31.71,1,.57,1.33C448.08,188.09,447.63,189.87,445.92,191Z"/><path class="cls-1" d="M300.69,401.72c-1.18.06-2.21.75-2.77-.24a6.85,6.85,0,0,1-.88-3.07,1.71,1.71,0,0,1,1.62-1.62c1-.09,1.5.6,1.65,1.49C300.49,399.34,300.56,400.42,300.69,401.72Z"/><path class="cls-1" d="M470.46,167.61a30.43,30.43,0,0,1,1-3.34c.5-1.15,1.19-1.45,1.87-1.1a1.69,1.69,0,0,1,.64,2.34,14.67,14.67,0,0,1-1.31,2.58c-.26.39-1,.9-1.25.78C471,168.68,470.75,168,470.46,167.61Z"/><path class="cls-1" d="M430.17,256.1c1.1,1.79,1,3.69,1,5.58-1.35.21-2-.06-2.51-1.09a19,19,0,0,1-.63-2C427.53,257.12,427.88,255.91,430.17,256.1Z"/><path class="cls-1" d="M297.94,187.46a8.53,8.53,0,0,1-.47,1.78c-.23.44-.67,1-1,1.06a2.15,2.15,0,0,1-1.52-.72c-.9-1.07-.52-3.7.58-4.53a1,1,0,0,1,1.59.3A17.18,17.18,0,0,1,297.94,187.46Z"/><path class="cls-1" d="M458.4,178.79a1.76,1.76,0,0,1,1.39,2.5,11.57,11.57,0,0,1-1.4,2.27c-.3.37-1.1.85-1.29.72-.5-.35-1.23-1.15-1.1-1.5a26.48,26.48,0,0,1,1.93-3.81C458,178.83,458.29,178.83,458.4,178.79Z"/><path class="cls-1" d="M457.65,189.73c.94,2,.44,4.44-1.07,5.4a1.13,1.13,0,0,1-1.76-.4,2.66,2.66,0,0,1-.3-1.37C454.6,192.28,456.3,190.33,457.65,189.73Z"/><path class="cls-1" d="M315,175.75c-2.8.09-3.94-.89-3.88-3.08,0-.81.39-1.45,1.11-1.47a2.08,2.08,0,0,1,1.67.81,7.34,7.34,0,0,0,1.16,2.05C315.29,174.39,315,175.19,315,175.75Z"/><path class="cls-1" d="M468.24,177.35c-.25-.2-.76-.41-.8-.69a3.18,3.18,0,0,1,.13-1.93,12.25,12.25,0,0,1,1.92-2.09,1.08,1.08,0,0,1,1.64-.13,1.55,1.55,0,0,1,.29,1.42,33.85,33.85,0,0,1-2.49,3.16C468.83,177.22,468.57,177.23,468.24,177.35Z"/><path class="cls-1" d="M461.82,191.7a7.34,7.34,0,0,1,.53,2,23,23,0,0,1-.63,3.2,1.12,1.12,0,0,1-1.36.94,1.17,1.17,0,0,1-1.15-1.41A7.15,7.15,0,0,1,461.82,191.7Z"/><path class="cls-1" d="M466.1,183.2c1.9,1.39,2,1.69,1.16,3.05a16.34,16.34,0,0,1-1.21,1.89c-.41.5-1.08.81-1.61.27A1.63,1.63,0,0,1,464,187C464.57,185.76,465.33,184.56,466.1,183.2Z"/><path class="cls-1" d="M308.07,402.2c-2.17-1.33-2.62-2.29-1.66-3.78a1.64,1.64,0,0,1,1.29-.66,2.26,2.26,0,0,1,1.47.86C309.61,399.32,308.95,401.22,308.07,402.2Z"/><path class="cls-1" d="M436,254.06c.23.65.75,1.36.64,2a7,7,0,0,1-1.23,2.52c-.14.2-.92.16-1.26,0a1.72,1.72,0,0,1-.6-2.36,15.73,15.73,0,0,1,1.76-2.17Z"/><path class="cls-1" d="M305.91,241.78a1.89,1.89,0,0,1-1.69-2.12c.12-1.16.68-1.73,1.64-1.66a2.14,2.14,0,0,1,1.82,2.31C307.55,241.42,307,241.89,305.91,241.78Z"/><path class="cls-1" d="M111.65,174.81c-.29.93-.42,1.52-.65,2.06a14.49,14.49,0,0,1-1.13,2.39,1.38,1.38,0,0,1-1.16.56c-.44-.16-1.07-.72-1.05-1.08a14.74,14.74,0,0,1,.66-4c.43-1.23,1.41-1.49,2.67-.87a2.09,2.09,0,0,0,1.91-.08,7,7,0,0,1,2.59-.44,1.43,1.43,0,0,1,1,1c.05,1.11-.75,1.61-1.72,2s-1.55.49-2.12-.42A11.25,11.25,0,0,0,111.65,174.81Z"/><path class="cls-1" d="M302.13,90.33c-1-.06-2.06-.07-3.08-.19-.83-.1-1.68-.3-1.73-1.4s1-1,1.55-1.4a1.52,1.52,0,0,1,.79-.16c1.51,0,3,0,4.53-.11a2,2,0,0,1,2,1.16,1.21,1.21,0,0,1-1,1.93,26.32,26.32,0,0,1-3.08,0Z"/><path class="cls-1" d="M204.1,100.43c-.41-.74-.74-1.08-.77-1.46a28.18,28.18,0,0,1-.35-5.27,3.13,3.13,0,0,1,2.46-2.6,2.21,2.21,0,0,1,1.09,2.72c-.31,1.42-.29,2.93-1,4.27C205.25,98.71,204.83,99.28,204.1,100.43Z"/><path class="cls-1" d="M99.8,184.26a2.15,2.15,0,0,1,1.32-2.8,19.43,19.43,0,0,1,3.5-1.17,2.84,2.84,0,0,1,1.9.41,1.16,1.16,0,0,1-.05,2,42.71,42.71,0,0,1-5,1.85C101,184.73,100.35,184.37,99.8,184.26Z"/><path class="cls-1" d="M167,114.4a6.73,6.73,0,0,1-1.57-6.74,1.81,1.81,0,0,1,.65-1,2.08,2.08,0,0,1,1.45-.44,1.61,1.61,0,0,1,.91,1.19,40.89,40.89,0,0,1-.27,5.29C168.13,113.23,167.52,113.7,167,114.4Z"/><path class="cls-1" d="M299.17,91.32c2,.71,3.89,1.35,5.75,2,.76.28,1,.86.79,1.79-2.52.66-4.91-.08-7.29-.87-.76-.25-.84-.91-.47-1.52A11.56,11.56,0,0,1,299.17,91.32Z"/><path class="cls-1" d="M135.26,125.5a10.47,10.47,0,0,1,1.34-2.38c.77-.8,1.75-.39,1.94.71a28.07,28.07,0,0,1,.45,3.22,3.06,3.06,0,0,1-.38,1.53c-.39.74-1,.86-1.69.31C135.82,128.07,135.59,126.89,135.26,125.5Z"/><path class="cls-1" d="M195.66,103.51c-.81.1-1.62.22-2.44.28-1.07.09-1.53-.46-1.31-1.48a2,2,0,0,1,2-1.73,22.4,22.4,0,0,1,3.42.45c.75.13,1.3.53,1.17,1.39a1.24,1.24,0,0,1-1.41,1.18,13.77,13.77,0,0,0-1.43.08Z"/><path class="cls-1" d="M111,154.18a15,15,0,0,1-1.86-.14c-.72-.14-1.42-.55-1.21-1.37a2,2,0,0,1,1.14-1.23,8.52,8.52,0,0,1,2.82-.42c1.39,0,2.22.81,2.14,1.76s-.94,1.41-2.21,1.44c-.28,0-.55,0-.83,0Z"/><path class="cls-1" d="M273.54,85.42a11.29,11.29,0,0,1,.22,1.33c0,.69.06,1.44-.74,1.76a1.64,1.64,0,0,1-2-1,13.25,13.25,0,0,1-.35-3.64,1.35,1.35,0,0,1,1.58-1.28,1.86,1.86,0,0,1,1.49,1.74A8,8,0,0,1,273.54,85.42Z"/><path class="cls-1" d="M131.38,132.88a16.05,16.05,0,0,1-2.76-1.15,1.41,1.41,0,0,1-.26-2.17c.57-.82,1.15-.73,1.93-.25a5,5,0,0,0,1.92.66c.88.13,1.71.21,1.68,1.35,0,.83-.75,1.27-2,1.31h-.41Z"/><path class="cls-1" d="M169.43,121.47a1.9,1.9,0,0,1-2-1.33,2.53,2.53,0,0,1,.53-2.67,2.45,2.45,0,0,1,1.37-.84c.5,0,1.38.26,1.48.6a9.26,9.26,0,0,1,.32,3C171.13,121.13,170.38,121.42,169.43,121.47Z"/><path class="cls-1" d="M229.22,95.53A10.09,10.09,0,0,1,228,93.23a9.62,9.62,0,0,1,0-2.86A1.33,1.33,0,0,1,229.33,89a1.4,1.4,0,0,1,1.57,1.27A5.24,5.24,0,0,1,229.22,95.53Z"/><path class="cls-1" d="M223.52,95.86c.62,0,1-.11,1.15,0a3.36,3.36,0,0,1,1,1.11.9.9,0,0,1-.61,1.31,28.39,28.39,0,0,1-3.94.89c-.31,0-1-.58-1-1a1.67,1.67,0,0,1,1.15-1.94A15.48,15.48,0,0,1,223.52,95.86Z"/><path class="cls-1" d="M138.2,134.71c-.35,1-.66,1.92-.94,2.82-.35,1.12-1.15,1.75-2,1.58a2.18,2.18,0,0,1-1.34-2.3,3.46,3.46,0,0,1,1.78-2.37A1.88,1.88,0,0,1,138.2,134.71Z"/><path class="cls-1" d="M99.88,158.85a7.79,7.79,0,0,1,.55,1.62,11.74,11.74,0,0,1,0,2.8,1.73,1.73,0,0,1-.86,1.23,1.66,1.66,0,0,1-1.42-.39C96.11,162,96.76,159.79,99.88,158.85Z"/><path class="cls-1" d="M146,130.72c-3,1.48-5,1-5.51-1.49a4.89,4.89,0,0,1,3.87-.78C145.75,128.7,145.93,129,146,130.72Z"/><path class="cls-1" d="M107.68,187.61a10.5,10.5,0,0,1-.2,1.42,1.79,1.79,0,0,1-1.84,1.38,2.23,2.23,0,0,1-1.88-1.7,3.55,3.55,0,0,1,1.66-2.92C106.64,185.28,107.64,186.08,107.68,187.61Z"/><path class="cls-1" d="M268.12,92.66c-1.9,0-3.12-.69-3.49-1.87a1.49,1.49,0,0,1,.54-1.82,1.27,1.27,0,0,1,1.69,0,11.61,11.61,0,0,0,1.59.92,1.43,1.43,0,0,1,.76,1.9C269,92.26,268.33,92.5,268.12,92.66Z"/><path class="cls-1" d="M250.71,91.88c-1-1.23-1.8-2.26-1.84-3.65a1.78,1.78,0,0,1,1.57-2.06c1-.05,1.62.65,1.62,1.94a10.81,10.81,0,0,1-.28,2.65C251.66,91.17,251.12,91.47,250.71,91.88Z"/><path class="cls-1" d="M306.81,96.9c-.51,2.37-2.1,2.65-3.71,2.7a1.75,1.75,0,0,1-1.39-.88,1.72,1.72,0,0,1,.52-1.58,10.75,10.75,0,0,1,3.14-.75C305.83,96.34,306.33,96.72,306.81,96.9Z"/><path class="cls-1" d="M175.07,110.73c0-1.81,1.06-2.39,2.52-2.57a1.94,1.94,0,0,1,2.33,1.5C178.74,111.82,177.19,112.17,175.07,110.73Z"/><path class="cls-1" d="M159.83,118.13a9.92,9.92,0,0,1-1.86-1.06,1.63,1.63,0,0,1,.14-2.51,1.61,1.61,0,0,1,2.35.07,10,10,0,0,1,1,1.52C162.2,117.3,161.72,118.1,159.83,118.13Z"/><path class="cls-1" d="M227.12,103.94a1.56,1.56,0,0,1-1.78,1.74,2.1,2.1,0,0,1-2.15-2.25,2.17,2.17,0,0,1,2.11-2.09C226.28,101.39,227.15,102.63,227.12,103.94Z"/><path class="cls-1" d="M100.31,151.59c.3-.42.51-.78.78-1.09.64-.76,1.35-.53,2,0s1.08,3,.63,3.66a2.17,2.17,0,0,1-1.23.87c-.25,0-.69-.52-.91-.89C101.12,153.36,100.78,152.54,100.31,151.59Z"/><path class="cls-1" d="M234.93,95.2c1.44.86,3,1.41,2.65,3.46-2.19.64-3.33.47-3.92-.55S233.43,96.4,234.93,95.2Z"/><path class="cls-1" d="M207.75,104.42c-.08,1.16-1,2.16-1.83,2.1a2.23,2.23,0,0,1-1.57-2.12c.05-1.22.85-2.23,1.73-2.17A1.93,1.93,0,0,1,207.75,104.42Z"/><path class="cls-1" d="M108.45,164.38a1.15,1.15,0,0,1-1.16,1.39,2.88,2.88,0,0,1-2.5-2.36,1.53,1.53,0,0,1,1.47-1.66C107.21,161.77,108.39,163.19,108.45,164.38Z"/><path class="cls-1" d="M199.46,110.21a1.48,1.48,0,0,0,0,.2c.16.76.38,1.55-.73,1.76a1.88,1.88,0,0,1-2-1.6,5.8,5.8,0,0,1-.06-1.43c.08-1.22.42-1.57,1.43-1.55a1.5,1.5,0,0,1,1.49,1.6A5.69,5.69,0,0,1,199.46,110.21Z"/><path class="cls-1" d="M260.53,97c-.83,1.44-1.45,1.91-2.36,1.52a2.67,2.67,0,0,1-1.32-1.37,1.35,1.35,0,0,1,.86-1.82,2.32,2.32,0,0,1,1.62.4A6.4,6.4,0,0,1,260.53,97Z"/><path class="cls-1" d="M245.86,97.58c0,.89-.78,2-1.39,2a2.35,2.35,0,0,1-2-2,1.73,1.73,0,0,1,1.8-1.59A1.7,1.7,0,0,1,245.86,97.58Z"/><path class="cls-1" d="M266.64,100.17c-.05-1.33-.54-2.38.62-3a1.72,1.72,0,0,1,2.23.52,1.87,1.87,0,0,1,.1,1.66C268.94,100.5,267.8,99.94,266.64,100.17Z"/><path class="cls-1" d="M276.32,92.72a1.5,1.5,0,0,1-1.65-1.4,1.7,1.7,0,0,1,1.6-2,2,2,0,0,1,1.66,2C277.93,92.27,277.41,92.72,276.32,92.72Z"/><path class="cls-1" d="M251.55,104.2c-.47,1.81-.87,2.27-1.91,2.27-.85,0-1.1-.54-1.35-1.26-.37-1.07.27-1.54,1-2C250.47,102.54,251,103.52,251.55,104.2Z"/><path class="cls-1" d="M436.77,382.27a3.52,3.52,0,0,1,3.51,2.25,1.23,1.23,0,0,1-1.39,1.68,11.14,11.14,0,0,1-2.64-1.09,1.43,1.43,0,0,1-.75-1.91C435.75,382.7,436.51,382.45,436.77,382.27Z"/><path class="cls-1" d="M440.57,380.25c-1.26.07-1.83-.4-1.86-1.53a1.54,1.54,0,0,1,1.71-1.6c1.39,0,2.48.66,2.53,1.57C443,379.77,442.43,380.15,440.57,380.25Z"/></svg>