<svg id="trace" xmlns="http://www.w3.org/2000/svg" viewBox="0 0 500 800"><defs><style>.cls-1{fill:#fff;stroke:#fff;stroke-miterlimit:10;stroke-width:0.7px;}</style></defs><title>meowshow-2</title><path class="cls-1" d="M103.27,138c-.75-.06-1.82.13-2.19-.24-1.63-1.61-3.33-3.3-2.7-6.12,3.22,1.09,3.18,4.07,5.3,5.48Z"/><path class="cls-1" d="M247.72,137.05c-1-2.94-1.1-5.08,1.25-7C251,132.7,250.84,134,247.72,137.05Z"/><path class="cls-1" d="M111.41,128.87c3.33,2.8,3.35,2.91,1.16,7A8.61,8.61,0,0,1,111.41,128.87Z"/><path class="cls-1" d="M127.79,128.77l.71,5.93C125.18,132.46,125,131.48,127.79,128.77Z"/><path class="cls-1" d="M115.69,117.81c-1.8-1.39-1.8-1.39-2.26-4.5C116.32,113.17,116.88,114.29,115.69,117.81Z"/><path class="cls-1" d="M116.57,124.95c-2.69-.9-1.74-2.85-2-4.53C118,121,118.07,121.13,116.57,124.95Z"/><path class="cls-1" d="M103.29,122.32l2.71,3.87c-4,.12-4.31-.21-3.71-3.52Z"/><path class="cls-1" d="M254.29,136.35c-1.67-.85-2.11-2-1.38-3.56C256,133.9,256,133.9,254.29,136.35Z"/><path class="cls-1" d="M146.07,550.62l10.79,7.87c1.16.85,2.26,1.76,3.46,2.57,6.47,4.35,13,8.68,18.9,12.66a13.29,13.29,0,0,1-1.59,11.79c-1.61,2.56-2.57,5.46-4.37,7.9a27.58,27.58,0,0,1-6,5.82c-3.84,2.77-7.91,5.3-12,7.76-3.23,1.94-6.58,3.76-10,5.38-2.89,1.36-6.14.33-8.67-2.47,5.85-9.19,11.29-18.61,14.82-29-1.48-2.6-4.83-2.91-7.3-4.29q-10.33-5.75-20.92-11.13c-5.88-3-11.94-5.67-17.87-8.57-3-1.48-5.9-3.2-8.92-4.69-6-3-12.24-5.71-18.18-8.84a100.71,100.71,0,0,1-10.52-6.7c-2-1.4-3.54-3.33-5.58-4.68-5.14-3.39-8.08-8.21-11.13-13-1.91-3-4.15-5.75-5.33-9.19-2.66-7.74-.45-15.13,5.32-20.57-1.33-8.88-2.74-17.85-4-26.85a50,50,0,0,1-.15-7.62c.07-3.73.26-7.45.37-11.17.24-7.35.43-14.7.7-22.06.14-3.88.45-7.75.58-11.63.38-11,.45-22,1.15-32.92.55-8.54,1.89-17,2.82-25.55.81-7.45,1.82-14.89,2.25-22.36a181.61,181.61,0,0,0-2.23-37.51c-1.58-10.46-2.35-21-4.16-31.46-1.3-7.5-3.61-14.87-5.68-22.25-1.88-6.73-4.45-13.33-6-20.12C35,210.5,34.2,203,33.12,195.6c-1.22-8.45.05-16.78,1.45-25.14.82-4.88.48-9.92,1.28-14.8,1.42-8.59,3.18-17.14,5.06-25.67a128.66,128.66,0,0,1,4.45-16.29A144.91,144.91,0,0,1,53,96.59,226.33,226.33,0,0,1,71,67c4.34-5.95,8.76-11.87,12.71-18,4.1-6.37,7.82-12.91,9.65-20.23,1.1-4.4,4.84-7.64,8.46-10.67a5.5,5.5,0,0,1,7,.2A97.26,97.26,0,0,1,118,27.54a26.7,26.7,0,0,1,3,4.92,5,5,0,0,1,.92,2.23c-.1,5.2.39,10.52-.73,15.56s-3.79,10-6,15c-1.2,2.73-3.42,5.22-4.05,8-2.34,10.28-8.79,19.08-12.6,28.81-2.2,5.62-4.68,11.15-7,16.75S87.11,129.87,85,135.44a9.21,9.21,0,0,0-.52,5.22c1.5-2.57,3-5.13,4.51-7.7,5.78-10,11.88-19.82,20-28.56,2.67-2.89,5.4-5.74,8.14-8.59,1.61-1.68,3.54-1.67,4.7.26,3.88,6.46,9.55,12,12.23,19.1,1.21,3.22,3.83,6,5.87,9,2.28,3.29,4.75,6.48,6.91,9.84,2.44,3.78,6.85,4.87,10.87,6,7.86,2.21,15.62,4.7,24,5.62,6.22.69,12.34,2.42,18.68,2.78a4,4,0,0,1,1.31.3c11.29,4.83,20.5.72,28-6.25,7.9-7.3,15.6-14.91,20.76-24.18a22.77,22.77,0,0,1,4.5-5.48,5.31,5.31,0,0,1,7.87.19,22.45,22.45,0,0,1,3.52,4.6c6.11,10.54,8.46,22,9.61,33.61.92,9.31,1.45,18.67,1.58,28,.08,5.45-1,10.91-1.48,16.37-.06.65,0,1.3,0,2.65a16.1,16.1,0,0,0,1.93-2.16c4.17-7.54,9.89-14.45,12-22.84,1.76-7,3.29-14.12,5.21-21.12s4.05-13.7,6.22-20.52a85.62,85.62,0,0,0,4.24-20.84c.52-8.53,2.06-17,2.71-25.53.71-9.33,3-18.55,2.1-28a22.54,22.54,0,0,1,1.66-11.44,10.27,10.27,0,0,1,6.22-5.48c4.45-1.67,12.13.37,15.78,3.3a127.14,127.14,0,0,1,11.3,10.31,7.64,7.64,0,0,1,2.35,5.8c0,8.3.24,16.6.39,24.9a15,15,0,0,1,0,1.61c-1,10.93-1.74,21.88-3.07,32.77A215.07,215.07,0,0,1,341,141.09c-1.11,4.82-3.22,9.46-4.57,14.25-1.05,3.75-1.64,7.6-2.38,11.41-1.54,8-2.63,16.08-4.72,24-1.29,4.87-3.87,9.51-6.26,14.09q-4.55,8.7-9.77,17.13c-6.71,10.86-11.95,16.59-22.57,24.82-8.29,6.43-12,14.54-10.6,24.09,1.45,10.06.63,20-.17,30-.49,6.13.17,12.34-.57,18.43-.85,7,1.4,13.75,1.16,20.72-.38,10.68.4,21.4.51,32.1,0,4.54-.28,9.08-.55,13.62-.39,6.55-.66,13.06,1.35,19.5a51,51,0,0,1,1.35,7.92c1.71,11.82,6.44,22.3,15.78,31.2,7.89,7.51,15,15.66,20.1,25,2.36,4.29,5.48,8.26,8.37,12.31a9.56,9.56,0,0,0,6.64,3.68c8.59,1.38,17.12,3,25.73,4.26a39.79,39.79,0,0,0,8.95-.25c2.68-.24,3.52.06,4.32,2.34a17.63,17.63,0,0,1-.81,13.32,4.24,4.24,0,0,1-1.67,1.82c-7.46,4.35-15.24,6.75-25.08,7.77a11.71,11.71,0,0,1-2.69,0A79.33,79.33,0,0,0,328,514c-8.24.46-16.53.79-24.78.52-4.42-.14-8.83-1.49-13.15-2.58-7.21-1.83-14.35-3.9-22-6a37.55,37.55,0,0,0-1.7,4.7c-1.32,6.16-.58,12.3.95,18.33,1.11,4.41,2.66,8.75,4.1,13.09,1.88,5.63,3.6,11.33,5.85,16.84s4.83,10.61,7.55,15.79c3.55,6.77,7.36,13.44,11.1,20.14.93,1.67,2.11,3.23,3.09,4.88,2.37,4,4.65,8.08,7,12.1,1.26,2.13,2.59,4.22,4,6.29,1.76,2.63,3.85,5.1,5.37,7.83,5,9,10,17.94,14.69,27.06,3.66,7.17,6.59,14.64,10.19,21.84q6.31,12.63,13.24,25c5.21,9.33,13.69,16.29,22.48,22.83,12,8.91,26,14.9,40.15,20.57,2.46,1,4.83,2.16,7.22,3.29,4.76,2.26,9.08,5.3,14.69,6,1.41.18,2.63,1.31,4,1.77,2.37.79,4.79,1.87,7.25,2,5.74.29,10,3.46,15,5.35,1,.39,1.8,1.85,2.11,2.94a22.9,22.9,0,0,1,1,6.3,4.66,4.66,0,0,1-1.74,3.1,48.9,48.9,0,0,1-14.23,7.64,1.6,1.6,0,0,1-.43.12c-7.18.51-14.36,1.31-21.55,1.41a37.3,37.3,0,0,1-11-1.83c-8-2.4-15.83-5.16-23.71-7.83a60.73,60.73,0,0,1-16-8.18c-7.38-5.3-14.89-10.46-22.12-15.91a43.27,43.27,0,0,1-7.17-7.19c-5.24-6.37-10.49-12.76-15.3-19.38a76,76,0,0,1-9-16.86c-3.64-9.2-7.08-18.46-10.87-27.61-3.48-8.38-7.48-16.59-11-25-3.38-8.13-7.16-16.11-9.25-24.67-1.07-4.36-3.72-8.42-5.69-12.6-.46-1-1.22-1.87-1.62-2.87-2.74-6.89-7.41-12.7-12.08-18.66-4.06-5.18-6.35-11.45-9.35-17.27-1.37-2.65-2.36-5.48-3.92-8-2.43-4-5.28-7.79-7.77-11.76a53.8,53.8,0,0,1-2.81-6,102.76,102.76,0,0,1-7.59,8,63.14,63.14,0,0,1-9.81,7c-4.36,2.48-9.27,1.83-14.07.94A74.34,74.34,0,0,1,191.22,556a97.58,97.58,0,0,0-30.5-13.52c-1.58-.4-3.06-1.11-4.63-1.55-2.29-.64-4.6-1.55-6.94-1.66-6.13-.28-11.94-1.32-17.29-4.08a11.54,11.54,0,0,0-2.25-.61c-.8,3.73,3,4.37,5,6.19-5,.46-6.33-3.35-7.82-6.09a7.41,7.41,0,0,0-4.67-3.74c-3.09-1-6.38-1.79-9.22-3.24a154.62,154.62,0,0,0-31.21-11.55c-13.06-3.41-22-10.46-27.86-21.06-.64-1.17-1.35-2.3-2.07-3.53a16,16,0,0,0-2.37,21.25c2.95,4,5.81,8.13,8.8,12.14a19.18,19.18,0,0,0,3.17,3.34c2.2,1.81,4.58,3.45,6.82,5.21,1.66,1.3,3.23,2.69,4.76,4,3-1.56,4.37-5.22,8.45-3.89,1.58,2.87-.61,5-1.47,7.84L91,546c2.28-1.6,3.87-2.85,5.63-3.88a3.09,3.09,0,0,1,2.44-.21,2.13,2.13,0,0,1,.77,2c-.55,1.89-1.4,3.7-2.27,5.88l5.81,3.06c.68-.54,1.11-.9,1.55-1.24,1.24-.94,2.47-2.33,4.29-1.21s.73,2.6.12,3.94c-.09.2.05.48.09.72,5.06,2.63,10.32,5,15.13,7.94a235.5,235.5,0,0,0,26.24,14c4.18,1.87,4.46,2.64,2.73,6.6-1.57,3.6-3.08,7.22-4.65,10.82a6.11,6.11,0,0,1-1.29,2.09c-3.89,3.59-5,8.41-7.49,12.64,4,1,4.37.88,4.83-2,.34-2.13,1.75-3.39,4.9-4l-2.64,3.66.75.65,3.9-2.12c-1.65-6.09-1.4-6.85,1.88-6.41l.34,4.78c5.11-3.25,9.64-6.06,14-9a8.31,8.31,0,0,0,2.38-2.87c2-3.57,3.9-7.21,5.86-10.81,1.47-2.7,1.27-4.85-1.11-6.91-2.9-2.52-5.68-5.31-9.07-7.2-6.73-3.75-12.09-8.84-17.94-13.45A13.39,13.39,0,0,1,146.07,550.62Zm177.66,144.3L330.21,709l4.51-2.39c2.8,3.8-1.91,4.48-2.78,6.83C337,722.71,344,731,350.89,739.55c2.73-2.09,3.44-6,8.08-4.66,1.29,4.11-3,5.6-5.45,8.52,4.86,3.88,9.29,7.94,14.3,11.31,8.38,5.64,16.17,12.14,26.14,15.65,8.68,3.06,17.39,6.08,26.21,8.8a35.62,35.62,0,0,0,19.17.49,25.19,25.19,0,0,1,6.72-.71c6.72.23,11.72-3,16.64-6.29,2.28-1.52,2-7.64-.47-9-4.1-2.25-8.33-4.46-13.27-4.82a19.31,19.31,0,0,1-8.46-2.51,10.6,10.6,0,0,0-3.25-1.39c-5.75-1-10.58-3.77-15.56-6.29-3.88-2-7.78-4-12.57-4.49-1.1,3.8-4.28,4.7-8,4.7-.79,0-2-.26-2.25-.74s.06-1.53.5-2.09c1.27-1.6,2.74-3.09,4.57-5.11q-29.36-11.49-48.56-33.25c-2.56.79-3.56,3.88-7.09,2,.73-1.29,1.18-2.74,2.2-3.71,1.61-1.52,1.76-2.74.62-4.61a265.41,265.41,0,0,1-18.31-36.21,8,8,0,0,0-1.34-1.61l-1.9,1.54c-1.17.93-2.43,1.85-3.9.55-1.28-1.13-.35-2.28.42-3.25,1.1-1.4,2.35-2.7,3.43-3.92-6.73-14.85-29.13-52-33.1-56.77a35.26,35.26,0,0,1-3.1,2.66,2.51,2.51,0,0,1-2,.34c-.66-.34-1.45-1.16-1.43-1.75a22.29,22.29,0,0,1,.84-4.06l3.62-.75a6.52,6.52,0,0,0-.35-1.44c-4-7.06-7.84-14.16-11.94-21.16a107.45,107.45,0,0,1-9-20.08,118.88,118.88,0,0,0-4.45-12.18c-5.56-12-6.49-24.36-4.23-37a7.67,7.67,0,0,1,1.16-2.6c.78-1.24,1.83-1.53,3.39-.8a45.34,45.34,0,0,0,6.94,2.71c4.45,1.24,9.22,1.76,13.44,3.42,8.1,3.18,16.24,3.29,24.48,1.89a22.34,22.34,0,0,1,.55-4.43,2.54,2.54,0,0,1,3.5-1.68c1.64.56,1.6,1.7,1.22,3a35.49,35.49,0,0,0-.67,3.67h4.38c.32-2.05.64-3.88.89-5.72a2.47,2.47,0,0,1,2.58-2.35c1.71,0,2.29,1.07,2.33,2.41,0,1.68,0,3.36,0,5.05l10.45.54c.34-1.78.57-3.48,1-5.14a3.06,3.06,0,0,1,3.52-2.5c2,.23,2.16,1.77,2.11,3.09a45,45,0,0,1-.77,5.16c7-.88,13.81-1.31,19.51-5.55L358.65,505c-.8-3-1.27-5.77.45-9,2.15,2.21,1.93,4.7,3.05,6.87l2-.18-.73-6.11c2.7-.35,2.7-.35,3.9,3.63,4.41-.46,4.91-2.45,1.89-7.43-13.49.12-26.48-3-39.61-4.54-.6.88-1,1.59-1.54,2.25s-1.26,1.45-1.86,2.13c-3.32-1.35-4-1.84-2.86-4.06,1.79-3.47,1.2-6.25-1.48-9a8.17,8.17,0,0,1-.79-1.43c-5.94-9.25-10.81-19.08-19.87-26.54a56.51,56.51,0,0,1-8.85-9.07c-6.25-8.13-10.94-16.9-12.17-26.87a15.85,15.85,0,0,0-.67-2.22l-6.57,3c-2.31-1.55-2.31-1.55-2.39-4.23l8.86-2.88-2.35-9.58c-2.75.74-5.17,1.38-7.57,2.06-1.08.31-2.29.5-2.59-.66a2.64,2.64,0,0,1,.77-2.44,14.3,14.3,0,0,1,4.76-2.17c3.48-.76,4.85-2.43,4.83-5.67-.08-11.25.22-22.5.17-33.74,0-4.93-.53-9.86-.82-14.8-9.7,1.2-9.7,1.2-11.13-1.57l12.08-4L276,324.43l-3,.75a13,13,0,0,1-3,.7,15.8,15.8,0,0,1-3.27-.67c.47-1,.61-2.49,1.47-3a22,22,0,0,1,5.39-1.89c1.78-.49,2.95-1.26,2.85-3.09-.07-1.3,0-2.61,0-3.95-7.31.85-7.31.85-9.05-2.41l9.76-4.24c0-3.37-.24-6.59,0-9.78.6-6.68,1.43-13.34.47-20a60.24,60.24,0,0,1-.22-12.8c.23-3.45,2-6.35,2.76-9.58a9.66,9.66,0,0,1,3.57-5.43c2.92-2.4,5.61-5,8.56-7.73-6.11-1.37-6.11-1.37-6-4.69,2.66.18,5.33.23,8,.58,3.22.43,3.29.49,4.77-2.51-5.39-1.49-5.56-1.63-5.38-5.25l9.83.79,2.36-3c-1.79-1.06-4.56-1-4.4-4.06a14.15,14.15,0,0,1,3.64-.41,6,6,0,0,0,6.81-3.46c2.54-4.7,5-9.47,7.84-14,7.24-11.5,9.1-24.29,11.38-36.95,1.24-6.88,2.32-13.74,5-20.36a64.64,64.64,0,0,0,3-10.06c.95-4.32,1.53-8.71,2.21-13.08.51-3.28.92-6.57,1.37-9.79-5.9-1.44-6.51-2-5.8-5.06l5.81.42V106.2a36.08,36.08,0,0,1-5.39-1.82,2.58,2.58,0,0,1-1.17-2.34c.17-.59,1.52-1.18,2.42-1.28a26.81,26.81,0,0,1,4.33.13c.66-5.09,1.6-9.85,1.79-14.63.2-4.94-.36-9.9-.52-14.86-.15-4.71-.2-9.42-.3-14.28-3.18.52-5.63.71-7.75-1.19s-1.48-4.21-.59-7c-4.7,4-7.67.7-10.94-.76-5.39,2.44-5.39,2.44-10.47.23-.28,2.24-1,4.34-.72,6.33,1.33,9.58-1.13,18.94-1.76,28.39-.1,1.47-.42,2.92-.59,4.38-.86,7.57-2,15.14-2.46,22.73a94.61,94.61,0,0,1-4.46,21.64C302,139,299.46,146,297.35,153c-1.65,5.53-2.9,11.16-4.32,16.75-.59,2.31-1.16,4.62-1.8,7.19a52.51,52.51,0,0,1,6.17.42,3,3,0,0,1,2.13,1.7c.12.66-.74,1.68-1.48,2.17a3.73,3.73,0,0,1-4.2,0c-1.49-.88-3.42-1.24-4.44.3-2.15,3.28-4.58,6.48-5.89,10.34a44.26,44.26,0,0,1,5.13.83c1.25.35,2.74,1,2.23,2.54s-1.58,2-3.48,1.64a51.67,51.67,0,0,0-6.2-.54c-2.45,4.22-4.57,8.18-7,12-3.35,5.25-6.74,10.44-8.24,16.42a5.59,5.59,0,0,1-1.24,2.53q-3.69,3.78-7.65,7.36a12.6,12.6,0,0,1-2.82,1.45l-.93-.61c.35-1,.35-2.34,1.1-3,4-3.67,6.06-8.24,8.23-12.82a44.12,44.12,0,0,1,3.43-5.18,19.9,19.9,0,0,0,2-3.11,77.72,77.72,0,0,0,6.21-25,207.69,207.69,0,0,0-.37-26.46,10.69,10.69,0,0,0-1.09-3.82c-.8-1.68-1.92-3.23-2.82-4.87-1.65-3-3-6.14-4.92-9-2.61-3.89-5.73-7.51-8.43-11.36a9,9,0,0,1-1.64-4.41,45.87,45.87,0,0,1,.51-6.8l.35-3.93c-2.69,1.77-3.13,3.94-4.23,5.87,1.83,1.71,2.43,3.49.22,5.61l-2.07-2.33c-4.17,4.7-8.48,9-12.1,13.76-4.54,6-10.16,10.77-17.56,13.43-5.37,1.93-11.2,3.06-17,.36-2.07-1-4.61-1.17-7-1.56-8.73-1.43-17.5-2.66-26.19-4.24a89.48,89.48,0,0,1-11.63-3.23,104.76,104.76,0,0,1-11.2-4.25,14.17,14.17,0,0,0-5.31-1.56,18.69,18.69,0,0,1-10.25-3.71c-2.27-1.74-1.72-4.18-2.25-6.33-1.51-6.19-5.16-11.25-9.65-16.05-3.21-3.43-8.54-3.3-12.11-.83a13.69,13.69,0,0,0-3.68,3.46c-4.31,6.56-8.67,13.11-12.59,19.86-3.63,6.25-6.93,12.67-10,19.16-2.19,4.67-4.52,9.48-5.39,14.42-1.3,7.37-1.55,14.91-1.89,22.38-.37,8.19,1.13,16.22,3.28,24.17a7.28,7.28,0,0,1-.21,2.22,59.88,59.88,0,0,1-6.86-.08,3.66,3.66,0,0,1-2.52-1.76c-.54-1.31.88-1.78,2.06-2.12s2.54-.69,4.18-1.14L72.79,207a47.43,47.43,0,0,1-6.72-1c-.83-.25-1.27-1.54-1.89-2.35a11.09,11.09,0,0,1,2.59-1.14c1.69-.29,3.44-.31,4.84-.43-.13-5.24-.38-9.91-.33-14.58,0-3.34.53-6.68.74-10,.42-6.59,1.57-13.09,4.45-19.17,2.6-5.48,4.63-11,4.8-17a17.47,17.47,0,0,1,1.43-5.44c1.67-4.43,3.5-8.82,5.23-13.23,1.92-4.9,3.81-9.81,5.7-14.69-6.49-2.86-6.49-2.86-6-5.59a11,11,0,0,1,1.73,0c7.22,1.15,6.23,1,8.78-4.9a5.44,5.44,0,0,0,.13-1.43c-2-.48-4-1-6-1.42-1.28-.29-2.39-.8-2.2-2.11.23-1.61,1.71-1.63,3.11-1.55,2.52.14,5,.32,7.55.48l2.71-6.33C94.7,83.38,92.68,82,93,77.45l12.83.69c2.7-4.94,5.44-9.69,7.9-14.56,1.23-2.43,1.78-5.12,2.89-7.59,2.89-6.42,2.43-13.11,2.17-19.78,0-1.25-.88-1.9-2.4-1.53.37,5.15-1.65,7-7.56,6.85a15.63,15.63,0,0,1-4.39-.75c-6.06-2-7.38-5.24-4.31-10.24,1.77-2.88,4.67-3.62,7.81-2l3.72,1.9c0-1.26.17-2.36,0-2.42a31.4,31.4,0,0,0-7.19-1.55c-2.23-.06-4.48.76-7.27,1.29a6,6,0,0,0-.64.84,5.24,5.24,0,0,0-.72,1.47C92.92,41.82,85.5,51.62,78.46,61.57c-3.29,4.64-7.08,9-10.07,13.8C63.84,82.61,59.62,90,55.6,97.49A53.32,53.32,0,0,0,50,111.6l7.08,2c-2,4.24-6.2,3-9.24,4l-2,6c2.49,1.65,6.52.24,7.57,3.66-3.36,2-4.62,2.27-9.12,2.14a24.36,24.36,0,0,0-1,3c-1.38,6.29-3,12.56-4,18.91s-.72,12.88-1.89,19.2c-1.8,9.74-1.73,19.39-.85,29.19,1,11.18,4.41,21.81,7.81,32.48a5.34,5.34,0,0,0,.74,1.21c3.14.89,7-1.62,9.17,2-1.48,3.17-5.18,2.29-7.82,3.52.25,1.05.43,2.1.76,3.11a100.53,100.53,0,0,1,5.06,27.24c.12,2.77.92,5.51,1.33,8.28.34,2.25.61,4.51.84,6.77.21,2.09.33,4.19.51,6.49,2.5-.26,4.56-.49,6.62-.69,1.53-.15,3.49-.33,3.75,1.28.16,1-.93,2.58-2,3.19a50,50,0,0,1-6.91,2.8l.46,8.82H67.36c-1.15,5.52-6.22,3.84-9.55,5v8.4c1.92-.35,3.36-.67,4.81-.85,1.61-.2,3.62-.74,4.42,1s-.82,3-2.34,3.88a26.29,26.29,0,0,1-4.07,1.73c-1.07.4-2.19.68-3.13,1-.4,5.24-.66,10.18-1.18,15.08-1.45,13.57-3.11,27.12-4.46,40.7-.5,5-.35,10.06-.49,15.09,4,.08,8.42-1.86,10.7,3-3,3-7.61.11-10.69,2.56v10.11c1.87-.72,3.23-1.23,4.58-1.77s2.65-.67,3.6.58.08,2.34-1.12,3C56,415.86,53.51,417,51,418.24c-1.51,9.19-2,39.71-.62,43a12.83,12.83,0,0,1,2.68-1.36,69.11,69.11,0,0,1,8.24-1.62,2.87,2.87,0,0,1,2.28,1.54,3.15,3.15,0,0,1-1.13,2.73,10.07,10.07,0,0,1-4.14,1.33c-2.6.34-5.24.42-8,.62.25,3.17.36,6,.73,8.77.89,6.62,1.84,13.34,4.61,19.51,4.73,10.49,13.45,17.39,25.86,20.67,6.91,1.82,13.69,4.09,20.37,6.5,5.57,2,10.89,4.54,16.35,6.79,4.09,1.69,8.28,3.2,12.34,4.94,6,2.58,12.08,4.75,18.92,5,2.78.1,5.53,1.15,8.25,1.91,2.44.68,4.77,1.65,7.21,2.33,9,2.48,17.49,5.76,24.91,10.94a83.56,83.56,0,0,0,30.25,13,19,19,0,0,0,14.06-2.35c5.74-3.24,9.82-7.82,13.59-12.7.9-1.17,1.92-2.26,2.79-3.27,2.63.85,3.18,2.37,3.57,4.22a17.27,17.27,0,0,0,2.1,5.62c3.22,5.13,6.72,10.13,10.08,15.2a6.61,6.61,0,0,1,1.09,2.17c1.18,5.75,4.3,10.83,7.2,15.93,1.74,3.06,4.43,5.69,6.59,8.58a73.74,73.74,0,0,1,5,7.16c1.78,3.09,3.11,6.38,4.84,9.49,3,5.41,5.95,10.81,7.07,16.84a17.46,17.46,0,0,0,1.11,2.92c5.51-3.91,5.65-3.9,8.35.48a37,37,0,0,1-4.21,4c-2.16,1.52-1.89,3.06-.86,4.93s1.84,3.66,2.69,5.52c2.32,5.08,4.68,10.14,6.9,15.25,1.51,3.48,2.83,7,4.21,10.56,1.71,4.37,3.41,8.75,5.12,13.15l5.43-2.5C328.88,689.37,328.88,689.37,323.73,694.92ZM142.31,134.29c-4.18-6.75-8.26-12.6-11.53-18.79s-7.83-11.8-12.08-17.74L111,105.6c6.45.11,10.65,2.62,13.84,7,3.79,5.19,7.42,10.36,7.77,16.77a4,4,0,0,0,3.1,3.6A57.39,57.39,0,0,0,142.31,134.29Zm116.8-19.53c-.72,3.57-1.55,6.53-1.83,9.54a6.17,6.17,0,0,0,1.35,4.9c3.66,4.37,6.94,9,10.34,13.54.87,1.17,1.64,2.4,2.77,4.06C271.8,135.82,265.26,118.8,259.11,114.76Zm-151.59-76c3.69,0,5.57-1,5.56-2.4,0-1.89-6.44-6.82-8.42-6.4a4.58,4.58,0,0,0-1.5.82c-3.17,2.17-3.26,4.43,0,6.34A22.44,22.44,0,0,0,107.52,38.78Zm215.41,4.44c-1.37-.07-2.82-.52-3.86-.11s-2.16,1.72-2.07,2.54c.16,1.42,1.76,1.62,3.21,1.15C321.86,46.27,323.08,45.42,322.92,43.22ZM104.31,20.63c-3.89,2.08-3.89,2.08-3.79,4.38C105,23.41,105,23.41,104.31,20.63ZM327.14,46.07c1.75,1.63,2.94,2.4,4.08,1.16s.16-2.15-1.49-2.87ZM112.27,24.48l-3.34-2.41C108.45,24.68,108.45,24.68,112.27,24.48Zm226,27.13c-1,2.1-.05,2.63,1.18,3,.19.05.48-.18,1.1-.44Z"/><path class="cls-1" d="M124.48,550.63l-4.34-2.32a8.05,8.05,0,0,1,4.47-4.76,3,3,0,0,1,2.38.07,2.16,2.16,0,0,1,.44,2.14A49.65,49.65,0,0,1,124.48,550.63Z"/><path class="cls-1" d="M135.39,558.86c-1.24-3.62-.16-5.61,3-6.09a3,3,0,0,1,2.32.66c.3.36-.06,1.55-.55,2C138.72,556.62,137.11,557.63,135.39,558.86Z"/><path class="cls-1" d="M172,196.26a9.87,9.87,0,0,0-6,5c-2.58,5.11-4.93,10.31-7.28,15.51a5,5,0,0,0-.41,2.72c.94,6,.72,6.41-5.24,8.57l.61,4.66c1.57,0,3-.05,4.46,0,4.44.19,6.5,2.17,6.42,6.12s-2.64,7.28-6.21,7.88c-4.32.73-10.33-2-11.75-5.27-1-2.23-.36-4.45,1.72-6.19.65-.54,1.38-1,2.12-1.53-.27-1.93-.5-3.78-.8-5.63s-.82-3.27-3.07-4.05c-2.42-.84-3-2.62-2.5-4.94,1.13-5.1,2-10.25,3-15.39a18.38,18.38,0,0,0,0-3,69.65,69.65,0,0,1-8.69-.05c-10.44-1.36-15.43-6.39-17.3-14.94-.22-1,.92-2.59,1.95-3.35,4.19-3.07,9.06-3.51,14-1.83a89.22,89.22,0,0,1,8.92,3.88,11.39,11.39,0,0,1,6.47,7.83,6.2,6.2,0,0,1,.09,3.55,111.19,111.19,0,0,0-5.58,23,2.24,2.24,0,0,0,1.75,2.82c2,.56,4,1,5.79,1.38.4-.4.57-.49.58-.59.71-8.09,5.18-14.92,9.32-21.84a17.27,17.27,0,0,1,3.53-4.09c3-2.58,6.14-5,9.28-7.45a4.58,4.58,0,0,1,2.28-1.13c4.78-.22,9.62-.73,14.34-.3,5.5.5,9.79,3.87,14.43,6.28a7.88,7.88,0,0,1,2.65,2.7c1.79,2.69.85,5.23-2.24,6.12a61.63,61.63,0,0,1-22.72,2.21c-4.47-.4-7.43-2.67-10.41-5.12C174.34,198.77,173.32,197.6,172,196.26Zm-46.68-13c-1.79,4.65-.45,8,3,10.66,3.89,3,8.53,4,13.62,4.38,4.5.33,5.35-2.22,6.63-4.95,1.16-2.46-.54-4.09-2.18-5.14-4.22-2.71-8.56-5.57-14.08-5.72A47.26,47.26,0,0,0,125.28,183.26Zm49.47,11.38c3.44,4.34,7.89,7.32,14.1,7.46a84.27,84.27,0,0,0,11.25-.7,13.83,13.83,0,0,0,8.12-3.25,41.77,41.77,0,0,0-4.51-3.35c-2.16-1.2-4.51-2.16-6.8-3.16a15.75,15.75,0,0,0-9.18-1.25,19.86,19.86,0,0,1-5.84.31C178.21,190.19,176.21,191.7,174.76,194.64Zm-16.3,49.54.1-.9-3.3.28.06.62Z"/><path class="cls-1" d="M131.37,158.81c3.66.43.87,3,2.94,4l4-4.79,6,4.24,2.69-.88c-1.4,4.15,2.71,5,4.83,7.36-1.82,2.23-3.53,4.4-5.35,6.49a3,3,0,0,1-4,.57c-3.33-1.78-6.7-3.5-10.06-5.25-2.86-1.49-2.93-1.88-1.84-4.94a13.71,13.71,0,0,0,.24-3.15C131,161.29,131.2,160.06,131.37,158.81Z"/><path class="cls-1" d="M202.55,170.54c-.45,2.22-.78,3.77-1.07,5.33s-.55,3.15-.88,5.08c-7.7.81-14.86.69-20.43-5.31.82-1.25,1.67-2.62,2.6-4A2.61,2.61,0,0,1,184,170.6,39,39,0,0,1,202.55,170.54Z"/><path class="cls-1" d="M68.61,472.26a9,9,0,0,1-2.68-.06c-.84-.28-2-1-2.09-1.57a2.56,2.56,0,0,1,1.37-2.17,57,57,0,0,1,8.13-2.24c1.65-.32,3.79.09,3.86,1.82a4.45,4.45,0,0,1-2.44,3.34c-1.8.79-4.05.78-6.11,1.11Z"/><path class="cls-1" d="M307.41,487c-1.09,2.27-2,4.47-3.22,6.54a2.59,2.59,0,0,1-2.19.72,2.72,2.72,0,0,1-1.24-2.14,44.54,44.54,0,0,1,1.36-6.13c.39-1.45,1.55-2.58,3.19-2C306.22,484.36,306.61,485.81,307.41,487Z"/><path class="cls-1" d="M244.35,413.3c3-2,5.32-3.73,7.78-5.19a2.72,2.72,0,0,1,3.84,1c.89,1.31.19,2.44-1.1,3a61.62,61.62,0,0,1-7.43,2.76C246.91,415,246,414.15,244.35,413.3Z"/><path class="cls-1" d="M75.3,407.1a3.66,3.66,0,0,1-.86-.06c-1.41-.74-4.22.18-4.18-2.12s2.48-1.29,3.92-1.59a26.16,26.16,0,0,1,5.28-.76c.94,0,1.86.87,2.8,1.34-.57.68-1,1.7-1.74,2A42.55,42.55,0,0,1,75.3,407.1Z"/><path class="cls-1" d="M209.44,231.57c-.45-.33-1.18-.58-1.26-.95a41.88,41.88,0,0,1-1-5.9c-.13-1.74,1.18-1.88,2.69-1.49C211.28,227.17,211.21,228.93,209.44,231.57Z"/><path class="cls-1" d="M108,115.3c1,.8,2.12,1.27,2.25,1.89a65.23,65.23,0,0,1,1,7.54c0,.55-.46,1.13-.76,1.81C108.36,124.58,108,122.73,108,115.3Z"/><path class="cls-1" d="M215.16,230c-1.19-3-1.72-5.45-.52-8C217.75,223.21,218.15,226.73,215.16,230Z"/><path class="cls-1" d="M101.9,211.29c2.3,2.54,2,4.75,1.15,7.19C99.59,216.8,99.34,215.45,101.9,211.29Z"/><path class="cls-1" d="M238.63,146.46c1,3.17,3.77,5.15,2.26,8.28C237.3,151.72,236.62,149.73,238.63,146.46Z"/><path class="cls-1" d="M245.59,155.08l-.39-7c1.4.84,2.36,1.11,2.41,1.48.25,1.9.43,3.85-.82,5.55Z"/><path class="cls-1" d="M240.84,138.21c2.8,2,2.82,2.56.47,6.37C239.53,142.42,241.12,140.26,240.84,138.21Z"/><path class="cls-1" d="M109.09,129.25l.94,6C106.05,132.75,105.82,131.38,109.09,129.25Z"/><path class="cls-1" d="M252.36,148.33c2.86,3.71,2.89,3.9.86,6.34A6.54,6.54,0,0,1,252.36,148.33Z"/><path class="cls-1" d="M121.81,128.91c2.2,3.7,2.21,3.84.81,6.35C120.72,133.17,120.67,132.89,121.81,128.91Z"/><path class="cls-1" d="M251.91,146.24c-2-1.47-.74-3.41-1.76-5.3C253.67,142.28,253.69,142.33,251.91,146.24Z"/><path class="cls-1" d="M247.32,144.88c-2.75-2.6-2.73-3.14,0-5.62Z"/><path class="cls-1" d="M255.86,141.36c3.39,1.76,3.39,1.76.75,5.12Z"/><path class="cls-1" d="M110.67,213.82c.39,1.61.77,3.23-.65,4.81C108.87,216.28,108.87,216.28,110.67,213.82Z"/><path class="cls-1" d="M262.59,153.56c-2.35-1.76-1.59-3.07-.77-4.8C264.12,150.24,263.55,151.58,262.59,153.56Z"/><path class="cls-1" d="M134.76,187.56c1.15,1.7,1.25,2.91-.68,3.55a1.75,1.75,0,0,1-1.49-.55C131.73,188.87,132.92,188.18,134.76,187.56Z"/><path class="cls-1" d="M194.43,197.54c-.44.29-1,.95-1.71,1.06a3,3,0,0,1-3.2-2.66,2.22,2.22,0,0,1,1.27-1.7C192,193.86,194.28,195.86,194.43,197.54Z"/></svg>