<svg id="trace" xmlns="http://www.w3.org/2000/svg" viewBox="0 0 500 500"><defs><style>.cls-1{fill:#fff;stroke:#fff;stroke-miterlimit:10;stroke-width:0.7px;}</style></defs><title>meowshow-2</title><path class="cls-1" d="M126.37,394.28a5.87,5.87,0,0,1-3.38-.16,33.9,33.9,0,0,0-9.59-1.75,8.1,8.1,0,0,1-2.69-.65c-2.32-1.05-4.57-2.26-6.88-3.35-2.74-1.29-5.56-2.42-8.26-3.8s-5.57-3.11-8.35-4.69c-1-.58-2-1.17-3-1.8-2.4-1.54-4.76-3.13-7.16-4.67s-4.7-2.77-6.88-4.39c-2-1.48-3.75-3.28-5.6-4.94a46,46,0,0,0-6.3-5.24,14.89,14.89,0,0,1-3-2.9A108.88,108.88,0,0,1,46,343.64c-1.19-1.8-2.66-3.41-3.88-5.18s-2.55-3.89-3.73-5.9c-2.36-4-4.74-8.07-6.93-12.2a69.61,69.61,0,0,1-3.49-8,64.59,64.59,0,0,1-2.58-8.18c-.81-3.51-2.36-6.82-2.62-10.48a30.06,30.06,0,0,0-1.11-4.22,86.15,86.15,0,0,1-2.08-10.12c-.36-3.55-1.08-7-1.45-10.58-.33-3.14-1.1-6.24-.86-9.43.22-2.89.4-5.79.64-8.68.08-.93.31-1.84.4-2.77.45-4.24.75-8.5,1.34-12.72a58.52,58.52,0,0,1,2-10.11c.67-2,.82-4.2,1.75-6.19a48.79,48.79,0,0,0,1.84-6c.49-1.54,1-3.07,1.64-4.56,1.69-4.1,3.42-8.18,5.14-12.26,1.18-2.8,2.34-5.6,3.57-8.37a51.17,51.17,0,0,1,4.75-8c2.08-3,4-6.15,6.17-9.12a117.73,117.73,0,0,1,8.37-10.78c1.46-1.58,2.71-3.35,4.08-5,2.4-2.93,4.69-5.95,7.25-8.73,2.17-2.35,4.66-4.4,7-6.62,1.44-1.37,2.81-2.81,4.25-4.18a58.42,58.42,0,0,1,9.92-8c3.1-1.86,6.27-3.62,9.39-5.45,1.6-.94,3.14-2,4.77-2.9,1.27-.7,2.68-1.14,4-1.83,2.46-1.33,4.85-2.81,7.32-4.13a91.71,91.71,0,0,1,10.29-4.83,108,108,0,0,0,15.14-7.26,69.39,69.39,0,0,1,10.26-5.26c3.22-1.2,6.48-2.32,9.63-3.69,4.05-1.76,8-3.73,12-5.66,2.94-1.43,5.74-3.17,8.76-4.37,5.08-2,10.27-3.74,15.43-5.56a90.07,90.07,0,0,0,9.84-4c3.87-1.9,7.72-3.86,11.67-5.56,2.66-1.14,5.49-1.88,8.24-2.8,1.59-.53,3.16-1.16,4.78-1.59q6.08-1.6,12.2-3c3.92-.91,7.84-1.82,11.79-2.54,5.36-1,10.8-.93,16.23-.89,1.28,0,2.56-.2,3.84-.15a19.69,19.69,0,0,1,2.88.49,25.63,25.63,0,0,0,2.9.55,28,28,0,0,1,7.47,1.75c1.64.59,3.38.93,5,1.59,4,1.63,8.09,3.13,11.44,5.9,1.48,1.23,2.46,3.06,3.65,4.63.21.27.26.71.51.89a11.28,11.28,0,0,1,3,4,11.74,11.74,0,0,1,.88,3.32,12.24,12.24,0,0,1-4.26,12.43c-1.42,1.22-2.68,2.78-4.62,3.33a.82.82,0,0,0-.42.3c-1.14,1.71-3.08,1.89-4.78,2.27a14.56,14.56,0,0,1-4-.23l-2.15-.14-.08.38c.31.21.6.43.92.62,2.15,1.28,4.38,2.45,6.42,3.88a22,22,0,0,1,3,3.12c1.84,1.95,3.58,4,5.55,5.81a20.24,20.24,0,0,1,5.42,7,39.82,39.82,0,0,0,1.84,3.58,13.16,13.16,0,0,1,1.52,5.69,44.67,44.67,0,0,0,.49,4.88,17.27,17.27,0,0,1-1.33,10.08,8.61,8.61,0,0,0-.93,4.38,4.66,4.66,0,0,1-.8,3A23.34,23.34,0,0,0,309.4,156a18.79,18.79,0,0,1-2.46,5.38,32.44,32.44,0,0,0-2.74,5.83,26.53,26.53,0,0,1-2,4.27,25,25,0,0,0-2.39,6.88c-.52,2.09-1.64,3.92-2.23,6l-.41,1.45c-.36,1.28-.71,2.57-1.09,3.85-.25.83-.53,1.65-.82,2.53a16.18,16.18,0,0,0,12,1.23,50.36,50.36,0,0,0,5.19-1.56c1.83-.73,3.56-1.72,5.33-2.61a1.9,1.9,0,0,0,.68-.54c1.8-2.51,3.73-5,4.61-8,1-3.45,1.91-6.94,3.12-10.34.82-2.3,1.25-4.73,1.94-7.08.37-1.28.91-2.51,1.35-3.77a5.07,5.07,0,0,0,.37-1.34,14.55,14.55,0,0,1,1.91-6.65c.09-.15.25-.34.21-.45-.66-2,.62-3.59,1.14-5.33,1.3-4.33,3.57-8.23,5.49-12.28,1.15-2.43,2-5,3-7.48a2.93,2.93,0,0,1,.86-1.21c.69-.51,1.5-.87,2.23-1.33a1.45,1.45,0,0,1,1.92,0,2.09,2.09,0,0,0,1.08.51c1.87.14,2.5,1.46,3,3,.9,2.71,1.9,5.4,2.73,8.13a9.28,9.28,0,0,0,2.23,3.51,38.11,38.11,0,0,1,5.52,7.33,1.85,1.85,0,0,1,.17.31c.59,1.89,1.19,3.77,1.76,5.67.46,1.5.89,3,1.34,4.52a2.85,2.85,0,0,1,.24.66c0,1.83,1.15,2.85,2.64,3.61.25.13.59.29.68.52.48,1.25,1.6,1.44,2.67,1.72a17.76,17.76,0,0,1,6,2.37,8.3,8.3,0,0,0,3.12,1c4.17.82,8.36,1.51,12.52,2.34,1.7.34,3.34,1,5,1.38,1.86.45,3.75.8,5.63,1.18a3.53,3.53,0,0,1,.83.17,7.19,7.19,0,0,0,3.76.44,34.73,34.73,0,0,1,10.22,1c2.66.62,5.33,1.17,8,1.86a29.58,29.58,0,0,0,4.55,1.08,8.57,8.57,0,0,0,5.54-1.13c1.84-1.11,3.81-2,5.57-3.26a45.81,45.81,0,0,0,4.21-3.69,33.82,33.82,0,0,1,3.91-3.51c2.64-1.71,4.92-3.9,7.79-5.33a84,84,0,0,0,7.43-4.6c1.09-.69,2.13-1.44,3.23-2.1,2.9-1.72,5.82-3.41,8.73-5.09a5.25,5.25,0,0,1,1.28-.57c1.12-.29,1.59-.07,2.12,1,1.15,2.31,2.22,4.58,1.59,7.34a25.52,25.52,0,0,0-.17,4.54c0,.63-.15,1.27-.23,1.9a4.12,4.12,0,0,0-.14,1c.28,2,.61,4,.9,6.05.14,1,.26,2,.33,2.94.11,1.5.22,3,.25,4.5,0,2.15,0,4.3,0,6.45,0,.81.18,1.63.14,2.44-.09,1.79-.39,3.58-.4,5.36,0,2.37.21,4.75.29,7.13,0,.86-.06,1.71-.09,2.57,0,.29,0,.58,0,.88-.09,4.49-.25,9-.26,13.46,0,3.31.22,6.62.28,9.92,0,1.4-.12,2.8-.14,4.2,0,2.67,0,5.34-.1,8,0,1.63-.1,3.26-.31,4.87-.46,3.7-.78,7.45-1.59,11.08a61.11,61.11,0,0,0-1.58,13.73,17.76,17.76,0,0,1-.38,2.6c-.17,1.15-.28,2.32-.49,3.46s-.52,2.27-.8,3.4c-1.15,4.65-2.16,9.33-3.11,14-.79,3.89-2.16,7.66-3.2,11.5-.55,2-.88,4.12-1.44,6.14-1.59,5.69-3.18,11.38-4.9,17-.74,2.45-1.76,4.81-2.72,7.19q-2.65,6.59-5.39,13.14c-.33.81-.79,1.56-1.21,2.33-1.08,2-2.09,4-3.25,6q-2.81,4.74-5.79,9.39a53.53,53.53,0,0,1-3.6,5c-1.77,2.16-3.66,4.23-5.53,6.31-2.57,2.87-5.11,5.77-7.75,8.58-1.56,1.66-3.21,3.24-4.91,4.75-2.31,2-4.64,4.1-7.11,5.94-2,1.52-4.31,2.75-6.48,4.1-2.37,1.49-4.73,3-7.13,4.45a169.76,169.76,0,0,1-16.55,8.75c-3.63,1.7-7.25,3.46-11,4.81-2.41.85-4.65,2.17-7,3.22s-4.5,1.94-6.75,2.91a157.45,157.45,0,0,1-15.39,5.22c-3.17,1-6.29,2.17-9.47,3.15-2.34.72-4.74,1.27-7.12,1.86-3.56.88-7.22,1.48-10.67,2.68-3.11,1.09-6.33,1.48-9.48,2.29-4.79,1.24-9.63,2.35-14.45,3.49a47.66,47.66,0,0,1-9.5,1.47c-3,.09-6,.57-9.07.74-2.26.12-4.53-.08-6.79,0-3.07.14-6.14.43-9.21.67-1.16.09-2.32.21-3.49.3-1.63.12-3.25.24-4.88.31s-3.26.06-4.89.12c-3.43.13-6.87.26-10.3.42s-7.1.29-10.64.57c-4.48.36-8.81-.54-13.17-1.27-1.32-.22-2.66-.34-4-.57-2-.36-4.09-.78-6.13-1.17-1.32-.25-2.64-.52-4-.69-4.16-.55-7.95-2.21-11.76-3.85-2.18-.93-4.47-1.59-6.72-2.33-1.27-.42-2.59-.69-3.84-1.14a37.81,37.81,0,0,1-9.48-5.14,60.84,60.84,0,0,0-9.56-6c-1.63-.77-3.23-1.62-4.79-2.52a27.69,27.69,0,0,1-2.85-2c-2.51-1.9-5.1-3.73-7.49-5.78-3.94-3.38-7.78-6.89-11.61-10.39a13.66,13.66,0,0,1-1.55-2.1Zm-2-205c-.51.23-1,.46-1.56.71a20.23,20.23,0,0,1-2.82,1.37,16.18,16.18,0,0,0-6.4,3.83c-2.73,2.56-5.11,5.45-7.58,8.25a59.63,59.63,0,0,0-8.35,11.67,17.26,17.26,0,0,1-1.21,2.13,46.89,46.89,0,0,0-5.89,10.93c-.77,2-1.74,4-2.47,6-.61,1.69-.94,3.48-1.5,5.19a65.79,65.79,0,0,0-2.81,15.46c-.22,2.79-.36,5.59-.53,8.39-.06,1-.09,2-.16,3-.12,1.73-.37,3.47-.35,5.2,0,2.57.25,5.14.38,7.71.1,2,.21,4.06.29,6.1,0,1.1.07,2.2.07,3.3a14.41,14.41,0,0,1-.14,1.75,36.56,36.56,0,0,0,0,6.28c.18,3.82-.5,7.68.88,11.46a62.17,62.17,0,0,1,1.67,7.13c.27,1.17.71,2.32.91,3.5a41.28,41.28,0,0,0,2.9,8.94c1.11,2.7,2.6,5.25,3.67,8,1.33,3.36,2.33,6.84,3.61,10.22a35.29,35.29,0,0,0,2.19,4.16c.25.46.58.89.78,1.37,1.29,3.06,2.63,6.1,3.8,9.2a42.42,42.42,0,0,0,5.07,9c1,1.42,2.15,2.72,3.1,4.16s1.44,3,2.46,4.2c1.4,1.68,2.49,3.62,4.21,5,.71.59,1.26,1.37,1.91,2,1.9,1.89,3.86,3.72,5.71,5.65,3,3.12,4.86,7.12,8,10.1,1.95,1.83,3.78,3.79,5.81,5.53,2.6,2.23,5.39,4.23,8,6.44,3,2.53,6,5,9.7,6.45.9.34,1.61,1.15,2.5,1.54,1.79.79,3.68,1.35,5,2.93.25.29.7.4,1,.63a25.16,25.16,0,0,1,2.29,1.62,27.5,27.5,0,0,0,9.5,5.39c2.71.87,5.48,1.59,8.21,2.41a10.93,10.93,0,0,1,2.44,1c2.88,1.71,6.11,2.52,9.21,3.66a1.76,1.76,0,0,0,.69.11c2.5-.14,4.85.64,7.25,1.12,1.82.36,3.65.7,5.48,1,.74.13,1.52.14,2.24.34A42.69,42.69,0,0,0,222,442c1,.07,2.09,0,3.14,0,2-.05,3.93-.16,5.9-.22,1.5,0,2.95-.69,4.51-.26a4,4,0,0,0,2.38,0,9.82,9.82,0,0,1,3.78-.36c2.39,0,4.78-.14,7.16-.22,1.87-.06,3.73-.08,5.6-.19q3.66-.21,7.32-.53c1.92-.17,3.86-.74,5.74-.57,3.52.31,7-.23,10.48-.18,3.18,0,6.38-.43,9.56-.69a53,53,0,0,0,10.48-1.95c2.24-.65,4.51-1.23,6.78-1.75,2.5-.58,5-1,7.52-1.6,2.78-.66,5.54-1.43,8.31-2.13,1.86-.47,3.74-.89,5.6-1.38,1.07-.28,2.11-.69,3.18-1,3.59-.94,7.29-1.5,10.74-3a40.8,40.8,0,0,1,4.09-1.53c4.72-1.49,9.49-2.83,14.18-4.43,3-1,6-2.34,8.93-3.63s5.82-2.71,8.74-4c3.56-1.61,7.15-3.17,10.72-4.76,2.08-.93,4.2-1.77,6.2-2.84,2.82-1.51,5.56-3.18,8.31-4.82,1.55-.93,3-2,4.58-2.89a44.74,44.74,0,0,0,8-4.9c1.74-1.46,3.63-2.74,5.41-4.15,4.38-3.46,8.06-7.63,11.83-11.71,2.42-2.62,4.8-5.27,7.19-7.91a46.66,46.66,0,0,0,3.14-3.54c1.59-2.16,3-4.45,4.56-6.65,2.62-3.75,4.38-8,6.59-12,.85-1.53,1.61-3.11,2.3-4.72,1.18-2.74,2.23-5.53,3.42-8.26a97,97,0,0,0,4.81-12.95c.28-1,.48-2.06.8-3.06.64-2,1.42-4,2-6,.69-2.54,1.24-5.11,1.8-7.68.19-.85.15-1.76.37-2.61.54-2.09,1.2-4.15,1.76-6.24.78-2.94,1.57-5.88,2.25-8.84.34-1.48.41-3,.73-4.5.71-3.32,1.56-6.61,2.22-9.94a40.59,40.59,0,0,0,1.11-8.67,42.82,42.82,0,0,1,1.46-11.46,58.11,58.11,0,0,0,1.59-12.67c.1-3.38.13-6.76.23-10.13.07-2.45.32-4.9.3-7.35,0-4.26-.6-8.51-.2-12.79.13-1.38.1-2.79.13-4.18,0-2,.13-4.09.12-6.13,0-3.62-.1-7.25-.19-10.87,0-1.86-.19-3.72-.26-5.58,0-1.4,0-2.8-.06-4.2s0-2.79,0-4.18c0-.93-.2-1.85-.24-2.78-.07-1.44.27-2.93-.58-4.28-.16-.25,0-.68,0-1,0-3.74,0-7.48-.12-11.21a11.85,11.85,0,0,0-.43-2.77c-.33-1.24-1-1.54-2.06-.93-2.85,1.57-5.69,3.16-8.47,4.85-2.14,1.3-4.14,2.83-6.25,4.18-2.84,1.81-5.69,3.61-8.45,5.55a44.08,44.08,0,0,0-5.16,4.68c-2.1,2-4,4.25-6.64,5.68a27.32,27.32,0,0,0-3.33,1.92,7.86,7.86,0,0,1-5.2,1.64,38.92,38.92,0,0,1-9.58-1.89c-2.94-.88-5.84-2-9-2.08s-6.41-.23-9.59-.61c-2.77-.33-5.5-1-8.23-1.58-2-.45-4-1.16-6.08-1.57-3.37-.68-6.78-1.15-10.15-1.83a26.61,26.61,0,0,1-4.64-1.45c-1.69-.69-3.06-2.2-5.11-2-.15,0-.31-.15-.48-.2a10.61,10.61,0,0,1-7.23-6.79c-1.2-3.4-2.15-6.89-3.2-10.34a7.87,7.87,0,0,0-1.54-3.47,27.56,27.56,0,0,1-1.8-2.09c-1-1.28-1.9-2.64-3-3.86-1.64-1.87-2.28-4.17-3-6.44-.29-.88-.6-1.76-.95-2.62a26.42,26.42,0,0,1-1.1-2.56,1.19,1.19,0,0,0-1.21-1,2.82,2.82,0,0,0-2.8,1.45,11.51,11.51,0,0,0-.78,1.95,31,31,0,0,1-1.44,3.76c-2.23,4.15-4.71,8.19-6.44,12.59-.92,2.35-2.57,4.49-2.26,7.24a1.28,1.28,0,0,1-.26.64,6.22,6.22,0,0,0-.72,5,2.44,2.44,0,0,1-.16,1.17c-.47,1.86-1.06,3.69-1.64,5.52-.47,1.49-.64,3.11-1.19,4.66-.81,2.29-1.24,4.71-1.89,7.05a51.77,51.77,0,0,1-1.68,5.24,27.33,27.33,0,0,1-2.1,4c-.87,1.44-1.63,3.1-2.89,4.11a22.23,22.23,0,0,1-5.89,3.31,35.16,35.16,0,0,1-6.42,1.49c-3,.54-6,1.2-9,.24a10.24,10.24,0,0,0-6.31-.22c-1.56.47-2.54-.74-2.07-2.34a7.44,7.44,0,0,1,.78-1.29c.55-1,1.72-1.56,1.86-2.86a5.75,5.75,0,0,1,1.18-3.38,4,4,0,0,0,.52-1.46c.43-1.39.83-2.79,1.26-4.18a23.44,23.44,0,0,0,1-3.17,24.52,24.52,0,0,1,3.37-8.59,22.13,22.13,0,0,0,1.4-3c.58-1.46,1-3,1.65-4.41.72-1.57,1.64-3.05,2.41-4.6.44-.88.75-1.83,1.13-2.75.89-2.15,1.89-4.26,2.64-6.46.68-2,1-4.11,1.63-6.09a19.39,19.39,0,0,0,1.12-7.57c-.18-2.86-.25-5.72-.39-8.58a5.85,5.85,0,0,0-1.16-3.25,10.25,10.25,0,0,1-1.56-2.72c-.8-2.45-2.49-4.15-4.24-5.9a66.48,66.48,0,0,1-6-6.6,22.14,22.14,0,0,0-4.72-4.38,57.35,57.35,0,0,0-5.26-3.15c-1.09-.64-2.21-1.24-3.29-1.84a4.54,4.54,0,0,0-.49.46,3.14,3.14,0,0,1-4,1.17c-1.36-.51-2.73-1-4.11-1.43a6,6,0,0,0-2.36-.51,3.37,3.37,0,0,1-3.67-2.12,2.72,2.72,0,0,0-1.62,1.66c1.22.58,2.6.84,3.32,1.67,1.39,1.6,2.83,2.7,5,2.61a1.31,1.31,0,0,1,1.46,1.22,1.5,1.5,0,0,1-1.07,1.62,4.09,4.09,0,0,1-3.86-.32c-1.13-.7-2.1-1.66-3.19-2.43a2.14,2.14,0,0,0-1.35-.44,6.74,6.74,0,0,0-1.72.8,7.49,7.49,0,0,0,.94,1.24c1.42,1.21,2.87,2.38,4.33,3.54a13.31,13.31,0,0,0,5.12,2.9,5.47,5.47,0,0,1,3.24,2.79c1.09,1.77,2,3.63,3,5.46a1.78,1.78,0,0,1,.24.83,5.71,5.71,0,0,0,1.34,3.35,4,4,0,0,1,.71,3.61,20.31,20.31,0,0,0-.44,3.64c-.06.58-.11,1.16-.22,1.73a40,40,0,0,0-.81,3.94,34.82,34.82,0,0,1-2,7.5c-.18.54-.4,1.07-.56,1.62-.91,3.2-1.77,6.4-2.71,9.59-.46,1.56-1.09,3.06-1.58,4.61q-1.31,4.17-2.53,8.36c-.4,1.4-.7,2.82-1.07,4.23-.32,1.23-.62,2.47-1,3.68-.76,2.39-1.54,4.78-2.39,7.14a67.64,67.64,0,0,1-2.69,6.93,38.28,38.28,0,0,1-3.25,4.93,1.5,1.5,0,0,1-1,.67,2.62,2.62,0,0,1-1.53-.47,1,1,0,0,1-.2-1.42,23.1,23.1,0,0,1,2-3,22.94,22.94,0,0,0,4.11-7.25c1.11-2.69,1.86-5.53,2.71-8.32q2.52-8.3,5-16.62c1.37-4.65,2.76-9.3,4-14A59.07,59.07,0,0,0,283.37,132a64.48,64.48,0,0,1,.79-6.78,5.47,5.47,0,0,0-.71-3.66c-.81-1.62-1.68-3.21-2.34-4.89-1-2.62-2.22-5-5.16-6a1.69,1.69,0,0,1-.46-.25c-3-2.14-6-4.27-8.9-6.45a2.81,2.81,0,0,1-.81-3.68c.37-.74.43-1.31-.38-1.78a4.63,4.63,0,0,1-.77-.68,2,2,0,0,0-1.92-.48,31.23,31.23,0,0,1-6.17,1,2.85,2.85,0,0,0-2.22,1c-.28.27-.31.79-.45,1.2a7.94,7.94,0,0,0,1.1.36,1.52,1.52,0,0,0,.68-.13,2.18,2.18,0,0,1,2.52.77,9.76,9.76,0,0,0,4.73,3.17,1.92,1.92,0,0,1,1.34,1.85c.1.74-.4,1.17-.94,1.57s-1,.11-1.44-.15a23.2,23.2,0,0,1-3.78-2.11,13.16,13.16,0,0,0-4.86-2.49,7.94,7.94,0,0,0-2.44-.44l-1.16,3.17a24.29,24.29,0,0,1,2.42.43c2.17.63,4.34,1.27,6.48,2a7.19,7.19,0,0,1,1.92,1.21,1.43,1.43,0,0,1,.42,1.88,1.75,1.75,0,0,1-2.18.49,25.24,25.24,0,0,0-2.61-1.38,10.08,10.08,0,0,0-4.86-.89c0,.22,0,.37.07.44a20.84,20.84,0,0,0,7.11,5,31.45,31.45,0,0,1,9.61,7,7.77,7.77,0,0,1,2,3.8,23.35,23.35,0,0,1-.87,10.74,8.29,8.29,0,0,0-.61,1.62,30.06,30.06,0,0,1-2.57,9q-.66,1.59-1.26,3.21c-.53,1.4-1,2.83-1.55,4.2s-1.23,2.37-1.77,3.59c-1.36,3-2.63,6.12-4,9.15-.48,1-1.25,2-1.82,3-2.43,4.38-4.82,8.77-7.23,13.15a14.07,14.07,0,0,1-1.13,1.76c-.44.57-1,1.06-1.8.78a1.31,1.31,0,0,0-1.41.42c-1.34,1.18-2.3,2.74-3.83,3.74-.38.25-.49.91-.75,1.36a4.11,4.11,0,0,1-.67,1c-.85.79-1.71,1.58-2.63,2.3a19.77,19.77,0,0,1-3.65,2.6,5.1,5.1,0,0,0-2.2,1.52,2.47,2.47,0,0,1-1.58.9,13.75,13.75,0,0,1-3.83-.12,86.1,86.1,0,0,0-10.25-1,1.55,1.55,0,0,0-.52,0c-1.77.48-3.47-.09-5.19-.38-2.07-.34-4.11-.87-6.19-1.1a7.53,7.53,0,0,1-3.89-1.43,15.1,15.1,0,0,0-6.55-2.71,6.64,6.64,0,0,1-3.5-1.45q-2.72-2.59-5.62-5a5.55,5.55,0,0,1-2.37-4.09,5.61,5.61,0,0,0-.32-1.72c-1.4-3.62-.46-7.18.27-10.72.37-1.82,1.12-3.56,1.55-5.37a49.07,49.07,0,0,1,5.6-13.72c1.87-3.13,4.43-5.7,6.69-8.51a7.66,7.66,0,0,1,.91-.81c1.11-1,2.79-1.17,3.69-2.52.12-.17.54-.14.83-.2a19.46,19.46,0,0,1,7.13.34,6.61,6.61,0,0,0,2.24.27c2.41-.44,4.8-1,7.18-1.56a3.69,3.69,0,0,0,2.55-2.68c.59-1.76,1.07-3.57,1.63-5.34a4.6,4.6,0,0,1,.73-1.37,1.14,1.14,0,0,1,1.55-.41,1.29,1.29,0,0,1,.57,1.68c-.58,1.33-1,2.71-1.47,4.08-.76,2.27-1.12,4.77-3.09,6.51,2,1,2.18.94,3.65-.39a4.88,4.88,0,0,0,1.43-2.55c.39-1.53.73-3.07,1.08-4.6.23-1,.55-1.93,1.91-1.93a4.08,4.08,0,0,1,.42,3.18c-.78,2.6-1.43,5.24-2.14,7.93,1.23.07,2.45.15,3.66.21a1.09,1.09,0,0,0,1.15-.89,31.87,31.87,0,0,0,1-3.55c.41-2.47.7-5,1-7.44.44-3.12.91-6.24,1.33-9.37.09-.68.08-1.38.12-2.07a57.17,57.17,0,0,0-5.81-.75,45,45,0,0,1-9.32-1.29,5.92,5.92,0,0,1-1.63-.6,19.1,19.1,0,0,0-7.15-2.63,17.9,17.9,0,0,0-4-.31,4.71,4.71,0,0,1-2.8-.6c-2.73-1.44-5.51-2.79-8.28-4.14a8.8,8.8,0,0,0-2-.7,1.27,1.27,0,0,0-1.07.26c-1.51,2.05-3.39,3.84-4.33,6.31a10.64,10.64,0,0,1-1.56,2.73c-3.3,4.22-6.59,8.47-10,12.58-2.66,3.17-5.53,6.17-8.33,9.22-.5.55-1.08,1.26-1.73,1.4a2.71,2.71,0,0,0-1.82,1.45,7.31,7.31,0,0,1-2.91,2.68c-1.59.81-3.05,1.88-4.59,2.8a47.24,47.24,0,0,1-4.7,2.67,46.68,46.68,0,0,1-9.16,2.86,5.57,5.57,0,0,0-4.5,4,21.46,21.46,0,0,0-.69,2.9c-.39,2.69-.47,5.42-1.64,8-1.29,2.81-2.23,5.78-3.63,8.53-1.63,3.21-3.58,6.26-5.43,9.44a16.58,16.58,0,0,1,.85,1.52c.57,1.27,1.07,2.58,1.62,3.86.21.48.59.92,0,1.41s-1.07.26-1.52-.2Zm.44,202.65c-1.63-1.56-3.12-3-4.66-4.47a45.44,45.44,0,0,1-8.54-9.66c-.57-.95-1-2-1.59-2.92-1.81-2.71-4.29-4.94-5.7-7.94a.92.92,0,0,0-.09-.15,22.15,22.15,0,0,1-3.1-6.6,28.08,28.08,0,0,0-3.23-7.53,45.67,45.67,0,0,1-5.64-12.58,29.83,29.83,0,0,0-2.6-6.86,29.53,29.53,0,0,1-2-4.44c-.9-2.28-1.76-4.57-2.53-6.9-.63-1.94-1.15-3.92-1.62-5.9-.52-2.2-.94-4.42-1.41-6.64a44.51,44.51,0,0,1-1.17-5.8,61.82,61.82,0,0,1-.16-9.77,99.15,99.15,0,0,0-.37-16.82,62.14,62.14,0,0,1,.07-11.2,72.21,72.21,0,0,0,.66-7.68c0-3,.74-5.77,1-8.68a64.23,64.23,0,0,1,2.8-13A64.63,64.63,0,0,1,90,223.14a156.13,156.13,0,0,1,8.62-14c3-4.25,6.39-8.19,9.73-12.17,3.11-3.71,6.62-6.91,11.39-8.43a6.88,6.88,0,0,0,2.34-1.73c.58-.55,1-1.3,1.47-1.91s1.38-1.43,2-2.18c2.17-2.5,3.32-5.6,4.77-8.5a54.14,54.14,0,0,0,2.79-7.36,24.08,24.08,0,0,0,1.09-4.94,18.77,18.77,0,0,1,1.63-6.92c1-2,2.53-3.57,4.72-3.83,6.9-.82,12.7-4.13,18.31-7.84a37.18,37.18,0,0,0,8.28-7.76,19.14,19.14,0,0,1,2.21-2.45,51.14,51.14,0,0,0,6-6.6c1.77-2.18,3.55-4.34,5.33-6.51a27.33,27.33,0,0,0,4.9-8c.86-2.39,2.83-4.08,4.18-6.17a1.68,1.68,0,0,1,.38-.36,1.36,1.36,0,0,1,1.75-.1,40,40,0,0,0,4,2.12c2.33,1.06,4.69,2,7.05,3a1.38,1.38,0,0,0,1,0,5.61,5.61,0,0,0,1.79-1,10.91,10.91,0,0,1,4.86-2.65c4.51-1.37,9.06-2.68,13.66-3.65,2.79-.59,5.58-1.14,8.35-1.8a39.12,39.12,0,0,1,5.87-.83,15.39,15.39,0,0,0,3-.6c2.09-.6,4.2-1.45,6.47-.56A2.94,2.94,0,0,0,250.7,99c1-.62,2-1.22,3-1.86a8.32,8.32,0,0,1,5.33-1.3,6.66,6.66,0,0,0,2.59-.26,3.46,3.46,0,0,1,3,.31c1.22.61,1.5,1,2.76-.64a50.41,50.41,0,0,1,3.86-4.67,18.9,18.9,0,0,1,3.09-2.24,1,1,0,0,1,.68-.11c1.94.42,4,.64,5.57,1.95A10,10,0,0,0,284,92.07c.37.11.86.25,1,.53.92,1.54,2.41,1.62,3.85,1.44a11.88,11.88,0,0,1,4.15.31,9.25,9.25,0,0,0,6.62-1.11c2-1.08,3.47-2.75,5.17-4.15,2.19-1.81,2.32-4.62,3.31-7a1.18,1.18,0,0,0,0-.52,12.87,12.87,0,0,0-3-7.54,24.45,24.45,0,0,1-2.52-3.35,9.63,9.63,0,0,0-3.37-3.2,21.42,21.42,0,0,0-4.19-2.12c-1.52-.53-2.86-1.58-4.38-2.14a69.43,69.43,0,0,0-7.51-2.39c-3-.74-6-1.23-9-1.81a11.13,11.13,0,0,0-2.25-.26c-4.48.08-9,.24-13.43.3-5,.07-9.77,1.39-14.61,2.35-2.8.56-5.57,1.27-8.32,2-4.83,1.33-9.66,2.69-14.46,4.15a44.13,44.13,0,0,0-7.68,3.26c-3.08,1.62-6.39,2.81-9.5,4.4a99.22,99.22,0,0,1-13.57,5.18,114.47,114.47,0,0,0-13.66,5.38q-6.2,3-12.37,6.11a75.86,75.86,0,0,1-13.42,5.43,37.91,37.91,0,0,0-9.73,4.71,108.8,108.8,0,0,1-17.39,8.67A76.61,76.61,0,0,0,112,116.5a46.38,46.38,0,0,1-6.79,3.64,53.39,53.39,0,0,0-7.88,4.19c-2,1.22-3.91,2.6-6,3.61-5.73,2.79-10.22,7.13-14.75,11.45-2,1.9-3.88,3.89-5.83,5.82-1.37,1.36-2.86,2.61-4.13,4.05-1.66,1.89-3.14,3.93-4.72,5.88-3,3.77-6.15,7.49-9.16,11.3-1.7,2.15-3.31,4.39-4.86,6.65-2.78,4-5.65,8-8.17,12.23-3.13,5.22-5.27,10.94-7.62,16.54-1.87,4.47-3.49,9-5.22,13.58a10.82,10.82,0,0,0-.41,1.16c-1,3.91-1.86,7.85-3,11.71-1.09,3.68-1.3,7.48-1.87,11.23-.62,4.07-1,8.18-1.39,12.29a47,47,0,0,0-.4,7.86c.37,4.9,1.09,9.77,1.67,14.65.08.64.22,1.27.32,1.91.61,3.75,1,7.54,1.87,11.24.69,3.07,1.74,6.06,2.13,9.21.32,2.59,1.61,5,1.68,7.63a1.61,1.61,0,0,0,.18.49c1,2.65,2.05,5.3,3.12,7.93.72,1.78,1.48,3.55,2.31,5.27s1.79,3.41,2.68,5.11c.64,1.23,1.24,2.48,1.9,3.69.81,1.48,1.66,2.94,2.52,4.39S42,334.38,43,335.84c1.62,2.27,3.43,4.4,5.06,6.66,2.2,3.06,4.3,6.2,6.47,9.29a25.58,25.58,0,0,0,6,6.06,37.43,37.43,0,0,1,4.71,3.9,45.15,45.15,0,0,0,7.18,6.09q5.63,3.69,11.33,7.29c3.49,2.21,7,4.44,10.55,6.49,2.22,1.27,4.62,2.23,6.94,3.33,2.9,1.38,5.84,2.68,8.68,4.16a11.86,11.86,0,0,0,5.49,1.43,11.49,11.49,0,0,1,6.62,1.81,4.36,4.36,0,0,0,2,.43C124.19,392.81,124.39,392.39,124.78,391.91Zm83.66-280.7.1.4a15.76,15.76,0,0,1,8.1,2.49c2.39,1.51,5.07,1.56,7.73,1.73a34.69,34.69,0,0,1,4.53.33,7,7,0,0,0,4.57-.67,5.62,5.62,0,0,1,1.79-.64c1.59-.15,2.19.5,1.86,2a22.63,22.63,0,0,1-1,2.79,4.32,4.32,0,0,0-.36.95c-.22,2.26-.4,4.52-.59,6.78-.1,1.15,0,1.34,1.1,1.59s2.39.51,3.58.76a24.69,24.69,0,0,0,2.72.54c1.54.14,2.09.45,2.54,1.92a7.68,7.68,0,0,1-.57,6.13,56,56,0,0,1-3.46,6.05c-1.54,2.15-2.76,4.88-6.05,4.94a1,1,0,0,0-.33.11,18.31,18.31,0,0,1-8.8.92,5.58,5.58,0,0,0-2.9.38,4,4,0,0,1-2.7.37,5,5,0,0,0-1.38,0c-1.33.05-2.67.2-4,.14a7.69,7.69,0,0,0-3.25.49,33.88,33.88,0,0,1-3.63,1.26,14.08,14.08,0,0,0-6.45,4.29,32.76,32.76,0,0,0-3.14,3.75,16.62,16.62,0,0,0-3,5.32c-.7,2.64-1.75,5.19-2.66,7.77-.35,1-.81,2-1.06,3-.59,2.38-1.06,4.79-1.62,7.17a4.79,4.79,0,0,1-.71,2c-.81,1-.56,1.75,0,2.7a2.69,2.69,0,0,0,2,1.68,19,19,0,0,1,9.16,3.59,5.39,5.39,0,0,0,2.13.72c1.48.34,3,.6,4.45.94a32.15,32.15,0,0,0,8.12.72,29.22,29.22,0,0,1,8.16.58,6.54,6.54,0,0,0,6.26-1.19c1.52-1.27,3.24-2.28,4.79-3.52a21.5,21.5,0,0,0,2.1-2.31,34.24,34.24,0,0,1,3.69-3.87c3.25-2.55,6.72-4.86,8.5-8.82.16-.36.53-.63.73-1,1.2-2.07,2.41-4.12,3.55-6.22,1.44-2.66,2.81-5.35,4.19-8,.56-1.09,1.11-2.18,1.56-3.31,1.07-2.7,2-5.46,3.13-8.15a58.74,58.74,0,0,0,3.85-12.14c.32-1.78.59-3.57,1-5.32.89-3.47.61-6.7-1.71-9.56-.47-.58-1.13-1-1.6-1.57a16,16,0,0,0-6-4.1,29.78,29.78,0,0,1-4.41-2.45c-2-1.35-3.84-2.84-5.71-4.33s-2.1-2.26-1.24-4.7c.52-1.49,1.1-3,1.73-4.65-.43-.23-.92-.71-1.38-.68a11.73,11.73,0,0,0-4.22.72,8.7,8.7,0,0,1-1.48.4c-3.27.77-6.67.57-9.93,1.61-2.48.79-5.17.9-7.69,1.58s-5.11,1.46-7.71,2.06a31.5,31.5,0,0,0-6.06,2.64A4.64,4.64,0,0,0,208.43,111.21Zm13.74,34.16a23.4,23.4,0,0,0-9.52-2.38c-3.1-.06-6.13-.56-9.19-.69a8,8,0,0,0-3.88.65,16,16,0,0,0-4.29,3.26,37.6,37.6,0,0,0-5.73,7.68,28.55,28.55,0,0,0-2.77,5.82c-1.41,5.12-3.16,10.15-4.11,15.39a5.64,5.64,0,0,0,.14,3.76,3.65,3.65,0,0,1,.18,1.55,6.07,6.07,0,0,0,4.11,6.1c.38-2,.74-4,1.16-6a50.17,50.17,0,0,1,1.28-5.27c.78-2.38,1.78-4.69,2.64-7.05.52-1.43.92-2.9,1.42-4.33a5.79,5.79,0,0,1,.78-1.74c2-2.46,3.89-5,6-7.28a22.09,22.09,0,0,1,3.8-3c2.67-1.87,5.87-2.55,8.84-3.72a2.43,2.43,0,0,1,1.53-.11,10.83,10.83,0,0,0,5.19,0C221.79,147.67,221.77,147.84,222.17,145.37Zm15.34-1.54c2.74-3.46,5.27-7.44,5-9.9-1.38-.66-2.71-1.38-4.12-1.91a7.77,7.77,0,0,0-2.57-.37,1.08,1.08,0,0,0-1.18,1.21,54.18,54.18,0,0,1-1.83,11.39c-.34,1.4-1,1.92-2.33,1.71a11.13,11.13,0,0,0-2.58-.37c-1.22.11-2.54-.55-3.68.34.34,1.07.47,1.27,1.49,1.35a31.34,31.34,0,0,0,4.53.15c2.94-.18,3.71-.94,4.38-3.77a27,27,0,0,1,1-3.5,7.12,7.12,0,0,1,1.3-2,.94.94,0,0,1,1.52.12,1.47,1.47,0,0,1,0,1.4C237.27,140.89,237.44,142.36,237.51,143.83Zm37-50.44c2.53.18,4.58,2.3,7.34,2-.14-1.54-.17-1.77-.82-2.26a7.88,7.88,0,0,0-4.69-2C274.58,91.1,274.36,91.26,274.52,93.4Z"/><path class="cls-1" d="M405.79,382.49a5.28,5.28,0,0,1-1.88,4.31,29.22,29.22,0,0,1-4.32,3.5c-3,2-6,3.78-9,5.6-1.29.77-2.08.39-2.55-1-.31-.89.2-1.33.79-1.72s1.15-.57,1.69-.9c3.17-1.94,6.4-3.8,9.47-5.91a14.88,14.88,0,0,0,3-3.35C404,381.67,404,381.63,405.79,382.49Z"/><path class="cls-1" d="M345.3,410.1a5.3,5.3,0,0,1,1,.38,1.3,1.3,0,0,1,.46,2.07,4,4,0,0,1-1.36,1.32,73,73,0,0,1-10.63,4.44c-1.56.46-3,1.17-4.6,1.66a2.29,2.29,0,0,1-2.89-1.27.88.88,0,0,1,.43-1.31,9.06,9.06,0,0,1,1.17-.35c1.49-.5,3-1,4.45-1.52,1.26-.45,2.48-1,3.75-1.4A26.83,26.83,0,0,0,345.3,410.1Z"/><path class="cls-1" d="M428,356.28a3.79,3.79,0,0,1,.05,3.94c-1,1.75-2.12,3.48-3.15,5.24-.94,1.6-1.89,3.21-2.74,4.86-.92,1.81-1.92,2.41-3.41,1.86a1.44,1.44,0,0,1-1-2.2,6.78,6.78,0,0,1,.72-1.2c1.89-2.65,3.8-5.29,5.68-8,.37-.52.64-1.1,1-1.7L424.3,358C424.62,356.14,425.8,355.76,428,356.28Z"/><path class="cls-1" d="M263.2,430.89a2.8,2.8,0,0,1,2.28-1.14,68.7,68.7,0,0,0,12.18-2.19,2.31,2.31,0,0,0,1.59-1.22,1.54,1.54,0,0,1,2.41-.36,1.89,1.89,0,0,1,.48,2.62,4.52,4.52,0,0,1-1.87,1.19c-4.55,1.26-9.11,2.43-13.68,3.63a2.54,2.54,0,0,1-2.73-1.07A10.86,10.86,0,0,1,263.2,430.89Z"/><path class="cls-1" d="M296.09,426.15c.28-1.08,1.13-1.15,1.92-1.37q5.56-1.49,11.11-3a2.35,2.35,0,0,0,1.63-1.44c.52-1.19,1.45-1.28,2.74-.45a1.56,1.56,0,0,1,.41,2.5,6.48,6.48,0,0,1-3.49,2.17c-3.25,1.07-6.5,2.16-9.79,3.12C298.25,428.35,297.19,428.12,296.09,426.15Z"/><path class="cls-1" d="M384.4,216.22c-.55,2.79-1.18,5.92-1.8,9.05-.15.74-.22,1.5-.36,2.24s-.37,1.29-1,1.16c-.46-.09-.88-.67-1.17-1.13a2,2,0,0,1-.15-1.2c.19-1.45.5-2.88.64-4.33.26-2.72.47-5.46.6-8.19,0-.59-.43-1.19-.58-1.8a7.15,7.15,0,0,1-.3-2,1.59,1.59,0,0,1,1.47-1.48,1.88,1.88,0,0,1,1.81,1.4C383.84,211.87,384.08,213.84,384.4,216.22Z"/><path class="cls-1" d="M280.36,404.07c.77,1.81.53,2.5-1.2,3.19-1.24.5-2.52.88-3.8,1.28-2.39.75-4.8,1.43-7.17,2.21a6.38,6.38,0,0,1-4.1-.1A1.53,1.53,0,0,1,263,408.9c.11-1,.82-1,1.55-1a14.83,14.83,0,0,0,5.42-1.09c1.85-.64,3.81-1,5.71-1.46a8.87,8.87,0,0,0,1.83-.56A4.34,4.34,0,0,1,280.36,404.07Z"/><path class="cls-1" d="M455.52,290.08c2.48.83,2.81,1.39,2.36,3.44-.08.34-.18.68-.28,1-.88,3-1.73,6-2.65,9a9.85,9.85,0,0,1-1.09,2.34,1.88,1.88,0,0,1-2.17.61,1.33,1.33,0,0,1-.64-1.77c.43-1.33.88-2.66,1.24-4,.67-2.46,1.24-5,1.94-7.41A34.43,34.43,0,0,1,455.52,290.08Z"/><path class="cls-1" d="M232.09,395.26c4.34.2,8.68.39,13,.62,1.39.07,2.77.24,4.16.38.7.07,1.47.09,1.47,1.11a1.48,1.48,0,0,1-1.63,1.46c-2.21-.09-4.42-.32-6.63-.36-1.89,0-3.79.17-5.68.17a14.5,14.5,0,0,1-3.78-.31C231.38,397.88,231.15,396.83,232.09,395.26Z"/><path class="cls-1" d="M420.31,349.45a1.94,1.94,0,0,1,1.87,2.63,15.19,15.19,0,0,1-1.64,2.85c-1.63,2.27-3.28,4.53-5,6.71a8.61,8.61,0,0,1-2.19,1.64,1.07,1.07,0,0,1-1.54-.35c-.41-.59-.73-1.23-.16-1.92s1.11-1.36,1.67-2c1.42-1.7,2.88-3.38,4.25-5.12a3,3,0,0,0,1-2.51A1.76,1.76,0,0,1,420.31,349.45Z"/><path class="cls-1" d="M209.83,431.62c-2.54-.64-4.91-.73-7.14-1.7a16.91,16.91,0,0,0-3.91-.86,4.56,4.56,0,0,1-2.51-1.75,2.18,2.18,0,0,1-.39-1.31c0-.89.46-1.36,1.32-1.13,1.06.28,2,.84,3.09,1.17,2.77.86,5.54,1.71,8.33,2.45a2.72,2.72,0,0,0,2.52-.26c.69-.54,1.22-.15,1.62.4a1.57,1.57,0,0,1-.33,2.17A19.88,19.88,0,0,1,209.83,431.62Z"/><path class="cls-1" d="M230.55,430.57c2.09.08,4.19.22,6.28.22,1.5,0,3-.2,4.5-.31a11,11,0,0,1,1.57-.12c1.19.08,1.67,1,1,1.94a2.8,2.8,0,0,1-1.64,1.13,43.17,43.17,0,0,1-4.85.29c-1.55,0-3.11,0-4.67,0s-2.88,0-4.32,0a2.83,2.83,0,0,1-1-.28,1.36,1.36,0,0,1-.79-1.59,1.1,1.1,0,0,1,1.17-1.07h2.79Z"/><path class="cls-1" d="M181.24,416.79c0,1.9-1,2.73-2.87,2.36a52,52,0,0,1-10.9-3.6,8.28,8.28,0,0,1-3.52-3.3,1.34,1.34,0,0,1,.28-1.75c.51-.53,1.13-.28,1.55.17,2.39,2.53,5.65,3.48,8.71,4.66A42.9,42.9,0,0,0,181.24,416.79Z"/><path class="cls-1" d="M151.64,399.75c.19,2.45-.76,3.35-2.82,2.75a10.16,10.16,0,0,1-2.83-1.31c-1.54-1-3-2.24-4.45-3.37-.69-.53-1.42-1-2.07-1.61a14.44,14.44,0,0,1-2.32-2.34,2.77,2.77,0,0,1-.26-2c.25-1.1,1.89-1.1,2.86-.06,1.35,1.45,2.64,3,4.09,4.29a49.25,49.25,0,0,0,4.41,3.44,1.63,1.63,0,0,0,1.8.23A4.18,4.18,0,0,1,151.64,399.75Z"/><path class="cls-1" d="M446.09,328.4c-.13.57-.25,1.33-.47,2-1.07,3.42-2.29,6.76-5.14,9.19a1.41,1.41,0,0,1-1.88.27A1.27,1.27,0,0,1,438,338a5.26,5.26,0,0,1,.68-1,20.09,20.09,0,0,0,3.57-7,8.47,8.47,0,0,0,.22-1.91c.08-1.43.69-2.31,1.65-2.29C445.36,325.83,446.11,326.76,446.09,328.4Z"/><path class="cls-1" d="M187.67,398.72a2.74,2.74,0,0,1-3.32.89c-2-.88-4-1.89-6-2.78-1.05-.47-2.18-.77-3.24-1.22-1.38-.58-2.77-1.18-4.1-1.87a1.33,1.33,0,0,1-.46-2,1.12,1.12,0,0,1,1.62-.52l9.58,4.2c1,.42,1.92.84,2.9,1.22A7,7,0,0,1,187.67,398.72Z"/><path class="cls-1" d="M309,400a7.87,7.87,0,0,1-3.44,1.87c-1.95.6-3.87,1.29-5.84,1.78a28,28,0,0,1-4.66.74c-1.9.15-2.4-.56-2.09-2.5,2.34-.58,4.64-1.13,6.94-1.72s4.38-1.2,6.59-1.73C308,398.1,308.3,398.32,309,400Z"/><path class="cls-1" d="M414.92,305.27a26,26,0,0,1-1.85,3.49,15.2,15.2,0,0,0-2.4,6,4,4,0,0,1-2.45,3.16,1.44,1.44,0,0,1-1.88-.32c-.47-.57-.29-1.06.08-1.72a16.09,16.09,0,0,0,1.4-3.54,20.06,20.06,0,0,1,4.56-8,2,2,0,0,1,1.72-.45C414.45,303.93,414.63,304.74,414.92,305.27Z"/><path class="cls-1" d="M408.16,241c.78,2,.49,3.74.3,5.55-.27,2.54-.4,5.09-.61,7.64a2.73,2.73,0,0,1-.32,1.34,2,2,0,0,1-1.23.76,1.3,1.3,0,0,1-1-.73,10.07,10.07,0,0,1-.33-2.56c0-1.9-.06-3.81,0-5.71a51.71,51.71,0,0,1,.58-5.34c.24-1.48.63-1.65,2-1.22A4.31,4.31,0,0,1,408.16,241Z"/><path class="cls-1" d="M368.32,235.86a7.94,7.94,0,0,0,1.59.83,1.3,1.3,0,0,1,1.08,1.54c-.19,3,.07,6-.48,9-.24,1.3-.13,2.66-.36,4a7,7,0,0,1-1,2.36.83.83,0,0,1-1.44-.2,3.5,3.5,0,0,1-.36-1.66c.13-2.44.39-4.88.5-7.33.1-2.21.05-4.43.11-6.64A14.63,14.63,0,0,1,368.32,235.86Z"/><path class="cls-1" d="M380.2,374.46a6.35,6.35,0,0,1-1.25-1.27,1.3,1.3,0,0,1,.43-1.72c2.3-1.76,4.61-3.5,6.91-5.26a11.94,11.94,0,0,0,1.28-1.17c.45-.46.82-1,1.28-1.44a1.7,1.7,0,0,1,2.36,0,1.41,1.41,0,0,1-.09,2,27.15,27.15,0,0,1-2.77,2.89c-2.08,1.75-4.24,3.41-6.39,5.07A10.79,10.79,0,0,1,380.2,374.46Z"/><path class="cls-1" d="M203.21,358.76l-3-1.09-6.36-2.35a13.61,13.61,0,0,1-2.75-1.11,4.51,4.51,0,0,1-1.47-1.86A1.62,1.62,0,0,1,190,351a1.44,1.44,0,0,1,1.25-.06c1.46.57,2.87,1.26,4.33,1.85,1.78.72,3.59,1.35,5.38,2.05,1.08.42,2.13.92,3.2,1.36.58.24,1.07.52.91,1.27A1.63,1.63,0,0,1,203.21,358.76Z"/><path class="cls-1" d="M360.84,410.14a7.85,7.85,0,0,1-1.62-.93c-.86-.81-.73-1.5.33-2s2.19-1.1,3.32-1.57a26.16,26.16,0,0,0,6-4.1,6.64,6.64,0,0,0,.52-.47,1.17,1.17,0,0,1,1.58-.19,1.35,1.35,0,0,1,.73,1.46,4.21,4.21,0,0,1-1.6,2.64,28.49,28.49,0,0,1-2.43,1.7c-1.32.85-2.61,1.75-4,2.49A19.75,19.75,0,0,1,360.84,410.14Z"/><path class="cls-1" d="M402.52,334.65c1.15,0,1.71.62,1.56,1.51a5.7,5.7,0,0,1-.56,1.83c-1.41,2.48-2.83,5-4.36,7.36a6.6,6.6,0,0,1-3.51,2.75,1.31,1.31,0,0,1-1.67-.55,1.18,1.18,0,0,1,.3-1.71c2-1.52,3.08-3.78,4.35-5.87.91-1.49,1.82-3,2.8-4.43A4.25,4.25,0,0,1,402.52,334.65Z"/><path class="cls-1" d="M418.71,326.28c-.23-.16-.86-.35-1-.72a1.88,1.88,0,0,1,.16-1.62c1.58-1.49,1.5-3.62,2.26-5.42s1.42-3.45,2.18-5.15a2.25,2.25,0,0,1,.87-1.07,2,2,0,0,1,1.46-.14,1.48,1.48,0,0,1,.7,1.06,2.63,2.63,0,0,1-.26,1.52,36.68,36.68,0,0,0-2.51,7.07,18,18,0,0,1-1.45,3.18A2.53,2.53,0,0,1,418.71,326.28Z"/><path class="cls-1" d="M266.27,419.88c.37-.12.85-.31,1.35-.43,1.52-.36,3-.73,4.56-1,2.15-.42,4.42-.28,6.46-1.27a1.2,1.2,0,0,1,1.64.52,1.08,1.08,0,0,1-.17,1.57,3.92,3.92,0,0,1-1.55,1,33.84,33.84,0,0,1-4.78.93,14.3,14.3,0,0,0-4.69,1.24,3.27,3.27,0,0,1-3.72-.36c-.6-.49-1-1-.68-1.79S265.5,419.53,266.27,419.88Z"/><path class="cls-1" d="M433.44,282.71c-.14.86-.2,1.57-.38,2.25-.52,2-1,3.95-1.64,5.9a6.77,6.77,0,0,1-2.63,3.61c-.28.2-.65.49-.92.44a2.75,2.75,0,0,1-1.47-.66c-.21-.23-.05-.84,0-1.28a.77.77,0,0,1,.32-.41c1.83-1.45,1.87-3.64,2.38-5.65.46-1.8,1-3.59,1.55-5.35a1.81,1.81,0,0,1,1.17-.84c.6-.16.93.32,1.14.86S433.31,282.42,433.44,282.71Z"/><path class="cls-1" d="M337.52,389.42c1.25,2.06.37,3.1-1.45,4-2.65,1.32-5.44,2.36-8.2,3.42a5.5,5.5,0,0,1-2.25.15c-1-.07-1.44-.55-1.5-1.57s.19-1.1,1.32-1.45c3.32-1,6.72-1.86,9.66-3.9A7.62,7.62,0,0,1,337.52,389.42Z"/><path class="cls-1" d="M383.28,352.44c1.66,1.2,1.84,2.51.11,4.07-2,1.79-3.36,4.22-5.85,5.44-1.19.58-2.36,1.22-3.58,1.75a1.15,1.15,0,0,1-1.6-.63c-.41-.87-.33-1.49.39-2s1.57-.78,2.27-1.29a31.38,31.38,0,0,0,5.19-4.31C381.13,354.46,382.17,353.53,383.28,352.44Z"/><path class="cls-1" d="M377.12,308.5c1.94,1.18,2.2,1.73,1.25,3.49-1.17,2.14-2.51,4.19-3.83,6.24-.69,1.08-1.47,2.09-2.22,3.12-.42.58-.93.9-1.64.45s-1.11-1-.72-1.75a39.53,39.53,0,0,1,2.44-4.41,33.42,33.42,0,0,0,3.32-5.87C375.94,309.23,376.67,308.89,377.12,308.5Z"/><path class="cls-1" d="M267.18,399.51a17.36,17.36,0,0,1-2.33-.9,1.59,1.59,0,0,1-.72-2c.34-.75,1-.73,1.65-.6,2,.38,3.93-.33,5.88-.62a8.63,8.63,0,0,0,4.41-1.52,2,2,0,0,1,2.65.6,1.84,1.84,0,0,1-1,2.33,48.53,48.53,0,0,1-4.79,1.51c-1.16.32-2.34.56-3.52.81C268.75,399.26,268.12,399.35,267.18,399.51Z"/><path class="cls-1" d="M218.22,398.14c-.37-.06-1-.14-1.63-.26-2.54-.5-5.09-1-7.62-1.54a18.52,18.52,0,0,1-3.13-1,2.79,2.79,0,0,1-1.29-1.09,1.73,1.73,0,0,1,0-1.43,1.31,1.31,0,0,1,1.14-.46c1.48.3,2.93.73,4.39,1.11,1.77.46,3.53,1,5.31,1.35,1.3.28,2.64.38,3.94.63.65.13,1.49.15,1.62,1.06.1.65-.92,1.55-1.78,1.64C219,398.16,218.72,398.14,218.22,398.14Z"/><path class="cls-1" d="M395.15,325.34c2.07.47,2.36,1,1.61,2.87a13.63,13.63,0,0,1-2.08,3.82,7.27,7.27,0,0,0-1,2.21,7,7,0,0,1-3.78,4.15c-.59.26-1.24.53-1.75-.15a1.51,1.51,0,0,1,0-1.95c.66-.89,1.36-1.74,2-2.66q2-3,3.93-6A24.51,24.51,0,0,0,395.15,325.34Z"/><path class="cls-1" d="M160.43,382.63c-.54,1.78-1.16,2.22-2.6,1.55a32.49,32.49,0,0,1-3.88-2.31c-2.05-1.33-4.13-2.63-6.09-4.09a9.51,9.51,0,0,1-2.13-2.47c-.2-.3,0-1,.25-1.42s.95-.42,1.4-.08c2.46,1.83,4.89,3.73,7.37,5.53,1.17.85,2.44,1.59,3.69,2.33C159.08,382,159.78,382.32,160.43,382.63Z"/><path class="cls-1" d="M412.08,219.29q.35,3,.7,6a16.81,16.81,0,0,1,.18,1.91c0,1.13-.51,1.76-1.4,1.86-.62.07-1.45-.67-1.64-1.55a17.09,17.09,0,0,1-.43-2.57c-.17-2.49-.34-5-.36-7.48a6.86,6.86,0,0,1,.63-2.67,1,1,0,0,1,1.9-.12,4.3,4.3,0,0,1,.63,1.78,24.91,24.91,0,0,1,0,2.78Z"/><path class="cls-1" d="M214.26,408c-2.25-.39-4.88-.9-7.52-1.3a10.7,10.7,0,0,1-5-1.82,1.65,1.65,0,0,1-.72-2c.26-.92.92-1.28,1.73-.8,2.85,1.67,6.07,1.93,9.19,2.57,1.2.25,2.4.5,3.6.71a1.17,1.17,0,0,1,1,1.25,1.13,1.13,0,0,1-1,1.25A12.13,12.13,0,0,1,214.26,408Z"/><path class="cls-1" d="M300.55,365c.41.35.71.66,1.05.9,1.29.91,1.32,2,0,2.94a3.78,3.78,0,0,1-1.41.68c-3.37.63-6.75,1.23-10.13,1.78-1.26.2-1.9-.33-2-1.38s.74-1.31,1.41-1.52a27.15,27.15,0,0,1,3.07-.57c1.49-.28,3-.59,4.46-.85A4.75,4.75,0,0,0,300.55,365Z"/><path class="cls-1" d="M277.36,382.43a2.35,2.35,0,0,1-1.47,3,7.83,7.83,0,0,1-2.18.55q-3.65.38-7.31.63a13.35,13.35,0,0,1-2.26-.13,1.43,1.43,0,0,1-1.41-1.47,1.73,1.73,0,0,1,1.57-1.58c1.8-.1,3.61-.1,5.4-.28s3.67-.57,5.51-.79A14.31,14.31,0,0,1,277.36,382.43Z"/><path class="cls-1" d="M424.06,231.58c-1.67-.66-1.68-.66-1.62-2.36.11-3.5.21-7,.37-10.49a3.79,3.79,0,0,1,.5-1.47c.32-.62.68-1.32,1.59-1a1.52,1.52,0,0,1,1.07,1.62c0,1.22.05,2.45,0,3.66-.17,2.57-.4,5.13-.63,7.69C425.19,230.53,425.1,230.65,424.06,231.58Z"/><path class="cls-1" d="M321.39,385.61a2.28,2.28,0,0,1-.84-.32,2.46,2.46,0,0,1-.87-1.15c-.11-.55.35-.88.92-1.09a57,57,0,0,0,6-2.36,34.13,34.13,0,0,1,5.45-1.84,3.38,3.38,0,0,1,.86-.17.89.89,0,0,1,1,1.09,2.56,2.56,0,0,1-1.75,2c-1.81.81-3.69,1.47-5.47,2.34a11.67,11.67,0,0,1-4.66,1.36A6.5,6.5,0,0,0,321.39,385.61Z"/><path class="cls-1" d="M333,347.43c-1.51,0-2-.69-1.56-1.73a2.21,2.21,0,0,1,.68-1q3.2-2.1,6.46-4.12c1.08-.67,2.21-1.29,3.32-1.92a1.75,1.75,0,0,1,2.22.36c.47.7.23,1.32-.54,2.11-1.55,1.59-3.73,2.12-5.46,3.4a29.39,29.39,0,0,1-3.12,1.94C334.25,346.92,333.44,347.22,333,347.43Z"/><path class="cls-1" d="M439.94,300.64c-.9-.09-1.31-.52-1.09-1.36a43.54,43.54,0,0,1,1.44-4.66c.56-1.46,1.36-2.84,2-4.29a4.4,4.4,0,0,0,.11-1.52c0-.7,0-1.39.79-1.77a1.61,1.61,0,0,1,1.8.16,1.84,1.84,0,0,1,.82,2c-.52,1.6-1.11,3.18-1.73,4.74-.68,1.72-1.45,3.41-2.12,5.14C441.44,300.3,440.94,300.75,439.94,300.64Z"/><path class="cls-1" d="M304.93,375.54c1,2.18.71,2.89-1.26,3.6-2.68,1-5.34,2-8.07,2.8a9,9,0,0,1-3.43.11c-.41,0-1-.7-1.06-1.16s.48-.82.8-1.18a1,1,0,0,1,.64-.26c2.64-.11,4.82-1.65,7.28-2.35C301.54,376.61,303.24,376.06,304.93,375.54Z"/><path class="cls-1" d="M240.43,422.41c-2.2-.09-4.39-.2-6.59-.27a4.35,4.35,0,0,0-1,.15,3.52,3.52,0,0,1-3.15-1.07,1.35,1.35,0,0,1-.34-1.74c.3-.58.88-.63,1.52-.5a17.46,17.46,0,0,0,2.21.24c2.59.17,5.19.35,7.78.48a14.88,14.88,0,0,0,1.9-.14,1.51,1.51,0,0,1,1.67,1.16,1.78,1.78,0,0,1-1.55,1.77c-.81,0-1.63-.06-2.44-.1Z"/><path class="cls-1" d="M298.77,415.86c-1.52,0-2.47-.7-2.72-1.79-.16-.69,0-1.13.8-1.25,2.47-.41,4.92-.87,7.39-1.25a4.87,4.87,0,0,0,2.53-1.06,2.38,2.38,0,0,1,1.58-.46,1.41,1.41,0,0,1,1.18,2.27,4.49,4.49,0,0,1-1.5,1.39,5.2,5.2,0,0,1-1.65.56c-2.33.52-4.67,1-7,1.5A5.8,5.8,0,0,1,298.77,415.86Z"/><path class="cls-1" d="M397.72,375.27a6.92,6.92,0,0,1-1.22,1.6c-2.94,2-5.92,3.92-8.9,5.83a1.62,1.62,0,0,1-1.14.32,2.7,2.7,0,0,1-1.51-1c-.35-.65,0-1.31.71-1.76,2.87-1.85,5.72-3.72,8.57-5.59a2.68,2.68,0,0,0,.82-.64c.41-.62,1-1,1.58-.56A6.39,6.39,0,0,1,397.72,375.27Z"/><path class="cls-1" d="M223,377.8c-.75-.18-1.59-.4-2.43-.59-2.67-.59-5.34-1.15-8-1.78a2.47,2.47,0,0,1-1.33-.72,1.79,1.79,0,0,1-.28-1.4,1.09,1.09,0,0,1,1.39-.74c2,.41,4,.75,6,1.15,2.16.44,4.31,1,6.48,1.36.8.15,1.36.41,1.36,1.27s-.49,1.25-1.35,1.26C224.28,377.63,223.7,377.73,223,377.8Z"/><path class="cls-1" d="M328.94,408.48a12.22,12.22,0,0,1-1.49-.52,1.29,1.29,0,0,1-.73-1.46c.11-.68.59-.88,1.21-1.06,2.41-.66,4.81-1.36,7.18-2.14a4.07,4.07,0,0,0,1.43-1.17c.45-.47.79-1,1.6-.75a1.54,1.54,0,0,1,1.29,1.42c.23,1.75.2,1.86-1.39,2.74-2.06,1.13-4.36,1.51-6.57,2.17Z"/><path class="cls-1" d="M354.77,397.3c-.49-.1-.72-.16-.95-.2a1.17,1.17,0,0,1-1.14-1.12,1.23,1.23,0,0,1,.74-1.26,42,42,0,0,1,10.23-4.35,3,3,0,0,1,1.34-.07,1.25,1.25,0,0,1,.78,2.11,3.67,3.67,0,0,1-1.23.91c-.57.28-1.21.41-1.81.64a24.1,24.1,0,0,0-4.77,2.1A14.49,14.49,0,0,1,354.77,397.3Z"/><path class="cls-1" d="M411.5,344.95c-.69,1.58-1.28,3.1-2,4.55a16.39,16.39,0,0,1-4.75,5.25,1.64,1.64,0,0,1-1.8.21c-1.26-.56-1.35-1.66-.39-2.27,2.09-1.33,3.27-3.45,4.58-5.43a14,14,0,0,0,.94-2.24,7.12,7.12,0,0,1,.63-1.24,1.12,1.12,0,0,1,2-.1A10.89,10.89,0,0,1,411.5,344.95Z"/><path class="cls-1" d="M434.72,317.95c.85,0,1.4.65,1.12,1.64a6.38,6.38,0,0,1-1,2,16.78,16.78,0,0,0-2.54,5.89,3.16,3.16,0,0,1-3.47,2.53,1.88,1.88,0,0,1-1.23-.82,1.25,1.25,0,0,1,.29-1.18c1.51-1.1,1.66-2.9,2.39-4.39s1.34-3.08,2.07-4.59C432.82,318.18,433.76,318.06,434.72,317.95Z"/><path class="cls-1" d="M230.92,406.37c.74.14,1.47.31,2.22.43,1.72.27,3.45.47,5.16.77a6.71,6.71,0,0,0,4.55-.38,1.07,1.07,0,0,1,1.5.49,1.27,1.27,0,0,1-.4,1.7,4.19,4.19,0,0,1-3.33,1.09c-1.69-.24-3.46.06-5.15-.19a39.94,39.94,0,0,1-5.19-1.37,1.32,1.32,0,0,1-.84-1.7A1.1,1.1,0,0,1,230.92,406.37Z"/><path class="cls-1" d="M394.93,247c-.51,2.25-1,4.51-1.56,6.75a1.43,1.43,0,0,1-1,.79c-.27,0-.77-.32-.92-.63a2.64,2.64,0,0,1-.31-1.48,30.63,30.63,0,0,0-.31-10.25c-.14-.71-.17-1.45.68-1.74a1.67,1.67,0,0,1,2.34.88,11,11,0,0,1,.69,2.69,24.86,24.86,0,0,1,0,2.94Z"/><path class="cls-1" d="M244.65,389.27a27.39,27.39,0,0,1-7.55-1,3,3,0,0,1-.79-.36,1.48,1.48,0,0,1-.61-1.69,1.44,1.44,0,0,1,1.67-.93c2.24.31,4.47.7,6.71.89a17,17,0,0,0,3.27-.31c.17,0,.33-.13.5-.16a1.6,1.6,0,0,1,2,1,1.63,1.63,0,0,1-1.2,1.87C247.16,388.94,245.66,389.11,244.65,389.27Z"/><path class="cls-1" d="M397.65,215.42c0,2.92,0,5.84,0,8.75a6.16,6.16,0,0,1-.44,1.86,1.33,1.33,0,0,1-1.38.88c-.73,0-.86-.65-.91-1.1-.19-1.73-.32-3.47-.38-5.21-.07-2.14,0-4.29-.09-6.44a1.73,1.73,0,0,1,1.1-1.8,1.41,1.41,0,0,1,1.71.89,14.55,14.55,0,0,1,.62,2.13Z"/><path class="cls-1" d="M363.43,382.86a3,3,0,0,1-1.85,1.85c-2.42,1.13-4.89,2.19-7.35,3.22a6.43,6.43,0,0,1-1.87.4,1.47,1.47,0,0,1-1.55-1.16c-.22-.65.18-1.11.7-1.45a4.7,4.7,0,0,1,.62-.32c3.11-1.43,6.21-2.86,9.33-4.27C362.58,380.62,363.62,381.39,363.43,382.86Z"/><path class="cls-1" d="M343.72,294.37l-2-1.27c.29-2.5,1.88-4.12,2.85-6,.88-1.71,2-3.31,3-5,.64-1.05,1.11-1.28,1.92-.93a1.51,1.51,0,0,1,.62,2.12c-.73,1.65-1.54,3.28-2.42,4.85-1,1.88-2.21,3.69-3.33,5.53A5.89,5.89,0,0,1,343.72,294.37Z"/><path class="cls-1" d="M278.64,372.49c0,1.36-1,1.87-2,2.19a28.77,28.77,0,0,1-8.42,1.32,7.3,7.3,0,0,1-2.7-.62,1.43,1.43,0,0,1-.93-1.71c.21-.84.93-.71,1.57-.78,3.13-.31,6.29-.47,9.37-1C276.84,371.61,277.83,371.22,278.64,372.49Z"/><path class="cls-1" d="M388.71,318.63a10.64,10.64,0,0,1-.45,1.31c-.88,1.7-1.91,3.34-2.63,5.11s-2.33,2.72-3.9,3.58a1.74,1.74,0,0,1-1.56-.29,1.3,1.3,0,0,1,0-1.9,35.35,35.35,0,0,0,2.28-2.87c.76-1.17,1.3-2.48,2-3.67a8,8,0,0,1,1.77-2.14,2.37,2.37,0,0,1,1.78-.12C388.32,317.7,388.5,318.31,388.71,318.63Z"/><path class="cls-1" d="M387.92,274.26a23.79,23.79,0,0,1-2,9.07c-.48,1-1.18,1.48-1.83,1.22a1.87,1.87,0,0,1-.91-2.25,34.13,34.13,0,0,1,1.06-3.52,10.15,10.15,0,0,0,.43-5.52,3.77,3.77,0,0,1-.11-1.21c.1-.72.39-1.5,1.23-1.45s1.58.14,1.75,1.14S387.81,273.58,387.92,274.26Z"/><path class="cls-1" d="M181.8,406.87a4.51,4.51,0,0,1-3.76-.18c-2.45-1.16-5-2-7.57-3a4.26,4.26,0,0,1-2.45-1.54c-.43-.7-.67-1.43-.08-2.09s1.27-.39,2,0c2.12,1.06,4.3,2,6.48,2.94,1.48.63,3,1.15,4.53,1.72C181.68,405,181.86,405.45,181.8,406.87Z"/><path class="cls-1" d="M431.85,245.5c1.62.37,2.08.83,2.2,2.48a29.51,29.51,0,0,1-.57,8.17,8.29,8.29,0,0,1-.76,2.27,1.56,1.56,0,0,1-1.2.72,1.5,1.5,0,0,1-1.39-1.35,4,4,0,0,1,.12-1.38,18,18,0,0,0,.49-6.58C430.55,248.28,430.55,246.68,431.85,245.5Z"/><path class="cls-1" d="M295.93,394.27c-.23,0-.52.09-.69,0-.47-.28-1.06-.55-1.29-1-.35-.67.18-1.21.72-1.6a1.86,1.86,0,0,1,.79-.34,33.18,33.18,0,0,0,6.81-2,16.1,16.1,0,0,0,2.31-1.16c1-.56,1.52-.5,2.08.32a1.46,1.46,0,0,1-.34,2.14c-1.86,1.61-4.24,2.07-6.46,2.85a34.71,34.71,0,0,1-3.89.9Z"/><path class="cls-1" d="M396,279.93l-1.76-.2a5.88,5.88,0,0,1,.42-1.7,24.59,24.59,0,0,1,1.82-2.34,1.38,1.38,0,0,1,1.67-.61,1.61,1.61,0,0,1,1.12,1.63c-.25,2.74,0,5.55-.87,8.22a5,5,0,0,1-.89,1.67,1.44,1.44,0,0,1-1.9.38c-.62-.35-.51-1-.43-1.56C395.5,283.61,395.76,281.79,396,279.93Z"/><path class="cls-1" d="M250.73,375.74c.09,2-.22,2.43-1.68,2.48-2.1.07-4.2.21-6.3.18a16.64,16.64,0,0,1-4.14-.5,6.29,6.29,0,0,1-2.28-1.55c-.52-.47-.19-1.44.53-1.72a1.4,1.4,0,0,1,1-.08c2.18,1.26,4.55.67,6.85.8Z"/><path class="cls-1" d="M196.41,369.19c-1.48-.37-3.32-.72-5.09-1.28s-3.47-1.32-5.2-2a3.66,3.66,0,0,1-.79-.37,1.84,1.84,0,0,1-.58-2,1.4,1.4,0,0,1,1.87-.37,59.4,59.4,0,0,0,10.3,3.22l.17,0c1.33.34,1.9.85,1.77,1.57S197.83,369.15,196.41,369.19Z"/><path class="cls-1" d="M182.62,343l-.6,1.65a5,5,0,0,1-3.64-.18,39.75,39.75,0,0,1-8.32-4.36,5,5,0,0,1-1.51-1.85,1.62,1.62,0,0,1,.4-1.37,1.27,1.27,0,0,1,1.21-.11c1.31.74,2.51,1.66,3.82,2.39,1.47.82,3,1.52,4.51,2.28a3.62,3.62,0,0,1,1.06.57,2,2,0,0,0,1.72.66A5.71,5.71,0,0,1,182.62,343Z"/><path class="cls-1" d="M359.6,265.38a18.93,18.93,0,0,1-.36,2.24c-.68,2.4-1.44,4.78-2.12,7.18a1.32,1.32,0,0,1-1.49,1.14c-.94-.05-1.1-.74-1.15-1.47a5.07,5.07,0,0,1,.08-1.39q.86-4,1.78-8a9.62,9.62,0,0,1,.48-1.32,1.34,1.34,0,0,1,1.57-.83c.74.09,1,.68,1.11,1.35a7.72,7.72,0,0,1,0,1Z"/><path class="cls-1" d="M417.52,252.85c.15-2.66.25-5.33.49-8a2.59,2.59,0,0,1,.91-1.57c.73-.61,1.22-.28,1.79.53.88,1.27.27,2.62.33,3.91a30,30,0,0,1-.32,4.84,15.82,15.82,0,0,1-.61,2.72,1.07,1.07,0,0,1-1.3.88c-.73-.12-1.2-.46-1.24-1.22s0-1.4,0-2.1Z"/><path class="cls-1" d="M336.85,357.88c-.45-.35-1.11-.64-1.33-1.12a1.93,1.93,0,0,1,.27-1.58,4.83,4.83,0,0,1,1.47-1.19c.92-.58,1.87-1.13,2.83-1.65,1.69-.91,3.38-1.8,5.09-2.65.5-.25,1.13-.47,1.59.15a1.44,1.44,0,0,1-.09,1.79,4,4,0,0,1-1.07,1.13c-2.47,1.54-5,3-7.46,4.54A12.74,12.74,0,0,1,336.85,357.88Z"/><path class="cls-1" d="M182,323.3c1.62.65,3.25,1.25,4.84,1.95s3.05,1.45,4.56,2.22a4.76,4.76,0,0,1,1.43,1,1.47,1.47,0,0,1,.34,1.26,2.05,2.05,0,0,1-1.23.76,2,2,0,0,1-1.19-.18q-4.79-2.08-9.56-4.22a1.17,1.17,0,0,1-.81-1.39A1.83,1.83,0,0,1,182,323.3Z"/><path class="cls-1" d="M226.74,367.48c-1.52-.25-3-.48-4.5-.75-1.25-.23-2.51-.45-3.74-.78a14,14,0,0,1-2.59-1,1.25,1.25,0,0,1-.77-1.81,1.2,1.2,0,0,1,1.54-.79c.8.14,1.61.29,2.4.48,2.63.64,5.25,1.3,7.88,1.95a1.67,1.67,0,0,0,.52.05c.67-.05,1.35-.08,1.46.81a1.67,1.67,0,0,1-1.36,1.76A6.59,6.59,0,0,1,226.74,367.48Z"/><path class="cls-1" d="M239.38,365.36a1.59,1.59,0,0,1,.47-.17c3.52-.1,7-.19,10.57-.25a4.2,4.2,0,0,1,1.54.26,1.86,1.86,0,0,1,1,.79,1.2,1.2,0,0,1-.57,1.51,2.29,2.29,0,0,1-1.25.48,37.23,37.23,0,0,0-8.71.2,5.6,5.6,0,0,1-1.39,0C239.24,367.91,238.85,367.26,239.38,365.36Z"/><path class="cls-1" d="M188.85,389.78c-1.17-.4-2.54-.88-3.92-1.34-1.1-.36-2.24-.61-3.29-1.07a20,20,0,0,1-3.15-1.79,1.2,1.2,0,0,1-.53-1.67c.39-.69,1.06-.87,2-.52,1.64.61,3.27,1.24,4.91,1.84,1.91.7,3.83,1.38,5.73,2.09a1.7,1.7,0,0,1,.81.52c.51.76.28,1.36-.6,1.6C190.26,389.59,189.67,389.64,188.85,389.78Z"/><path class="cls-1" d="M172.47,360l-1.3-.53c-1-.4-1.91-.85-2.88-1.21a19.41,19.41,0,0,1-6.15-4.2,1.34,1.34,0,1,1,1.88-1.91c2.36,2.13,5.29,3.31,8,4.83a3.29,3.29,0,0,0,1,.23c1.21.22,1.64.63,1.54,1.46S173.82,360,172.47,360Z"/><path class="cls-1" d="M210.36,418.74c-.9-.18-1.88-.35-2.85-.56-2.49-.54-5-1.06-7.47-1.67a1.86,1.86,0,0,1-1.51-2.5,1.32,1.32,0,0,1,1-.66c1.2.17,2.37.51,3.55.79l7.81,1.85c.91.22,1.19.61,1.1,1.48S211.38,418.71,210.36,418.74Z"/><path class="cls-1" d="M192.67,379.4a30.44,30.44,0,0,1-4-.79c-2.2-.72-4.35-1.6-6.47-2.52A2.84,2.84,0,0,1,181,374.7a1.57,1.57,0,0,1,.11-1.42,1.61,1.61,0,0,1,1.42-.26c2.34.86,4.63,1.86,7,2.75,1.25.47,2.55.81,3.82,1.21.63.2,1.26.43,1.23,1.25C194.54,378.86,193.72,379.38,192.67,379.4Z"/><path class="cls-1" d="M348,377.25a8.9,8.9,0,0,1-1.63-.68,1.21,1.21,0,0,1,.08-2.11c2.55-1.26,5.08-2.55,7.62-3.83a10.6,10.6,0,0,0,1.37-.76,1.23,1.23,0,0,1,1.85.24,1.44,1.44,0,0,1-.23,2,39,39,0,0,1-3.37,2.44,21.79,21.79,0,0,1-2.76,1.5C350,376.55,349,376.87,348,377.25Z"/><path class="cls-1" d="M411.78,278.56c-.12.39-.57,1.05-.45,1.59.38,1.84-.56,3.43-.76,5.14A6.13,6.13,0,0,1,408.2,289a1.11,1.11,0,0,1-1.08.08,2.26,2.26,0,0,1-.81-1.24,2.13,2.13,0,0,1,.32-1.34,17.46,17.46,0,0,0,1.68-6,27.45,27.45,0,0,1,.55-2.71c.28-1,1.16-1.69,1.86-1.53S411.78,277.35,411.78,278.56Z"/><path class="cls-1" d="M312.62,363.1l.41-1.89c2.3-.82,4.64-1.64,7-2.51.65-.24,1.23-.66,1.85-1,1.33-.65,2.25-.55,2.61.26a2.33,2.33,0,0,1-1.24,2.91c-1.51.58-3,1.1-4.58,1.61-1.2.4-2.42.74-3.62,1.15A2.22,2.22,0,0,1,312.62,363.1Z"/><path class="cls-1" d="M221.85,386.37c-.87,1.53-2.29,1.15-3.49,1a33.94,33.94,0,0,1-5.29-.93,22.67,22.67,0,0,1-3.72-1.44,1.56,1.56,0,0,1-.69-2.07,1.37,1.37,0,0,1,1.09-.57c.79.12,1.54.5,2.33.68,2.72.63,5.45,1.23,8.17,1.83C221,385.08,221.73,385.33,221.85,386.37Z"/><path class="cls-1" d="M164.68,376.76a1.94,1.94,0,0,1-2.37.18c-3-1.57-5.94-3.16-8.86-4.85a2.33,2.33,0,0,1-1.47-2.2,1.92,1.92,0,0,1,.67-1.26,1.45,1.45,0,0,1,1.25.16c2.33,1.49,4.61,3.06,6.94,4.56a11.38,11.38,0,0,0,1.89.85C164.33,374.85,164.33,374.85,164.68,376.76Z"/><path class="cls-1" d="M423.91,281.24a2.13,2.13,0,0,1,0,.45c-.63,2.29-1.24,4.59-1.93,6.86a4.3,4.3,0,0,1-1.81,2.5,1.08,1.08,0,0,1-1.43-.1c-.41-.36-.82-.7-.6-1.33.16-.44.35-.87.48-1.32.69-2.28,1.37-4.57,2.06-6.85.1-.33.27-.65.37-1,.21-.74.6-1.3,1.45-1.25C423.12,279.25,423.9,280.35,423.91,281.24Z"/><path class="cls-1" d="M331.11,292.31a1.83,1.83,0,0,1,1.85,2.36,12.61,12.61,0,0,1-2.5,3.75c-1.14,1.39-2.35,2.73-3.52,4.09-.15.17-.22.47-.4.55-.45.2-1.06.55-1.39.4s-.56-.85-.59-1.32a2.34,2.34,0,0,1,.45-1.28c1.58-2.44,3.18-4.87,4.82-7.27A8.56,8.56,0,0,1,331.11,292.31Z"/><path class="cls-1" d="M127.81,340.55c-.72,1.5-2.29,2-3.44.64-2.32-2.68-5.09-5-6.89-8.09a5.41,5.41,0,0,1-.56-1.65,1,1,0,0,1,.77-1.2,1.6,1.6,0,0,1,1.2.35,9.76,9.76,0,0,1,1.16,1.54,49.48,49.48,0,0,0,6.4,7.35C126.86,339.89,127.35,340.2,127.81,340.55Z"/><path class="cls-1" d="M157.58,360.51c3.91,2.17,8.24,3.6,12.07,6-.49,1.52-1.31,2.16-3.37,1.33-2.46-1-4.85-2.15-7.24-3.28a7.56,7.56,0,0,1-1.71-1.2C156.12,362.24,156.18,361.65,157.58,360.51Z"/><path class="cls-1" d="M142.46,384.9c1.36-1,1.33-1,2.41,0q3,2.69,6,5.3a8.09,8.09,0,0,0,1.77,1.08c1,.49,1.37,1,1.09,1.64a1.65,1.65,0,0,1-2.24.71,19,19,0,0,1-2.27-1.32c-1.44-1-2.89-2-4.24-3.06A5.92,5.92,0,0,1,142.46,384.9Z"/><path class="cls-1" d="M188.14,337.6c-1.39,1-2.4,1.56-3.81.5a15.63,15.63,0,0,0-3.2-1.36c-1.55-.68-3.08-1.38-4.6-2.11a3.24,3.24,0,0,1-.91-.81,1.44,1.44,0,0,1-.17-1.93,1.16,1.16,0,0,1,1.58-.26c3.23,1.47,6.47,2.93,9.67,4.47C187.23,336.35,187.57,337,188.14,337.6Z"/><path class="cls-1" d="M446.54,254.69A8.18,8.18,0,0,1,445,260c-.37.51-.77.92-1.45.62a1.42,1.42,0,0,1-1-1.47,2.44,2.44,0,0,1,.14-.85c1-2.07.56-4.19.32-6.33a9.36,9.36,0,0,1,.14-2.58,1.11,1.11,0,0,1,1.19-1.05,1.43,1.43,0,0,1,1.39,1.14C446.06,251.48,446.35,253.48,446.54,254.69Z"/><path class="cls-1" d="M216.92,351.5a1.91,1.91,0,0,1,2.6-.8,39.06,39.06,0,0,0,8.8,1.94,9.78,9.78,0,0,1,2.13.84c-.56,1.91-.7,2.07-2.27,2a18.69,18.69,0,0,1-8.35-1.94,4.22,4.22,0,0,0-1-.23A2.38,2.38,0,0,1,216.92,351.5Z"/><path class="cls-1" d="M369.87,276.72a2.32,2.32,0,0,1-.84-3.13,7.11,7.11,0,0,0,.5-4.94c-.18-.59-.5-1.14-.69-1.73a3.59,3.59,0,0,1-.29-1.61c.16-.82.79-1,1.61-.76a3.62,3.62,0,0,1,2.31,2.68,9.38,9.38,0,0,1-1.4,8.43A7.72,7.72,0,0,1,369.87,276.72Z"/><path class="cls-1" d="M112.1,353.12c.45-.12.77-.31,1-.25a2.32,2.32,0,0,1,1.28.66,1.54,1.54,0,0,1-.18,1.28,2.14,2.14,0,0,1-3.76.38c-1.87-2.31-3.56-4.76-5.31-7.17a1.49,1.49,0,0,1-.05-1.94c.55-.72,1.11-.84,1.75-.23a6.07,6.07,0,0,1,.74,1c1.13,1.63,2.24,3.26,3.38,4.88C111.31,352.17,111.69,352.61,112.1,353.12Z"/><path class="cls-1" d="M158.76,338.92a1.27,1.27,0,0,1-1.62,1.27,9.46,9.46,0,0,1-2.35-1.14c-2-1.42-3.9-2.9-5.79-4.42a3.44,3.44,0,0,1-1.12-1.53,2.05,2.05,0,0,1,.28-1.57,1,1,0,0,1,1.54-.09c.35.3.77.52,1.12.81,1.52,1.25,3,2.52,4.56,3.76.9.72,1.86,1.37,2.76,2.1A3.81,3.81,0,0,1,158.76,338.92Z"/><path class="cls-1" d="M140.76,358.75a9,9,0,0,1-1.53-1,40.52,40.52,0,0,0-5.94-5.11,5.32,5.32,0,0,1-1.49-2.1,1.49,1.49,0,0,1,.61-2c.75-.47,1.16.07,1.63.52,2,1.95,4.06,3.85,6,5.82a12.73,12.73,0,0,1,1.65,2.24,1.07,1.07,0,0,1,.05,1C141.59,358.44,141.15,358.54,140.76,358.75Z"/><path class="cls-1" d="M440.17,223.51c-.16,1.84-.29,3.41-.44,5-.07.68-.28,1.26-1.1,1.37a1.65,1.65,0,0,1-1.76-1.14,3,3,0,0,1-.17-1c0-2.56.12-5.12.18-7.69,0-.88.22-1.62,1.16-1.94s1.65,0,1.77,1C440,220.64,440.07,222.2,440.17,223.51Z"/><path class="cls-1" d="M142,339a2,2,0,0,1,1.18-2.11c.77-.23,1.09.28,1.55.8a25.58,25.58,0,0,0,2.59,2.33c1.64,1.4,3.32,2.75,4.92,4.19a1.65,1.65,0,0,1,.4,1.38c-.08.3-.69.56-1.11.66a1.41,1.41,0,0,1-1-.28c-2.59-1.85-5.18-3.7-7.71-5.62A3.76,3.76,0,0,1,142,339Z"/><path class="cls-1" d="M343,366.77c-.6-.15-1.36-.11-1.62-1a1.5,1.5,0,0,1,.93-1.85q4.3-2.12,8.62-4.2a1.2,1.2,0,0,1,1.68,1.3,2,2,0,0,1-.56,1.24,28.15,28.15,0,0,1-8.28,4.36A5.86,5.86,0,0,1,343,366.77Z"/><path class="cls-1" d="M318.76,373.7a10.42,10.42,0,0,1-1.56-.16,1.12,1.12,0,0,1-1-1.26c.08-.43.54-.79.87-1.15a.76.76,0,0,1,.48-.19c2.58-.18,4.71-1.55,7-2.55a9,9,0,0,1,2.65-.64,1.27,1.27,0,0,1,1,.68,1.67,1.67,0,0,1-.35,1.36,6.89,6.89,0,0,1-1.84,1.28c-1.24.62-2.5,1.21-3.79,1.71-1.12.44-2.28.74-3.43,1.1Z"/><path class="cls-1" d="M131.22,376.34c-.31,1.77-.31,1.77-2.11,2.64a44.26,44.26,0,0,1-7.61-6.46,3.9,3.9,0,0,1-.75-1.36,1.45,1.45,0,0,1,.44-1.88c.68-.41,1.35,0,1.87.51.33.33.58.73.9,1.07,1.36,1.43,2.7,2.88,4.13,4.23a5.21,5.21,0,0,0,1.69.76C130.26,376,130.76,376.18,131.22,376.34Z"/><path class="cls-1" d="M177.78,351.29a4,4,0,0,1-3.9.26c-1.38-.62-2.82-1.11-4.22-1.68a9.59,9.59,0,0,1-3.51-2.55c-.55-.61-.71-1.26-.13-1.87s1.07-.58,1.83-.07a26.56,26.56,0,0,0,8,3.84C176.85,349.48,177.72,349.88,177.78,351.29Z"/><path class="cls-1" d="M357.29,325.74a2.07,2.07,0,0,0-3.13.79,10.78,10.78,0,0,1-1.58,1.56c-.73.67-1.45,1.35-2.2,2a1.56,1.56,0,0,1-2.07.26,1.8,1.8,0,0,1-.18-2.38,14.81,14.81,0,0,1,6.77-5.05,2.72,2.72,0,0,1,.33-.11c.92-.2,2.23.09,2.35.69A7.74,7.74,0,0,1,357.29,325.74Z"/><path class="cls-1" d="M381.9,250.12h-1.74c-.07-1.46-.1-2.85-.22-4.23-.15-1.8-.38-3.59-.57-5.38,0-.23-.06-.46-.07-.69,0-1,.33-1.72,1-1.78a1.57,1.57,0,0,1,1.75,1.14,15.48,15.48,0,0,1,.79,3A15.18,15.18,0,0,1,381.9,250.12Z"/><path class="cls-1" d="M354.62,298.67c.5-1,.88-1.89,1.39-2.71q1.25-2,2.64-3.9A18.49,18.49,0,0,1,360.5,290a1.17,1.17,0,0,1,1.72-.13,1.53,1.53,0,0,1,.49,1.88,1.92,1.92,0,0,1-.25.46c-1.54,2.1-3.06,4.21-4.63,6.29a4.5,4.5,0,0,1-1.28,1.18,1.54,1.54,0,0,1-1.25.13C355,299.65,354.86,299.11,354.62,298.67Z"/><path class="cls-1" d="M320.91,308.31c1.11,0,1.68.17,1.86.94A1.41,1.41,0,0,1,322,311c-2,1.17-4,2.44-6,3.62a12.85,12.85,0,0,1-2.22,1c-.7.25-1.09-.25-1.37-.79a1,1,0,0,1,.24-1.4c2.09-1.48,4.15-3,6.28-4.41A7.38,7.38,0,0,1,320.91,308.31Z"/><path class="cls-1" d="M269.91,357.88h-3.13c-.65,0-1.33,0-1.61-.76a2,2,0,0,1,1.05-2,8.88,8.88,0,0,1,2.53-.52c1.9-.1,3.81-.08,5.71-.1a2.18,2.18,0,0,1,2.41,1.76,1.11,1.11,0,0,1-1.11,1.41h-5.86Z"/><path class="cls-1" d="M269,323.25c-1.48.08-2.85.26-4.21.21-1.74-.06-3.48-.29-5.21-.46a3.52,3.52,0,0,1-2.66-1.1c-.74-.91-.59-1.79.51-2.17a2.08,2.08,0,0,1,1.19,0,41.48,41.48,0,0,0,8.11,1.05C268.14,320.85,268.79,321.44,269,323.25Z"/><path class="cls-1" d="M116.64,322.32c-1.71-2.34-3.54-4.74-5.24-7.22a7.72,7.72,0,0,1-1.08-2.75c-.09-.43.38-1,.6-1.49.4.18.92.25,1.17.55.83,1,1.58,2,2.32,3,1.24,1.76,2.45,3.53,3.66,5.31C119.08,321.26,118.74,322,116.64,322.32Z"/><path class="cls-1" d="M402.4,302.1a11.09,11.09,0,0,1-4.12,7.32,2,2,0,0,1-1.59.22c-.86-.23-1-.79-.57-1.62a25.51,25.51,0,0,1,1.43-2.19,9.11,9.11,0,0,0,1.53-3.86,6.79,6.79,0,0,1,.16-.68c.35-1.33.93-1.91,1.76-1.78S402.43,300.61,402.4,302.1Z"/><path class="cls-1" d="M170.36,320.69c-.52-.16-.81-.22-1.07-.34a26.52,26.52,0,0,1-7.45-5,3.84,3.84,0,0,1-.6-.63,1.48,1.48,0,0,1-.08-1.94c.61-.67,1.28-.33,1.87.1s1.35,1.11,2.06,1.61c.95.66,2,1.21,2.91,1.88s2,1.56,3,2.32c.5.37.75.83.37,1.33A3.49,3.49,0,0,1,170.36,320.69Z"/><path class="cls-1" d="M124.72,299.92a5.22,5.22,0,0,1,.93.79c.38.51.66,1.09,1,1.65l4.19,7.06c.12.2.35.39.35.59a1.67,1.67,0,0,1-.18,1.1,1.18,1.18,0,0,1-1.06.17,3.41,3.41,0,0,1-1.44-.95,32.68,32.68,0,0,1-4.92-7.59c-.49-1.22-.4-1.81.32-2.37A6.07,6.07,0,0,1,124.72,299.92Z"/><path class="cls-1" d="M290.29,360.81c-1.51,0-1.78-.24-2-1.16a1.4,1.4,0,0,1,1-1.77c1-.36,2-.72,3-1s2.11-.69,3.18-.93a5.3,5.3,0,0,1,2-.08c.62.11,1.37.52,1.24,1.24a2.4,2.4,0,0,1-1.09,1.6,31.36,31.36,0,0,1-4.15,1.32C292.34,360.32,291.16,360.59,290.29,360.81Z"/><path class="cls-1" d="M367.21,350.81c-.61-.3-1.31-.41-1.43-.74a2.13,2.13,0,0,1,.05-1.77c1.77-2,3.63-3.95,5.53-5.83a1.5,1.5,0,0,1,2.07.15c.67.56.32,1.16.14,1.76a1.38,1.38,0,0,1-.25.46c-1.29,1.57-2.52,3.19-3.91,4.68A9.12,9.12,0,0,1,367.21,350.81Z"/><path class="cls-1" d="M128.46,360a13.1,13.1,0,0,1,4.69,3.32c1,1,2.06,2,3.09,3.07a5.48,5.48,0,0,1,.74.73,1.21,1.21,0,0,1,0,1.61,1.13,1.13,0,0,1-1.57.2,22.11,22.11,0,0,1-1.93-1.48c-1.47-1.22-2.92-2.46-4.38-3.7a10.17,10.17,0,0,1-.78-.68C127,361.67,127,361.54,128.46,360Z"/><path class="cls-1" d="M229.28,323a28.07,28.07,0,0,1,3.64,1.06c2,.88,3.91,2,5.88,2.91.64.31,1.13.67.94,1.45s-1,1-1.94.65c-1.2-.41-2.36-.95-3.55-1.4-1.62-.61-3.26-1.18-4.89-1.78-.32-.12-.76-.19-.9-.43-.27-.47-.61-1.13-.46-1.55S228.84,323.29,229.28,323Z"/><path class="cls-1" d="M231.39,344.55a1.28,1.28,0,0,1-1.49,1.06c-1.31-.17-2.62-.4-3.92-.67a17.6,17.6,0,0,1-3-.81,10.19,10.19,0,0,1-2.5-1.49,1.53,1.53,0,0,1-.39-1.34,1.11,1.11,0,0,1,1.52-.77q2.31.77,4.63,1.5c.77.24,1.54.47,2.32.65A3.73,3.73,0,0,1,231.39,344.55Z"/><path class="cls-1" d="M138.5,302.27a1.45,1.45,0,0,1-1.91,1.14,2,2,0,0,1-.85-.57c-1.62-2-3.29-4-4.78-6.15-.92-1.3-.72-2.46.18-2.9.67-.33,1.4.2,2.28,1.46s1.89,2.5,2.84,3.75c.63.82,1.28,1.63,1.88,2.47A3.71,3.71,0,0,1,138.5,302.27Z"/><path class="cls-1" d="M258,350c-.71-.14-1.47-.05-1.85-.4-1.67-1.52-3.75-1.58-5.78-1.87l-2.43-.36c-.18-.82-1.07-1.45-.43-2.29s1.45-.53,2.27-.41a22.14,22.14,0,0,0,2.43.23,8.24,8.24,0,0,1,4.19,1.53A3.29,3.29,0,0,1,258,350Z"/><path class="cls-1" d="M163.38,331.43c-.67,1-1.3,1.21-2,.84a24.52,24.52,0,0,1-7-4.79,3.57,3.57,0,0,1-.78-1.34,1.39,1.39,0,0,1,.77-1.61c.55-.35,1-.06,1.4.3,1.28,1.1,2.55,2.21,3.87,3.25.76.6,1.68,1,2.42,1.64A10.58,10.58,0,0,1,163.38,331.43Z"/><path class="cls-1" d="M120.24,305.64a17.39,17.39,0,0,0,.72,1.85c1,1.91,2,3.8,3,5.69a1.66,1.66,0,0,0,.57.59c.75.46.67,1,.25,1.62a1.27,1.27,0,0,1-1.94.41,7.72,7.72,0,0,1-1.39-1.75c-1.16-1.92-2.68-3.63-3.31-5.88C117.65,306.24,117.87,305.85,120.24,305.64Z"/><path class="cls-1" d="M250.45,360.63c-2-.21-4.27-.49-6.53-.66a3.79,3.79,0,0,1-2.3-1.11c-.53-.47-.89-.94-.37-1.64s1-.86,1.64-.41a3.43,3.43,0,0,0,2.61.45,7.94,7.94,0,0,1,2.05.34c1,.13,2.08.21,3.12.31.11,0,.23,0,.35,0,1.24,0,2.16.44,2.2,1C253.27,359.62,251.73,360.69,250.45,360.63Z"/><path class="cls-1" d="M456.23,258c.25-2.15.49-4.3.76-6.44a2.26,2.26,0,0,1,1.38-1.9c1-.44,1.86.07,1.77,1.14q-.34,3.76-.82,7.5c-.09.73-.25,1.54-1.19,1.76C457,260.29,456.21,259.46,456.23,258Z"/><path class="cls-1" d="M185.21,286.29c-.06.49-.07.72-.11,1a1.48,1.48,0,0,1-1.42,1.33c-.82,0-1-.61-1.15-1.29a5.75,5.75,0,0,0-3.58-4.43,6.31,6.31,0,0,0-1.67-.35,1.12,1.12,0,0,1-1.09-1.32,1.23,1.23,0,0,1,1.35-1.29,6.84,6.84,0,0,1,1.87.43,10,10,0,0,1,5.28,4.38A6.72,6.72,0,0,1,185.21,286.29Z"/><path class="cls-1" d="M269.31,302.89a19.31,19.31,0,0,1-6.66-1.16c-.75-.21-.9-.91-.67-2.07.16-.84.71-1,1.42-.9a3.36,3.36,0,0,1,.84.22,10.5,10.5,0,0,0,5.27.87,3.21,3.21,0,0,1,2.55.92,1.57,1.57,0,0,1,.48,1.15c0,.28-.49.67-.81.74A20.1,20.1,0,0,1,269.31,302.89Z"/><path class="cls-1" d="M264.33,335.7a18.94,18.94,0,0,1-2.63-.75,43.18,43.18,0,0,1-4.3-2.18,2,2,0,0,1-1-2.63,1,1,0,0,1,1.44-.74,2.87,2.87,0,0,1,.77.39,30.86,30.86,0,0,0,6.82,3.72,1.74,1.74,0,0,1,.8,1.35c0,.68-.64.88-1.31.75l-.52-.07Z"/><path class="cls-1" d="M240.68,318.54a1.17,1.17,0,0,1-.35,0c-2.17-1-4.57-.63-6.83-1.15-.78-.18-1.59-.29-1.8-1.35a1.36,1.36,0,0,1,.48-1.55,2.71,2.71,0,0,1,1.58-.34,20.48,20.48,0,0,1,3.05.57c1.34.34,2.69.72,4,1.19a2,2,0,0,1,.92,1C242.27,317.92,241.85,318.56,240.68,318.54Z"/><path class="cls-1" d="M159.41,319.22c.21.14.54.35.85.58q3.26,2.41,6.5,4.84a1.77,1.77,0,0,1,.58.63c.2.45.59.94.11,1.45a1.18,1.18,0,0,1-1.56.3,24.88,24.88,0,0,1-6.79-4.5,4.6,4.6,0,0,1-1-1.45A1.39,1.39,0,0,1,159.41,319.22Z"/><path class="cls-1" d="M344.62,316.38c-1.37,0-1.79-.68-1.26-1.61a5.5,5.5,0,0,1,1.11-1.33c1.7-1.51,3.42-3,5.15-4.45.22-.19.49-.46.72-.46.54,0,1.27,0,1.57.36a1.94,1.94,0,0,1,.12,1.57,3,3,0,0,1-.94,1.24c-.95.85-1.92,1.68-2.93,2.46-.82.63-1.69,1.2-2.56,1.76A7,7,0,0,1,344.62,316.38Z"/><path class="cls-1" d="M458.5,225.56c-.18-1-.4-1.92-.54-2.89-.19-1.26-.36-2.52-.45-3.79a1.1,1.1,0,0,1,1-1.26,1.22,1.22,0,0,1,1.35.9,14.9,14.9,0,0,1,1.16,8.21,1.78,1.78,0,0,1-.35,1,2.6,2.6,0,0,1-1.43.76c-.29,0-.72-.67-.84-1.11a6.85,6.85,0,0,1,0-1.74Z"/><path class="cls-1" d="M306.68,306.38a2.46,2.46,0,0,1,1.23-3.33c2.15-1.27,4.27-2.57,6.4-3.85a1.17,1.17,0,0,1,1.76,1,2.3,2.3,0,0,1-1.14,2.38,22.28,22.28,0,0,1-2.3,1.23C310.7,304.68,308.73,305.5,306.68,306.38Z"/><path class="cls-1" d="M112.09,341.74c.36-.49.59-1.07,1-1.33a1.1,1.1,0,0,1,1.5.49c.87,1.23,1.76,2.45,2.64,3.68s1.59,2.15,2.29,3.29a2.18,2.18,0,0,1,.32,1.58,1.15,1.15,0,0,1-2,.22c-1.09-1.28-2.07-2.64-3.1-4-.57-.73-1.2-1.42-1.73-2.18A16.13,16.13,0,0,1,112.09,341.74Z"/><path class="cls-1" d="M138.27,327.62a1,1,0,0,1-1.43,1,5.22,5.22,0,0,1-1.55-.78c-2-1.68-4.21-3.16-5.13-5.78a2.89,2.89,0,0,1-.19-1.35,1.15,1.15,0,0,1,2-.67,9,9,0,0,1,1.21,1.49,14.31,14.31,0,0,0,3.43,3.9,8,8,0,0,1,1.48,1.7A1.67,1.67,0,0,1,138.27,327.62Z"/><path class="cls-1" d="M341,301.06c0,2-.91,3.09-1.72,4.26a15,15,0,0,1-1.83,2.08,11.46,11.46,0,0,1-1.41,1,.94.94,0,0,1-1.4-.13,1.86,1.86,0,0,1-.39-1.39,5.08,5.08,0,0,1,1.22-2.07,12,12,0,0,0,2.66-3.43c.13-.26.36-.46.49-.72.31-.6.83-1,1.41-.66A3.69,3.69,0,0,1,341,301.06Z"/><path class="cls-1" d="M104.48,318.7c.38.3.73.45.88.72q2.16,3.79,4.26,7.61c.24.44.5,1,0,1.43a1.61,1.61,0,0,1-1.93-.06,1.05,1.05,0,0,1-.24-.26c-1.28-2.19-3.13-4-4-6.47a3.3,3.3,0,0,1,0-1.87C103.51,319.4,104.06,319.11,104.48,318.7Z"/><path class="cls-1" d="M288,318.53c-1.14.05-1.59-.31-1.65-1.29a1.5,1.5,0,0,1,1.46-1.62c2.55-.22,5.1-.41,7.66-.52a1.27,1.27,0,0,1,1.43,1,1.2,1.2,0,0,1-1,1.44,10.33,10.33,0,0,1-2,.38C291.91,318.15,289.95,318.33,288,318.53Z"/><path class="cls-1" d="M214.22,320.5l-3.81-.74c-1.49-.29-3-.54-4.45-.88a1.63,1.63,0,0,1-1.31-1.66,1.68,1.68,0,0,1,1.25-1.71c.29-.11.83-.12,1,.06.94,1.19,2.3,1,3.52,1.12a7,7,0,0,1,3.32,1.43A1.64,1.64,0,0,1,214.22,320.5Z"/><path class="cls-1" d="M240.77,310a32.27,32.27,0,0,1-3.75-.86,6.36,6.36,0,0,1-2.12-1.44,1.49,1.49,0,0,1-.11-1.94c.39-.7,1-.95,1.59-.43,1.59,1.42,3.58,1.46,5.5,1.79a3.39,3.39,0,0,1,1.47.47,2,2,0,0,1,.67,1.26c.06.59-.41.93-1,1S241.75,310,240.77,310Z"/><path class="cls-1" d="M131.31,334.12c-1.5.72-2.17.66-3.17-.42q-2-2.11-3.8-4.32a3.88,3.88,0,0,1-.65-1.41c-.17-.59-.15-1.29.53-1.48a2.33,2.33,0,0,1,1.61.19,5.19,5.19,0,0,1,1.18,1.27c1.18,1.37,2.33,2.76,3.53,4.1C131.24,332.82,131.27,332.78,131.31,334.12Z"/><path class="cls-1" d="M205.43,348.26c-1.18-.88-2.21-1.7-3.28-2.46a5.32,5.32,0,0,0-3.84-1.29c-1,.15-1.39-.4-1.63-1.17s.26-1.36,1-1.58a3.78,3.78,0,0,1,1.84-.2,10.68,10.68,0,0,1,5.79,3.65C206.14,346.21,206.19,346.95,205.43,348.26Z"/><path class="cls-1" d="M146.39,351.44a2.5,2.5,0,0,1-3.07-.54c-1.17-1.42-2.85-2-4.18-3.07A3.7,3.7,0,0,1,138,346a2,2,0,0,1,.64-1.48c.49-.51,1.11-.18,1.58.18,1.59,1.23,3.19,2.46,4.73,3.76C145.8,349.21,146.7,350,146.39,351.44Z"/><path class="cls-1" d="M102.57,333.67a.58.58,0,0,1,0,.19c-.22.6.19,1.51-.82,1.71a1.83,1.83,0,0,1-2-1c-1.13-2.29-2.13-4.65-3.18-7a1,1,0,0,1-.08-.34c0-.75-.27-1.7.66-2s1.22.7,1.55,1.35c.92,1.81,1.76,3.65,2.69,5.45A12.85,12.85,0,0,0,102.57,333.67Z"/><path class="cls-1" d="M202.29,331.45a19,19,0,0,1,2.34,1c1.5.9,2.94,1.91,4.4,2.87l.44.29a1.15,1.15,0,0,1,.34,1.7c-.4.6-1,.44-1.58.18a23.67,23.67,0,0,1-3-1.45,8.79,8.79,0,0,0-3.39-1.31,2.45,2.45,0,0,1-1.42-1.35,1.33,1.33,0,0,1,.75-1.61A5.68,5.68,0,0,1,202.29,331.45Z"/><path class="cls-1" d="M296.33,334.75c.81.87.9,1.4,0,2a7.3,7.3,0,0,1-4.77,1.73c-.87,0-1.75.07-2.62,0-1.25,0-1.81-.62-1.7-1.69s.66-1.28,1.93-1.39C291.58,335.27,294.05,335.92,296.33,334.75Z"/><path class="cls-1" d="M221,300.45c-.61.34-1.23.7-1.91.16-1.33-1-3-1-4.51-1.72-.73-.34-1.5-.63-2.21-1a1.15,1.15,0,0,1-.48-1.77c.49-.87,1-1.15,1.85-.82s1.7.75,2.55,1.13c1.17.53,2.36,1,3.48,1.6C220.68,298.5,221.41,299.19,221,300.45Z"/><path class="cls-1" d="M150,311.92a1.47,1.47,0,0,1-1.82,1.56,6.85,6.85,0,0,1-1.66-1,18.64,18.64,0,0,1-4.25-5c-.36-.53-.6-1.2.12-1.71a1.17,1.17,0,0,1,1.7.3c.76.8,1.51,1.61,2.3,2.37s1.87,1.72,2.8,2.59C149.54,311.38,149.83,311.72,150,311.92Z"/><path class="cls-1" d="M215.45,309.46c-2.06-.57-4.14-1.11-6.18-1.74a2,2,0,0,1-1-2.18c.11-.33.48-.79.75-.81a3.43,3.43,0,0,1,2,.25,10.08,10.08,0,0,0,3.88,1.46,6.53,6.53,0,0,1,2.12.78,1.82,1.82,0,0,1,.76,1.2c0,.2-.63.57-1,.72a4.69,4.69,0,0,1-1.2.15Z"/><path class="cls-1" d="M269.66,315.21a11.25,11.25,0,0,1-3-.18c-1.73-.59-3.67-.39-5.26-1.52-.89-.63-1.26-1.21-.93-2s1-1,2.07-.69c1.82.59,3.65,1.17,5.49,1.71C269.65,313,269.73,313.07,269.66,315.21Z"/><path class="cls-1" d="M287.24,329.15l-.93-1.67a10.54,10.54,0,0,1,1.25-1.08c2.35-1.48,5.06-1.56,7.7-1.83a1.68,1.68,0,0,1,1.14.32c.31.26.67.79.59,1.09s-.63,1-1,1c-2.11-.09-4.06.62-6.06,1a2.88,2.88,0,0,0-1.66.74C288.11,329,287.7,329,287.24,329.15Z"/><path class="cls-1" d="M153.44,308.2a5.26,5.26,0,0,1-1.29-.52c-1.69-1.41-3.37-2.83-5-4.32a2.13,2.13,0,0,1-.68-1.49,1.84,1.84,0,0,1,.94-1.28,1.44,1.44,0,0,1,1.35.38c.92,1.4,2.38,2.18,3.5,3.33.65.67,1.37,1.26,1.95,2a1.49,1.49,0,0,1,.19,1.26C154.28,307.85,153.75,308,153.44,308.2Z"/><path class="cls-1" d="M193.26,318.91c-.1.19-.24.81-.6,1a1.19,1.19,0,0,1-1.63-.58,6.1,6.1,0,0,0-5.3-3.39,1.19,1.19,0,0,1-1.13-1.33,1.22,1.22,0,0,1,1.3-1.34,3.25,3.25,0,0,1,.87,0,10,10,0,0,1,6.28,4.33,1.48,1.48,0,0,1,.15.5C193.23,318.24,193.23,318.42,193.26,318.91Z"/><path class="cls-1" d="M370.24,301.13a9.58,9.58,0,0,1-3.2,5.66,1.45,1.45,0,0,1-1.93,0c-.6-.41-.53-1-.29-1.56a3.13,3.13,0,0,1,.39-1,8.29,8.29,0,0,0,2.17-4.67,1.07,1.07,0,0,1,1.49-.74A3,3,0,0,1,370.24,301.13Z"/><path class="cls-1" d="M294.91,345.72c-.22,1.43-1.58.51-2.26,1.18s-1.63.5-2.46.76-1.75.65-2.63.94-1.56.86-2.48.39c-.5-1.16-.11-1.85.93-2.58a11.06,11.06,0,0,1,6.19-1.89A3.27,3.27,0,0,1,294.91,345.72Z"/><path class="cls-1" d="M175.14,288.86c2.11.63,4.23,1.22,6.31,1.94.42.15.66.78,1,1.14a1.17,1.17,0,0,1,.08,1.73c-.44.57-.92.07-1.4-.08-2-.61-4-1.19-6-1.77-.17,0-.36,0-.52-.09a1.44,1.44,0,0,1-1-1.63C173.76,289.26,174.41,289.14,175.14,288.86Z"/><path class="cls-1" d="M234.13,338c-2-.89-4.07-1.79-6.12-2.67-.31-.13-.68-.14-1-.25a1.49,1.49,0,0,1-1.1-1.88c.18-.87.67-1.2,1.67-1.09a3.11,3.11,0,0,1,1.18.26c1.75,1,3.51,2,5.19,3.11C235,336.21,235,336.64,234.13,338Z"/><path class="cls-1" d="M286.64,204.92c.2-1.48.4-3.32.7-5.15a1.54,1.54,0,0,1,2-1.24c.83.21,1.15.73,1,1.73q-.41,2.65-.86,5.28c-.19,1.09-1.09,2.08-1.83,2.07S286.63,206.95,286.64,204.92Z"/><path class="cls-1" d="M210.22,281.38a5.44,5.44,0,0,1-3-1,40,40,0,0,0-3.79-2.07c-.9-.46-1.33-1.07-1.08-1.75a1.55,1.55,0,0,1,2-.88,15.22,15.22,0,0,1,2.51,1.2,23.72,23.72,0,0,1,3,2C210.94,279.72,210.91,279.93,210.22,281.38Z"/><path class="cls-1" d="M156.79,276.25a14.85,14.85,0,0,1,2.74,1.38,20.17,20.17,0,0,0,4.18,2.81,2,2,0,0,1,.84,1c.37,1-.21,1.75-1.21,1.44a24,24,0,0,1-3.61-1.61c-.45-.22-.81-.65-1.25-.89C156.78,279.49,156.39,278.66,156.79,276.25Z"/><path class="cls-1" d="M144,321c-.05.95-1.53,1.69-2.16,1.13-1.73-1.55-3.41-3.17-5-4.84a1.9,1.9,0,0,1-.25-1.46,1,1,0,0,1,1.73-.64c1.63,1.48,3.18,3,4.74,4.61A12.06,12.06,0,0,1,144,321Z"/><path class="cls-1" d="M333.83,330.66a18.43,18.43,0,0,1-7.28,4.28,1.25,1.25,0,0,1-1.74-.67,1.41,1.41,0,0,1,.69-1.92,23.51,23.51,0,0,1,6.65-2.5C332.88,329.71,333.55,329.72,333.83,330.66Z"/><path class="cls-1" d="M321.32,323.76a1.59,1.59,0,0,1,1.46-2c1.46-.11,2.28-1.05,3.24-1.88.18-.15.32-.34.49-.5.9-.86,1.56-1,2.12-.53a2.1,2.1,0,0,1,.08,2.44,16.48,16.48,0,0,1-3.12,2.76C324.23,324.9,322.77,324.29,321.32,323.76Z"/><path class="cls-1" d="M359.4,175.51a12,12,0,0,1,1.86-4.54,1.44,1.44,0,0,1,1.81-.62c.8.32,1.09.8.8,1.63-.57,1.64-1.17,3.27-1.8,4.88-.24.63-.46,1.38-1.39,1.3s-1-1-1.21-1.67A4.75,4.75,0,0,1,359.4,175.51Z"/><path class="cls-1" d="M316.2,340.39c-.81,1.43-1.57,2-3,1.89a31.82,31.82,0,0,0-4.31.15c-.29,0-.63.11-.85,0-.38-.21-.87-.51-1-.87a1.3,1.3,0,0,1,.42-1.16,5,5,0,0,1,2.2-.85,36.93,36.93,0,0,1,4.87.16A5.83,5.83,0,0,1,316.2,340.39Z"/><path class="cls-1" d="M247.09,298.4c-.05,1.37-.58,1.73-1.52,1.38a1,1,0,0,1-.45-.24c-1-1.41-2.62-1.54-4.16-1.82-1.28-.23-1.66-.74-1.47-1.71a1.75,1.75,0,0,1,2.09-1.39,11.68,11.68,0,0,1,4.64,2.32A4.49,4.49,0,0,1,247.09,298.4Z"/><path class="cls-1" d="M290.1,305.44c1.41.71,2.85,0,4.31-.61a1.46,1.46,0,0,1,.86-.1c.36.09.86.24,1,.5a1.21,1.21,0,0,1-.25,1.08,8,8,0,0,1-5.26,2.4,3.58,3.58,0,0,1-1.35-.29c-1.14-.4-1.42-.77-1.27-1.55A1.83,1.83,0,0,1,290.1,305.44Z"/><path class="cls-1" d="M249.87,196.86c-.32,1.54-.61,3.08-1,4.61a3.79,3.79,0,0,1-.54,1.09c-.28.46-.6.88-1.26.67a1.33,1.33,0,0,1-1-1.26,4.81,4.81,0,0,1,0-1,20,20,0,0,1,.58-3.09,7.61,7.61,0,0,1,1.28-2.21,1.31,1.31,0,0,1,1.15-.42c.31.13.46.71.62,1.11.06.14,0,.34,0,.52Z"/><path class="cls-1" d="M161.32,288.95a1.32,1.32,0,0,1-2,.31c-1.25-.73-2.62-1.23-3.93-1.87S153.65,286,153.8,285a1.21,1.21,0,0,1,2-.88,30,30,0,0,0,2.74,1.76A5.31,5.31,0,0,1,161.32,288.95Z"/><path class="cls-1" d="M178.68,188.65c1.82.71,2,1.55.71,2.77a4,4,0,0,1-5.1.33,4.32,4.32,0,0,1-1.08-2.07,1.3,1.3,0,0,1,.61-1.11,1.77,1.77,0,0,1,1.43.12C177,189.82,177,189.85,178.68,188.65Z"/><path class="cls-1" d="M206.37,289.91a2.38,2.38,0,0,1-2.74.44c-1.3-.62-2.63-1.2-3.94-1.81a1.55,1.55,0,0,1-.88-1.57c0-.9.69-1.52,1.5-1.17a49.79,49.79,0,0,1,5.11,2.57C205.88,288.63,206.06,289.37,206.37,289.91Z"/><path class="cls-1" d="M431.67,193.39a2.43,2.43,0,0,1-1.38-2.08c-.09-1.34-.26-2.68-.35-4s.26-1.69,1.16-1.8c1.11-.14,1.76.3,1.81,1.58a28.82,28.82,0,0,1-.26,4.69C432.57,192.3,432,192.79,431.67,193.39Z"/><path class="cls-1" d="M201.51,301.22c-1.53-.64-3.08-1.26-4.58-2a2.07,2.07,0,0,1-.77-.91,1.37,1.37,0,0,1,.4-1.73c.51-.53,1-.38,1.57-.07,1.46.81,2.92,1.62,4.42,2.38.42.21.95.24.9.86a1.17,1.17,0,0,1-1.14,1.11l-.69.1Z"/><path class="cls-1" d="M297.52,203c-.21,1-.44,2.15-.74,3.33-.17.65-.52,1.17-1.35,1a1.1,1.1,0,0,1-1-1.35c.11-1.56.21-3.12.27-4.68,0-.92.62-1.2,1.37-1.26a1.25,1.25,0,0,1,1.34,1.12A12.48,12.48,0,0,1,297.52,203Z"/><path class="cls-1" d="M252.79,197.82a6.42,6.42,0,0,1,0-1.73,1.83,1.83,0,0,1,.91-1.09,1.11,1.11,0,0,1,1.42.69,8.68,8.68,0,0,1,.56,4.43,7.81,7.81,0,0,1-.27,1.37c-.22.89-.6,1.1-1.31.59a2.4,2.4,0,0,1-.92-1.17,30,30,0,0,1-.52-3.07Z"/><path class="cls-1" d="M191,306a36.25,36.25,0,0,1,3.57,1.25,1.81,1.81,0,0,1,.89,1.31c0,.79-.83,1-1.4,1a33.72,33.72,0,0,1-3.63-.35.75.75,0,0,1-.17-.06,1.83,1.83,0,0,1-1.3-2C189.07,306.43,189.6,306.18,191,306Z"/><path class="cls-1" d="M209.48,329.79a8.47,8.47,0,0,1-4.37-1.95,2.52,2.52,0,0,1-.21-2.46,1.22,1.22,0,0,1,1.83-.06,10.84,10.84,0,0,0,1.11,1.09,8.24,8.24,0,0,0,2,1c.67.21,1.22.43,1.16,1.24S210.34,329.78,209.48,329.79Z"/><path class="cls-1" d="M97.59,309.82a1.34,1.34,0,0,1,0,.31c-.5,2.22-4,3.77-5.85,2.53a2.24,2.24,0,0,1-.88-1.37c-.19-1.33,1-2.2,2.09-1.4a1.64,1.64,0,0,0,1.72.19C96.6,309.57,96.6,309.57,97.59,309.82Z"/><path class="cls-1" d="M169.63,186.54c-1.94,0-2.55-.51-2.44-1.74.09-1,.94-1.55,2.16-1.46a13,13,0,0,0,2.73-.11,1.23,1.23,0,0,1,1.42.74c.39.71-.12,1.07-.58,1.45A5.14,5.14,0,0,1,169.63,186.54Z"/><path class="cls-1" d="M89.2,297.8c-.34-.24-.59-.39-.81-.58-.8-.69-.81-1,0-1.62,1-.74,1.86-1.61,3.16-1.66a5.72,5.72,0,0,1,1.71.12,1.19,1.19,0,0,1,.83,1.38c-.06.73-.44,1.38-1.13,1.32C91.56,296.65,90.48,297.39,89.2,297.8Z"/><path class="cls-1" d="M442.08,190.6c-.31,1.13-.63,2.43-1.05,3.69a1.15,1.15,0,0,1-.87.65,2.1,2.1,0,0,1-1.1-.65,1.11,1.11,0,0,1-.29-.8,27.9,27.9,0,0,1,.44-3.75,1.46,1.46,0,0,1,1.75-1.08C441.83,188.91,442,189.65,442.08,190.6Z"/><path class="cls-1" d="M367.9,181.27c-1.77-1.61-1.47-3.46-1.08-5.31.12-.57.42-1.13,1.17-1.07a1.34,1.34,0,0,1,1.37,1.13,4.58,4.58,0,0,1,0,2.4C368.91,179.35,369.2,180.69,367.9,181.27Z"/><path class="cls-1" d="M95,302.23a1.74,1.74,0,0,1-.26.64,6.37,6.37,0,0,1-3.2,2,1.81,1.81,0,0,1-1.88-1.17c-.11-.6,0-1.26.69-1.4A7,7,0,0,0,93.1,301C94,300.33,95,300.94,95,302.23Z"/><path class="cls-1" d="M134.68,187.68c-2.09,1-3.4.78-4.43-.41a1.47,1.47,0,0,1,0-2.17,1.35,1.35,0,0,1,2,0C133.07,185.82,133.79,186.7,134.68,187.68Z"/><path class="cls-1" d="M189.54,87.81l3.06-1c.52-.17,1-.28,1.43.25s.3,1.3-.53,1.71c-1.45.72-2.93,1.39-4.43,2-2,.8-2.42.61-3.42-1.29-1.28-.14-2.75,1.36-4-.56.28-.25.55-.66.91-.78a31.32,31.32,0,0,0,7.32-3.7,3.31,3.31,0,0,1,1.11-.49,1.12,1.12,0,0,1,1.41.72,1,1,0,0,1-.55,1.33c-.8.51-1.63,1-2.44,1.5Z"/><path class="cls-1" d="M261.64,63.45a3.3,3.3,0,0,1,.37-.94,2,2,0,0,1,1-.78,30.18,30.18,0,0,1,7.77-.36c1.29.09,2.64-.66,4.3-1.12a1.53,1.53,0,0,1,.69,1.64,1.73,1.73,0,0,1-1.25,1.54,10.61,10.61,0,0,1-4.61.64c-3.35-.34-6.74-.52-9.83,1.3a1.22,1.22,0,0,1-.84.16c-.35-.1-.89-.33-.92-.56a1.31,1.31,0,0,1,.44-1.12c.83-.36,1.64-1.51,2.73.16Z"/><path class="cls-1" d="M247,68.14a8.72,8.72,0,0,0-3.74.59,16.65,16.65,0,0,1-3.31.79c-.68-1.71-.55-2.18.9-2.69s2.69-.74,4-1.17c1.6-.52,3.17-1.12,4.76-1.68.6-.21,1.22-.4,1.83-.6a1.12,1.12,0,0,1,1.47.6,1.52,1.52,0,0,1-.29,1.36,7.39,7.39,0,0,1-1.9,1.15c-1.24.6-2.51,1.14-3.77,1.71Z"/><path class="cls-1" d="M218,73.53a6.89,6.89,0,0,1,2-1c2.79-.37,5.14-1.79,7.6-3,.42-.2.86-.37,1.27-.59a1.65,1.65,0,0,1,2,0c.62.5.36,1.15.24,1.63l-4.44,2.24a17.12,17.12,0,0,1-6.5,1.87C219,74.84,219,74.8,218,73.53Z"/><path class="cls-1" d="M290.08,79.22a3.06,3.06,0,0,1-4.09.19c-.74-.53-1.4-1.17-2.18-1.63a15.53,15.53,0,0,0-2.37-1.05c-1.28-.5-1.7-1.11-1.29-2a1.72,1.72,0,0,1,2.56-1A14.53,14.53,0,0,1,286,75.89,5.68,5.68,0,0,0,288.32,77C290,77.35,290,77.3,290.08,79.22Z"/><path class="cls-1" d="M261.57,66.18h8.05c.35,0,.7,0,1,0,.64.06,1.2.31,1.16,1s-.11,1.47-1.06,1.55c-1.84.15-3.69.29-5.53.4-.75,0-1.51,0-2.26,0s-1.42,0-1.83-.68A2.32,2.32,0,0,1,261.57,66.18Z"/><path class="cls-1" d="M291,70.2a2.71,2.71,0,0,1-1-.34A7.11,7.11,0,0,0,285,68a2.6,2.6,0,0,1-1.16-.32,1.18,1.18,0,0,1-.21-2.12,2.7,2.7,0,0,1,1.57-.66c1.31.08,2.66-.05,3.89.73a20.75,20.75,0,0,0,2.84,1.29c.64.28,1.37.47,1.26,1.42a1.81,1.81,0,0,1-1.63,1.75Z"/><path class="cls-1" d="M119.77,120.08c-1.06-1-1.17-1.43-.11-2.28,1.59-1.26,3.3-2.38,5-3.51a14.15,14.15,0,0,1,2.13-1.18c.66-.29,1.38-.4,1.85.36a1.45,1.45,0,0,1-.5,2,5.27,5.27,0,0,1-.73.47Z"/><path class="cls-1" d="M85.18,137.43a7.74,7.74,0,0,1,1.21-1.87c2.27-1.8,4.61-3.52,6.94-5.26a2.72,2.72,0,0,1,.79-.38c.9-.29,1.58-.08,1.82.51a1.64,1.64,0,0,1-.8,1.92c-1.36.79-2.75,1.52-4.08,2.36a24.59,24.59,0,0,0-2.93,2.19A2.76,2.76,0,0,1,85.18,137.43Z"/><path class="cls-1" d="M72.19,149.37c.28-.57.42-1.28.84-1.62,2-1.59,4-3.15,6.12-4.58a1.53,1.53,0,0,1,2.37.59,1.8,1.8,0,0,1-1.28,2.44,16.37,16.37,0,0,0-5.24,3C74.2,149.8,73.46,150.29,72.19,149.37Z"/><path class="cls-1" d="M36.18,205.7a25.31,25.31,0,0,1,2.19-6.7c.23-.47.54-.9.77-1.36a1.17,1.17,0,0,1,1.62-.56,1.76,1.76,0,0,1,.7,1.24,2.32,2.32,0,0,1-.38,1.29,24.31,24.31,0,0,0-2.62,6.6c-.28,1.29-.75,1.79-1.4,1.68s-.94-.68-.9-2C36.17,205.82,36.17,205.76,36.18,205.7Z"/><path class="cls-1" d="M27.08,271.2c0,.88,0,1.75,0,2.63,0,.65-.11,1.39-.88,1.54s-1.2-.41-1.34-1.1a6.65,6.65,0,0,1-.28-2.37,8.67,8.67,0,0,0-.87-5.22,8.45,8.45,0,0,1-.41-1,1.33,1.33,0,0,1,.69-1.76,1.25,1.25,0,0,1,1.6.72c.81,1.56,1.63,3.11,1.48,5a9.61,9.61,0,0,0,.12,1.57Z"/><path class="cls-1" d="M270.91,71.58c.38.92.4,1.72-.28,2.08a3.25,3.25,0,0,1-2.27.42,9.83,9.83,0,0,0-5.6-.65c-.72.16-1.11-.27-1.3-.87s-.15-1.4.6-1.61a8.75,8.75,0,0,1,3.22-.52C267.16,70.64,269,71.18,270.91,71.58Z"/><path class="cls-1" d="M32.93,213.4c.78.69,2.46,0,2.78,1.83-1.84.41-1.9,1.86-2,3.36-.08,1.32-.77,2.61,0,3.9-.47.61-.88,1.14-1.63.92a1.57,1.57,0,0,1-1.14-1.61c.13-2.83.06-5.72,1.73-8.23C32.69,213.52,32.76,213.5,32.93,213.4Z"/><path class="cls-1" d="M100.5,126.87a19.43,19.43,0,0,1,2.35-1.94c1.74-1,3.54-2,5.35-2.9a4.27,4.27,0,0,1,1.67-.46A1.63,1.63,0,0,1,111,122c.43.49.09,1-.31,1.38a9.74,9.74,0,0,1-1.29.89,5.73,5.73,0,0,1-1.06.61,34.9,34.9,0,0,0-5.57,2.83C101.6,128.41,101.53,128.34,100.5,126.87Z"/><path class="cls-1" d="M204,82.14c-1.31-1.71-1.12-2.64.79-3.28a16.59,16.59,0,0,0,5.69-3c.55-.47,1.18-.84,1.83-.11s.5,1.27-.32,2a18.88,18.88,0,0,1-3.13,2.16C207.29,80.72,205.67,81.36,204,82.14Z"/><path class="cls-1" d="M135.84,111.17l-1.74-1.6c.71-.43,1.17-.76,1.68-1q3.53-1.69,7.08-3.33c.31-.15.7-.37,1-.3a1.87,1.87,0,0,1,1.06.75c.11.19-.15.75-.4,1a16.51,16.51,0,0,1-6.05,3.28C137.63,110.24,136.88,110.68,135.84,111.17Z"/><path class="cls-1" d="M62.32,163.32c-.94,0-1.49-.69-1.21-1.33a12.58,12.58,0,0,1,1.55-2.7,29.36,29.36,0,0,1,2.85-3.08,3.41,3.41,0,0,1,1.54-.77,1.61,1.61,0,0,1,1.2.28,1,1,0,0,1,.09,1.42,5.94,5.94,0,0,1-.57.66c-1.42,1.54-2.83,3.09-4.28,4.6A8.43,8.43,0,0,1,62.32,163.32Z"/><path class="cls-1" d="M288.79,73.81c-2.08-.82-4.18-1.6-6.24-2.48-.54-.23-.63-1.34-.3-1.91a1.4,1.4,0,0,1,1.88-.71,19.19,19.19,0,0,0,5.36,2c1,.2,1.46.87,1.33,1.55C290.64,73.17,289.92,73.65,288.79,73.81Z"/><path class="cls-1" d="M28.8,256.9c-2.31-.34-2.8-.75-2.87-2.5a43.91,43.91,0,0,1,.09-5.21,5.7,5.7,0,0,1,.82-2.07,1.15,1.15,0,0,1,1.66-.46c.62.3.7.83.54,1.49-.27,1.12-.35,2.29-.72,3.37s0,2.29.24,3.42C28.68,255.53,28.72,256.14,28.8,256.9Z"/><path class="cls-1" d="M55.38,178.46c-1.68-1.5-1.8-2-.72-3.52s2.43-3.26,3.67-4.87a1.44,1.44,0,0,1,.66-.56c.41-.1,1-.22,1.24,0a1.74,1.74,0,0,1,.48,1.32,2.43,2.43,0,0,1-.74,1.33,14.12,14.12,0,0,0-3.54,5.09C56.25,177.68,55.78,178,55.38,178.46Z"/><path class="cls-1" d="M169,95.89c-.47.18-.95.32-1.4.54s-.93.2-1.2-.3a1,1,0,0,1,.41-1.36,4.23,4.23,0,0,1,.65-.25c1.14-.56,2.29-1.1,3.41-1.69s2.24-1.25,3.38-1.83a1.82,1.82,0,0,1,1.15-.24,1.62,1.62,0,0,1,1.06.76,1.53,1.53,0,0,1-.43,1.21,4.58,4.58,0,0,1-1.32.84q-2.34,1.19-4.7,2.34a5.32,5.32,0,0,1-.92.26Z"/><path class="cls-1" d="M54.66,168c1.08,1.31,1.14,1.41.4,2.59-1.48,2.36-3,4.75-5.28,6.4-1.06-.92-1.21-1.27-.53-2.37,1-1.63,2.15-3.19,3.3-4.72C53.12,169.18,53.55,168.19,54.66,168Z"/><path class="cls-1" d="M71.55,165.65c-.39-.64-.61-1.29-.06-1.92q2.23-2.55,4.53-5a4.45,4.45,0,0,1,1.14-.79c.7-.39,1.24,0,1.67.49s.22,1-.17,1.41a2.87,2.87,0,0,1-.6.63c-1.66,1-2.68,2.55-3.93,3.92A3.74,3.74,0,0,1,71.55,165.65Z"/><path class="cls-1" d="M28,291.57c-1.64.35-2,.13-2-1.38a22.33,22.33,0,0,1,0-3,5.38,5.38,0,0,0-.57-3.71,1.16,1.16,0,0,1-.2-.82c.12-.41.31-1,.63-1.11a1.38,1.38,0,0,1,1.22.36,5,5,0,0,1,1.15,1.9,8.57,8.57,0,0,1,.26,2.77C28.45,288.28,28.2,289.93,28,291.57Z"/><path class="cls-1" d="M27.59,240.76c-.59-.16-1.11-.15-1.29-.39a3.11,3.11,0,0,1-.79-1.71,49.58,49.58,0,0,1,.55-6.41c.27-1.62,1-1.93,2.66-1.53Z"/><path class="cls-1" d="M107.56,132.63C111,131,114,129.47,117.11,128a3.27,3.27,0,0,1,1.29,0c.4,1,.17,1.66-.62,2.05a65.68,65.68,0,0,1-6.34,3A4.36,4.36,0,0,1,107.56,132.63Z"/><path class="cls-1" d="M70,356.81a1.34,1.34,0,0,1-2.08,1,10.31,10.31,0,0,1-2.07-1.84c-1-1.07-1.86-2.22-2.79-3.33a1.34,1.34,0,0,1,0-2,1.28,1.28,0,0,1,2,.19c1.63,1.81,2.68,4.11,4.76,5.54C69.89,356.43,69.93,356.72,70,356.81Z"/><path class="cls-1" d="M43.64,207.89c-1.73,0-2.16-.56-1.45-2.17.88-2,1.88-4,2.85-6a2.77,2.77,0,0,1,.66-.79.85.85,0,0,1,1.45.27,1.76,1.76,0,0,1,.09,2.1,27,27,0,0,0-1.9,3.13C44.76,205.53,44.26,206.63,43.64,207.89Z"/><path class="cls-1" d="M59.82,216.58c.63.64.89,1.24.51,1.88-.86,1.44-.61,3-.75,4.56a6.65,6.65,0,0,1-.75,2.44,1.11,1.11,0,0,1-1.66.45,1.81,1.81,0,0,1-.58-1.48,33.59,33.59,0,0,0,.63-4.29A4.19,4.19,0,0,1,59.82,216.58Z"/><path class="cls-1" d="M43.43,191.85c-1.75-.27-2.17-1.11-1.35-2.4,1.09-1.72,2.44-3.3,2.94-5.34a1.93,1.93,0,0,1,.24-.46,1.17,1.17,0,0,1,1.47-.64,1.1,1.1,0,0,1,.69,1.44,12.19,12.19,0,0,1-1.12,2.91C45.41,188.91,44.38,190.37,43.43,191.85Z"/><path class="cls-1" d="M45.52,249c.37-1.85.81-3.9,1.2-6a1.23,1.23,0,0,1,1.5-1.11c.77.11.92.8.89,1.49a1.14,1.14,0,0,1,0,.35,25.21,25.21,0,0,0-1.26,6.84,1.18,1.18,0,0,1-.25.64c-.22.24-.51.56-.78.56a1,1,0,0,1-.75-.55A19.85,19.85,0,0,1,45.52,249Z"/><path class="cls-1" d="M59.58,347.63c-1.66.16-2.66-.79-3.72-1.57a6,6,0,0,1-2.4-3.49c-.23-1-.06-1.76.51-2,.75-.32,1.49,0,2,.92a8.32,8.32,0,0,0,3.38,3.86C60.21,345.81,59.83,346.74,59.58,347.63Z"/><path class="cls-1" d="M58.92,201.84c.52.55,1.1,1,.63,1.95-.16.31,0,.79,0,1.19.21,2.17-1.25,5.49-3,5.85a8.33,8.33,0,0,1-.82.26c-.72.07-1.08-.46-.77-1.12a4,4,0,0,1,.48-.73,9.53,9.53,0,0,0,1.84-5.17C57.44,203.09,57.59,202.07,58.92,201.84Z"/><path class="cls-1" d="M204.54,85.69c-.21-.15-.81-.38-.92-.75a1.78,1.78,0,0,1,.48-1.33,3.55,3.55,0,0,1,1.2-.68c1.35-.66,2.7-1.31,4.07-1.94a3.28,3.28,0,0,1,1.32-.42c.47,0,1.28.22,1.32.44.08.5-.06,1.35-.41,1.55-1.86,1.08-3.79,2-5.72,3A5,5,0,0,1,204.54,85.69Z"/><path class="cls-1" d="M80.22,359.56a6.9,6.9,0,0,1,.92-1.71,1,1,0,0,1,1.66.42c.18,1.85,1.47,3,2.55,4.21.23.26.5.49.74.74.41.43.84.88.38,1.52a1.54,1.54,0,0,1-2.06.28c-1.28-1.34-2.49-2.76-3.68-4.18A5,5,0,0,1,80.22,359.56Z"/><path class="cls-1" d="M36.19,306.95c-.13.18-.36.8-.71.88a1.89,1.89,0,0,1-1.36-.5,1.87,1.87,0,0,1-.44-1.09,11.66,11.66,0,0,0-1.82-5,2.39,2.39,0,0,1-.3-1.32,1,1,0,0,1,1.58-.82,3.35,3.35,0,0,1,1.09,1.11A16.38,16.38,0,0,1,36.19,306.95Z"/><path class="cls-1" d="M36.84,299.88c0-.18,0-.35,0-.53,0-.68.2-1.3,1-1.48.55-.13,1.33.49,1.41,1.29.2,2.16,1.33,4,2.12,5.88a2.25,2.25,0,0,1,.3,1,1.48,1.48,0,0,1-.5,1,1.19,1.19,0,0,1-1-.27,3.93,3.93,0,0,1-1.69-2.33,13.77,13.77,0,0,0-1.11-2.55c-.25-.64-.39-1.33-.59-2Z"/><path class="cls-1" d="M170.71,101.69c-.12-1,.59-1.25,1.31-1.54,1.45-.59,2.88-1.22,4.32-1.83,1-.43,2-.93,3.06-1.27a1.25,1.25,0,0,1,1.15.34,1.19,1.19,0,0,1-.27,1.15c-1.18.71-2.43,1.28-3.66,1.91a5.79,5.79,0,0,0-1.27.75A3.79,3.79,0,0,1,170.71,101.69Z"/><path class="cls-1" d="M153,103.39c-.36-.26-1-.5-1.19-.92-.25-.62.31-1,.9-1.26,1-.39,2.06-.76,3.08-1.18s2.1-.93,3.16-1.39a8,8,0,0,1,.81-.33c.55-.17,1.14-.16,1.3.46a1.51,1.51,0,0,1-.39,1.17C158.62,102.08,155.85,102.59,153,103.39Z"/><path class="cls-1" d="M81.49,367.56a8,8,0,0,1-1.8-.94c-1-.91-1.86-1.93-2.75-2.93a2.68,2.68,0,0,1-.61-1,1.35,1.35,0,0,1,2.35-1.28c.64.82,1.31,1.61,2,2.37.45.48.7,1.12,1.51,1.34a1.12,1.12,0,0,1,.47,1.64C82.47,367.1,81.91,367.28,81.49,367.56Z"/><path class="cls-1" d="M96.36,143c-.26-.65.08-1,.56-1.29,2.44-1.57,4.86-3.17,7.3-4.74.88-.57,1.52-.46,1.89.24s.11,1.31-.8,1.78-2,.94-2.93,1.43a1.68,1.68,0,0,0-.69.51c-1.13,1.85-3.12,1.78-4.87,2.23C96.7,143.24,96.51,143.1,96.36,143Z"/><path class="cls-1" d="M45.83,328.68a3.92,3.92,0,0,1,.79.78,13.69,13.69,0,0,1,1.12,2.18A4,4,0,0,0,49.65,334a1.09,1.09,0,0,1,.54,1.61,1.22,1.22,0,0,1-1.67.54A3.8,3.8,0,0,1,47,335a37,37,0,0,1-2.56-4.35C43.9,329.61,44.5,328.71,45.83,328.68Z"/><path class="cls-1" d="M41.36,287.19c-1.49.54-1.85.52-2.18-.56-.59-1.93-1-3.91-1.46-5.9a2.11,2.11,0,0,1,.34-1.48,1.79,1.79,0,0,1,1.25-.67,1,1,0,0,1,1,1.18c-.45,1.48.4,2.73.54,4.1C41,285,41.19,286.1,41.36,287.19Z"/><path class="cls-1" d="M72.19,156.92a8.26,8.26,0,0,1,.91.35c1,.52,1.06,1,.29,1.72s-1.64,1.5-2.5,2.19-1.85,1.4-2.79,2.07-1.52.67-1.94,0c-.52-.81.06-1.31.59-1.77C68.55,160,70.38,158.45,72.19,156.92Z"/><path class="cls-1" d="M38.86,315.94a5.13,5.13,0,0,1,1.09.94,20.87,20.87,0,0,1,1.58,2.65,20.26,20.26,0,0,1,1.2,2.85,1.36,1.36,0,0,1-.21,1.2,1,1,0,0,1-1.54-.22c-1-1.27-2-2.52-2.94-3.84a5.33,5.33,0,0,1-.81-1.9C37,316.74,37.72,316,38.86,315.94Z"/><path class="cls-1" d="M213.11,84.82c.91,1.11,1,1.94.12,2.56C211,88.9,208.74,90.13,206,89c-.35-.14-.57-.61-.85-.92.31-.21.61-.55.94-.6A18.08,18.08,0,0,0,213.11,84.82Z"/><path class="cls-1" d="M95,374.47a4.7,4.7,0,0,1-.92-.25q-2.27-1.3-4.51-2.65a2,2,0,0,1-.51-.48,1.37,1.37,0,0,1,0-1.91,1.3,1.3,0,0,1,1.76-.13c1.45.94,2.92,1.86,4.37,2.81a1.36,1.36,0,0,1,.68,1.65C95.7,373.93,95.22,374.21,95,374.47Z"/><path class="cls-1" d="M38.29,221.87c.36-1.74.74-3.75,1.22-5.72a1.75,1.75,0,0,1,1-1.09,1.61,1.61,0,0,1,1.41.31,1.56,1.56,0,0,1,.24,1.44c-1,1.76-1,3.8-1.67,5.64-.24.63-.14,1.54-1.19,1.35C38.37,223.64,38.37,222.85,38.29,221.87Z"/><path class="cls-1" d="M66.74,204.07c-1,2.18-1.87,4.24-2.8,6.3a3,3,0,0,1-.58.85.92.92,0,0,1-1.58-.17,1.87,1.87,0,0,1-.23-2c1-1.62,1.94-3.29,3-4.83C65.23,203.37,65.55,203.44,66.74,204.07Z"/><path class="cls-1" d="M64.05,344.87A4.45,4.45,0,0,1,63,346c-.2.11-.79-.3-1.09-.59a2.76,2.76,0,0,1-.73-1.17A6.89,6.89,0,0,0,59,340.91a1,1,0,0,1-.14-1.66c.61-.72,1.05-.87,1.78-.36A8.21,8.21,0,0,1,64.05,344.87Z"/><path class="cls-1" d="M223.76,80c2.3-.83,4.47-1.65,6.67-2.36a4.81,4.81,0,0,1,2.06-.09c.28,0,.61.5.7.83a.92.92,0,0,1-.52.74c-2.33.21-4,2-6.3,2.41C224.91,81.8,224.49,81.61,223.76,80Z"/><path class="cls-1" d="M67.71,349c2-1.23,2.06-1.22,3.2.49.77,1.16,1.64,2.26,2.36,3.45.59,1,.47,1.64-.15,2s-1.33.21-2-.56c-1-1.2-2-2.42-2.88-3.7A6.35,6.35,0,0,1,67.71,349Z"/><path class="cls-1" d="M42.17,231.47c0,.35,0,.49-.05.58-1.1,1.8-.58,3.85-.88,5.78a1.7,1.7,0,0,1-1,1.51,1.38,1.38,0,0,1-1.12,0,1.4,1.4,0,0,1-.33-1c0-1,.14-2.06.2-3.09a6.36,6.36,0,0,1,1.29-4.07c.34-.4.66-.75,1.14-.48A3.12,3.12,0,0,1,42.17,231.47Z"/><path class="cls-1" d="M244.25,76c-.35,0-.69,0-1,0-.89,0-1.51-.5-1.53-1.1s.6-.95,1.53-1a34.85,34.85,0,0,0,3.93-.61,23.11,23.11,0,0,0,2.44-.88c.26-.09.65-.21.82-.09a2,2,0,0,1,.82,1,1,1,0,0,1-.55.87C248.46,74.5,246.66,76.32,244.25,76Z"/><path class="cls-1" d="M150.64,113.17a8.87,8.87,0,0,1-1.63,1.7,24.63,24.63,0,0,1-5.65,2.76,7.75,7.75,0,0,1-2.07.27c-.31,0-.62-.33-1.13-.63a4.55,4.55,0,0,1,1-.67,17.45,17.45,0,0,0,5.94-3.2c.47-.34,1-.56,1.51-.88C149.41,112,149.93,112.34,150.64,113.17Z"/><path class="cls-1" d="M230.52,73.13c.12.44.2.66.23.88s0,.57.07.83c-2.13.91-4.2,1.78-6.26,2.69-.7.31-1.25.29-1.59-.45a1.14,1.14,0,0,1,.43-1.66c1.73-.81,3.49-1.58,5.27-2.25A5.53,5.53,0,0,1,230.52,73.13Z"/><path class="cls-1" d="M39.08,252.14c.47-1.85.91-3.72,1.44-5.55.09-.3.62-.71.87-.67a3.07,3.07,0,0,1,1.28.74.8.8,0,0,1,.13.66c-.43,2-.8,4.09-1.36,6.1-.25.89-1.19,1-1.78.2A5.76,5.76,0,0,1,39.08,252.14Z"/><path class="cls-1" d="M163.92,105.29a1,1,0,0,1-.35,1.75,22.28,22.28,0,0,1-6.57,2.81,2.17,2.17,0,0,1-2.06-.6C156.46,107.71,162.27,105.19,163.92,105.29Z"/><path class="cls-1" d="M54.74,193a1.28,1.28,0,0,1-.65-2c.81-1.48,1.67-2.93,2.57-4.36a1.82,1.82,0,0,1,1-.72,1.68,1.68,0,0,1,1.29.06c.23.18.24.84.12,1.22a9.83,9.83,0,0,1-.87,1.7,9.16,9.16,0,0,0-1,1.84A3.12,3.12,0,0,1,54.74,193Z"/><path class="cls-1" d="M47.92,320.77a1.16,1.16,0,0,1-.06.52c-.2.38-.42,1-.73,1a1.37,1.37,0,0,1-1.1-.59c-1-1.56-1.89-3.17-2.75-4.79a1.53,1.53,0,0,1,.86-2.26c.3-.12,1,0,1.08.16,1,1.84,1.82,3.72,2.71,5.6A1.38,1.38,0,0,1,47.92,320.77Z"/><path class="cls-1" d="M78.64,152.17c-.39-.27-.95-.48-1.15-.87a1.4,1.4,0,0,1,.34-1.21c1.2-1.26,2.46-2.47,3.73-3.67a1.32,1.32,0,0,1,1.75-.18,1.26,1.26,0,0,1,.18,1.85c-1.22,1.24-2.5,2.4-3.79,3.57A4.65,4.65,0,0,1,78.64,152.17Z"/><path class="cls-1" d="M48.06,239.84c-1.81.54-2.31.1-2-1.61s.51-3.55.84-5.31a5.39,5.39,0,0,1,.72-1.39c1.67.76,1.86.9,1.68,2.23s-.59,2.82-.89,4.23C48.28,238.6,48.18,239.23,48.06,239.84Z"/><path class="cls-1" d="M62,194.11c-1.61-1.32-1.67-1.95-.46-3.47.5-.64.88-1.38,1.38-2a5.75,5.75,0,0,1,1.38-1.3c.33-.2,1-.3,1.22-.11s.36.9.51,1.37c0,0,0,.11-.06.16-1.13,1.69-2.26,3.38-3.41,5C62.44,194,62.16,194,62,194.11Z"/><path class="cls-1" d="M34.35,254.26c-.23-.46-.62-.87-.63-1.3,0-1.75,0-3.51.15-5.26a3.56,3.56,0,0,1,.56-1.63c.48-.74,1.22-.64,1.65.13a1.36,1.36,0,0,1,.23.65q-.17,2.88-.39,5.76C35.85,253.38,35.44,253.92,34.35,254.26Z"/><path class="cls-1" d="M189.56,93c2.46-1.06,4.76-2.08,7.09-3a3.86,3.86,0,0,1,1.33,0,2,2,0,0,1-1.14,2.42c-1.26.59-2.48,1.26-3.73,1.85C192.23,94.6,190.56,94.08,189.56,93Z"/><path class="cls-1" d="M49.09,329.33c0-.83.25-1.4,1-1.51a1.21,1.21,0,0,1,1.51.85,12.11,12.11,0,0,0,2.2,3.92,1.65,1.65,0,0,1,.38.76c0,.38,0,.93-.24,1.11s-.84.18-1.27.24c0,0-.1,0-.16-.07C51.28,334.05,49.06,330.56,49.09,329.33Z"/><path class="cls-1" d="M120.47,121.5a9,9,0,0,1,1.35-1.2c1.52-.87,3.08-1.67,4.63-2.48.2-.11.47-.26.66-.2.41.12,1,.26,1.14.57a1.33,1.33,0,0,1-.15,1.22,5.54,5.54,0,0,1-1.53,1.13,21,21,0,0,0-3.21,1.67C122.35,123,121.66,122.74,120.47,121.5Z"/><path class="cls-1" d="M31.26,282.55a3.89,3.89,0,0,1-.07-.87c.08-.57.46-.88,1-.64.73.32,1.49.61,1.55,1.67a16.63,16.63,0,0,0,.9,5.47,1.15,1.15,0,0,1-.34,1,1.14,1.14,0,0,1-1.1,0A4.67,4.67,0,0,1,32,287.4c-.38-1.59-.56-3.22-.81-4.83Z"/><path class="cls-1" d="M66.16,170.68c1.74.51,2,1.18,1.08,2.47-.71,1-1.49,1.92-2.28,2.84-1.05,1.22-1.36,1.25-3.12.36C62.31,173.68,64.76,172.55,66.16,170.68Z"/><path class="cls-1" d="M169.77,99.2c-1.26-1.2-1.21-1.81.22-2.41q2.65-1.11,5.33-2.16a1.25,1.25,0,0,1,1.72.71,1.06,1.06,0,0,1-.84,1.45c-1.6.51-3.18,1.08-4.76,1.65C170.91,98.63,170.4,98.91,169.77,99.2Z"/><path class="cls-1" d="M96.46,133.41c1.11,1.38,1.08,2.21.1,3s-2.23,1.87-3.36,2.79a5.66,5.66,0,0,1-1,.61c-.48.25-1.12.49-1.36-.14a1.85,1.85,0,0,1,.13-1.62C92.71,136.48,94.56,135,96.46,133.41Z"/><path class="cls-1" d="M107.56,380.48c-1.08,1.48-1.12,1.49-2.48.65-1-.63-1.85-1.53-3.17-1.67a1.52,1.52,0,0,1-1-1.81c.32-.84,1.13-.82,1.78-.72A5.72,5.72,0,0,1,107.56,380.48Z"/><path class="cls-1" d="M47.87,190.79a4.94,4.94,0,0,1,.29-1.09c.88-1.44,1.73-2.91,2.7-4.29.59-.85,1.33-.8,1.82,0a1.16,1.16,0,0,1,.11.94c-.9,1.76-1.83,3.51-2.83,5.21-.18.3-.93.62-1.09.5A5.63,5.63,0,0,1,47.87,190.79Z"/><path class="cls-1" d="M246.92,68.19c.86,0,1.45.38,1.44,1.36S247.86,71,247,71a5.45,5.45,0,0,0-3.31,1.42c-1,.73-1.48.64-1.93,0a1.43,1.43,0,0,1,.59-2.32c1.12-.55,2.35-.86,3.52-1.31a7.89,7.89,0,0,0,1.11-.65Z"/><path class="cls-1" d="M144.57,109.54c.25.2.76.4.79.66a1.4,1.4,0,0,1-.45,1.14c-1,.6-2.05,1.05-3.1,1.55-.77.37-1.56.71-2.33,1.09a1.5,1.5,0,0,1-1.79,0,1.53,1.53,0,0,1-.46-1c0-.24.35-.56.62-.7,1.5-.74,3-1.46,4.56-2.12A16.59,16.59,0,0,1,144.57,109.54Z"/><path class="cls-1" d="M90.54,149c-1.66,1.33-3.26,2.64-4.89,3.91a1.36,1.36,0,0,1-1,.3,2.19,2.19,0,0,1-1.27-.67c-.15-.21.07-1,.35-1.17,1.52-1.16,3.07-2.28,4.68-3.3C89.16,147.59,89.89,147.86,90.54,149Z"/><path class="cls-1" d="M50.66,207.25c-1.46,0-2.19-1.24-1.57-2.24.79-1.28,1.66-2.52,2.49-3.78a1,1,0,0,1,1.32-.52,1.16,1.16,0,0,1,.85,1.35,3.47,3.47,0,0,1-.34,1c-.62,1.19-1.23,2.38-1.92,3.52A2.73,2.73,0,0,1,50.66,207.25Z"/><path class="cls-1" d="M125.67,124c.16-.31.19-.46.28-.5,2.1-1,4.2-1.93,6.33-2.81.52-.21,1.29-.62,1.69.22s-.39,1-.88,1.42a11.46,11.46,0,0,1-3.9,2.2A3.91,3.91,0,0,1,125.67,124Z"/><path class="cls-1" d="M67.53,342a12.7,12.7,0,0,1-4-3.6c-1.07-1.38-.83-2.09,1-2.95a3.19,3.19,0,0,1,.58.54c1,1.52,2.14,2.92,3.21,4.39C68.87,341.19,68.24,341.64,67.53,342Z"/><path class="cls-1" d="M34.41,232.68c-.18,1.62-.32,2.88-.46,4.14a3.86,3.86,0,0,0-.05.86c.07.54.16,1.12-.54,1.26a1.31,1.31,0,0,1-1.58-.82,6.3,6.3,0,0,1,.59-5.65,1.59,1.59,0,0,1,1.28-.6C34,231.94,34.29,232.53,34.41,232.68Z"/><path class="cls-1" d="M45.91,223.37c-1.22-.31-1.52-.93-1.33-1.9.27-1.31.47-2.64.74-4a2.31,2.31,0,0,1,.42-1.11,1.59,1.59,0,0,1,1.15-.56,1.25,1.25,0,0,1,.72,1c-.18,1.85-.44,3.7-.79,5.53C46.76,222.74,46.23,223,45.91,223.37Z"/><path class="cls-1" d="M32.84,270.45l-1.36.51c-1.73-1.6-2.33-4.36-1.38-6,.27-.47.56-1,1.21-.75s1.23.75,1.06,1.42c-.39,1.51.19,2.84.53,4.22A2.08,2.08,0,0,1,32.84,270.45Z"/><path class="cls-1" d="M39.52,268.4c-.1.38-.08.88-.33,1.13a2.32,2.32,0,0,1-1.38.82c-.32,0-.84-.65-.93-1.08a38.35,38.35,0,0,1-.6-4.15c-.07-.7.2-1.29,1-1.35a1.17,1.17,0,0,1,1.41,1C39,266,39.25,267.16,39.52,268.4Z"/><path class="cls-1" d="M105.32,130.56c-.35-.31-.83-.55-1-.91a1.6,1.6,0,0,1,.19-1.28,3.16,3.16,0,0,1,1.17-.71q1.47-.75,3-1.48a2.76,2.76,0,0,1,1-.38,1.2,1.2,0,0,1,.92.3,1.31,1.31,0,0,1,0,1,2.14,2.14,0,0,1-.49.7C108.84,129.24,107,129.66,105.32,130.56Z"/><path class="cls-1" d="M161.09,102.65c.35,1.56.27,1.74-.87,2.29s-2.08,1-3.13,1.49-2,.42-2.53-.23-.39-1.59.34-1.67a24.2,24.2,0,0,0,5.74-1.9C160.73,102.57,160.86,102.62,161.09,102.65Z"/><path class="cls-1" d="M57.29,239.45c-1.61.29-2.42-.23-2.39-1.55A8.45,8.45,0,0,1,56.42,233c.38-.52.85-.82,1.49-.46a1.1,1.1,0,0,1,.24,1.68c-1,.95-.82,2.1-.85,3.24C57.28,238.09,57.29,238.72,57.29,239.45Z"/><path class="cls-1" d="M54,217.37c-1.26,1.33-1.15,3-1.28,4.5-.06.7-.18,1.43-1,1.32a1.38,1.38,0,0,1-1.28-1.39c0-1.66,0-3.26,1.11-4.64C52.44,216.12,52.82,216.12,54,217.37Z"/><path class="cls-1" d="M76.77,349.72a5.76,5.76,0,0,1-1.17,1.22c-.18.11-.81-.31-1.07-.62a18.8,18.8,0,0,1-1.79-2.56,1.83,1.83,0,0,1,.58-2.59c.54-.37,1.29-.24,1.33.21.15,1.45,1.36,2.24,1.86,3.45C76.59,349,76.64,349.27,76.77,349.72Z"/><path class="cls-1" d="M99.14,369.54c-.95,1.21-1.79,1.18-2.55.57a17.52,17.52,0,0,1-2.22-2.19c-.57-.65-.61-1.69-.12-2a1.48,1.48,0,0,1,1.94.16C97.25,367.13,98.16,368.36,99.14,369.54Z"/></svg>