<svg xmlns="http://www.w3.org/2000/svg" viewBox="0 0 800 600"><defs><style>.cls-1,.cls-4{opacity:0.8;}.cls-2,.cls-7{fill:none;stroke:#fff;stroke-miterlimit:10;}.cls-2{stroke-width:0.74px;}.cls-3,.cls-4,.cls-5,.cls-6{fill:#f2f2f2;}.cls-5{opacity:0.7;}.cls-6{opacity:0.6;}.cls-7{stroke-width:8.23px;}</style></defs><title>portfolio</title><g id="Layer_2" data-name="Layer 2"><g class="cls-1"><ellipse class="cls-2" cx="464.2" cy="149" rx="2.28" ry="7.43" transform="translate(153.04 524.31) rotate(-68.13)"/><ellipse class="cls-2" cx="467.86" cy="152.1" rx="3.8" ry="11.99" transform="translate(152.45 529.65) rotate(-68.13)"/><ellipse class="cls-2" cx="467.99" cy="150.81" rx="2.55" ry="11.63" transform="translate(153.73 528.96) rotate(-68.13)"/><ellipse class="cls-2" cx="469.69" cy="153.66" rx="4.56" ry="14.26" transform="translate(152.16 532.33) rotate(-68.13)"/><ellipse class="cls-2" cx="470.54" cy="151.54" rx="2.28" ry="14.26" transform="translate(154.65 531.79) rotate(-68.13)"/><ellipse class="cls-2" cx="469.14" cy="152.25" rx="3.46" ry="13.23" transform="translate(153.12 530.94) rotate(-68.13)"/><ellipse class="cls-2" cx="469.22" cy="156.86" rx="7.7" ry="15.02" transform="translate(148.89 533.91) rotate(-68.13)"/><ellipse class="cls-2" cx="470.66" cy="153.29" rx="3.85" ry="15.02" transform="translate(153.11 532.99) rotate(-68.13)"/><ellipse class="cls-2" cx="469.93" cy="157.14" rx="7.7" ry="15.78" transform="translate(149.07 534.74) rotate(-68.13)"/><ellipse class="cls-2" cx="471.34" cy="157.71" rx="7.7" ry="17.3" transform="translate(149.43 536.4) rotate(-68.13)"/><ellipse class="cls-2" cx="470.81" cy="163.1" rx="12.91" ry="18.82" transform="translate(144.09 539.3) rotate(-68.13)"/><circle class="cls-2" cx="469.28" cy="170.18" r="20.04" transform="translate(136.57 542.32) rotate(-68.13)"/><circle class="cls-2" cx="469.28" cy="170.18" r="20.04" transform="translate(136.57 542.32) rotate(-68.13)"/><circle class="cls-2" cx="471.39" cy="175.12" r="23.84" transform="translate(133.31 547.38) rotate(-68.13)"/><circle class="cls-2" cx="474.35" cy="182.03" r="29.15" transform="translate(128.75 554.46) rotate(-68.13)"/><circle class="cls-2" cx="476.46" cy="186.97" r="32.95" transform="translate(125.49 559.51) rotate(-68.13)"/><circle class="cls-2" cx="477.72" cy="189.93" r="35.23" transform="translate(123.54 562.55) rotate(-68.13)"/><circle class="cls-2" cx="478.14" cy="190.92" r="35.99" transform="translate(122.89 563.56) rotate(-68.13)"/><circle class="cls-2" cx="478.14" cy="190.92" r="35.99" transform="translate(122.89 563.56) rotate(-68.13)"/><circle class="cls-2" cx="478.36" cy="191.41" r="36.37" transform="translate(122.56 564.06) rotate(-68.13)"/><circle class="cls-2" cx="478.36" cy="191.41" r="36.37" transform="translate(122.56 564.06) rotate(-68.13)"/><circle class="cls-2" cx="478.57" cy="191.9" r="36.75" transform="translate(122.23 564.57) rotate(-68.13)"/><circle class="cls-2" cx="479.2" cy="193.38" r="37.88" transform="translate(121.26 566.08) rotate(-68.13)"/><circle class="cls-2" cx="480.25" cy="195.85" r="39.78" transform="translate(119.63 568.61) rotate(-68.13)"/><ellipse class="cls-2" cx="477.96" cy="200.34" rx="44.8" ry="39.32" transform="translate(114.02 569.3) rotate(-68.13)"/><ellipse class="cls-2" cx="478.24" cy="203.72" rx="47.84" ry="40.84" transform="translate(111.06 571.68) rotate(-68.13)"/><ellipse class="cls-2" cx="478.51" cy="207.11" rx="50.87" ry="42.36" transform="translate(108.09 574.06) rotate(-68.13)"/><ellipse class="cls-2" cx="478.94" cy="208.09" rx="51.63" ry="43.12" transform="translate(107.44 575.07) rotate(-68.13)"/><ellipse class="cls-2" cx="479.08" cy="209.79" rx="53.15" ry="43.88" transform="translate(105.96 576.26) rotate(-68.13)"/><ellipse class="cls-2" cx="478.51" cy="211.19" rx="54.67" ry="43.88" transform="translate(104.29 576.62) rotate(-68.13)"/><ellipse class="cls-2" cx="478.65" cy="212.89" rx="56.19" ry="44.64" transform="translate(102.81 577.81) rotate(-68.13)"/><ellipse class="cls-2" cx="478.65" cy="212.89" rx="56.19" ry="44.64" transform="translate(102.81 577.81) rotate(-68.13)"/><ellipse class="cls-2" cx="478.08" cy="214.3" rx="57.71" ry="44.64" transform="translate(101.15 578.17) rotate(-68.13)"/><ellipse class="cls-2" cx="477.52" cy="215.71" rx="59.23" ry="44.64" transform="translate(99.48 578.53) rotate(-68.13)"/><ellipse class="cls-2" cx="476.95" cy="217.12" rx="60.75" ry="44.64" transform="translate(97.82 578.89) rotate(-68.13)"/><ellipse class="cls-2" cx="476.39" cy="218.52" rx="62.26" ry="44.64" transform="translate(96.16 579.25) rotate(-68.13)"/><ellipse class="cls-2" cx="475.54" cy="220.64" rx="64.54" ry="44.64" transform="translate(93.66 579.79) rotate(-68.13)"/><ellipse class="cls-2" cx="474.27" cy="221.77" rx="66.06" ry="43.88" transform="translate(91.82 579.32) rotate(-68.13)"/><ellipse class="cls-2" cx="473" cy="222.89" rx="67.58" ry="43.12" transform="translate(89.98 578.85) rotate(-68.13)"/><ellipse class="cls-2" cx="472.15" cy="225.01" rx="69.86" ry="43.12" transform="translate(87.48 579.39) rotate(-68.13)"/><ellipse class="cls-2" cx="471.16" cy="225.43" rx="70.62" ry="42.36" transform="translate(86.47 578.73) rotate(-68.13)"/><ellipse class="cls-2" cx="470.17" cy="225.85" rx="71.38" ry="41.6" transform="translate(85.46 578.08) rotate(-68.13)"/><ellipse class="cls-2" cx="467.21" cy="227.12" rx="73.65" ry="39.32" transform="translate(82.43 576.13) rotate(-68.13)"/><ellipse class="cls-2" cx="464.53" cy="227.68" rx="75.17" ry="37.04" transform="translate(80.23 573.99) rotate(-68.13)"/><ellipse class="cls-2" cx="462.27" cy="229.23" rx="77.45" ry="35.53" transform="translate(77.37 572.87) rotate(-68.13)"/><ellipse class="cls-2" cx="459.59" cy="229.79" rx="78.97" ry="33.25" transform="translate(75.17 570.73) rotate(-68.13)"/><ellipse class="cls-2" cx="458.32" cy="230.91" rx="80.49" ry="32.49" transform="translate(73.33 570.26) rotate(-68.13)"/><ellipse class="cls-2" cx="456.35" cy="231.76" rx="82.01" ry="30.97" transform="translate(71.3 568.96) rotate(-68.13)"/><ellipse class="cls-2" cx="456.07" cy="232.46" rx="82.77" ry="30.97" transform="translate(70.47 569.14) rotate(-68.13)"/><ellipse class="cls-2" cx="455.08" cy="232.88" rx="83.53" ry="30.21" transform="translate(69.46 568.49) rotate(-68.13)"/><ellipse class="cls-2" cx="454.8" cy="233.59" rx="84.28" ry="30.21" transform="translate(68.63 568.67) rotate(-68.13)"/><ellipse class="cls-2" cx="453.81" cy="234.01" rx="85.04" ry="29.45" transform="translate(67.62 568.02) rotate(-68.13)"/><ellipse class="cls-2" cx="452.61" cy="237" rx="88.27" ry="29.45" transform="translate(64.09 568.78) rotate(-68.13)"/><ellipse class="cls-2" cx="452.61" cy="237" rx="88.27" ry="29.45" transform="translate(64.09 568.78) rotate(-68.13)"/><ellipse class="cls-2" cx="451.9" cy="236.72" rx="88.27" ry="28.69" transform="translate(63.91 567.95) rotate(-68.13)"/><ellipse class="cls-2" cx="451.9" cy="236.72" rx="88.27" ry="28.69" transform="translate(63.91 567.95) rotate(-68.13)"/><ellipse class="cls-2" cx="451.9" cy="236.72" rx="88.27" ry="28.69" transform="translate(63.91 567.95) rotate(-68.13)"/><ellipse class="cls-2" cx="451.9" cy="236.72" rx="88.27" ry="28.69" transform="translate(63.91 567.95) rotate(-68.13)"/><ellipse class="cls-2" cx="450.49" cy="236.15" rx="88.27" ry="27.17" transform="translate(63.55 566.28) rotate(-68.13)"/><ellipse class="cls-2" cx="449.79" cy="235.87" rx="88.27" ry="26.41" transform="translate(63.37 565.45) rotate(-68.13)"/><ellipse class="cls-2" cx="446.33" cy="238.37" rx="91.88" ry="24.14" transform="translate(58.88 563.81) rotate(-68.13)"/><ellipse class="cls-2" cx="443.65" cy="238.93" rx="93.4" ry="21.86" transform="translate(56.67 561.68) rotate(-68.13)"/><ellipse class="cls-2" cx="441.25" cy="238.79" rx="94.16" ry="19.58" transform="translate(55.3 559.36) rotate(-68.13)"/><ellipse class="cls-2" cx="438.86" cy="238.65" rx="94.92" ry="17.3" transform="translate(53.93 557.05) rotate(-68.13)"/><ellipse class="cls-2" cx="434.89" cy="240.39" rx="98.01" ry="14.26" transform="translate(49.83 554.46) rotate(-68.13)"/><ellipse class="cls-2" cx="432.03" cy="235.47" rx="94.51" ry="9.78" transform="translate(52.6 548.72) rotate(-68.13)"/><ellipse class="cls-2" cx="428.27" cy="237.73" rx="98.01" ry="7.13" transform="translate(48.14 546.65) rotate(-68.13)"/><ellipse class="cls-2" cx="424.96" cy="236.4" rx="98.01" ry="3.57" transform="translate(47.29 542.74) rotate(-68.13)"/><ellipse class="cls-2" cx="420.54" cy="237.84" ry="100.99"/><ellipse class="cls-2" cx="414.47" cy="236.22" rx="101.75" ry="6.24" transform="translate(40.88 532.89) rotate(-68.13)"/><ellipse class="cls-2" cx="410.66" cy="235.51" rx="102.51" ry="10.03" transform="translate(39.15 528.91) rotate(-68.13)"/><ellipse class="cls-2" cx="407.84" cy="234.38" rx="102.51" ry="13.07" transform="translate(38.43 525.59) rotate(-68.13)"/><ellipse class="cls-2" cx="405.02" cy="233.25" rx="102.51" ry="16.11" transform="translate(37.71 522.26) rotate(-68.13)"/><ellipse class="cls-2" cx="402.91" cy="232.4" rx="102.51" ry="18.39" transform="translate(37.17 519.77) rotate(-68.13)"/><ellipse class="cls-2" cx="399.38" cy="230.99" rx="102.51" ry="22.18" transform="translate(36.27 515.61) rotate(-68.13)"/><ellipse class="cls-2" cx="396.57" cy="229.86" rx="102.51" ry="25.22" transform="translate(35.55 512.28) rotate(-68.13)"/><ellipse class="cls-2" cx="393.75" cy="228.72" rx="102.51" ry="28.26" transform="translate(34.83 508.96) rotate(-68.13)"/><ellipse class="cls-2" cx="392.34" cy="228.16" rx="102.51" ry="29.78" transform="translate(34.47 507.3) rotate(-68.13)"/><ellipse class="cls-2" cx="390.22" cy="227.31" rx="102.51" ry="32.05" transform="translate(33.93 504.8) rotate(-68.13)"/><ellipse class="cls-2" cx="389.52" cy="227.03" rx="102.51" ry="32.81" transform="translate(33.75 503.97) rotate(-68.13)"/><ellipse class="cls-2" cx="388.11" cy="226.46" rx="102.51" ry="34.33" transform="translate(33.39 502.31) rotate(-68.13)"/><ellipse class="cls-2" cx="386" cy="225.61" rx="102.51" ry="36.61" transform="translate(32.85 499.81) rotate(-68.13)"/><ellipse class="cls-2" cx="384.59" cy="225.05" rx="102.51" ry="38.13" transform="translate(32.49 498.15) rotate(-68.13)"/><ellipse class="cls-2" cx="381.06" cy="223.63" rx="102.51" ry="41.93" transform="translate(31.59 493.99) rotate(-68.13)"/><ellipse class="cls-2" cx="379.65" cy="223.07" rx="102.51" ry="43.44" transform="translate(31.24 492.33) rotate(-68.13)"/><ellipse class="cls-2" cx="377.54" cy="222.22" rx="102.51" ry="45.72" transform="translate(30.7 489.83) rotate(-68.13)"/><ellipse class="cls-2" cx="376.13" cy="221.65" rx="102.51" ry="47.24" transform="translate(30.34 488.17) rotate(-68.13)"/><ellipse class="cls-2" cx="374.02" cy="220.81" rx="102.51" ry="49.52" transform="translate(29.8 485.68) rotate(-68.13)"/><ellipse class="cls-2" cx="372.61" cy="220.24" rx="102.51" ry="51.04" transform="translate(29.44 484.01) rotate(-68.13)"/><ellipse class="cls-2" cx="371.2" cy="219.68" rx="102.51" ry="52.56" transform="translate(29.08 482.35) rotate(-68.13)"/><ellipse class="cls-2" cx="369.79" cy="219.11" rx="102.51" ry="54.07" transform="translate(28.72 480.69) rotate(-68.13)"/><ellipse class="cls-2" cx="368.38" cy="218.54" rx="102.51" ry="55.59" transform="translate(28.36 479.03) rotate(-68.13)"/><ellipse class="cls-2" cx="367.67" cy="218.26" rx="102.51" ry="56.35" transform="translate(28.18 478.19) rotate(-68.13)"/><ellipse class="cls-2" cx="365.56" cy="217.41" rx="102.51" ry="58.63" transform="translate(27.64 475.7) rotate(-68.13)"/><ellipse class="cls-2" cx="364.15" cy="216.85" rx="102.51" ry="60.15" transform="translate(27.28 474.04) rotate(-68.13)"/><ellipse class="cls-2" cx="362.04" cy="216" rx="102.51" ry="62.43" transform="translate(26.74 471.54) rotate(-68.13)"/><ellipse class="cls-2" cx="360.63" cy="215.43" rx="102.51" ry="63.95" transform="translate(26.38 469.88) rotate(-68.13)"/><ellipse class="cls-2" cx="359.22" cy="214.87" rx="102.51" ry="65.46" transform="translate(26.02 468.22) rotate(-68.13)"/><ellipse class="cls-2" cx="357.1" cy="214.02" rx="102.51" ry="67.74" transform="translate(25.48 465.72) rotate(-68.13)"/><ellipse class="cls-2" cx="355.41" cy="214.16" rx="103.27" ry="69.26" transform="translate(24.29 464.24) rotate(-68.13)"/><ellipse class="cls-2" cx="351.32" cy="214.15" rx="104.79" ry="73.06" transform="translate(21.73 460.44) rotate(-68.13)"/><ellipse class="cls-2" cx="348.64" cy="214.71" rx="106.31" ry="75.34" transform="translate(19.53 458.31) rotate(-68.13)"/><ellipse class="cls-2" cx="345.96" cy="215.28" rx="107.82" ry="77.61" transform="translate(17.32 456.17) rotate(-68.13)"/><ellipse class="cls-2" cx="344.27" cy="215.41" rx="108.58" ry="79.13" transform="translate(16.13 454.69) rotate(-68.13)"/><ellipse class="cls-2" cx="343.99" cy="216.12" rx="109.34" ry="79.13" transform="translate(15.3 454.87) rotate(-68.13)"/><ellipse class="cls-2" cx="338.63" cy="217.24" rx="112.38" ry="83.69" transform="translate(10.9 450.6) rotate(-68.13)"/><ellipse class="cls-2" cx="337.78" cy="219.36" rx="114.66" ry="83.69" transform="translate(8.4 451.14) rotate(-68.13)"/><ellipse class="cls-2" cx="335.8" cy="220.2" rx="116.18" ry="85.21" transform="translate(6.38 449.83) rotate(-68.13)"/><ellipse class="cls-2" cx="334.82" cy="220.62" rx="116.94" ry="85.97" transform="translate(5.37 449.18) rotate(-68.13)"/><ellipse class="cls-2" cx="334.25" cy="222.03" rx="118.45" ry="85.97" transform="translate(3.71 449.54) rotate(-68.13)"/><ellipse class="cls-2" cx="333.12" cy="224.85" rx="121.49" ry="85.97" transform="translate(0.38 450.26) rotate(-68.13)"/><ellipse class="cls-2" cx="332.27" cy="226.96" rx="123.77" ry="85.97" transform="translate(-2.11 450.8) rotate(-68.13)"/><ellipse class="cls-2" cx="332.13" cy="229.36" rx="126.05" ry="85.21" transform="translate(-4.43 452.17) rotate(-68.13)"/><ellipse class="cls-2" cx="330.86" cy="230.49" rx="127.57" ry="85.97" transform="translate(-6.27 451.7) rotate(-68.13)"/><ellipse class="cls-2" cx="331" cy="232.18" rx="129.09" ry="85.21" transform="translate(-7.75 452.89) rotate(-68.13)"/><ellipse class="cls-2" cx="331.42" cy="233.17" rx="129.84" ry="84.45" transform="translate(-8.41 453.9) rotate(-68.13)"/><ellipse class="cls-2" cx="332.12" cy="233.45" rx="129.84" ry="83.69" transform="translate(-8.23 454.73) rotate(-68.13)"/><ellipse class="cls-2" cx="331.84" cy="238.24" rx="134.4" ry="82.17" transform="translate(-12.86 457.48) rotate(-68.13)"/><ellipse class="cls-2" cx="331.69" cy="240.64" rx="136.68" ry="81.41" transform="translate(-15.17 458.85) rotate(-68.13)"/><ellipse class="cls-2" cx="332.68" cy="244.31" rx="139.72" ry="79.13" transform="translate(-17.96 462.06) rotate(-68.13)"/><ellipse class="cls-2" cx="332.39" cy="245.01" rx="140.47" ry="79.13" transform="translate(-18.79 462.24) rotate(-68.13)"/><ellipse class="cls-2" cx="333.09" cy="249.38" rx="144.27" ry="76.85" transform="translate(-22.41 465.63) rotate(-68.13)"/><ellipse class="cls-2" cx="332.95" cy="251.78" rx="146.55" ry="76.09" transform="translate(-24.72 467) rotate(-68.13)"/><ellipse class="cls-2" cx="334.08" cy="253.05" rx="147.31" ry="74.58" transform="translate(-25.19 468.85) rotate(-68.13)"/><ellipse class="cls-2" cx="337.03" cy="259.96" rx="152.62" ry="69.26" transform="translate(-29.75 475.92) rotate(-68.13)"/><ellipse class="cls-2" cx="339.99" cy="262.79" rx="154.14" ry="65.46" transform="translate(-30.52 480.44) rotate(-68.13)"/><ellipse class="cls-2" cx="341.53" cy="265.04" rx="155.66" ry="63.19" transform="translate(-31.64 483.3) rotate(-68.13)"/><ellipse class="cls-2" cx="343.93" cy="269.28" rx="158.7" ry="59.39" transform="translate(-34.07 488.17) rotate(-68.13)"/><ellipse class="cls-2" cx="345.05" cy="270.55" rx="159.46" ry="57.87" transform="translate(-34.54 490.02) rotate(-68.13)"/><ellipse class="cls-2" cx="346.6" cy="272.81" rx="160.98" ry="55.59" transform="translate(-35.66 492.87) rotate(-68.13)"/><ellipse class="cls-2" cx="348.43" cy="274.36" rx="161.74" ry="53.32" transform="translate(-35.96 495.54) rotate(-68.13)"/><ellipse class="cls-2" cx="349.28" cy="276.33" rx="163.25" ry="51.8" transform="translate(-37.26 497.57) rotate(-68.13)"/><ellipse class="cls-2" cx="352.66" cy="280.14" rx="165.53" ry="47.24" transform="translate(-38.68 503.09) rotate(-68.13)"/><ellipse class="cls-2" cx="353.78" cy="281.41" rx="166.29" ry="45.72" transform="translate(-39.15 504.94) rotate(-68.13)"/><ellipse class="cls-2" cx="357.72" cy="287.91" rx="170.85" ry="39.65" transform="translate(-42.7 512.67) rotate(-68.13)"/><ellipse class="cls-2" cx="359.98" cy="290.45" rx="172.37" ry="36.61" transform="translate(-43.64 516.35) rotate(-68.13)"/><ellipse class="cls-2" cx="364.62" cy="297.22" rx="176.92" ry="29.78" transform="translate(-47.01 524.91) rotate(-68.13)"/><ellipse class="cls-2" cx="368.56" cy="303.71" rx="181.48" ry="23.7" transform="translate(-50.56 532.65) rotate(-68.13)"/><ellipse class="cls-2" cx="370.82" cy="306.25" rx="183" ry="20.66" transform="translate(-51.51 536.33) rotate(-68.13)"/><ellipse class="cls-2" cx="375.88" cy="314.01" rx="188.31" ry="13.07" transform="translate(-55.53 545.9) rotate(-68.13)"/><ellipse class="cls-2" cx="378.7" cy="315.14" rx="188.31" ry="10.03" transform="translate(-54.81 549.23) rotate(-68.13)"/><ellipse class="cls-2" cx="384.34" cy="317.41" rx="188.31" ry="3.96" transform="translate(-53.37 555.88) rotate(-68.13)"/><ellipse class="cls-2" cx="389.41" cy="325.17" rx="193.63" ry="3.63" transform="matrix(0.37, -0.93, 0.93, 0.37, -57.39, 565.45)"/><ellipse class="cls-2" cx="390.53" cy="326.44" rx="194.39" ry="5.15" transform="translate(-57.87 567.3) rotate(-68.13)"/><ellipse class="cls-2" cx="395.61" cy="330.11" rx="195.91" ry="11.23" transform="translate(-58.09 574.31) rotate(-68.13)"/><ellipse class="cls-2" cx="398.43" cy="331.24" rx="195.91" ry="14.26" transform="translate(-57.37 577.63) rotate(-68.13)"/><ellipse class="cls-2" cx="406.18" cy="334.35" rx="195.91" ry="22.62" transform="translate(-55.39 586.78) rotate(-68.13)"/><ellipse class="cls-2" cx="409.7" cy="335.76" rx="195.91" ry="26.41" transform="translate(-54.5 590.94) rotate(-68.13)"/><ellipse class="cls-2" cx="419.14" cy="338.74" rx="195.15" ry="36.29" transform="translate(-51.33 601.57) rotate(-68.13)"/><ellipse class="cls-2" cx="424.93" cy="338.6" rx="192.87" ry="41.6" transform="translate(-47.57 606.85) rotate(-68.13)"/><ellipse class="cls-2" cx="426.62" cy="338.46" rx="192.11" ry="43.12" transform="translate(-46.38 608.33) rotate(-68.13)"/><ellipse class="cls-2" cx="430.85" cy="336.07" rx="188.31" ry="46.16" transform="translate(-41.51 610.76) rotate(-68.13)"/><ellipse class="cls-2" cx="432.26" cy="336.64" rx="188.31" ry="47.67" transform="translate(-41.15 612.42) rotate(-68.13)"/><ellipse class="cls-2" cx="432.96" cy="336.92" rx="188.31" ry="48.43" transform="translate(-40.97 613.25) rotate(-68.13)"/><ellipse class="cls-2" cx="437.19" cy="338.62" rx="188.31" ry="52.99" transform="translate(-39.89 618.24) rotate(-68.13)"/><ellipse class="cls-2" cx="440.72" cy="340.03" rx="188.31" ry="56.79" transform="translate(-38.99 622.4) rotate(-68.13)"/><ellipse class="cls-2" cx="446.35" cy="342.29" rx="188.31" ry="62.86" transform="translate(-37.55 629.05) rotate(-68.13)"/><ellipse class="cls-2" cx="448.47" cy="343.14" rx="188.31" ry="65.14" transform="translate(-37.01 631.55) rotate(-68.13)"/><ellipse class="cls-2" cx="451.7" cy="349.35" rx="192.87" ry="70.45" transform="translate(-40.74 638.44) rotate(-68.13)"/><ellipse class="cls-2" cx="454.1" cy="353.58" rx="195.91" ry="74.25" transform="translate(-43.17 643.32) rotate(-68.13)"/><ellipse class="cls-2" cx="454.52" cy="354.57" rx="196.66" ry="75.01" transform="translate(-43.82 644.33) rotate(-68.13)"/><ellipse class="cls-2" cx="454.94" cy="359.64" rx="201.22" ry="77.29" transform="translate(-48.27 647.91) rotate(-68.13)"/><ellipse class="cls-2" cx="454.51" cy="362.75" rx="204.26" ry="78.05" transform="translate(-51.42 649.46) rotate(-68.13)"/><ellipse class="cls-2" cx="454.93" cy="363.73" rx="205.02" ry="78.81" transform="translate(-52.07 650.47) rotate(-68.13)"/><ellipse class="cls-2" cx="453.8" cy="366.55" rx="208.05" ry="78.81" transform="translate(-55.39 651.19) rotate(-68.13)"/><ellipse class="cls-2" cx="454.22" cy="367.54" rx="208.81" ry="79.57" transform="translate(-56.05 652.2) rotate(-68.13)"/><ellipse class="cls-2" cx="453.66" cy="368.95" rx="210.33" ry="79.57" transform="translate(-57.71 652.56) rotate(-68.13)"/><ellipse class="cls-2" cx="451.99" cy="373.1" rx="214.81" ry="79.57" transform="translate(-62.61 653.62) rotate(-68.13)"/><ellipse class="cls-2" cx="451.99" cy="373.1" rx="214.81" ry="79.57" transform="translate(-62.61 653.62) rotate(-68.13)"/><ellipse class="cls-2" cx="451.99" cy="373.1" rx="214.81" ry="79.57" transform="translate(-62.61 653.62) rotate(-68.13)"/><ellipse class="cls-2" cx="451.99" cy="373.1" rx="214.81" ry="79.57" transform="translate(-62.61 653.62) rotate(-68.13)"/><ellipse class="cls-2" cx="451.99" cy="373.1" rx="214.81" ry="79.57" transform="translate(-62.61 653.62) rotate(-68.13)"/><ellipse class="cls-2" cx="451.28" cy="372.82" rx="214.81" ry="78.81" transform="translate(-62.79 652.79) rotate(-68.13)"/></g><path class="cls-3" d="M85.43,131.46V149.7H78.65V104.78h7.68a34.65,34.65,0,0,1,8.53.79,11.44,11.44,0,0,1,5.12,3,12.79,12.79,0,0,1,3.87,9.54,12.32,12.32,0,0,1-4.13,9.78q-4.13,3.61-11.14,3.61Zm0-6.29H88q9.34,0,9.34-7.19,0-7-9.63-7H85.43Z"/><path class="cls-4" d="M127.77,462.9a22,22,0,0,1,7-16.29,22.89,22.89,0,0,1,16.64-6.81,23.5,23.5,0,0,1,23.37,23.37,22.09,22.09,0,0,1-6.93,16.44,23.74,23.74,0,0,1-32.41.76Q127.77,473.7,127.77,462.9Zm6.84.07A16.65,16.65,0,0,0,163,475.13a17.41,17.41,0,0,0,.06-24.07,16.76,16.76,0,0,0-23.66,0A16.19,16.19,0,0,0,134.6,463Z"/><path class="cls-5" d="M251,186.4l13.91,19.15h-8.29l-12.83-18.39h-1.22v18.39h-6.78V160.61h7.94q8.9,0,12.86,3.35A12.29,12.29,0,0,1,261,173.8a12.77,12.77,0,0,1-2.74,8.21A12.19,12.19,0,0,1,251,186.4Zm-8.44-5.15h2.15q9.63,0,9.63-7.36,0-6.9-9.37-6.9h-2.42Z"/><path class="cls-6" d="M330.81,222.82v38.55H324V222.82H313.71v-6.37h27.41v6.37Z"/><path class="cls-3" d="M412.34,278.66H396.68v10.8h15.1v6.37h-15.1v21.39H389.9V272.29h22.43Z"/><path class="cls-4" d="M463,87.31a22,22,0,0,1,7-16.29,22.89,22.89,0,0,1,16.64-6.81,23.5,23.5,0,0,1,23.37,23.37A22.09,22.09,0,0,1,503,104a23.74,23.74,0,0,1-32.41.76Q463,98.1,463,87.31Zm6.84.07a16.65,16.65,0,0,0,28.43,12.15,17.41,17.41,0,0,0,.06-24.07,16.76,16.76,0,0,0-23.66,0A16.19,16.19,0,0,0,469.8,87.38Z"/><path class="cls-4" d="M563.66,328.13v38.55h13.21v6.37h-20V328.13Z"/><path class="cls-6" d="M632.43,384v44.93h-6.78V384Z"/><path class="cls-3" d="M674.38,509.62a22,22,0,0,1,7-16.29A22.89,22.89,0,0,1,698,486.51a23.5,23.5,0,0,1,23.37,23.37,22.09,22.09,0,0,1-6.93,16.44,23.74,23.74,0,0,1-32.41.76Q674.38,520.41,674.38,509.62Zm6.84.07a16.65,16.65,0,0,0,28.43,12.15,17.41,17.41,0,0,0,.06-24.07,16.76,16.76,0,0,0-23.66,0A16.19,16.19,0,0,0,681.22,509.69Z"/><rect class="cls-7" x="194.23" y="89.81" width="411.54" height="411.54"/></g></svg>